<?xml version="1.0" encoding="utf-8" standalone="no"?>
<!DOCTYPE svg PUBLIC "-//W3C//DTD SVG 1.1//EN"
  "http://www.w3.org/Graphics/SVG/1.1/DTD/svg11.dtd">
<svg xmlns:xlink="http://www.w3.org/1999/xlink" width="824.4pt" height="460.8pt" viewBox="0 0 824.4 460.8" xmlns="http://www.w3.org/2000/svg" version="1.1">
 <metadata>
  <rdf:RDF xmlns:dc="http://purl.org/dc/elements/1.1/" xmlns:cc="http://creativecommons.org/ns#" xmlns:rdf="http://www.w3.org/1999/02/22-rdf-syntax-ns#">
   <cc:Work>
    <dc:type rdf:resource="http://purl.org/dc/dcmitype/StillImage"/>
    <dc:date>2024-06-18T14:12:56.342690</dc:date>
    <dc:format>image/svg+xml</dc:format>
    <dc:creator>
     <cc:Agent>
      <dc:title>Matplotlib v3.9.0, https://matplotlib.org/</dc:title>
     </cc:Agent>
    </dc:creator>
   </cc:Work>
  </rdf:RDF>
 </metadata>
 <defs>
  <style type="text/css">*{stroke-linejoin: round; stroke-linecap: butt}</style>
 </defs>
 <g id="figure_1">
  <g id="patch_1">
   <path d="M 0 460.8 
L 824.4 460.8 
L 824.4 0 
L 0 0 
z
" style="fill: #ffffff"/>
  </g>
  <g id="axes_1">
   <g id="patch_2">
    <path d="M 49.464 115.2 
L 692.496 115.2 
L 692.496 4.608 
L 49.464 4.608 
z
" style="fill: #ffffff"/>
   </g>
   <g id="matplotlib.axis_1">
    <g id="xtick_1">
     <g id="line2d_1">
      <defs>
       <path id="ma7f3e73287" d="M 0 0 
L 0 3.5 
" style="stroke: #000000; stroke-width: 0.8"/>
      </defs>
      <g>
       <use xlink:href="#ma7f3e73287" x="53.276443" y="115.2" style="stroke: #000000; stroke-width: 0.8"/>
      </g>
     </g>
     <g id="text_1">
      <!-- 0 -->
      <g transform="translate(50.495974 129.357812) scale(0.1 -0.1)">
       <defs>
        <path id="ArialMT-30" d="M 266 2259 
Q 266 3072 433 3567 
Q 600 4063 929 4331 
Q 1259 4600 1759 4600 
Q 2128 4600 2406 4451 
Q 2684 4303 2865 4023 
Q 3047 3744 3150 3342 
Q 3253 2941 3253 2259 
Q 3253 1453 3087 958 
Q 2922 463 2592 192 
Q 2263 -78 1759 -78 
Q 1097 -78 719 397 
Q 266 969 266 2259 
z
M 844 2259 
Q 844 1131 1108 757 
Q 1372 384 1759 384 
Q 2147 384 2411 759 
Q 2675 1134 2675 2259 
Q 2675 3391 2411 3762 
Q 2147 4134 1753 4134 
Q 1366 4134 1134 3806 
Q 844 3388 844 2259 
z
" transform="scale(0.015625)"/>
       </defs>
       <use xlink:href="#ArialMT-30"/>
      </g>
     </g>
    </g>
    <g id="xtick_2">
     <g id="line2d_2">
      <g>
       <use xlink:href="#ma7f3e73287" x="180.357866" y="115.2" style="stroke: #000000; stroke-width: 0.8"/>
      </g>
     </g>
     <g id="text_2">
      <!-- 5 -->
      <g transform="translate(177.577397 129.357812) scale(0.1 -0.1)">
       <defs>
        <path id="ArialMT-35" d="M 266 1200 
L 856 1250 
Q 922 819 1161 601 
Q 1400 384 1738 384 
Q 2144 384 2425 690 
Q 2706 997 2706 1503 
Q 2706 1984 2436 2262 
Q 2166 2541 1728 2541 
Q 1456 2541 1237 2417 
Q 1019 2294 894 2097 
L 366 2166 
L 809 4519 
L 3088 4519 
L 3088 3981 
L 1259 3981 
L 1013 2750 
Q 1425 3038 1878 3038 
Q 2478 3038 2890 2622 
Q 3303 2206 3303 1553 
Q 3303 931 2941 478 
Q 2500 -78 1738 -78 
Q 1113 -78 717 272 
Q 322 622 266 1200 
z
" transform="scale(0.015625)"/>
       </defs>
       <use xlink:href="#ArialMT-35"/>
      </g>
     </g>
    </g>
    <g id="xtick_3">
     <g id="line2d_3">
      <g>
       <use xlink:href="#ma7f3e73287" x="307.439289" y="115.2" style="stroke: #000000; stroke-width: 0.8"/>
      </g>
     </g>
     <g id="text_3">
      <!-- 10 -->
      <g transform="translate(301.878351 129.357812) scale(0.1 -0.1)">
       <defs>
        <path id="ArialMT-31" d="M 2384 0 
L 1822 0 
L 1822 3584 
Q 1619 3391 1289 3197 
Q 959 3003 697 2906 
L 697 3450 
Q 1169 3672 1522 3987 
Q 1875 4303 2022 4600 
L 2384 4600 
L 2384 0 
z
" transform="scale(0.015625)"/>
       </defs>
       <use xlink:href="#ArialMT-31"/>
       <use xlink:href="#ArialMT-30" x="55.615234"/>
      </g>
     </g>
    </g>
    <g id="xtick_4">
     <g id="line2d_4">
      <g>
       <use xlink:href="#ma7f3e73287" x="434.520711" y="115.2" style="stroke: #000000; stroke-width: 0.8"/>
      </g>
     </g>
     <g id="text_4">
      <!-- 15 -->
      <g transform="translate(428.959774 129.357812) scale(0.1 -0.1)">
       <use xlink:href="#ArialMT-31"/>
       <use xlink:href="#ArialMT-35" x="55.615234"/>
      </g>
     </g>
    </g>
    <g id="xtick_5">
     <g id="line2d_5">
      <g>
       <use xlink:href="#ma7f3e73287" x="561.602134" y="115.2" style="stroke: #000000; stroke-width: 0.8"/>
      </g>
     </g>
     <g id="text_5">
      <!-- 20 -->
      <g transform="translate(556.041197 129.357812) scale(0.1 -0.1)">
       <defs>
        <path id="ArialMT-32" d="M 3222 541 
L 3222 0 
L 194 0 
Q 188 203 259 391 
Q 375 700 629 1000 
Q 884 1300 1366 1694 
Q 2113 2306 2375 2664 
Q 2638 3022 2638 3341 
Q 2638 3675 2398 3904 
Q 2159 4134 1775 4134 
Q 1369 4134 1125 3890 
Q 881 3647 878 3216 
L 300 3275 
Q 359 3922 746 4261 
Q 1134 4600 1788 4600 
Q 2447 4600 2831 4234 
Q 3216 3869 3216 3328 
Q 3216 3053 3103 2787 
Q 2991 2522 2730 2228 
Q 2469 1934 1863 1422 
Q 1356 997 1212 845 
Q 1069 694 975 541 
L 3222 541 
z
" transform="scale(0.015625)"/>
       </defs>
       <use xlink:href="#ArialMT-32"/>
       <use xlink:href="#ArialMT-30" x="55.615234"/>
      </g>
     </g>
    </g>
    <g id="xtick_6">
     <g id="line2d_6">
      <g>
       <use xlink:href="#ma7f3e73287" x="688.683557" y="115.2" style="stroke: #000000; stroke-width: 0.8"/>
      </g>
     </g>
     <g id="text_6">
      <!-- 25 -->
      <g transform="translate(683.12262 129.357812) scale(0.1 -0.1)">
       <use xlink:href="#ArialMT-32"/>
       <use xlink:href="#ArialMT-35" x="55.615234"/>
      </g>
     </g>
    </g>
   </g>
   <g id="matplotlib.axis_2">
    <g id="ytick_1">
     <g id="line2d_7">
      <defs>
       <path id="md722349be4" d="M 0 0 
L -3.5 0 
" style="stroke: #000000; stroke-width: 0.8"/>
      </defs>
      <g>
       <use xlink:href="#md722349be4" x="49.464" y="84.171837" style="stroke: #000000; stroke-width: 0.8"/>
      </g>
     </g>
     <g id="text_7">
      <!-- 40 -->
      <g transform="translate(31.342125 87.750743) scale(0.1 -0.1)">
       <defs>
        <path id="ArialMT-34" d="M 2069 0 
L 2069 1097 
L 81 1097 
L 81 1613 
L 2172 4581 
L 2631 4581 
L 2631 1613 
L 3250 1613 
L 3250 1097 
L 2631 1097 
L 2631 0 
L 2069 0 
z
M 2069 1613 
L 2069 3678 
L 634 1613 
L 2069 1613 
z
" transform="scale(0.015625)"/>
       </defs>
       <use xlink:href="#ArialMT-34"/>
       <use xlink:href="#ArialMT-30" x="55.615234"/>
      </g>
     </g>
    </g>
    <g id="ytick_2">
     <g id="line2d_8">
      <g>
       <use xlink:href="#md722349be4" x="49.464" y="49.503498" style="stroke: #000000; stroke-width: 0.8"/>
      </g>
     </g>
     <g id="text_8">
      <!-- 60 -->
      <g transform="translate(31.342125 53.082405) scale(0.1 -0.1)">
       <defs>
        <path id="ArialMT-36" d="M 3184 3459 
L 2625 3416 
Q 2550 3747 2413 3897 
Q 2184 4138 1850 4138 
Q 1581 4138 1378 3988 
Q 1113 3794 959 3422 
Q 806 3050 800 2363 
Q 1003 2672 1297 2822 
Q 1591 2972 1913 2972 
Q 2475 2972 2870 2558 
Q 3266 2144 3266 1488 
Q 3266 1056 3080 686 
Q 2894 316 2569 119 
Q 2244 -78 1831 -78 
Q 1128 -78 684 439 
Q 241 956 241 2144 
Q 241 3472 731 4075 
Q 1159 4600 1884 4600 
Q 2425 4600 2770 4297 
Q 3116 3994 3184 3459 
z
M 888 1484 
Q 888 1194 1011 928 
Q 1134 663 1356 523 
Q 1578 384 1822 384 
Q 2178 384 2434 671 
Q 2691 959 2691 1453 
Q 2691 1928 2437 2201 
Q 2184 2475 1800 2475 
Q 1419 2475 1153 2201 
Q 888 1928 888 1484 
z
" transform="scale(0.015625)"/>
       </defs>
       <use xlink:href="#ArialMT-36"/>
       <use xlink:href="#ArialMT-30" x="55.615234"/>
      </g>
     </g>
    </g>
    <g id="ytick_3">
     <g id="line2d_9">
      <g>
       <use xlink:href="#md722349be4" x="49.464" y="14.83516" style="stroke: #000000; stroke-width: 0.8"/>
      </g>
     </g>
     <g id="text_9">
      <!-- 80 -->
      <g transform="translate(31.342125 18.414066) scale(0.1 -0.1)">
       <defs>
        <path id="ArialMT-38" d="M 1131 2484 
Q 781 2613 612 2850 
Q 444 3088 444 3419 
Q 444 3919 803 4259 
Q 1163 4600 1759 4600 
Q 2359 4600 2725 4251 
Q 3091 3903 3091 3403 
Q 3091 3084 2923 2848 
Q 2756 2613 2416 2484 
Q 2838 2347 3058 2040 
Q 3278 1734 3278 1309 
Q 3278 722 2862 322 
Q 2447 -78 1769 -78 
Q 1091 -78 675 323 
Q 259 725 259 1325 
Q 259 1772 486 2073 
Q 713 2375 1131 2484 
z
M 1019 3438 
Q 1019 3113 1228 2906 
Q 1438 2700 1772 2700 
Q 2097 2700 2305 2904 
Q 2513 3109 2513 3406 
Q 2513 3716 2298 3927 
Q 2084 4138 1766 4138 
Q 1444 4138 1231 3931 
Q 1019 3725 1019 3438 
z
M 838 1322 
Q 838 1081 952 856 
Q 1066 631 1291 507 
Q 1516 384 1775 384 
Q 2178 384 2440 643 
Q 2703 903 2703 1303 
Q 2703 1709 2433 1975 
Q 2163 2241 1756 2241 
Q 1359 2241 1098 1978 
Q 838 1716 838 1322 
z
" transform="scale(0.015625)"/>
       </defs>
       <use xlink:href="#ArialMT-38"/>
       <use xlink:href="#ArialMT-30" x="55.615234"/>
      </g>
     </g>
    </g>
    <g id="text_10">
     <!-- $^{\circ}C$ -->
     <g transform="translate(13.395804 65.804) rotate(-90) scale(0.1 -0.1)">
      <defs>
       <path id="DejaVuSans-2218" d="M 2000 2619 
Q 1750 2619 1578 2445 
Q 1406 2272 1406 2022 
Q 1406 1775 1578 1605 
Q 1750 1435 2000 1435 
Q 2250 1435 2422 1605 
Q 2594 1775 2594 2022 
Q 2594 2269 2420 2444 
Q 2247 2619 2000 2619 
z
M 2000 3022 
Q 2200 3022 2384 2945 
Q 2569 2869 2703 2725 
Q 2847 2585 2919 2406 
Q 2991 2228 2991 2022 
Q 2991 1610 2702 1324 
Q 2413 1038 1994 1038 
Q 1572 1038 1290 1319 
Q 1009 1600 1009 2022 
Q 1009 2441 1296 2731 
Q 1584 3022 2000 3022 
z
" transform="scale(0.015625)"/>
       <path id="DejaVuSans-Oblique-43" d="M 4447 4306 
L 4319 3641 
Q 4019 3944 3683 4091 
Q 3347 4238 2956 4238 
Q 2422 4238 2017 3981 
Q 1613 3725 1319 3200 
Q 1131 2863 1032 2486 
Q 934 2109 934 1728 
Q 934 1091 1264 756 
Q 1594 422 2222 422 
Q 2656 422 3056 561 
Q 3456 700 3834 978 
L 3688 231 
Q 3316 72 2936 -9 
Q 2556 -91 2175 -91 
Q 1278 -91 773 396 
Q 269 884 269 1753 
Q 269 2309 461 2846 
Q 653 3384 1013 3828 
Q 1394 4300 1883 4525 
Q 2372 4750 3022 4750 
Q 3422 4750 3780 4639 
Q 4138 4528 4447 4306 
z
" transform="scale(0.015625)"/>
      </defs>
      <use xlink:href="#DejaVuSans-2218" transform="translate(0.957031 39.0625) scale(0.7)"/>
      <use xlink:href="#DejaVuSans-Oblique-43" transform="translate(47.509766 0.78125)"/>
     </g>
    </g>
   </g>
   <g id="line2d_10">
    <path d="M 78.692727 84.171837 
L 104.109012 84.171837 
L 104.109012 110.173091 
L 129.525296 110.173091 
L 129.525296 110.173091 
L 154.941581 110.173091 
L 154.941581 110.173091 
L 180.357866 110.173091 
L 180.357866 110.173091 
L 205.77415 110.173091 
L 205.77415 49.67684 
L 231.190435 49.67684 
L 231.190435 9.634909 
L 256.606719 9.634909 
L 256.606719 110.173091 
L 282.023004 110.173091 
L 282.023004 110.173091 
L 307.439289 110.173091 
L 307.439289 110.173091 
L 332.855573 110.173091 
L 332.855573 110.173091 
L 358.271858 110.173091 
L 358.271858 109.826408 
L 383.688142 109.826408 
L 383.688142 110.173091 
L 409.104427 110.173091 
L 409.104427 17.088602 
L 434.520711 17.088602 
L 434.520711 110.173091 
L 459.936996 110.173091 
L 459.936996 110.173091 
L 485.353281 110.173091 
L 485.353281 110.173091 
L 510.769565 110.173091 
L 510.769565 109.999749 
L 536.18585 109.999749 
L 536.18585 84.171837 
L 561.602134 84.171837 
L 561.602134 110.173091 
L 587.018419 110.173091 
L 587.018419 84.171837 
L 612.434704 84.171837 
L 612.434704 84.171837 
L 637.850988 84.171837 
L 637.850988 84.171837 
L 663.267273 84.171837 
L 663.267273 84.171837 
" clip-path="url(#pf25e2c5775)" style="fill: none; stroke-dasharray: 3.7,1.6; stroke-dashoffset: 0; stroke: #ff0000"/>
   </g>
   <g id="line2d_11">
    <path d="M 78.692727 110.173091 
L 104.109012 110.173091 
L 104.109012 110.173091 
L 129.525296 110.173091 
L 129.525296 110.173091 
L 154.941581 110.173091 
L 154.941581 110.173091 
L 180.357866 110.173091 
L 180.357866 110.173091 
L 205.77415 110.173091 
L 205.77415 89.198746 
L 231.190435 89.198746 
L 231.190435 59.037292 
L 256.606719 59.037292 
L 256.606719 84.345179 
L 282.023004 84.345179 
L 282.023004 84.345179 
L 307.439289 84.345179 
L 307.439289 84.171837 
L 332.855573 84.171837 
L 332.855573 84.171837 
L 358.271858 84.171837 
L 358.271858 85.038545 
L 383.688142 85.038545 
L 383.688142 52.276966 
L 409.104427 52.276966 
L 409.104427 14.661818 
L 434.520711 14.661818 
L 434.520711 22.288853 
L 459.936996 22.288853 
L 459.936996 11.715009 
L 485.353281 11.715009 
L 485.353281 26.275712 
L 510.769565 26.275712 
L 510.769565 28.355812 
L 536.18585 28.355812 
L 536.18585 110.173091 
L 561.602134 110.173091 
L 561.602134 110.173091 
L 587.018419 110.173091 
L 587.018419 110.173091 
L 612.434704 110.173091 
L 612.434704 110.173091 
L 637.850988 110.173091 
L 637.850988 110.173091 
L 663.267273 110.173091 
L 663.267273 110.173091 
" clip-path="url(#pf25e2c5775)" style="fill: none; stroke-dasharray: 3.7,1.6; stroke-dashoffset: 0; stroke: #ffa500"/>
   </g>
   <g id="line2d_12">
    <path d="M 78.692727 79.537363 
L 104.109012 79.537363 
L 104.109012 10.64512 
L 129.525296 10.64512 
L 129.525296 10.041077 
L 154.941581 10.041077 
L 154.941581 9.634909 
L 180.357866 9.634909 
L 180.357866 9.780713 
L 205.77415 9.780713 
L 205.77415 10.020247 
L 231.190435 10.020247 
L 231.190435 9.936931 
L 256.606719 9.936931 
L 256.606719 58.23961 
L 282.023004 58.23961 
L 282.023004 73.559411 
L 307.439289 73.559411 
L 307.439289 61.030709 
L 332.855573 61.030709 
L 332.855573 60.30169 
L 358.271858 60.30169 
L 358.271858 59.676818 
L 383.688142 59.676818 
L 383.688142 58.739508 
L 409.104427 58.739508 
L 409.104427 60.07257 
L 434.520711 60.07257 
L 434.520711 74.580037 
L 459.936996 74.580037 
L 459.936996 78.45425 
L 485.353281 78.45425 
L 485.353281 81.474469 
L 510.769565 81.474469 
L 510.769565 82.890847 
L 536.18585 82.890847 
L 536.18585 83.390746 
L 561.602134 83.390746 
L 561.602134 82.880433 
L 587.018419 82.880433 
L 587.018419 83.015822 
L 612.434704 83.015822 
L 612.434704 81.359909 
L 637.850988 81.359909 
L 637.850988 84.171837 
L 663.267273 84.171837 
L 663.267273 80.17265 
" clip-path="url(#pf25e2c5775)" style="fill: none; stroke-dasharray: 3.7,1.6; stroke-dashoffset: 0; stroke: #008000"/>
   </g>
   <g id="patch_3">
    <path d="M 49.464 115.2 
L 49.464 4.608 
" style="fill: none; stroke: #000000; stroke-width: 0.8; stroke-linejoin: miter; stroke-linecap: square"/>
   </g>
   <g id="patch_4">
    <path d="M 692.496 115.2 
L 692.496 4.608 
" style="fill: none; stroke: #000000; stroke-width: 0.8; stroke-linejoin: miter; stroke-linecap: square"/>
   </g>
   <g id="patch_5">
    <path d="M 49.464 115.2 
L 692.496 115.2 
" style="fill: none; stroke: #000000; stroke-width: 0.8; stroke-linejoin: miter; stroke-linecap: square"/>
   </g>
   <g id="patch_6">
    <path d="M 49.464 4.608 
L 692.496 4.608 
" style="fill: none; stroke: #000000; stroke-width: 0.8; stroke-linejoin: miter; stroke-linecap: square"/>
   </g>
   <g id="legend_1">
    <g id="line2d_13">
     <path d="M 701.496 43.9665 
L 711.496 43.9665 
L 711.496 43.9665 
L 721.496 43.9665 
L 721.496 43.9665 
" style="fill: none; stroke-dasharray: 3.7,1.6; stroke-dashoffset: 0; stroke: #ff0000"/>
    </g>
    <g id="text_11">
     <!-- $T^{set}, WH-MILP$ -->
     <g transform="translate(729.496 47.4665) scale(0.1 -0.1)">
      <defs>
       <path id="DejaVuSans-Oblique-54" d="M 378 4666 
L 4325 4666 
L 4225 4134 
L 2559 4134 
L 1759 0 
L 1125 0 
L 1925 4134 
L 275 4134 
L 378 4666 
z
" transform="scale(0.015625)"/>
       <path id="DejaVuSans-Oblique-73" d="M 3200 3397 
L 3091 2853 
Q 2863 2978 2609 3040 
Q 2356 3103 2088 3103 
Q 1634 3103 1373 2948 
Q 1113 2794 1113 2528 
Q 1113 2219 1719 2053 
Q 1766 2041 1788 2034 
L 1972 1978 
Q 2547 1819 2739 1644 
Q 2931 1469 2931 1166 
Q 2931 609 2489 259 
Q 2047 -91 1331 -91 
Q 1053 -91 747 -37 
Q 441 16 72 128 
L 184 722 
Q 500 559 806 475 
Q 1113 391 1394 391 
Q 1816 391 2080 572 
Q 2344 753 2344 1031 
Q 2344 1331 1650 1516 
L 1591 1531 
L 1394 1581 
Q 956 1697 753 1886 
Q 550 2075 550 2369 
Q 550 2928 970 3256 
Q 1391 3584 2113 3584 
Q 2397 3584 2667 3537 
Q 2938 3491 3200 3397 
z
" transform="scale(0.015625)"/>
       <path id="DejaVuSans-Oblique-65" d="M 3078 2063 
Q 3088 2113 3092 2166 
Q 3097 2219 3097 2272 
Q 3097 2653 2873 2875 
Q 2650 3097 2266 3097 
Q 1838 3097 1509 2826 
Q 1181 2556 1013 2059 
L 3078 2063 
z
M 3578 1613 
L 903 1613 
Q 884 1494 878 1425 
Q 872 1356 872 1306 
Q 872 872 1139 634 
Q 1406 397 1894 397 
Q 2269 397 2603 481 
Q 2938 566 3225 728 
L 3116 159 
Q 2806 34 2476 -28 
Q 2147 -91 1806 -91 
Q 1078 -91 686 257 
Q 294 606 294 1247 
Q 294 1794 489 2264 
Q 684 2734 1063 3103 
Q 1306 3334 1642 3459 
Q 1978 3584 2356 3584 
Q 2950 3584 3301 3228 
Q 3653 2872 3653 2272 
Q 3653 2128 3634 1964 
Q 3616 1800 3578 1613 
z
" transform="scale(0.015625)"/>
       <path id="DejaVuSans-Oblique-74" d="M 2706 3500 
L 2619 3053 
L 1472 3053 
L 1100 1153 
Q 1081 1047 1072 975 
Q 1063 903 1063 863 
Q 1063 663 1183 572 
Q 1303 481 1569 481 
L 2150 481 
L 2053 0 
L 1503 0 
Q 991 0 739 200 
Q 488 400 488 806 
Q 488 878 497 964 
Q 506 1050 525 1153 
L 897 3053 
L 409 3053 
L 500 3500 
L 978 3500 
L 1172 4494 
L 1747 4494 
L 1556 3500 
L 2706 3500 
z
" transform="scale(0.015625)"/>
       <path id="DejaVuSans-2c" d="M 750 794 
L 1409 794 
L 1409 256 
L 897 -744 
L 494 -744 
L 750 256 
L 750 794 
z
" transform="scale(0.015625)"/>
       <path id="DejaVuSans-Oblique-57" d="M 616 4666 
L 1228 4666 
L 1453 697 
L 3213 4666 
L 3916 4666 
L 4147 697 
L 5888 4666 
L 6528 4666 
L 4453 0 
L 3659 0 
L 3444 3891 
L 1697 0 
L 903 0 
L 616 4666 
z
" transform="scale(0.015625)"/>
       <path id="DejaVuSans-Oblique-48" d="M 1081 4666 
L 1716 4666 
L 1344 2753 
L 3634 2753 
L 4006 4666 
L 4641 4666 
L 3731 0 
L 3097 0 
L 3531 2222 
L 1241 2222 
L 806 0 
L 172 0 
L 1081 4666 
z
" transform="scale(0.015625)"/>
       <path id="DejaVuSans-2212" d="M 678 2272 
L 4684 2272 
L 4684 1741 
L 678 1741 
L 678 2272 
z
" transform="scale(0.015625)"/>
       <path id="DejaVuSans-Oblique-4d" d="M 1081 4666 
L 2028 4666 
L 2572 1522 
L 4378 4666 
L 5350 4666 
L 4441 0 
L 3828 0 
L 4622 4091 
L 2791 897 
L 2175 897 
L 1581 4103 
L 788 0 
L 172 0 
L 1081 4666 
z
" transform="scale(0.015625)"/>
       <path id="DejaVuSans-Oblique-49" d="M 1081 4666 
L 1716 4666 
L 806 0 
L 172 0 
L 1081 4666 
z
" transform="scale(0.015625)"/>
       <path id="DejaVuSans-Oblique-4c" d="M 1075 4666 
L 1709 4666 
L 909 525 
L 3181 525 
L 3078 0 
L 172 0 
L 1075 4666 
z
" transform="scale(0.015625)"/>
       <path id="DejaVuSans-Oblique-50" d="M 1081 4666 
L 2541 4666 
Q 3178 4666 3512 4369 
Q 3847 4072 3847 3500 
Q 3847 2731 3353 2303 
Q 2859 1875 1966 1875 
L 1172 1875 
L 806 0 
L 172 0 
L 1081 4666 
z
M 1613 4147 
L 1275 2394 
L 2069 2394 
Q 2606 2394 2893 2669 
Q 3181 2944 3181 3456 
Q 3181 3784 2986 3965 
Q 2791 4147 2438 4147 
L 1613 4147 
z
" transform="scale(0.015625)"/>
      </defs>
      <use xlink:href="#DejaVuSans-Oblique-54" transform="translate(0 0.565625)"/>
      <use xlink:href="#DejaVuSans-Oblique-73" transform="translate(68.100755 38.846875) scale(0.7)"/>
      <use xlink:href="#DejaVuSans-Oblique-65" transform="translate(104.570482 38.846875) scale(0.7)"/>
      <use xlink:href="#DejaVuSans-Oblique-74" transform="translate(147.636888 38.846875) scale(0.7)"/>
      <use xlink:href="#DejaVuSans-2c" transform="translate(177.817552 0.565625)"/>
      <use xlink:href="#DejaVuSans-Oblique-57" transform="translate(229.087083 0.565625)"/>
      <use xlink:href="#DejaVuSans-Oblique-48" transform="translate(327.964036 0.565625)"/>
      <use xlink:href="#DejaVuSans-2212" transform="translate(422.641771 0.565625)"/>
      <use xlink:href="#DejaVuSans-Oblique-4d" transform="translate(525.913255 0.565625)"/>
      <use xlink:href="#DejaVuSans-Oblique-49" transform="translate(612.192552 0.565625)"/>
      <use xlink:href="#DejaVuSans-Oblique-4c" transform="translate(641.68474 0.565625)"/>
      <use xlink:href="#DejaVuSans-Oblique-50" transform="translate(697.39763 0.565625)"/>
     </g>
    </g>
    <g id="line2d_14">
     <path d="M 701.496 58.9665 
L 711.496 58.9665 
L 711.496 58.9665 
L 721.496 58.9665 
L 721.496 58.9665 
" style="fill: none; stroke-dasharray: 3.7,1.6; stroke-dashoffset: 0; stroke: #ffa500"/>
    </g>
    <g id="text_12">
     <!-- $T^{set}, Solar-MILP$ -->
     <g transform="translate(729.496 62.4665) scale(0.1 -0.1)">
      <defs>
       <path id="DejaVuSans-Oblique-53" d="M 3859 4513 
L 3738 3897 
Q 3422 4066 3111 4152 
Q 2800 4238 2509 4238 
Q 1944 4238 1609 3991 
Q 1275 3744 1275 3334 
Q 1275 3109 1398 2989 
Q 1522 2869 2034 2731 
L 2413 2638 
Q 3053 2472 3303 2217 
Q 3553 1963 3553 1503 
Q 3553 797 2998 353 
Q 2444 -91 1538 -91 
Q 1166 -91 791 -17 
Q 416 56 38 206 
L 166 856 
Q 513 641 861 531 
Q 1209 422 1556 422 
Q 2147 422 2503 684 
Q 2859 947 2859 1369 
Q 2859 1650 2717 1795 
Q 2575 1941 2106 2059 
L 1728 2156 
Q 1081 2325 845 2545 
Q 609 2766 609 3163 
Q 609 3859 1145 4304 
Q 1681 4750 2541 4750 
Q 2875 4750 3203 4690 
Q 3531 4631 3859 4513 
z
" transform="scale(0.015625)"/>
       <path id="DejaVuSans-Oblique-6f" d="M 1625 -91 
Q 1009 -91 651 289 
Q 294 669 294 1325 
Q 294 1706 417 2101 
Q 541 2497 738 2766 
Q 1047 3184 1428 3384 
Q 1809 3584 2291 3584 
Q 2888 3584 3255 3212 
Q 3622 2841 3622 2241 
Q 3622 1825 3500 1412 
Q 3378 1000 3181 728 
Q 2875 309 2494 109 
Q 2113 -91 1625 -91 
z
M 891 1344 
Q 891 869 1089 633 
Q 1288 397 1691 397 
Q 2269 397 2648 901 
Q 3028 1406 3028 2181 
Q 3028 2634 2825 2865 
Q 2622 3097 2228 3097 
Q 1903 3097 1650 2945 
Q 1397 2794 1197 2484 
Q 1050 2253 970 1956 
Q 891 1659 891 1344 
z
" transform="scale(0.015625)"/>
       <path id="DejaVuSans-Oblique-6c" d="M 1172 4863 
L 1747 4863 
L 800 0 
L 225 0 
L 1172 4863 
z
" transform="scale(0.015625)"/>
       <path id="DejaVuSans-Oblique-61" d="M 3438 1997 
L 3047 0 
L 2472 0 
L 2578 531 
Q 2325 219 2001 64 
Q 1678 -91 1281 -91 
Q 834 -91 548 182 
Q 263 456 263 884 
Q 263 1497 752 1853 
Q 1241 2209 2100 2209 
L 2900 2209 
L 2931 2363 
Q 2938 2388 2941 2417 
Q 2944 2447 2944 2509 
Q 2944 2788 2717 2942 
Q 2491 3097 2081 3097 
Q 1800 3097 1504 3025 
Q 1209 2953 897 2809 
L 997 3341 
Q 1322 3463 1633 3523 
Q 1944 3584 2234 3584 
Q 2853 3584 3176 3315 
Q 3500 3047 3500 2534 
Q 3500 2431 3484 2292 
Q 3469 2153 3438 1997 
z
M 2816 1759 
L 2241 1759 
Q 1534 1759 1195 1570 
Q 856 1381 856 984 
Q 856 709 1029 553 
Q 1203 397 1509 397 
Q 1978 397 2328 733 
Q 2678 1069 2791 1631 
L 2816 1759 
z
" transform="scale(0.015625)"/>
       <path id="DejaVuSans-Oblique-72" d="M 2853 2969 
Q 2766 3016 2653 3041 
Q 2541 3066 2413 3066 
Q 1953 3066 1609 2717 
Q 1266 2369 1153 1784 
L 800 0 
L 225 0 
L 909 3500 
L 1484 3500 
L 1375 2956 
Q 1603 3259 1920 3421 
Q 2238 3584 2597 3584 
Q 2691 3584 2781 3573 
Q 2872 3563 2963 3538 
L 2853 2969 
z
" transform="scale(0.015625)"/>
      </defs>
      <use xlink:href="#DejaVuSans-Oblique-54" transform="translate(0 0.565625)"/>
      <use xlink:href="#DejaVuSans-Oblique-73" transform="translate(68.100755 38.846875) scale(0.7)"/>
      <use xlink:href="#DejaVuSans-Oblique-65" transform="translate(104.570482 38.846875) scale(0.7)"/>
      <use xlink:href="#DejaVuSans-Oblique-74" transform="translate(147.636888 38.846875) scale(0.7)"/>
      <use xlink:href="#DejaVuSans-2c" transform="translate(177.817552 0.565625)"/>
      <use xlink:href="#DejaVuSans-Oblique-53" transform="translate(229.087083 0.565625)"/>
      <use xlink:href="#DejaVuSans-Oblique-6f" transform="translate(292.563646 0.565625)"/>
      <use xlink:href="#DejaVuSans-Oblique-6c" transform="translate(353.745286 0.565625)"/>
      <use xlink:href="#DejaVuSans-Oblique-61" transform="translate(381.52849 0.565625)"/>
      <use xlink:href="#DejaVuSans-Oblique-72" transform="translate(442.807786 0.565625)"/>
      <use xlink:href="#DejaVuSans-2212" transform="translate(503.40349 0.565625)"/>
      <use xlink:href="#DejaVuSans-Oblique-4d" transform="translate(606.674974 0.565625)"/>
      <use xlink:href="#DejaVuSans-Oblique-49" transform="translate(692.954271 0.565625)"/>
      <use xlink:href="#DejaVuSans-Oblique-4c" transform="translate(722.446458 0.565625)"/>
      <use xlink:href="#DejaVuSans-Oblique-50" transform="translate(778.159349 0.565625)"/>
     </g>
    </g>
    <g id="line2d_15">
     <path d="M 701.496 74.754 
L 711.496 74.754 
L 711.496 74.754 
L 721.496 74.754 
L 721.496 74.754 
" style="fill: none; stroke-dasharray: 3.7,1.6; stroke-dashoffset: 0; stroke: #008000"/>
    </g>
    <g id="text_13">
     <!-- $T^{set}, Apt&amp;Goh$ -->
     <g transform="translate(729.496 78.254) scale(0.1 -0.1)">
      <defs>
       <path id="DejaVuSans-Oblique-41" d="M 2356 4666 
L 3072 4666 
L 3938 0 
L 3278 0 
L 3084 1197 
L 984 1197 
L 325 0 
L -341 0 
L 2356 4666 
z
M 2584 4044 
L 1275 1722 
L 2988 1722 
L 2584 4044 
z
" transform="scale(0.015625)"/>
       <path id="DejaVuSans-Oblique-70" d="M 3175 2156 
Q 3175 2616 2975 2859 
Q 2775 3103 2400 3103 
Q 2144 3103 1911 2972 
Q 1678 2841 1497 2591 
Q 1319 2344 1212 1994 
Q 1106 1644 1106 1300 
Q 1106 863 1306 627 
Q 1506 391 1875 391 
Q 2147 391 2380 519 
Q 2613 647 2778 891 
Q 2956 1147 3065 1494 
Q 3175 1841 3175 2156 
z
M 1394 2969 
Q 1625 3272 1939 3428 
Q 2253 3584 2638 3584 
Q 3175 3584 3472 3232 
Q 3769 2881 3769 2247 
Q 3769 1728 3584 1258 
Q 3400 788 3053 416 
Q 2822 169 2531 39 
Q 2241 -91 1919 -91 
Q 1547 -91 1294 64 
Q 1041 219 916 525 
L 556 -1331 
L -19 -1331 
L 922 3500 
L 1497 3500 
L 1394 2969 
z
" transform="scale(0.015625)"/>
       <path id="DejaVuSans-26" d="M 1556 2509 
Q 1272 2256 1139 2004 
Q 1006 1753 1006 1478 
Q 1006 1022 1337 719 
Q 1669 416 2169 416 
Q 2466 416 2725 514 
Q 2984 613 3213 813 
L 1556 2509 
z
M 1997 2859 
L 3584 1234 
Q 3769 1513 3872 1830 
Q 3975 2147 3994 2503 
L 4575 2503 
Q 4538 2091 4375 1687 
Q 4213 1284 3922 891 
L 4794 0 
L 4006 0 
L 3559 459 
Q 3234 181 2878 45 
Q 2522 -91 2113 -91 
Q 1359 -91 881 339 
Q 403 769 403 1441 
Q 403 1841 612 2192 
Q 822 2544 1241 2853 
Q 1091 3050 1012 3245 
Q 934 3441 934 3628 
Q 934 4134 1281 4442 
Q 1628 4750 2203 4750 
Q 2463 4750 2720 4694 
Q 2978 4638 3244 4525 
L 3244 3956 
Q 2972 4103 2725 4179 
Q 2478 4256 2266 4256 
Q 1938 4256 1733 4082 
Q 1528 3909 1528 3634 
Q 1528 3475 1620 3314 
Q 1713 3153 1997 2859 
z
" transform="scale(0.015625)"/>
       <path id="DejaVuSans-Oblique-47" d="M 3494 697 
L 3738 1919 
L 2700 1919 
L 2797 2438 
L 4453 2438 
L 4050 384 
Q 3634 156 3143 32 
Q 2653 -91 2156 -91 
Q 1278 -91 783 396 
Q 288 884 288 1753 
Q 288 2475 589 3126 
Q 891 3778 1422 4213 
Q 1756 4484 2153 4617 
Q 2550 4750 3034 4750 
Q 3472 4750 3873 4639 
Q 4275 4528 4641 4306 
L 4513 3634 
Q 4231 3928 3853 4083 
Q 3475 4238 3047 4238 
Q 2550 4238 2172 4048 
Q 1794 3859 1497 3463 
Q 1244 3125 1098 2667 
Q 953 2209 953 1734 
Q 953 1081 1287 751 
Q 1622 422 2284 422 
Q 2616 422 2925 492 
Q 3234 563 3494 697 
z
" transform="scale(0.015625)"/>
       <path id="DejaVuSans-Oblique-68" d="M 3566 2113 
L 3156 0 
L 2578 0 
L 2988 2091 
Q 3016 2238 3031 2350 
Q 3047 2463 3047 2528 
Q 3047 2791 2881 2937 
Q 2716 3084 2419 3084 
Q 1956 3084 1617 2771 
Q 1278 2459 1178 1941 
L 800 0 
L 225 0 
L 1172 4863 
L 1747 4863 
L 1375 2950 
Q 1594 3244 1934 3414 
Q 2275 3584 2650 3584 
Q 3113 3584 3367 3334 
Q 3622 3084 3622 2631 
Q 3622 2519 3608 2391 
Q 3594 2263 3566 2113 
z
" transform="scale(0.015625)"/>
      </defs>
      <use xlink:href="#DejaVuSans-Oblique-54" transform="translate(0 0.565625)"/>
      <use xlink:href="#DejaVuSans-Oblique-73" transform="translate(68.100755 38.846875) scale(0.7)"/>
      <use xlink:href="#DejaVuSans-Oblique-65" transform="translate(104.570482 38.846875) scale(0.7)"/>
      <use xlink:href="#DejaVuSans-Oblique-74" transform="translate(147.636888 38.846875) scale(0.7)"/>
      <use xlink:href="#DejaVuSans-2c" transform="translate(177.817552 0.565625)"/>
      <use xlink:href="#DejaVuSans-Oblique-41" transform="translate(229.087083 0.565625)"/>
      <use xlink:href="#DejaVuSans-Oblique-70" transform="translate(297.495286 0.565625)"/>
      <use xlink:href="#DejaVuSans-Oblique-74" transform="translate(360.971849 0.565625)"/>
      <use xlink:href="#DejaVuSans-26" transform="translate(400.180833 0.565625)"/>
      <use xlink:href="#DejaVuSans-Oblique-47" transform="translate(478.159349 0.565625)"/>
      <use xlink:href="#DejaVuSans-Oblique-6f" transform="translate(555.649583 0.565625)"/>
      <use xlink:href="#DejaVuSans-Oblique-68" transform="translate(616.831224 0.565625)"/>
     </g>
    </g>
   </g>
  </g>
  <g id="axes_2">
   <g id="patch_7">
    <path d="M 49.464 235.008 
L 692.496 235.008 
L 692.496 124.416 
L 49.464 124.416 
z
" style="fill: #ffffff"/>
   </g>
   <g id="matplotlib.axis_3">
    <g id="ytick_4">
     <g id="line2d_16">
      <g>
       <use xlink:href="#md722349be4" x="49.464" y="224.853335" style="stroke: #000000; stroke-width: 0.8"/>
      </g>
     </g>
     <g id="text_14">
      <!-- 40 -->
      <g transform="translate(31.342125 228.432241) scale(0.1 -0.1)">
       <use xlink:href="#ArialMT-34"/>
       <use xlink:href="#ArialMT-30" x="55.615234"/>
      </g>
     </g>
    </g>
    <g id="ytick_5">
     <g id="line2d_17">
      <g>
       <use xlink:href="#md722349be4" x="49.464" y="202.664864" style="stroke: #000000; stroke-width: 0.8"/>
      </g>
     </g>
     <g id="text_15">
      <!-- 50 -->
      <g transform="translate(31.342125 206.24377) scale(0.1 -0.1)">
       <use xlink:href="#ArialMT-35"/>
       <use xlink:href="#ArialMT-30" x="55.615234"/>
      </g>
     </g>
    </g>
    <g id="ytick_6">
     <g id="line2d_18">
      <g>
       <use xlink:href="#md722349be4" x="49.464" y="180.476393" style="stroke: #000000; stroke-width: 0.8"/>
      </g>
     </g>
     <g id="text_16">
      <!-- 60 -->
      <g transform="translate(31.342125 184.055299) scale(0.1 -0.1)">
       <use xlink:href="#ArialMT-36"/>
       <use xlink:href="#ArialMT-30" x="55.615234"/>
      </g>
     </g>
    </g>
    <g id="ytick_7">
     <g id="line2d_19">
      <g>
       <use xlink:href="#md722349be4" x="49.464" y="158.287922" style="stroke: #000000; stroke-width: 0.8"/>
      </g>
     </g>
     <g id="text_17">
      <!-- 70 -->
      <g transform="translate(31.342125 161.866828) scale(0.1 -0.1)">
       <defs>
        <path id="ArialMT-37" d="M 303 3981 
L 303 4522 
L 3269 4522 
L 3269 4084 
Q 2831 3619 2401 2847 
Q 1972 2075 1738 1259 
Q 1569 684 1522 0 
L 944 0 
Q 953 541 1156 1306 
Q 1359 2072 1739 2783 
Q 2119 3494 2547 3981 
L 303 3981 
z
" transform="scale(0.015625)"/>
       </defs>
       <use xlink:href="#ArialMT-37"/>
       <use xlink:href="#ArialMT-30" x="55.615234"/>
      </g>
     </g>
    </g>
    <g id="ytick_8">
     <g id="line2d_20">
      <g>
       <use xlink:href="#md722349be4" x="49.464" y="136.09945" style="stroke: #000000; stroke-width: 0.8"/>
      </g>
     </g>
     <g id="text_18">
      <!-- 80 -->
      <g transform="translate(31.342125 139.678357) scale(0.1 -0.1)">
       <use xlink:href="#ArialMT-38"/>
       <use xlink:href="#ArialMT-30" x="55.615234"/>
      </g>
     </g>
    </g>
    <g id="text_19">
     <!-- $^{\circ}C$ -->
     <g transform="translate(8.89458 185.612) rotate(-90) scale(0.1 -0.1)">
      <use xlink:href="#DejaVuSans-2218" transform="translate(0.957031 39.0625) scale(0.7)"/>
      <use xlink:href="#DejaVuSans-Oblique-43" transform="translate(47.509766 0.78125)"/>
     </g>
    </g>
   </g>
   <g id="line2d_21">
    <path d="M 78.692727 224.853335 
L 104.109012 224.853335 
L 104.109012 226.346619 
L 129.525296 226.346619 
L 129.525296 227.689022 
L 154.941581 227.689022 
L 154.941581 228.896075 
L 180.357866 228.896075 
L 180.357866 229.981091 
L 205.77415 229.981091 
L 205.77415 180.698278 
L 231.190435 180.698278 
L 231.190435 131.228833 
L 256.606719 131.228833 
L 256.606719 159.293059 
L 282.023004 159.293059 
L 282.023004 167.948782 
L 307.439289 167.948782 
L 307.439289 179.136209 
L 332.855573 179.136209 
L 332.855573 182.073963 
L 358.271858 182.073963 
L 358.271858 184.663357 
L 383.688142 184.663357 
L 383.688142 188.16026 
L 409.104427 188.16026 
L 409.104427 141.646947 
L 434.520711 141.646947 
L 434.520711 150.82372 
L 459.936996 150.82372 
L 459.936996 180.409827 
L 485.353281 180.409827 
L 485.353281 220.313574 
L 510.769565 220.313574 
L 510.769565 221.549472 
L 536.18585 221.549472 
L 536.18585 224.853335 
L 561.602134 224.853335 
L 561.602134 226.024886 
L 587.018419 226.024886 
L 587.018419 224.853335 
L 612.434704 224.853335 
L 612.434704 224.853335 
L 637.850988 224.853335 
L 637.850988 224.853335 
L 663.267273 224.853335 
L 663.267273 224.853335 
" clip-path="url(#p5704708fa9)" style="fill: none; stroke: #ff0000; stroke-opacity: 0.7; stroke-linecap: square"/>
   </g>
   <g id="line2d_22">
    <path d="M 78.692727 196.470009 
L 104.109012 196.470009 
L 104.109012 199.149067 
L 129.525296 199.149067 
L 129.525296 201.625469 
L 154.941581 201.625469 
L 154.941581 203.915156 
L 180.357866 203.915156 
L 180.357866 206.033755 
L 205.77415 206.033755 
L 205.77415 207.996566 
L 231.190435 207.996566 
L 231.190435 192.680052 
L 256.606719 192.680052 
L 256.606719 218.427502 
L 282.023004 218.427502 
L 282.023004 224.842604 
L 307.439289 224.842604 
L 307.439289 224.853335 
L 332.855573 224.853335 
L 332.855573 224.853335 
L 358.271858 224.853335 
L 358.271858 225.827182 
L 383.688142 225.827182 
L 383.688142 184.026548 
L 409.104427 184.026548 
L 409.104427 135.877566 
L 434.520711 135.877566 
L 434.520711 145.434859 
L 459.936996 145.434859 
L 459.936996 132.105526 
L 485.353281 132.105526 
L 485.353281 150.743841 
L 510.769565 150.743841 
L 510.769565 153.406458 
L 536.18585 153.406458 
L 536.18585 161.329172 
L 561.602134 161.329172 
L 561.602134 165.080167 
L 587.018419 165.080167 
L 587.018419 169.977381 
L 612.434704 169.977381 
L 612.434704 179.720145 
L 637.850988 179.720145 
L 637.850988 183.24093 
L 663.267273 183.24093 
L 663.267273 188.0731 
" clip-path="url(#p5704708fa9)" style="fill: none; stroke: #ffa500; stroke-opacity: 0.7; stroke-linecap: square"/>
   </g>
   <g id="line2d_23">
    <path d="M 78.692727 218.921012 
L 104.109012 218.921012 
L 104.109012 168.36225 
L 129.525296 168.36225 
L 129.525296 129.962821 
L 154.941581 129.962821 
L 154.941581 129.442909 
L 180.357866 129.442909 
L 180.357866 129.629544 
L 205.77415 129.629544 
L 205.77415 129.936158 
L 231.190435 129.936158 
L 231.190435 129.82951 
L 256.606719 129.82951 
L 256.606719 157.948041 
L 282.023004 157.948041 
L 282.023004 166.654622 
L 307.439289 166.654622 
L 307.439289 177.89142 
L 332.855573 177.89142 
L 332.855573 180.87673 
L 358.271858 180.87673 
L 358.271858 183.51386 
L 383.688142 183.51386 
L 383.688142 187.055741 
L 409.104427 187.055741 
L 409.104427 192.864765 
L 434.520711 192.864765 
L 434.520711 200.072222 
L 459.936996 200.072222 
L 459.936996 217.534581 
L 485.353281 217.534581 
L 485.353281 221.40059 
L 510.769565 221.40059 
L 510.769565 222.594556 
L 536.18585 222.594556 
L 536.18585 223.853505 
L 561.602134 223.853505 
L 561.602134 223.200283 
L 587.018419 223.200283 
L 587.018419 223.373587 
L 612.434704 223.373587 
L 612.434704 221.253948 
L 637.850988 221.253948 
L 637.850988 223.060507 
L 663.267273 223.060507 
L 663.267273 219.734207 
" clip-path="url(#p5704708fa9)" style="fill: none; stroke: #008000; stroke-opacity: 0.7; stroke-linecap: square"/>
   </g>
   <g id="line2d_24">
    <path d="M 78.692727 224.795516 
L 104.109012 224.795516 
L 104.109012 224.795516 
L 129.525296 224.795516 
L 129.525296 224.795516 
L 154.941581 224.795516 
L 154.941581 170.435695 
L 180.357866 170.435695 
L 180.357866 129.442909 
L 205.77415 129.442909 
L 205.77415 129.442909 
L 231.190435 129.442909 
L 231.190435 129.442909 
L 256.606719 129.442909 
L 256.606719 129.442909 
L 282.023004 129.442909 
L 282.023004 134.763693 
L 307.439289 134.763693 
L 307.439289 143.097451 
L 332.855573 143.097451 
L 332.855573 143.325843 
L 358.271858 143.325843 
L 358.271858 143.325843 
L 383.688142 143.325843 
L 383.688142 136.871412 
L 409.104427 136.871412 
L 409.104427 140.418126 
L 434.520711 140.418126 
L 434.520711 145.635317 
L 459.936996 145.635317 
L 459.936996 172.419122 
L 485.353281 172.419122 
L 485.353281 211.081794 
L 510.769565 211.081794 
L 510.769565 211.081794 
L 536.18585 211.081794 
L 536.18585 215.162143 
L 561.602134 215.162143 
L 561.602134 215.162143 
L 587.018419 215.162143 
L 587.018419 216.438409 
L 612.434704 216.438409 
L 612.434704 222.883361 
L 637.850988 222.883361 
L 637.850988 223.161721 
L 663.267273 223.161721 
L 663.267273 224.853335 
" clip-path="url(#p5704708fa9)" style="fill: none; stroke: #0000ff; stroke-opacity: 0.7; stroke-linecap: square"/>
   </g>
   <g id="line2d_25">
    <path d="M 78.692727 213.7591 
L 104.109012 213.7591 
L 104.109012 213.7591 
L 129.525296 213.7591 
L 129.525296 213.7591 
L 154.941581 213.7591 
L 154.941581 213.7591 
L 180.357866 213.7591 
L 180.357866 213.7591 
L 205.77415 213.7591 
L 205.77415 213.7591 
L 231.190435 213.7591 
L 231.190435 213.7591 
L 256.606719 213.7591 
L 256.606719 213.7591 
L 282.023004 213.7591 
L 282.023004 213.7591 
L 307.439289 213.7591 
L 307.439289 213.7591 
L 332.855573 213.7591 
L 332.855573 213.7591 
L 358.271858 213.7591 
L 358.271858 213.7591 
L 383.688142 213.7591 
L 383.688142 213.7591 
L 409.104427 213.7591 
L 409.104427 213.7591 
L 434.520711 213.7591 
L 434.520711 213.7591 
L 459.936996 213.7591 
L 459.936996 213.7591 
L 485.353281 213.7591 
L 485.353281 213.7591 
L 510.769565 213.7591 
L 510.769565 213.7591 
L 536.18585 213.7591 
L 536.18585 213.7591 
L 561.602134 213.7591 
L 561.602134 213.7591 
L 587.018419 213.7591 
L 587.018419 213.7591 
L 612.434704 213.7591 
L 612.434704 213.7591 
L 637.850988 213.7591 
L 637.850988 213.7591 
L 663.267273 213.7591 
L 663.267273 213.7591 
" clip-path="url(#p5704708fa9)" style="fill: none; stroke: #808080; stroke-opacity: 0.7; stroke-linecap: square"/>
   </g>
   <g id="patch_8">
    <path d="M 49.464 235.008 
L 49.464 124.416 
" style="fill: none; stroke: #000000; stroke-width: 0.8; stroke-linejoin: miter; stroke-linecap: square"/>
   </g>
   <g id="patch_9">
    <path d="M 692.496 235.008 
L 692.496 124.416 
" style="fill: none; stroke: #000000; stroke-width: 0.8; stroke-linejoin: miter; stroke-linecap: square"/>
   </g>
   <g id="patch_10">
    <path d="M 49.464 235.008 
L 692.496 235.008 
" style="fill: none; stroke: #000000; stroke-width: 0.8; stroke-linejoin: miter; stroke-linecap: square"/>
   </g>
   <g id="patch_11">
    <path d="M 49.464 124.416 
L 692.496 124.416 
" style="fill: none; stroke: #000000; stroke-width: 0.8; stroke-linejoin: miter; stroke-linecap: square"/>
   </g>
   <g id="legend_2">
    <g id="line2d_26">
     <path d="M 701.496 147.7245 
L 711.496 147.7245 
L 711.496 147.7245 
L 721.496 147.7245 
L 721.496 147.7245 
" style="fill: none; stroke: #ff0000; stroke-opacity: 0.7; stroke-linecap: square"/>
    </g>
    <g id="text_20">
     <!-- $T^{tank}, WH-MILP$ -->
     <g transform="translate(729.496 151.2245) scale(0.1 -0.1)">
      <defs>
       <path id="DejaVuSans-Oblique-6e" d="M 3566 2113 
L 3156 0 
L 2578 0 
L 2988 2091 
Q 3016 2238 3031 2350 
Q 3047 2463 3047 2528 
Q 3047 2791 2881 2937 
Q 2716 3084 2419 3084 
Q 1956 3084 1622 2776 
Q 1288 2469 1184 1941 
L 800 0 
L 225 0 
L 903 3500 
L 1478 3500 
L 1363 2950 
Q 1603 3253 1940 3418 
Q 2278 3584 2650 3584 
Q 3113 3584 3367 3334 
Q 3622 3084 3622 2631 
Q 3622 2519 3608 2391 
Q 3594 2263 3566 2113 
z
" transform="scale(0.015625)"/>
       <path id="DejaVuSans-Oblique-6b" d="M 1172 4863 
L 1747 4863 
L 1197 2028 
L 3169 3500 
L 3916 3500 
L 1716 1825 
L 3322 0 
L 2625 0 
L 1131 1709 
L 800 0 
L 225 0 
L 1172 4863 
z
" transform="scale(0.015625)"/>
      </defs>
      <use xlink:href="#DejaVuSans-Oblique-54" transform="translate(0 0.529687)"/>
      <use xlink:href="#DejaVuSans-Oblique-74" transform="translate(68.100755 38.810937) scale(0.7)"/>
      <use xlink:href="#DejaVuSans-Oblique-61" transform="translate(95.547044 38.810937) scale(0.7)"/>
      <use xlink:href="#DejaVuSans-Oblique-6e" transform="translate(138.442552 38.810937) scale(0.7)"/>
      <use xlink:href="#DejaVuSans-Oblique-6b" transform="translate(182.807786 38.810937) scale(0.7)"/>
      <use xlink:href="#DejaVuSans-2c" transform="translate(226.079271 0.529687)"/>
      <use xlink:href="#DejaVuSans-Oblique-57" transform="translate(277.348802 0.529687)"/>
      <use xlink:href="#DejaVuSans-Oblique-48" transform="translate(376.225755 0.529687)"/>
      <use xlink:href="#DejaVuSans-2212" transform="translate(470.90349 0.529687)"/>
      <use xlink:href="#DejaVuSans-Oblique-4d" transform="translate(574.174974 0.529687)"/>
      <use xlink:href="#DejaVuSans-Oblique-49" transform="translate(660.454271 0.529687)"/>
      <use xlink:href="#DejaVuSans-Oblique-4c" transform="translate(689.946458 0.529687)"/>
      <use xlink:href="#DejaVuSans-Oblique-50" transform="translate(745.659349 0.529687)"/>
     </g>
    </g>
    <g id="line2d_27">
     <path d="M 701.496 163.1245 
L 711.496 163.1245 
L 711.496 163.1245 
L 721.496 163.1245 
L 721.496 163.1245 
" style="fill: none; stroke: #ffa500; stroke-opacity: 0.7; stroke-linecap: square"/>
    </g>
    <g id="text_21">
     <!-- $T^{tank}, Solar-MILP$ -->
     <g transform="translate(729.496 166.6245) scale(0.1 -0.1)">
      <use xlink:href="#DejaVuSans-Oblique-54" transform="translate(0 0.529687)"/>
      <use xlink:href="#DejaVuSans-Oblique-74" transform="translate(68.100755 38.810937) scale(0.7)"/>
      <use xlink:href="#DejaVuSans-Oblique-61" transform="translate(95.547044 38.810937) scale(0.7)"/>
      <use xlink:href="#DejaVuSans-Oblique-6e" transform="translate(138.442552 38.810937) scale(0.7)"/>
      <use xlink:href="#DejaVuSans-Oblique-6b" transform="translate(182.807786 38.810937) scale(0.7)"/>
      <use xlink:href="#DejaVuSans-2c" transform="translate(226.079271 0.529687)"/>
      <use xlink:href="#DejaVuSans-Oblique-53" transform="translate(277.348802 0.529687)"/>
      <use xlink:href="#DejaVuSans-Oblique-6f" transform="translate(340.825365 0.529687)"/>
      <use xlink:href="#DejaVuSans-Oblique-6c" transform="translate(402.007005 0.529687)"/>
      <use xlink:href="#DejaVuSans-Oblique-61" transform="translate(429.790208 0.529687)"/>
      <use xlink:href="#DejaVuSans-Oblique-72" transform="translate(491.069505 0.529687)"/>
      <use xlink:href="#DejaVuSans-2212" transform="translate(551.665208 0.529687)"/>
      <use xlink:href="#DejaVuSans-Oblique-4d" transform="translate(654.936693 0.529687)"/>
      <use xlink:href="#DejaVuSans-Oblique-49" transform="translate(741.21599 0.529687)"/>
      <use xlink:href="#DejaVuSans-Oblique-4c" transform="translate(770.708177 0.529687)"/>
      <use xlink:href="#DejaVuSans-Oblique-50" transform="translate(826.421068 0.529687)"/>
     </g>
    </g>
    <g id="line2d_28">
     <path d="M 701.496 179.312 
L 711.496 179.312 
L 711.496 179.312 
L 721.496 179.312 
L 721.496 179.312 
" style="fill: none; stroke: #008000; stroke-opacity: 0.7; stroke-linecap: square"/>
    </g>
    <g id="text_22">
     <!-- $T^{tank}, Apt&amp;Goh$ -->
     <g transform="translate(729.496 182.812) scale(0.1 -0.1)">
      <use xlink:href="#DejaVuSans-Oblique-54" transform="translate(0 0.529687)"/>
      <use xlink:href="#DejaVuSans-Oblique-74" transform="translate(68.100755 38.810937) scale(0.7)"/>
      <use xlink:href="#DejaVuSans-Oblique-61" transform="translate(95.547044 38.810937) scale(0.7)"/>
      <use xlink:href="#DejaVuSans-Oblique-6e" transform="translate(138.442552 38.810937) scale(0.7)"/>
      <use xlink:href="#DejaVuSans-Oblique-6b" transform="translate(182.807786 38.810937) scale(0.7)"/>
      <use xlink:href="#DejaVuSans-2c" transform="translate(226.079271 0.529687)"/>
      <use xlink:href="#DejaVuSans-Oblique-41" transform="translate(277.348802 0.529687)"/>
      <use xlink:href="#DejaVuSans-Oblique-70" transform="translate(345.757005 0.529687)"/>
      <use xlink:href="#DejaVuSans-Oblique-74" transform="translate(409.233568 0.529687)"/>
      <use xlink:href="#DejaVuSans-26" transform="translate(448.442552 0.529687)"/>
      <use xlink:href="#DejaVuSans-Oblique-47" transform="translate(526.421068 0.529687)"/>
      <use xlink:href="#DejaVuSans-Oblique-6f" transform="translate(603.911302 0.529687)"/>
      <use xlink:href="#DejaVuSans-Oblique-68" transform="translate(665.092943 0.529687)"/>
     </g>
    </g>
    <g id="line2d_29">
     <path d="M 701.496 194.8245 
L 711.496 194.8245 
L 711.496 194.8245 
L 721.496 194.8245 
L 721.496 194.8245 
" style="fill: none; stroke: #0000ff; stroke-opacity: 0.7; stroke-linecap: square"/>
    </g>
    <g id="text_23">
     <!-- $T^{tank}, Du&amp;Lu$ -->
     <g transform="translate(729.496 198.3245) scale(0.1 -0.1)">
      <defs>
       <path id="DejaVuSans-Oblique-44" d="M 1081 4666 
L 2438 4666 
Q 3519 4666 4070 4208 
Q 4622 3750 4622 2847 
Q 4622 2250 4412 1698 
Q 4203 1147 3834 769 
Q 3463 381 2891 190 
Q 2319 0 1538 0 
L 172 0 
L 1081 4666 
z
M 1613 4147 
L 909 519 
L 1734 519 
Q 2794 519 3375 1128 
Q 3956 1738 3956 2847 
Q 3956 3519 3581 3833 
Q 3206 4147 2406 4147 
L 1613 4147 
z
" transform="scale(0.015625)"/>
       <path id="DejaVuSans-Oblique-75" d="M 428 1388 
L 838 3500 
L 1416 3500 
L 1006 1409 
Q 975 1256 961 1147 
Q 947 1038 947 966 
Q 947 700 1109 554 
Q 1272 409 1569 409 
Q 2031 409 2368 721 
Q 2706 1034 2809 1563 
L 3194 3500 
L 3769 3500 
L 3091 0 
L 2516 0 
L 2631 550 
Q 2388 244 2052 76 
Q 1716 -91 1338 -91 
Q 878 -91 622 161 
Q 366 413 366 863 
Q 366 956 381 1097 
Q 397 1238 428 1388 
z
" transform="scale(0.015625)"/>
      </defs>
      <use xlink:href="#DejaVuSans-Oblique-54" transform="translate(0 0.529687)"/>
      <use xlink:href="#DejaVuSans-Oblique-74" transform="translate(68.100755 38.810937) scale(0.7)"/>
      <use xlink:href="#DejaVuSans-Oblique-61" transform="translate(95.547044 38.810937) scale(0.7)"/>
      <use xlink:href="#DejaVuSans-Oblique-6e" transform="translate(138.442552 38.810937) scale(0.7)"/>
      <use xlink:href="#DejaVuSans-Oblique-6b" transform="translate(182.807786 38.810937) scale(0.7)"/>
      <use xlink:href="#DejaVuSans-2c" transform="translate(226.079271 0.529687)"/>
      <use xlink:href="#DejaVuSans-Oblique-44" transform="translate(277.348802 0.529687)"/>
      <use xlink:href="#DejaVuSans-Oblique-75" transform="translate(354.350755 0.529687)"/>
      <use xlink:href="#DejaVuSans-26" transform="translate(417.729661 0.529687)"/>
      <use xlink:href="#DejaVuSans-Oblique-4c" transform="translate(495.708177 0.529687)"/>
      <use xlink:href="#DejaVuSans-Oblique-75" transform="translate(551.421068 0.529687)"/>
     </g>
    </g>
    <g id="line2d_30">
     <path d="M 701.496 211.012 
L 711.496 211.012 
L 711.496 211.012 
L 721.496 211.012 
L 721.496 211.012 
" style="fill: none; stroke: #808080; stroke-opacity: 0.7; stroke-linecap: square"/>
    </g>
    <g id="text_24">
     <!-- $T^{tank}, Fixed \enspace Setpoint$ -->
     <g transform="translate(729.496 214.512) scale(0.1 -0.1)">
      <defs>
       <path id="DejaVuSans-Oblique-46" d="M 1081 4666 
L 3756 4666 
L 3653 4134 
L 1606 4134 
L 1338 2759 
L 3188 2759 
L 3084 2228 
L 1234 2228 
L 800 0 
L 172 0 
L 1081 4666 
z
" transform="scale(0.015625)"/>
       <path id="DejaVuSans-Oblique-69" d="M 1172 4863 
L 1747 4863 
L 1606 4134 
L 1031 4134 
L 1172 4863 
z
M 909 3500 
L 1484 3500 
L 800 0 
L 225 0 
L 909 3500 
z
" transform="scale(0.015625)"/>
       <path id="DejaVuSans-Oblique-78" d="M 3841 3500 
L 2234 1784 
L 3219 0 
L 2559 0 
L 1819 1388 
L 531 0 
L -166 0 
L 1556 1844 
L 641 3500 
L 1300 3500 
L 1972 2234 
L 3144 3500 
L 3841 3500 
z
" transform="scale(0.015625)"/>
       <path id="DejaVuSans-Oblique-64" d="M 2675 525 
Q 2444 222 2128 65 
Q 1813 -91 1428 -91 
Q 903 -91 598 267 
Q 294 625 294 1247 
Q 294 1766 478 2236 
Q 663 2706 1013 3078 
Q 1244 3325 1534 3454 
Q 1825 3584 2144 3584 
Q 2481 3584 2739 3421 
Q 2997 3259 3138 2956 
L 3513 4863 
L 4091 4863 
L 3144 0 
L 2566 0 
L 2675 525 
z
M 891 1350 
Q 891 897 1095 644 
Q 1300 391 1663 391 
Q 1931 391 2161 520 
Q 2391 650 2566 903 
Q 2750 1166 2856 1509 
Q 2963 1853 2963 2188 
Q 2963 2622 2758 2865 
Q 2553 3109 2194 3109 
Q 1922 3109 1687 2981 
Q 1453 2853 1288 2613 
Q 1106 2353 998 2009 
Q 891 1666 891 1350 
z
" transform="scale(0.015625)"/>
      </defs>
      <use xlink:href="#DejaVuSans-Oblique-54" transform="translate(0 0.529687)"/>
      <use xlink:href="#DejaVuSans-Oblique-74" transform="translate(68.100755 38.810937) scale(0.7)"/>
      <use xlink:href="#DejaVuSans-Oblique-61" transform="translate(95.547044 38.810937) scale(0.7)"/>
      <use xlink:href="#DejaVuSans-Oblique-6e" transform="translate(138.442552 38.810937) scale(0.7)"/>
      <use xlink:href="#DejaVuSans-Oblique-6b" transform="translate(182.807786 38.810937) scale(0.7)"/>
      <use xlink:href="#DejaVuSans-2c" transform="translate(226.079271 0.529687)"/>
      <use xlink:href="#DejaVuSans-Oblique-46" transform="translate(277.348802 0.529687)"/>
      <use xlink:href="#DejaVuSans-Oblique-69" transform="translate(334.868333 0.529687)"/>
      <use xlink:href="#DejaVuSans-Oblique-78" transform="translate(362.651536 0.529687)"/>
      <use xlink:href="#DejaVuSans-Oblique-65" transform="translate(421.831224 0.529687)"/>
      <use xlink:href="#DejaVuSans-Oblique-64" transform="translate(483.354661 0.529687)"/>
      <use xlink:href="#DejaVuSans-Oblique-53" transform="translate(595.537279 0.529687)"/>
      <use xlink:href="#DejaVuSans-Oblique-65" transform="translate(659.013841 0.529687)"/>
      <use xlink:href="#DejaVuSans-Oblique-74" transform="translate(720.537279 0.529687)"/>
      <use xlink:href="#DejaVuSans-Oblique-70" transform="translate(759.746263 0.529687)"/>
      <use xlink:href="#DejaVuSans-Oblique-6f" transform="translate(823.222826 0.529687)"/>
      <use xlink:href="#DejaVuSans-Oblique-69" transform="translate(884.404466 0.529687)"/>
      <use xlink:href="#DejaVuSans-Oblique-6e" transform="translate(912.187669 0.529687)"/>
      <use xlink:href="#DejaVuSans-Oblique-74" transform="translate(975.566576 0.529687)"/>
     </g>
    </g>
   </g>
  </g>
  <g id="axes_3">
   <g id="patch_12">
    <path d="M 49.464 331.776 
L 692.496 331.776 
L 692.496 244.224 
L 49.464 244.224 
z
" style="fill: #ffffff"/>
   </g>
   <g id="matplotlib.axis_4">
    <g id="ytick_9">
     <g id="line2d_31">
      <g>
       <use xlink:href="#md722349be4" x="49.464" y="327.796364" style="stroke: #000000; stroke-width: 0.8"/>
      </g>
     </g>
     <g id="text_25">
      <!-- 0 -->
      <g transform="translate(36.903062 331.37527) scale(0.1 -0.1)">
       <use xlink:href="#ArialMT-30"/>
      </g>
     </g>
    </g>
    <g id="ytick_10">
     <g id="line2d_32">
      <g>
       <use xlink:href="#md722349be4" x="49.464" y="302.326691" style="stroke: #000000; stroke-width: 0.8"/>
      </g>
     </g>
     <g id="text_26">
      <!-- 2 -->
      <g transform="translate(36.903062 305.905597) scale(0.1 -0.1)">
       <use xlink:href="#ArialMT-32"/>
      </g>
     </g>
    </g>
    <g id="ytick_11">
     <g id="line2d_33">
      <g>
       <use xlink:href="#md722349be4" x="49.464" y="276.857018" style="stroke: #000000; stroke-width: 0.8"/>
      </g>
     </g>
     <g id="text_27">
      <!-- 4 -->
      <g transform="translate(36.903062 280.435924) scale(0.1 -0.1)">
       <use xlink:href="#ArialMT-34"/>
      </g>
     </g>
    </g>
    <g id="ytick_12">
     <g id="line2d_34">
      <g>
       <use xlink:href="#md722349be4" x="49.464" y="251.387345" style="stroke: #000000; stroke-width: 0.8"/>
      </g>
     </g>
     <g id="text_28">
      <!-- 6 -->
      <g transform="translate(36.903062 254.966252) scale(0.1 -0.1)">
       <use xlink:href="#ArialMT-36"/>
      </g>
     </g>
    </g>
    <g id="text_29">
     <!-- kWh -->
     <g transform="translate(8.89458 298) rotate(-90) scale(0.1 -0.1)">
      <defs>
       <path id="ArialMT-6b" d="M 425 0 
L 425 4581 
L 988 4581 
L 988 1969 
L 2319 3319 
L 3047 3319 
L 1778 2088 
L 3175 0 
L 2481 0 
L 1384 1697 
L 988 1316 
L 988 0 
L 425 0 
z
" transform="scale(0.015625)"/>
       <path id="ArialMT-57" d="M 1294 0 
L 78 4581 
L 700 4581 
L 1397 1578 
Q 1509 1106 1591 641 
Q 1766 1375 1797 1488 
L 2669 4581 
L 3400 4581 
L 4056 2263 
Q 4303 1400 4413 641 
Q 4500 1075 4641 1638 
L 5359 4581 
L 5969 4581 
L 4713 0 
L 4128 0 
L 3163 3491 
Q 3041 3928 3019 4028 
Q 2947 3713 2884 3491 
L 1913 0 
L 1294 0 
z
" transform="scale(0.015625)"/>
       <path id="ArialMT-68" d="M 422 0 
L 422 4581 
L 984 4581 
L 984 2938 
Q 1378 3394 1978 3394 
Q 2347 3394 2619 3248 
Q 2891 3103 3008 2847 
Q 3125 2591 3125 2103 
L 3125 0 
L 2563 0 
L 2563 2103 
Q 2563 2525 2380 2717 
Q 2197 2909 1863 2909 
Q 1613 2909 1392 2779 
Q 1172 2650 1078 2428 
Q 984 2206 984 1816 
L 984 0 
L 422 0 
z
" transform="scale(0.015625)"/>
      </defs>
      <use xlink:href="#ArialMT-6b"/>
      <use xlink:href="#ArialMT-57" x="50"/>
      <use xlink:href="#ArialMT-68" x="144.384766"/>
     </g>
    </g>
   </g>
   <g id="line2d_35">
    <path d="M 78.692727 320.2632 
L 104.109012 320.2632 
L 104.109012 327.796361 
L 129.525296 327.796361 
L 129.525296 327.796361 
L 154.941581 327.796361 
L 154.941581 327.796361 
L 180.357866 327.796361 
L 180.357866 327.796361 
L 205.77415 327.796361 
L 205.77415 272.704138 
L 231.190435 272.704138 
L 231.190435 270.4896 
L 256.606719 270.4896 
L 256.606719 327.796361 
L 282.023004 327.796361 
L 282.023004 327.796361 
L 307.439289 327.796361 
L 307.439289 327.796361 
L 332.855573 327.796361 
L 332.855573 327.796361 
L 358.271858 327.796361 
L 358.271858 327.796361 
L 383.688142 327.796361 
L 383.688142 327.796361 
L 409.104427 327.796361 
L 409.104427 270.4896 
L 434.520711 270.4896 
L 434.520711 327.796361 
L 459.936996 327.796361 
L 459.936996 327.796361 
L 485.353281 327.796361 
L 485.353281 327.796361 
L 510.769565 327.796361 
L 510.769565 327.796361 
L 536.18585 327.796361 
L 536.18585 325.767733 
L 561.602134 325.767733 
L 561.602134 327.796361 
L 587.018419 327.796361 
L 587.018419 323.865197 
L 612.434704 323.865197 
L 612.434704 319.567562 
L 637.850988 319.567562 
L 637.850988 325.976042 
L 663.267273 325.976042 
L 663.267273 324.385504 
" clip-path="url(#p3f29ed9308)" style="fill: none; stroke-dasharray: 6.4,1.6,1,1.6; stroke-dashoffset: 0; stroke: #ff0000; stroke-opacity: 0.7"/>
   </g>
   <g id="line2d_36">
    <path d="M 78.692727 327.796364 
L 104.109012 327.796364 
L 104.109012 327.796364 
L 129.525296 327.796364 
L 129.525296 327.796364 
L 154.941581 327.796364 
L 154.941581 327.796364 
L 180.357866 327.796364 
L 180.357866 327.796364 
L 205.77415 327.796364 
L 205.77415 327.796364 
L 231.190435 327.796364 
L 231.190435 327.796364 
L 256.606719 327.796364 
L 256.606719 327.796364 
L 282.023004 327.796364 
L 282.023004 327.796364 
L 307.439289 327.796364 
L 307.439289 327.796364 
L 332.855573 327.796364 
L 332.855573 327.796364 
L 358.271858 327.796364 
L 358.271858 327.796364 
L 383.688142 327.796364 
L 383.688142 327.796364 
L 409.104427 327.796364 
L 409.104427 327.796364 
L 434.520711 327.796364 
L 434.520711 327.796364 
L 459.936996 327.796364 
L 459.936996 327.796364 
L 485.353281 327.796364 
L 485.353281 327.796364 
L 510.769565 327.796364 
L 510.769565 327.796364 
L 536.18585 327.796364 
L 536.18585 327.796364 
L 561.602134 327.796364 
L 561.602134 327.796364 
L 587.018419 327.796364 
L 587.018419 327.796364 
L 612.434704 327.796364 
L 612.434704 327.796364 
L 637.850988 327.796364 
L 637.850988 327.796364 
L 663.267273 327.796364 
L 663.267273 327.796364 
" clip-path="url(#p3f29ed9308)" style="fill: none; stroke-dasharray: 6.4,1.6,1,1.6; stroke-dashoffset: 0; stroke: #a52a2a; stroke-opacity: 0.7"/>
   </g>
   <g id="line2d_37">
    <path d="M 78.692727 327.796364 
L 104.109012 327.796364 
L 104.109012 327.796364 
L 129.525296 327.796364 
L 129.525296 327.796364 
L 154.941581 327.796364 
L 154.941581 327.796364 
L 180.357866 327.796364 
L 180.357866 327.796364 
L 205.77415 327.796364 
L 205.77415 327.796364 
L 231.190435 327.796364 
L 231.190435 309.728766 
L 256.606719 309.728766 
L 256.606719 327.796364 
L 282.023004 327.796364 
L 282.023004 327.796364 
L 307.439289 327.796364 
L 307.439289 318.302849 
L 332.855573 318.302849 
L 332.855573 326.521804 
L 358.271858 326.521804 
L 358.271858 327.796364 
L 383.688142 327.796364 
L 383.688142 281.685171 
L 409.104427 281.685171 
L 409.104427 270.699468 
L 434.520711 270.699468 
L 434.520711 327.796364 
L 459.936996 327.796364 
L 459.936996 282.218845 
L 485.353281 282.218845 
L 485.353281 303.298719 
L 510.769565 303.298719 
L 510.769565 326.324581 
L 536.18585 326.324581 
L 536.18585 327.796364 
L 561.602134 327.796364 
L 561.602134 327.796364 
L 587.018419 327.796364 
L 587.018419 327.796364 
L 612.434704 327.796364 
L 612.434704 327.796364 
L 637.850988 327.796364 
L 637.850988 327.796364 
L 663.267273 327.796364 
L 663.267273 327.796364 
" clip-path="url(#p3f29ed9308)" style="fill: none; stroke-dasharray: 6.4,1.6,1,1.6; stroke-dashoffset: 0; stroke: #ffa500; stroke-opacity: 0.7"/>
   </g>
   <g id="line2d_38">
    <path d="M 78.692727 313.759118 
L 104.109012 313.759118 
L 104.109012 270.4896 
L 129.525296 270.4896 
L 129.525296 281.786975 
L 154.941581 281.786975 
L 154.941581 321.790497 
L 180.357866 321.790497 
L 180.357866 322.627026 
L 205.77415 322.627026 
L 205.77415 322.841335 
L 231.190435 322.841335 
L 231.190435 322.466873 
L 256.606719 322.466873 
L 256.606719 327.796361 
L 282.023004 327.796361 
L 282.023004 327.796361 
L 307.439289 327.796361 
L 307.439289 327.796361 
L 332.855573 327.796361 
L 332.855573 327.796361 
L 358.271858 327.796361 
L 358.271858 327.796361 
L 383.688142 327.796361 
L 383.688142 327.796361 
L 409.104427 327.796361 
L 409.104427 327.796361 
L 434.520711 327.796361 
L 434.520711 327.796361 
L 459.936996 327.796361 
L 459.936996 316.590586 
L 485.353281 316.590586 
L 485.353281 289.860542 
L 510.769565 289.860542 
L 510.769565 327.796361 
L 536.18585 327.796361 
L 536.18585 323.569799 
L 561.602134 323.569799 
L 561.602134 325.762269 
L 587.018419 325.762269 
L 587.018419 325.22056 
L 612.434704 325.22056 
L 612.434704 317.181232 
L 637.850988 317.181232 
L 637.850988 327.796361 
L 663.267273 327.796361 
L 663.267273 320.663014 
" clip-path="url(#p3f29ed9308)" style="fill: none; stroke-dasharray: 6.4,1.6,1,1.6; stroke-dashoffset: 0; stroke: #008000; stroke-opacity: 0.7"/>
   </g>
   <g id="line2d_39">
    <path d="M 78.692727 321.938339 
L 104.109012 321.938339 
L 104.109012 327.796364 
L 129.525296 327.796364 
L 129.525296 327.796364 
L 154.941581 327.796364 
L 154.941581 270.4896 
L 180.357866 270.4896 
L 180.357866 284.581287 
L 205.77415 284.581287 
L 205.77415 327.796364 
L 231.190435 327.796364 
L 231.190435 327.796364 
L 256.606719 327.796364 
L 256.606719 302.137086 
L 282.023004 302.137086 
L 282.023004 327.796364 
L 307.439289 327.796364 
L 307.439289 327.796364 
L 332.855573 327.796364 
L 332.855573 327.796364 
L 358.271858 327.796364 
L 358.271858 327.796364 
L 383.688142 327.796364 
L 383.688142 319.881949 
L 409.104427 319.881949 
L 409.104427 327.796364 
L 434.520711 327.796364 
L 434.520711 327.796364 
L 459.936996 327.796364 
L 459.936996 327.796364 
L 485.353281 327.796364 
L 485.353281 327.796364 
L 510.769565 327.796364 
L 510.769565 327.796364 
L 536.18585 327.796364 
L 536.18585 327.796364 
L 561.602134 327.796364 
L 561.602134 327.796364 
L 587.018419 327.796364 
L 587.018419 327.796364 
L 612.434704 327.796364 
L 612.434704 327.796364 
L 637.850988 327.796364 
L 637.850988 327.796364 
L 663.267273 327.796364 
L 663.267273 327.796364 
" clip-path="url(#p3f29ed9308)" style="fill: none; stroke-dasharray: 6.4,1.6,1,1.6; stroke-dashoffset: 0; stroke: #0000ff; stroke-opacity: 0.7"/>
   </g>
   <g id="line2d_40">
    <path d="M 78.692727 308.099699 
L 104.109012 308.099699 
L 104.109012 325.700997 
L 129.525296 325.700997 
L 129.525296 325.801666 
L 154.941581 325.801666 
L 154.941581 325.894078 
L 180.357866 325.894078 
L 180.357866 325.977888 
L 205.77415 325.977888 
L 205.77415 326.052784 
L 231.190435 326.052784 
L 231.190435 326.118486 
L 256.606719 326.118486 
L 256.606719 300.515472 
L 282.023004 300.515472 
L 282.023004 320.612132 
L 307.439289 320.612132 
L 307.439289 317.472613 
L 332.855573 317.472613 
L 332.855573 326.044219 
L 358.271858 326.044219 
L 358.271858 326.301769 
L 383.688142 326.301769 
L 383.688142 325.198468 
L 409.104427 325.198468 
L 409.104427 322.562781 
L 434.520711 322.562781 
L 434.520711 320.784969 
L 459.936996 320.784969 
L 459.936996 298.022355 
L 485.353281 298.022355 
L 485.353281 285.462721 
L 510.769565 285.462721 
L 510.769565 326.174749 
L 536.18585 326.174749 
L 536.18585 321.816934 
L 561.602134 321.816934 
L 561.602134 326.052784 
L 587.018419 326.052784 
L 587.018419 324.632433 
L 612.434704 324.632433 
L 612.434704 319.099735 
L 637.850988 319.099735 
L 637.850988 325.508215 
L 663.267273 325.508215 
L 663.267273 323.917677 
" clip-path="url(#p3f29ed9308)" style="fill: none; stroke-dasharray: 6.4,1.6,1,1.6; stroke-dashoffset: 0; stroke: #808080; stroke-opacity: 0.7"/>
   </g>
   <g id="line2d_41">
    <path d="M 78.692727 321.999292 
L 104.109012 321.999292 
L 104.109012 327.796364 
L 129.525296 327.796364 
L 129.525296 327.796364 
L 154.941581 327.796364 
L 154.941581 327.796364 
L 180.357866 327.796364 
L 180.357866 327.796364 
L 205.77415 327.796364 
L 205.77415 327.796364 
L 231.190435 327.796364 
L 231.190435 327.796364 
L 256.606719 327.796364 
L 256.606719 302.137086 
L 282.023004 302.137086 
L 282.023004 322.187131 
L 307.439289 322.187131 
L 307.439289 319.010818 
L 332.855573 319.010818 
L 332.855573 327.55559 
L 358.271858 327.55559 
L 358.271858 327.796364 
L 383.688142 327.796364 
L 383.688142 326.686286 
L 409.104427 326.686286 
L 409.104427 324.057376 
L 434.520711 324.057376 
L 434.520711 322.29634 
L 459.936996 322.29634 
L 459.936996 299.560561 
L 485.353281 299.560561 
L 485.353281 287.03772 
L 510.769565 287.03772 
L 510.769565 327.796364 
L 536.18585 327.796364 
L 536.18585 323.494813 
L 561.602134 323.494813 
L 561.602134 327.796364 
L 587.018419 327.796364 
L 587.018419 326.450908 
L 612.434704 326.450908 
L 612.434704 321.00202 
L 637.850988 321.00202 
L 637.850988 327.502913 
L 663.267273 327.502913 
L 663.267273 326.013044 
" clip-path="url(#p3f29ed9308)" style="fill: none; stroke-dasharray: 1.5,2.475; stroke-dashoffset: 0; stroke: #000000; stroke-width: 1.5"/>
   </g>
   <g id="line2d_42">
    <path d="M 78.692727 327.796364 
L 104.109012 327.796364 
L 104.109012 327.796364 
L 129.525296 327.796364 
L 129.525296 327.796364 
L 154.941581 327.796364 
L 154.941581 327.796364 
L 180.357866 327.796364 
L 180.357866 327.796364 
L 205.77415 327.796364 
L 205.77415 326.395532 
L 231.190435 326.395532 
L 231.190435 309.712896 
L 256.606719 309.712896 
L 256.606719 290.355945 
L 282.023004 290.355945 
L 282.023004 274.437399 
L 307.439289 274.437399 
L 307.439289 262.594001 
L 332.855573 262.594001 
L 332.855573 250.495907 
L 358.271858 250.495907 
L 358.271858 248.203636 
L 383.688142 248.203636 
L 383.688142 248.330985 
L 409.104427 248.330985 
L 409.104427 254.9531 
L 434.520711 254.9531 
L 434.520711 266.032407 
L 459.936996 266.032407 
L 459.936996 282.078301 
L 485.353281 282.078301 
L 485.353281 303.090781 
L 510.769565 303.090781 
L 510.769565 326.140835 
L 536.18585 326.140835 
L 536.18585 327.796364 
L 561.602134 327.796364 
L 561.602134 327.796364 
L 587.018419 327.796364 
L 587.018419 327.796364 
L 612.434704 327.796364 
L 612.434704 327.796364 
L 637.850988 327.796364 
L 637.850988 327.796364 
L 663.267273 327.796364 
L 663.267273 327.796364 
" clip-path="url(#p3f29ed9308)" style="fill: none; stroke: #ffff00; stroke-opacity: 0.9; stroke-width: 2.5; stroke-linecap: square"/>
   </g>
   <g id="patch_13">
    <path d="M 49.464 331.776 
L 49.464 244.224 
" style="fill: none; stroke: #000000; stroke-width: 0.8; stroke-linejoin: miter; stroke-linecap: square"/>
   </g>
   <g id="patch_14">
    <path d="M 692.496 331.776 
L 692.496 244.224 
" style="fill: none; stroke: #000000; stroke-width: 0.8; stroke-linejoin: miter; stroke-linecap: square"/>
   </g>
   <g id="patch_15">
    <path d="M 49.464 331.776 
L 692.496 331.776 
" style="fill: none; stroke: #000000; stroke-width: 0.8; stroke-linejoin: miter; stroke-linecap: square"/>
   </g>
   <g id="patch_16">
    <path d="M 49.464 244.224 
L 692.496 244.224 
" style="fill: none; stroke: #000000; stroke-width: 0.8; stroke-linejoin: miter; stroke-linecap: square"/>
   </g>
   <g id="legend_3">
    <g id="line2d_43">
     <path d="M 701.496 233.9125 
L 711.496 233.9125 
L 711.496 233.9125 
L 721.496 233.9125 
L 721.496 233.9125 
" style="fill: none; stroke-dasharray: 6.4,1.6,1,1.6; stroke-dashoffset: 0; stroke: #ff0000; stroke-opacity: 0.7"/>
    </g>
    <g id="text_30">
     <!-- $E^{in},WH-MILP$ -->
     <g transform="translate(729.496 237.4125) scale(0.1 -0.1)">
      <defs>
       <path id="DejaVuSans-Oblique-45" d="M 1081 4666 
L 4031 4666 
L 3928 4134 
L 1606 4134 
L 1338 2753 
L 3566 2753 
L 3463 2222 
L 1234 2222 
L 909 531 
L 3284 531 
L 3181 0 
L 172 0 
L 1081 4666 
z
" transform="scale(0.015625)"/>
      </defs>
      <use xlink:href="#DejaVuSans-Oblique-45" transform="translate(0 0.529687)"/>
      <use xlink:href="#DejaVuSans-Oblique-69" transform="translate(70.200365 38.810937) scale(0.7)"/>
      <use xlink:href="#DejaVuSans-Oblique-6e" transform="translate(89.648607 38.810937) scale(0.7)"/>
      <use xlink:href="#DejaVuSans-2c" transform="translate(136.748216 0.529687)"/>
      <use xlink:href="#DejaVuSans-Oblique-57" transform="translate(188.017747 0.529687)"/>
      <use xlink:href="#DejaVuSans-Oblique-48" transform="translate(286.894701 0.529687)"/>
      <use xlink:href="#DejaVuSans-2212" transform="translate(381.572435 0.529687)"/>
      <use xlink:href="#DejaVuSans-Oblique-4d" transform="translate(484.843919 0.529687)"/>
      <use xlink:href="#DejaVuSans-Oblique-49" transform="translate(571.123216 0.529687)"/>
      <use xlink:href="#DejaVuSans-Oblique-4c" transform="translate(600.615404 0.529687)"/>
      <use xlink:href="#DejaVuSans-Oblique-50" transform="translate(656.328294 0.529687)"/>
     </g>
    </g>
    <g id="line2d_44">
     <path d="M 701.496 249.3125 
L 711.496 249.3125 
L 711.496 249.3125 
L 721.496 249.3125 
L 721.496 249.3125 
" style="fill: none; stroke-dasharray: 6.4,1.6,1,1.6; stroke-dashoffset: 0; stroke: #a52a2a; stroke-opacity: 0.7"/>
    </g>
    <g id="text_31">
     <!-- $E^{Elec},Solar-MILP$ -->
     <g transform="translate(729.496 252.8125) scale(0.1 -0.1)">
      <defs>
       <path id="DejaVuSans-Oblique-63" d="M 3431 3366 
L 3316 2797 
Q 3109 2947 2876 3022 
Q 2644 3097 2394 3097 
Q 2119 3097 1870 3000 
Q 1622 2903 1453 2725 
Q 1184 2453 1037 2087 
Q 891 1722 891 1331 
Q 891 859 1127 628 
Q 1363 397 1844 397 
Q 2081 397 2348 469 
Q 2616 541 2906 684 
L 2797 116 
Q 2547 13 2283 -39 
Q 2019 -91 1741 -91 
Q 1044 -91 669 257 
Q 294 606 294 1253 
Q 294 1797 489 2255 
Q 684 2713 1069 3078 
Q 1331 3328 1684 3456 
Q 2038 3584 2456 3584 
Q 2700 3584 2940 3529 
Q 3181 3475 3431 3366 
z
" transform="scale(0.015625)"/>
      </defs>
      <use xlink:href="#DejaVuSans-Oblique-45" transform="translate(0 0.529687)"/>
      <use xlink:href="#DejaVuSans-Oblique-45" transform="translate(70.200365 38.810937) scale(0.7)"/>
      <use xlink:href="#DejaVuSans-Oblique-6c" transform="translate(114.42888 38.810937) scale(0.7)"/>
      <use xlink:href="#DejaVuSans-Oblique-65" transform="translate(133.877122 38.810937) scale(0.7)"/>
      <use xlink:href="#DejaVuSans-Oblique-63" transform="translate(176.943529 38.810937) scale(0.7)"/>
      <use xlink:href="#DejaVuSans-2c" transform="translate(218.164232 0.529687)"/>
      <use xlink:href="#DejaVuSans-Oblique-53" transform="translate(269.433763 0.529687)"/>
      <use xlink:href="#DejaVuSans-Oblique-6f" transform="translate(332.910326 0.529687)"/>
      <use xlink:href="#DejaVuSans-Oblique-6c" transform="translate(394.091966 0.529687)"/>
      <use xlink:href="#DejaVuSans-Oblique-61" transform="translate(421.875169 0.529687)"/>
      <use xlink:href="#DejaVuSans-Oblique-72" transform="translate(483.154466 0.529687)"/>
      <use xlink:href="#DejaVuSans-2212" transform="translate(543.750169 0.529687)"/>
      <use xlink:href="#DejaVuSans-Oblique-4d" transform="translate(647.021654 0.529687)"/>
      <use xlink:href="#DejaVuSans-Oblique-49" transform="translate(733.300951 0.529687)"/>
      <use xlink:href="#DejaVuSans-Oblique-4c" transform="translate(762.793138 0.529687)"/>
      <use xlink:href="#DejaVuSans-Oblique-50" transform="translate(818.506029 0.529687)"/>
     </g>
    </g>
    <g id="line2d_45">
     <path d="M 701.496 264.7125 
L 711.496 264.7125 
L 711.496 264.7125 
L 721.496 264.7125 
L 721.496 264.7125 
" style="fill: none; stroke-dasharray: 6.4,1.6,1,1.6; stroke-dashoffset: 0; stroke: #ffa500; stroke-opacity: 0.7"/>
    </g>
    <g id="text_32">
     <!-- $E^{Solar},Solar-MILP$ -->
     <g transform="translate(729.496 268.2125) scale(0.1 -0.1)">
      <use xlink:href="#DejaVuSans-Oblique-45" transform="translate(0 0.529687)"/>
      <use xlink:href="#DejaVuSans-Oblique-53" transform="translate(70.200365 38.810937) scale(0.7)"/>
      <use xlink:href="#DejaVuSans-Oblique-6f" transform="translate(114.633958 38.810937) scale(0.7)"/>
      <use xlink:href="#DejaVuSans-Oblique-6c" transform="translate(157.461107 38.810937) scale(0.7)"/>
      <use xlink:href="#DejaVuSans-Oblique-61" transform="translate(176.909349 38.810937) scale(0.7)"/>
      <use xlink:href="#DejaVuSans-Oblique-72" transform="translate(219.804857 38.810937) scale(0.7)"/>
      <use xlink:href="#DejaVuSans-2c" transform="translate(251.318529 0.529687)"/>
      <use xlink:href="#DejaVuSans-Oblique-53" transform="translate(302.58806 0.529687)"/>
      <use xlink:href="#DejaVuSans-Oblique-6f" transform="translate(366.064622 0.529687)"/>
      <use xlink:href="#DejaVuSans-Oblique-6c" transform="translate(427.246263 0.529687)"/>
      <use xlink:href="#DejaVuSans-Oblique-61" transform="translate(455.029466 0.529687)"/>
      <use xlink:href="#DejaVuSans-Oblique-72" transform="translate(516.308763 0.529687)"/>
      <use xlink:href="#DejaVuSans-2212" transform="translate(576.904466 0.529687)"/>
      <use xlink:href="#DejaVuSans-Oblique-4d" transform="translate(680.175951 0.529687)"/>
      <use xlink:href="#DejaVuSans-Oblique-49" transform="translate(766.455247 0.529687)"/>
      <use xlink:href="#DejaVuSans-Oblique-4c" transform="translate(795.947435 0.529687)"/>
      <use xlink:href="#DejaVuSans-Oblique-50" transform="translate(851.660326 0.529687)"/>
     </g>
    </g>
    <g id="line2d_46">
     <path d="M 701.496 280.9 
L 711.496 280.9 
L 711.496 280.9 
L 721.496 280.9 
L 721.496 280.9 
" style="fill: none; stroke-dasharray: 6.4,1.6,1,1.6; stroke-dashoffset: 0; stroke: #008000; stroke-opacity: 0.7"/>
    </g>
    <g id="text_33">
     <!-- $E^{in},Apt&amp;Goh$ -->
     <g transform="translate(729.496 284.4) scale(0.1 -0.1)">
      <use xlink:href="#DejaVuSans-Oblique-45" transform="translate(0 0.529687)"/>
      <use xlink:href="#DejaVuSans-Oblique-69" transform="translate(70.200365 38.810937) scale(0.7)"/>
      <use xlink:href="#DejaVuSans-Oblique-6e" transform="translate(89.648607 38.810937) scale(0.7)"/>
      <use xlink:href="#DejaVuSans-2c" transform="translate(136.748216 0.529687)"/>
      <use xlink:href="#DejaVuSans-Oblique-41" transform="translate(188.017747 0.529687)"/>
      <use xlink:href="#DejaVuSans-Oblique-70" transform="translate(256.425951 0.529687)"/>
      <use xlink:href="#DejaVuSans-Oblique-74" transform="translate(319.902513 0.529687)"/>
      <use xlink:href="#DejaVuSans-26" transform="translate(359.111497 0.529687)"/>
      <use xlink:href="#DejaVuSans-Oblique-47" transform="translate(437.090013 0.529687)"/>
      <use xlink:href="#DejaVuSans-Oblique-6f" transform="translate(514.580247 0.529687)"/>
      <use xlink:href="#DejaVuSans-Oblique-68" transform="translate(575.761888 0.529687)"/>
     </g>
    </g>
    <g id="line2d_47">
     <path d="M 701.496 296.4125 
L 711.496 296.4125 
L 711.496 296.4125 
L 721.496 296.4125 
L 721.496 296.4125 
" style="fill: none; stroke-dasharray: 6.4,1.6,1,1.6; stroke-dashoffset: 0; stroke: #0000ff; stroke-opacity: 0.7"/>
    </g>
    <g id="text_34">
     <!-- $E^{in},Du&amp;Lu$ -->
     <g transform="translate(729.496 299.9125) scale(0.1 -0.1)">
      <use xlink:href="#DejaVuSans-Oblique-45" transform="translate(0 0.529687)"/>
      <use xlink:href="#DejaVuSans-Oblique-69" transform="translate(70.200365 38.810937) scale(0.7)"/>
      <use xlink:href="#DejaVuSans-Oblique-6e" transform="translate(89.648607 38.810937) scale(0.7)"/>
      <use xlink:href="#DejaVuSans-2c" transform="translate(136.748216 0.529687)"/>
      <use xlink:href="#DejaVuSans-Oblique-44" transform="translate(188.017747 0.529687)"/>
      <use xlink:href="#DejaVuSans-Oblique-75" transform="translate(265.019701 0.529687)"/>
      <use xlink:href="#DejaVuSans-26" transform="translate(328.398607 0.529687)"/>
      <use xlink:href="#DejaVuSans-Oblique-4c" transform="translate(406.377122 0.529687)"/>
      <use xlink:href="#DejaVuSans-Oblique-75" transform="translate(462.090013 0.529687)"/>
     </g>
    </g>
    <g id="line2d_48">
     <path d="M 701.496 312.6 
L 711.496 312.6 
L 711.496 312.6 
L 721.496 312.6 
L 721.496 312.6 
" style="fill: none; stroke-dasharray: 6.4,1.6,1,1.6; stroke-dashoffset: 0; stroke: #808080; stroke-opacity: 0.7"/>
    </g>
    <g id="text_35">
     <!-- $E^{in},Fixed \enspace Setpoint$ -->
     <g transform="translate(729.496 316.1) scale(0.1 -0.1)">
      <use xlink:href="#DejaVuSans-Oblique-45" transform="translate(0 0.529687)"/>
      <use xlink:href="#DejaVuSans-Oblique-69" transform="translate(70.200365 38.810937) scale(0.7)"/>
      <use xlink:href="#DejaVuSans-Oblique-6e" transform="translate(89.648607 38.810937) scale(0.7)"/>
      <use xlink:href="#DejaVuSans-2c" transform="translate(136.748216 0.529687)"/>
      <use xlink:href="#DejaVuSans-Oblique-46" transform="translate(188.017747 0.529687)"/>
      <use xlink:href="#DejaVuSans-Oblique-69" transform="translate(245.537279 0.529687)"/>
      <use xlink:href="#DejaVuSans-Oblique-78" transform="translate(273.320482 0.529687)"/>
      <use xlink:href="#DejaVuSans-Oblique-65" transform="translate(332.500169 0.529687)"/>
      <use xlink:href="#DejaVuSans-Oblique-64" transform="translate(394.023607 0.529687)"/>
      <use xlink:href="#DejaVuSans-Oblique-53" transform="translate(506.206224 0.529687)"/>
      <use xlink:href="#DejaVuSans-Oblique-65" transform="translate(569.682786 0.529687)"/>
      <use xlink:href="#DejaVuSans-Oblique-74" transform="translate(631.206224 0.529687)"/>
      <use xlink:href="#DejaVuSans-Oblique-70" transform="translate(670.415208 0.529687)"/>
      <use xlink:href="#DejaVuSans-Oblique-6f" transform="translate(733.891771 0.529687)"/>
      <use xlink:href="#DejaVuSans-Oblique-69" transform="translate(795.073411 0.529687)"/>
      <use xlink:href="#DejaVuSans-Oblique-6e" transform="translate(822.856615 0.529687)"/>
      <use xlink:href="#DejaVuSans-Oblique-74" transform="translate(886.235521 0.529687)"/>
     </g>
    </g>
    <g id="line2d_49">
     <path d="M 701.496 327.1125 
L 711.496 327.1125 
L 711.496 327.1125 
L 721.496 327.1125 
L 721.496 327.1125 
" style="fill: none; stroke-dasharray: 1.5,2.475; stroke-dashoffset: 0; stroke: #000000; stroke-width: 1.5"/>
    </g>
    <g id="text_36">
     <!-- $e^{des}$ -->
     <g transform="translate(729.496 330.6125) scale(0.1 -0.1)">
      <use xlink:href="#DejaVuSans-Oblique-65" transform="translate(0 0.529687)"/>
      <use xlink:href="#DejaVuSans-Oblique-64" transform="translate(66.173333 38.810937) scale(0.7)"/>
      <use xlink:href="#DejaVuSans-Oblique-65" transform="translate(110.606927 38.810937) scale(0.7)"/>
      <use xlink:href="#DejaVuSans-Oblique-73" transform="translate(153.673333 38.810937) scale(0.7)"/>
     </g>
    </g>
    <g id="line2d_50">
     <path d="M 701.496 341.5125 
L 711.496 341.5125 
L 711.496 341.5125 
L 721.496 341.5125 
L 721.496 341.5125 
" style="fill: none; stroke: #ffff00; stroke-opacity: 0.9; stroke-width: 2.5; stroke-linecap: square"/>
    </g>
    <g id="text_37">
     <!-- $e^{Solar}$ -->
     <g transform="translate(729.496 345.0125) scale(0.1 -0.1)">
      <use xlink:href="#DejaVuSans-Oblique-65" transform="translate(0 0.529687)"/>
      <use xlink:href="#DejaVuSans-Oblique-53" transform="translate(66.173333 38.810937) scale(0.7)"/>
      <use xlink:href="#DejaVuSans-Oblique-6f" transform="translate(110.606927 38.810937) scale(0.7)"/>
      <use xlink:href="#DejaVuSans-Oblique-6c" transform="translate(153.434076 38.810937) scale(0.7)"/>
      <use xlink:href="#DejaVuSans-Oblique-61" transform="translate(172.882318 38.810937) scale(0.7)"/>
      <use xlink:href="#DejaVuSans-Oblique-72" transform="translate(215.777826 38.810937) scale(0.7)"/>
     </g>
    </g>
   </g>
  </g>
  <g id="axes_4">
   <g id="patch_17">
    <path d="M 49.464 428.544 
L 692.496 428.544 
L 692.496 340.992 
L 49.464 340.992 
z
" style="fill: #ffffff"/>
   </g>
   <g id="matplotlib.axis_5">
    <g id="xtick_7">
     <g id="line2d_51">
      <g>
       <use xlink:href="#ma7f3e73287" x="53.276443" y="428.544" style="stroke: #000000; stroke-width: 0.8"/>
      </g>
     </g>
     <g id="text_38">
      <!-- 0 -->
      <g transform="translate(50.495974 442.701813) scale(0.1 -0.1)">
       <use xlink:href="#ArialMT-30"/>
      </g>
     </g>
    </g>
    <g id="xtick_8">
     <g id="line2d_52">
      <g>
       <use xlink:href="#ma7f3e73287" x="180.357866" y="428.544" style="stroke: #000000; stroke-width: 0.8"/>
      </g>
     </g>
     <g id="text_39">
      <!-- 5 -->
      <g transform="translate(177.577397 442.701813) scale(0.1 -0.1)">
       <use xlink:href="#ArialMT-35"/>
      </g>
     </g>
    </g>
    <g id="xtick_9">
     <g id="line2d_53">
      <g>
       <use xlink:href="#ma7f3e73287" x="307.439289" y="428.544" style="stroke: #000000; stroke-width: 0.8"/>
      </g>
     </g>
     <g id="text_40">
      <!-- 10 -->
      <g transform="translate(301.878351 442.701813) scale(0.1 -0.1)">
       <use xlink:href="#ArialMT-31"/>
       <use xlink:href="#ArialMT-30" x="55.615234"/>
      </g>
     </g>
    </g>
    <g id="xtick_10">
     <g id="line2d_54">
      <g>
       <use xlink:href="#ma7f3e73287" x="434.520711" y="428.544" style="stroke: #000000; stroke-width: 0.8"/>
      </g>
     </g>
     <g id="text_41">
      <!-- 15 -->
      <g transform="translate(428.959774 442.701813) scale(0.1 -0.1)">
       <use xlink:href="#ArialMT-31"/>
       <use xlink:href="#ArialMT-35" x="55.615234"/>
      </g>
     </g>
    </g>
    <g id="xtick_11">
     <g id="line2d_55">
      <g>
       <use xlink:href="#ma7f3e73287" x="561.602134" y="428.544" style="stroke: #000000; stroke-width: 0.8"/>
      </g>
     </g>
     <g id="text_42">
      <!-- 20 -->
      <g transform="translate(556.041197 442.701813) scale(0.1 -0.1)">
       <use xlink:href="#ArialMT-32"/>
       <use xlink:href="#ArialMT-30" x="55.615234"/>
      </g>
     </g>
    </g>
    <g id="xtick_12">
     <g id="line2d_56">
      <g>
       <use xlink:href="#ma7f3e73287" x="688.683557" y="428.544" style="stroke: #000000; stroke-width: 0.8"/>
      </g>
     </g>
     <g id="text_43">
      <!-- 25 -->
      <g transform="translate(683.12262 442.701813) scale(0.1 -0.1)">
       <use xlink:href="#ArialMT-32"/>
       <use xlink:href="#ArialMT-35" x="55.615234"/>
      </g>
     </g>
    </g>
   </g>
   <g id="matplotlib.axis_6">
    <g id="ytick_13">
     <g id="line2d_57">
      <g>
       <use xlink:href="#md722349be4" x="49.464" y="413.154256" style="stroke: #000000; stroke-width: 0.8"/>
      </g>
     </g>
     <g id="text_44">
      <!-- 0.04 -->
      <g transform="translate(23.003062 416.733163) scale(0.1 -0.1)">
       <defs>
        <path id="ArialMT-2e" d="M 581 0 
L 581 641 
L 1222 641 
L 1222 0 
L 581 0 
z
" transform="scale(0.015625)"/>
       </defs>
       <use xlink:href="#ArialMT-30"/>
       <use xlink:href="#ArialMT-2e" x="55.615234"/>
       <use xlink:href="#ArialMT-30" x="83.398438"/>
       <use xlink:href="#ArialMT-34" x="139.013672"/>
      </g>
     </g>
    </g>
    <g id="ytick_14">
     <g id="line2d_58">
      <g>
       <use xlink:href="#md722349be4" x="49.464" y="390.912332" style="stroke: #000000; stroke-width: 0.8"/>
      </g>
     </g>
     <g id="text_45">
      <!-- 0.06 -->
      <g transform="translate(23.003062 394.491238) scale(0.1 -0.1)">
       <use xlink:href="#ArialMT-30"/>
       <use xlink:href="#ArialMT-2e" x="55.615234"/>
       <use xlink:href="#ArialMT-30" x="83.398438"/>
       <use xlink:href="#ArialMT-36" x="139.013672"/>
      </g>
     </g>
    </g>
    <g id="ytick_15">
     <g id="line2d_59">
      <g>
       <use xlink:href="#md722349be4" x="49.464" y="368.670407" style="stroke: #000000; stroke-width: 0.8"/>
      </g>
     </g>
     <g id="text_46">
      <!-- 0.08 -->
      <g transform="translate(23.003062 372.249313) scale(0.1 -0.1)">
       <use xlink:href="#ArialMT-30"/>
       <use xlink:href="#ArialMT-2e" x="55.615234"/>
       <use xlink:href="#ArialMT-30" x="83.398438"/>
       <use xlink:href="#ArialMT-38" x="139.013672"/>
      </g>
     </g>
    </g>
    <g id="ytick_16">
     <g id="line2d_60">
      <g>
       <use xlink:href="#md722349be4" x="49.464" y="346.428482" style="stroke: #000000; stroke-width: 0.8"/>
      </g>
     </g>
     <g id="text_47">
      <!-- 0.10 -->
      <g transform="translate(23.003062 350.007389) scale(0.1 -0.1)">
       <use xlink:href="#ArialMT-30"/>
       <use xlink:href="#ArialMT-2e" x="55.615234"/>
       <use xlink:href="#ArialMT-31" x="83.398438"/>
       <use xlink:href="#ArialMT-30" x="139.013672"/>
      </g>
     </g>
    </g>
    <g id="text_48">
     <!-- $/MWh -->
     <g transform="translate(8.89458 400.602375) rotate(-90) scale(0.1 -0.1)">
      <defs>
       <path id="ArialMT-24" d="M 1594 -659 
L 1594 -97 
Q 1172 -44 908 92 
Q 644 228 451 531 
Q 259 834 228 1272 
L 794 1378 
Q 859 925 1025 713 
Q 1263 413 1594 378 
L 1594 2169 
Q 1247 2234 884 2438 
Q 616 2588 470 2853 
Q 325 3119 325 3456 
Q 325 4056 750 4428 
Q 1034 4678 1594 4734 
L 1594 5003 
L 1925 5003 
L 1925 4734 
Q 2416 4688 2703 4447 
Q 3072 4141 3147 3606 
L 2566 3519 
Q 2516 3850 2358 4026 
Q 2200 4203 1925 4259 
L 1925 2638 
Q 2350 2531 2488 2472 
Q 2750 2356 2915 2190 
Q 3081 2025 3170 1797 
Q 3259 1569 3259 1303 
Q 3259 719 2887 328 
Q 2516 -63 1925 -91 
L 1925 -659 
L 1594 -659 
z
M 1594 4266 
Q 1266 4216 1077 4003 
Q 888 3791 888 3500 
Q 888 3213 1048 3019 
Q 1209 2825 1594 2709 
L 1594 4266 
z
M 1925 378 
Q 2253 419 2467 662 
Q 2681 906 2681 1266 
Q 2681 1572 2529 1758 
Q 2378 1944 1925 2091 
L 1925 378 
z
" transform="scale(0.015625)"/>
       <path id="ArialMT-2f" d="M 0 -78 
L 1328 4659 
L 1778 4659 
L 453 -78 
L 0 -78 
z
" transform="scale(0.015625)"/>
       <path id="ArialMT-4d" d="M 475 0 
L 475 4581 
L 1388 4581 
L 2472 1338 
Q 2622 884 2691 659 
Q 2769 909 2934 1394 
L 4031 4581 
L 4847 4581 
L 4847 0 
L 4263 0 
L 4263 3834 
L 2931 0 
L 2384 0 
L 1059 3900 
L 1059 0 
L 475 0 
z
" transform="scale(0.015625)"/>
      </defs>
      <use xlink:href="#ArialMT-24"/>
      <use xlink:href="#ArialMT-2f" x="55.615234"/>
      <use xlink:href="#ArialMT-4d" x="83.398438"/>
      <use xlink:href="#ArialMT-57" x="166.699219"/>
      <use xlink:href="#ArialMT-68" x="261.083984"/>
     </g>
    </g>
   </g>
   <g id="line2d_61">
    <path d="M 78.692727 349.920465 
L 104.109012 349.920465 
L 104.109012 423.48563 
L 129.525296 423.48563 
L 129.525296 424.130646 
L 154.941581 424.130646 
L 154.941581 424.564364 
L 180.357866 424.564364 
L 180.357866 424.40867 
L 205.77415 424.40867 
L 205.77415 424.152888 
L 231.190435 424.152888 
L 231.190435 424.241856 
L 256.606719 424.241856 
L 256.606719 372.662833 
L 282.023004 372.662833 
L 282.023004 356.303897 
L 307.439289 356.303897 
L 307.439289 369.682415 
L 332.855573 369.682415 
L 332.855573 370.460882 
L 358.271858 370.460882 
L 358.271858 371.12814 
L 383.688142 371.12814 
L 383.688142 372.129026 
L 409.104427 372.129026 
L 409.104427 370.705543 
L 434.520711 370.705543 
L 434.520711 355.214043 
L 459.936996 355.214043 
L 459.936996 351.077045 
L 485.353281 351.077045 
L 485.353281 347.851966 
L 510.769565 347.851966 
L 510.769565 346.339515 
L 536.18585 346.339515 
L 536.18585 345.805709 
L 561.602134 345.805709 
L 561.602134 346.350636 
L 587.018419 346.350636 
L 587.018419 346.206063 
L 612.434704 346.206063 
L 612.434704 347.974296 
L 637.850988 347.974296 
L 637.850988 344.971636 
L 663.267273 344.971636 
L 663.267273 349.242086 
" clip-path="url(#p7a50bf6d02)" style="fill: none; stroke: #000000; stroke-width: 4; stroke-linecap: square"/>
   </g>
   <g id="patch_18">
    <path d="M 49.464 428.544 
L 49.464 340.992 
" style="fill: none; stroke: #000000; stroke-width: 0.8; stroke-linejoin: miter; stroke-linecap: square"/>
   </g>
   <g id="patch_19">
    <path d="M 692.496 428.544 
L 692.496 340.992 
" style="fill: none; stroke: #000000; stroke-width: 0.8; stroke-linejoin: miter; stroke-linecap: square"/>
   </g>
   <g id="patch_20">
    <path d="M 49.464 428.544 
L 692.496 428.544 
" style="fill: none; stroke: #000000; stroke-width: 0.8; stroke-linejoin: miter; stroke-linecap: square"/>
   </g>
   <g id="patch_21">
    <path d="M 49.464 340.992 
L 692.496 340.992 
" style="fill: none; stroke: #000000; stroke-width: 0.8; stroke-linejoin: miter; stroke-linecap: square"/>
   </g>
   <g id="legend_4">
    <g id="line2d_62">
     <path d="M 701.496 383.853156 
L 711.496 383.853156 
L 711.496 383.853156 
L 721.496 383.853156 
L 721.496 383.853156 
" style="fill: none; stroke: #000000; stroke-width: 4; stroke-linecap: square"/>
    </g>
    <g id="text_49">
     <!-- $P^{p}$ -->
     <g transform="translate(729.496 387.353156) scale(0.1 -0.1)">
      <use xlink:href="#DejaVuSans-Oblique-50" transform="translate(0 0.51875)"/>
      <use xlink:href="#DejaVuSans-Oblique-70" transform="translate(67.319505 38.8) scale(0.7)"/>
     </g>
    </g>
   </g>
  </g>
 </g>
 <defs>
  <clipPath id="pf25e2c5775">
   <rect x="49.464" y="4.608" width="643.032" height="110.592"/>
  </clipPath>
  <clipPath id="p5704708fa9">
   <rect x="49.464" y="124.416" width="643.032" height="110.592"/>
  </clipPath>
  <clipPath id="p3f29ed9308">
   <rect x="49.464" y="244.224" width="643.032" height="87.552"/>
  </clipPath>
  <clipPath id="p7a50bf6d02">
   <rect x="49.464" y="340.992" width="643.032" height="87.552"/>
  </clipPath>
 </defs>
</svg>
