<?xml version="1.0" encoding="utf-8" standalone="no"?>
<!DOCTYPE svg PUBLIC "-//W3C//DTD SVG 1.1//EN"
  "http://www.w3.org/Graphics/SVG/1.1/DTD/svg11.dtd">
<!-- Created with matplotlib (https://matplotlib.org/) -->
<svg height="460.8pt" version="1.1" viewBox="0 0 824.832 460.8" width="824.832pt" xmlns="http://www.w3.org/2000/svg" xmlns:xlink="http://www.w3.org/1999/xlink">
 <defs>
  <style type="text/css">
*{stroke-linecap:butt;stroke-linejoin:round;}
  </style>
 </defs>
 <g id="figure_1">
  <g id="patch_1">
   <path d="M 0 460.8 
L 824.832 460.8 
L 824.832 0 
L 0 0 
z
" style="fill:#ffffff;"/>
  </g>
  <g id="axes_1">
   <g id="patch_2">
    <path d="M 49.48992 115.2 
L 692.85888 115.2 
L 692.85888 4.608 
L 49.48992 4.608 
z
" style="fill:#ffffff;"/>
   </g>
   <g id="matplotlib.axis_1">
    <g id="ytick_1">
     <g id="line2d_1">
      <defs>
       <path d="M 0 0 
L -3.5 0 
" id="mf43ac3317a" style="stroke:#000000;stroke-width:0.8;"/>
      </defs>
      <g>
       <use style="stroke:#000000;stroke-width:0.8;" x="49.48992" xlink:href="#mf43ac3317a" y="110.173091"/>
      </g>
     </g>
     <g id="text_1">
      <!-- 0 -->
      <defs>
       <path d="M 4.15625 35.296875 
Q 4.15625 48 6.765625 55.734375 
Q 9.375 63.484375 14.515625 67.671875 
Q 19.671875 71.875 27.484375 71.875 
Q 33.25 71.875 37.59375 69.546875 
Q 41.9375 67.234375 44.765625 62.859375 
Q 47.609375 58.5 49.21875 52.21875 
Q 50.828125 45.953125 50.828125 35.296875 
Q 50.828125 22.703125 48.234375 14.96875 
Q 45.65625 7.234375 40.5 3 
Q 35.359375 -1.21875 27.484375 -1.21875 
Q 17.140625 -1.21875 11.234375 6.203125 
Q 4.15625 15.140625 4.15625 35.296875 
z
M 13.1875 35.296875 
Q 13.1875 17.671875 17.3125 11.828125 
Q 21.4375 6 27.484375 6 
Q 33.546875 6 37.671875 11.859375 
Q 41.796875 17.71875 41.796875 35.296875 
Q 41.796875 52.984375 37.671875 58.78125 
Q 33.546875 64.59375 27.390625 64.59375 
Q 21.34375 64.59375 17.71875 59.46875 
Q 13.1875 52.9375 13.1875 35.296875 
z
" id="ArialMT-48"/>
      </defs>
      <g transform="translate(36.928983 113.751997)scale(0.1 -0.1)">
       <use xlink:href="#ArialMT-48"/>
      </g>
     </g>
    </g>
    <g id="ytick_2">
     <g id="line2d_2">
      <g>
       <use style="stroke:#000000;stroke-width:0.8;" x="49.48992" xlink:href="#mf43ac3317a" y="82.628384"/>
      </g>
     </g>
     <g id="text_2">
      <!-- 20 -->
      <defs>
       <path d="M 50.34375 8.453125 
L 50.34375 0 
L 3.03125 0 
Q 2.9375 3.171875 4.046875 6.109375 
Q 5.859375 10.9375 9.828125 15.625 
Q 13.8125 20.3125 21.34375 26.46875 
Q 33.015625 36.03125 37.109375 41.625 
Q 41.21875 47.21875 41.21875 52.203125 
Q 41.21875 57.421875 37.46875 61 
Q 33.734375 64.59375 27.734375 64.59375 
Q 21.390625 64.59375 17.578125 60.78125 
Q 13.765625 56.984375 13.71875 50.25 
L 4.6875 51.171875 
Q 5.609375 61.28125 11.65625 66.578125 
Q 17.71875 71.875 27.9375 71.875 
Q 38.234375 71.875 44.234375 66.15625 
Q 50.25 60.453125 50.25 52 
Q 50.25 47.703125 48.484375 43.546875 
Q 46.734375 39.40625 42.65625 34.8125 
Q 38.578125 30.21875 29.109375 22.21875 
Q 21.1875 15.578125 18.9375 13.203125 
Q 16.703125 10.84375 15.234375 8.453125 
z
" id="ArialMT-50"/>
      </defs>
      <g transform="translate(31.368045 86.20729)scale(0.1 -0.1)">
       <use xlink:href="#ArialMT-50"/>
       <use x="55.615234" xlink:href="#ArialMT-48"/>
      </g>
     </g>
    </g>
    <g id="ytick_3">
     <g id="line2d_3">
      <g>
       <use style="stroke:#000000;stroke-width:0.8;" x="49.48992" xlink:href="#mf43ac3317a" y="55.083676"/>
      </g>
     </g>
     <g id="text_3">
      <!-- 40 -->
      <defs>
       <path d="M 32.328125 0 
L 32.328125 17.140625 
L 1.265625 17.140625 
L 1.265625 25.203125 
L 33.9375 71.578125 
L 41.109375 71.578125 
L 41.109375 25.203125 
L 50.78125 25.203125 
L 50.78125 17.140625 
L 41.109375 17.140625 
L 41.109375 0 
z
M 32.328125 25.203125 
L 32.328125 57.46875 
L 9.90625 25.203125 
z
" id="ArialMT-52"/>
      </defs>
      <g transform="translate(31.368045 58.662582)scale(0.1 -0.1)">
       <use xlink:href="#ArialMT-52"/>
       <use x="55.615234" xlink:href="#ArialMT-48"/>
      </g>
     </g>
    </g>
    <g id="ytick_4">
     <g id="line2d_4">
      <g>
       <use style="stroke:#000000;stroke-width:0.8;" x="49.48992" xlink:href="#mf43ac3317a" y="27.538969"/>
      </g>
     </g>
     <g id="text_4">
      <!-- 60 -->
      <defs>
       <path d="M 49.75 54.046875 
L 41.015625 53.375 
Q 39.84375 58.546875 37.703125 60.890625 
Q 34.125 64.65625 28.90625 64.65625 
Q 24.703125 64.65625 21.53125 62.3125 
Q 17.390625 59.28125 14.984375 53.46875 
Q 12.59375 47.65625 12.5 36.921875 
Q 15.671875 41.75 20.265625 44.09375 
Q 24.859375 46.4375 29.890625 46.4375 
Q 38.671875 46.4375 44.84375 39.96875 
Q 51.03125 33.5 51.03125 23.25 
Q 51.03125 16.5 48.125 10.71875 
Q 45.21875 4.9375 40.140625 1.859375 
Q 35.0625 -1.21875 28.609375 -1.21875 
Q 17.625 -1.21875 10.6875 6.859375 
Q 3.765625 14.9375 3.765625 33.5 
Q 3.765625 54.25 11.421875 63.671875 
Q 18.109375 71.875 29.4375 71.875 
Q 37.890625 71.875 43.28125 67.140625 
Q 48.6875 62.40625 49.75 54.046875 
z
M 13.875 23.1875 
Q 13.875 18.65625 15.796875 14.5 
Q 17.71875 10.359375 21.1875 8.171875 
Q 24.65625 6 28.46875 6 
Q 34.03125 6 38.03125 10.484375 
Q 42.046875 14.984375 42.046875 22.703125 
Q 42.046875 30.125 38.078125 34.390625 
Q 34.125 38.671875 28.125 38.671875 
Q 22.171875 38.671875 18.015625 34.390625 
Q 13.875 30.125 13.875 23.1875 
z
" id="ArialMT-54"/>
      </defs>
      <g transform="translate(31.368045 31.117875)scale(0.1 -0.1)">
       <use xlink:href="#ArialMT-54"/>
       <use x="55.615234" xlink:href="#ArialMT-48"/>
      </g>
     </g>
    </g>
    <g id="text_5">
     <!-- $^{\circ}C$ -->
     <defs>
      <path d="M 31.296875 40.671875 
Q 27.390625 40.671875 24.703125 37.953125 
Q 22.015625 35.25 22.015625 31.34375 
Q 22.015625 27.484375 24.703125 24.828125 
Q 27.390625 22.171875 31.296875 22.171875 
Q 35.203125 22.171875 37.890625 24.828125 
Q 40.578125 27.484375 40.578125 31.34375 
Q 40.578125 35.203125 37.859375 37.9375 
Q 35.15625 40.671875 31.296875 40.671875 
z
M 31.296875 46.96875 
Q 34.421875 46.96875 37.296875 45.765625 
Q 40.1875 44.578125 42.28125 42.328125 
Q 44.53125 40.140625 45.65625 37.34375 
Q 46.78125 34.5625 46.78125 31.34375 
Q 46.78125 24.90625 42.265625 20.4375 
Q 37.75 15.96875 31.203125 15.96875 
Q 24.609375 15.96875 20.21875 20.359375 
Q 15.828125 24.75 15.828125 31.34375 
Q 15.828125 37.890625 20.3125 42.421875 
Q 24.8125 46.96875 31.296875 46.96875 
z
" id="DejaVuSans-8728"/>
      <path d="M 69.484375 67.28125 
L 67.484375 56.890625 
Q 62.796875 61.625 57.546875 63.921875 
Q 52.296875 66.21875 46.1875 66.21875 
Q 37.84375 66.21875 31.515625 62.203125 
Q 25.203125 58.203125 20.609375 50 
Q 17.671875 44.734375 16.125 38.84375 
Q 14.59375 32.953125 14.59375 27 
Q 14.59375 17.046875 19.75 11.8125 
Q 24.90625 6.59375 34.71875 6.59375 
Q 41.5 6.59375 47.75 8.765625 
Q 54 10.9375 59.90625 15.28125 
L 57.625 3.609375 
Q 51.8125 1.125 45.875 -0.140625 
Q 39.9375 -1.421875 33.984375 -1.421875 
Q 19.96875 -1.421875 12.078125 6.1875 
Q 4.203125 13.8125 4.203125 27.390625 
Q 4.203125 36.078125 7.203125 44.46875 
Q 10.203125 52.875 15.828125 59.8125 
Q 21.78125 67.1875 29.421875 70.703125 
Q 37.0625 74.21875 47.21875 74.21875 
Q 53.46875 74.21875 59.0625 72.484375 
Q 64.65625 70.75 69.484375 67.28125 
z
" id="DejaVuSans-Oblique-67"/>
     </defs>
     <g transform="translate(13.403865 65.804)rotate(-90)scale(0.1 -0.1)">
      <use transform="translate(0.957031 39.0625)scale(0.7)" xlink:href="#DejaVuSans-8728"/>
      <use transform="translate(47.509766 0.78125)" xlink:href="#DejaVuSans-Oblique-67"/>
     </g>
    </g>
   </g>
   <g id="line2d_5">
    <path clip-path="url(#p0ad363a1fb)" d="M 78.733964 75.742207 
L 104.163567 75.742207 
L 104.163567 75.742207 
L 129.59317 75.742207 
L 129.59317 75.742207 
L 155.022773 75.742207 
L 155.022773 75.742207 
L 180.452376 75.742207 
L 180.452376 75.742207 
L 205.881979 75.742207 
L 205.881979 75.742207 
L 231.311583 75.742207 
L 231.311583 21.203686 
L 256.741186 21.203686 
L 256.741186 75.742207 
L 282.170789 75.742207 
L 282.170789 75.742207 
L 307.600392 75.742207 
L 307.600392 75.742207 
L 333.029995 75.742207 
L 333.029995 75.742207 
L 358.459598 75.742207 
L 358.459598 75.742207 
L 383.889202 75.742207 
L 383.889202 9.634909 
L 409.318805 9.634909 
L 409.318805 75.742207 
L 434.748408 75.742207 
L 434.748408 75.742207 
L 460.178011 75.742207 
L 460.178011 75.742207 
L 485.607614 75.742207 
L 485.607614 20.239621 
L 511.037217 20.239621 
L 511.037217 75.742207 
L 536.466821 75.742207 
L 536.466821 75.742207 
L 561.896424 75.742207 
L 561.896424 75.742207 
L 587.326027 75.742207 
L 587.326027 75.742207 
L 612.75563 75.742207 
L 612.75563 75.742207 
L 638.185233 75.742207 
L 638.185233 75.742207 
L 663.614836 75.742207 
L 663.614836 53.981888 
" style="fill:none;stroke:#ff0000;stroke-dasharray:3.7,1.6;stroke-dashoffset:0;"/>
   </g>
   <g id="line2d_6">
    <path clip-path="url(#p0ad363a1fb)" d="M 78.733964 53.017823 
L 104.163567 53.017823 
L 104.163567 110.173091 
L 129.59317 110.173091 
L 129.59317 108.795856 
L 155.022773 108.795856 
L 155.022773 110.173091 
L 180.452376 110.173091 
L 180.452376 108.795856 
L 205.881979 108.795856 
L 205.881979 9.910356 
L 231.311583 9.910356 
L 231.311583 110.173091 
L 256.741186 110.173091 
L 256.741186 110.173091 
L 282.170789 110.173091 
L 282.170789 18.311492 
L 307.600392 18.311492 
L 307.600392 110.173091 
L 333.029995 110.173091 
L 333.029995 108.795856 
L 358.459598 108.795856 
L 358.459598 110.173091 
L 383.889202 110.173091 
L 383.889202 108.795856 
L 409.318805 108.795856 
L 409.318805 37.179616 
L 434.748408 37.179616 
L 434.748408 110.173091 
L 460.178011 110.173091 
L 460.178011 110.173091 
L 485.607614 110.173091 
L 485.607614 110.173091 
L 511.037217 110.173091 
L 511.037217 110.173091 
L 536.466821 110.173091 
L 536.466821 110.173091 
L 561.896424 110.173091 
L 561.896424 57.838147 
L 587.326027 57.838147 
L 587.326027 71.885948 
L 612.75563 71.885948 
L 612.75563 108.795856 
L 638.185233 108.795856 
L 638.185233 108.795856 
L 663.614836 108.795856 
L 663.614836 108.795856 
" style="fill:none;stroke:#00ffff;stroke-dasharray:3.7,1.6;stroke-dashoffset:0;"/>
   </g>
   <g id="patch_3">
    <path d="M 49.48992 115.2 
L 49.48992 4.608 
" style="fill:none;stroke:#000000;stroke-linecap:square;stroke-linejoin:miter;stroke-width:0.8;"/>
   </g>
   <g id="patch_4">
    <path d="M 692.85888 115.2 
L 692.85888 4.608 
" style="fill:none;stroke:#000000;stroke-linecap:square;stroke-linejoin:miter;stroke-width:0.8;"/>
   </g>
   <g id="patch_5">
    <path d="M 49.48992 115.2 
L 692.85888 115.2 
" style="fill:none;stroke:#000000;stroke-linecap:square;stroke-linejoin:miter;stroke-width:0.8;"/>
   </g>
   <g id="patch_6">
    <path d="M 49.48992 4.608 
L 692.85888 4.608 
" style="fill:none;stroke:#000000;stroke-linecap:square;stroke-linejoin:miter;stroke-width:0.8;"/>
   </g>
   <g id="legend_1">
    <g id="line2d_7">
     <path d="M 701.85888 51.6165 
L 721.85888 51.6165 
" style="fill:none;stroke:#ff0000;stroke-dasharray:3.7,1.6;stroke-dashoffset:0;"/>
    </g>
    <g id="line2d_8"/>
    <g id="text_6">
     <!-- $T^{set}, WH-MILP$ -->
     <defs>
      <path d="M 5.90625 72.90625 
L 67.578125 72.90625 
L 66.015625 64.59375 
L 39.984375 64.59375 
L 27.484375 0 
L 17.578125 0 
L 30.078125 64.59375 
L 4.296875 64.59375 
z
" id="DejaVuSans-Oblique-84"/>
      <path d="M 50 53.078125 
L 48.296875 44.578125 
Q 44.734375 46.53125 40.765625 47.5 
Q 36.8125 48.484375 32.625 48.484375 
Q 25.53125 48.484375 21.453125 46.0625 
Q 17.390625 43.65625 17.390625 39.5 
Q 17.390625 34.671875 26.859375 32.078125 
Q 27.59375 31.890625 27.9375 31.78125 
L 30.8125 30.90625 
Q 39.796875 28.421875 42.796875 25.6875 
Q 45.796875 22.953125 45.796875 18.21875 
Q 45.796875 9.515625 38.890625 4.046875 
Q 31.984375 -1.421875 20.796875 -1.421875 
Q 16.453125 -1.421875 11.671875 -0.578125 
Q 6.890625 0.25 1.125 2 
L 2.875 11.28125 
Q 7.8125 8.734375 12.59375 7.421875 
Q 17.390625 6.109375 21.78125 6.109375 
Q 28.375 6.109375 32.5 8.9375 
Q 36.625 11.765625 36.625 16.109375 
Q 36.625 20.796875 25.78125 23.6875 
L 24.859375 23.921875 
L 21.78125 24.703125 
Q 14.9375 26.515625 11.765625 29.46875 
Q 8.59375 32.421875 8.59375 37.015625 
Q 8.59375 45.75 15.15625 50.875 
Q 21.734375 56 33.015625 56 
Q 37.453125 56 41.671875 55.265625 
Q 45.90625 54.546875 50 53.078125 
z
" id="DejaVuSans-Oblique-115"/>
      <path d="M 48.09375 32.234375 
Q 48.25 33.015625 48.3125 33.84375 
Q 48.390625 34.671875 48.390625 35.5 
Q 48.390625 41.453125 44.890625 44.921875 
Q 41.40625 48.390625 35.40625 48.390625 
Q 28.71875 48.390625 23.578125 44.15625 
Q 18.453125 39.9375 15.828125 32.171875 
z
M 55.90625 25.203125 
L 14.109375 25.203125 
Q 13.8125 23.34375 13.71875 22.265625 
Q 13.625 21.1875 13.625 20.40625 
Q 13.625 13.625 17.796875 9.90625 
Q 21.96875 6.203125 29.59375 6.203125 
Q 35.453125 6.203125 40.671875 7.515625 
Q 45.90625 8.84375 50.390625 11.375 
L 48.6875 2.484375 
Q 43.84375 0.53125 38.6875 -0.4375 
Q 33.546875 -1.421875 28.21875 -1.421875 
Q 16.84375 -1.421875 10.71875 4.015625 
Q 4.59375 9.46875 4.59375 19.484375 
Q 4.59375 28.03125 7.640625 35.375 
Q 10.6875 42.71875 16.609375 48.484375 
Q 20.40625 52.09375 25.65625 54.046875 
Q 30.90625 56 36.8125 56 
Q 46.09375 56 51.578125 50.4375 
Q 57.078125 44.875 57.078125 35.5 
Q 57.078125 33.25 56.78125 30.6875 
Q 56.5 28.125 55.90625 25.203125 
z
" id="DejaVuSans-Oblique-101"/>
      <path d="M 42.28125 54.6875 
L 40.921875 47.703125 
L 23 47.703125 
L 17.1875 18.015625 
Q 16.890625 16.359375 16.75 15.234375 
Q 16.609375 14.109375 16.609375 13.484375 
Q 16.609375 10.359375 18.484375 8.9375 
Q 20.359375 7.515625 24.515625 7.515625 
L 33.59375 7.515625 
L 32.078125 0 
L 23.484375 0 
Q 15.484375 0 11.546875 3.125 
Q 7.625 6.25 7.625 12.59375 
Q 7.625 13.71875 7.765625 15.0625 
Q 7.90625 16.40625 8.203125 18.015625 
L 14.015625 47.703125 
L 6.390625 47.703125 
L 7.8125 54.6875 
L 15.28125 54.6875 
L 18.3125 70.21875 
L 27.296875 70.21875 
L 24.3125 54.6875 
z
" id="DejaVuSans-Oblique-116"/>
      <path d="M 11.71875 12.40625 
L 22.015625 12.40625 
L 22.015625 4 
L 14.015625 -11.625 
L 7.71875 -11.625 
L 11.71875 4 
z
" id="DejaVuSans-44"/>
      <path d="M 9.625 72.90625 
L 19.1875 72.90625 
L 22.703125 10.890625 
L 50.203125 72.90625 
L 61.1875 72.90625 
L 64.796875 10.890625 
L 92 72.90625 
L 102 72.90625 
L 69.578125 0 
L 57.171875 0 
L 53.8125 60.796875 
L 26.515625 0 
L 14.109375 0 
z
" id="DejaVuSans-Oblique-87"/>
      <path d="M 16.890625 72.90625 
L 26.8125 72.90625 
L 21 43.015625 
L 56.78125 43.015625 
L 62.59375 72.90625 
L 72.515625 72.90625 
L 58.296875 0 
L 48.390625 0 
L 55.171875 34.71875 
L 19.390625 34.71875 
L 12.59375 0 
L 2.6875 0 
z
" id="DejaVuSans-Oblique-72"/>
      <path d="M 10.59375 35.5 
L 73.1875 35.5 
L 73.1875 27.203125 
L 10.59375 27.203125 
z
" id="DejaVuSans-8722"/>
      <path d="M 16.890625 72.90625 
L 31.6875 72.90625 
L 40.1875 23.78125 
L 68.40625 72.90625 
L 83.59375 72.90625 
L 69.390625 0 
L 59.8125 0 
L 72.21875 63.921875 
L 43.609375 14.015625 
L 33.984375 14.015625 
L 24.703125 64.109375 
L 12.3125 0 
L 2.6875 0 
z
" id="DejaVuSans-Oblique-77"/>
      <path d="M 16.890625 72.90625 
L 26.8125 72.90625 
L 12.59375 0 
L 2.6875 0 
z
" id="DejaVuSans-Oblique-73"/>
      <path d="M 16.796875 72.90625 
L 26.703125 72.90625 
L 14.203125 8.203125 
L 49.703125 8.203125 
L 48.09375 0 
L 2.6875 0 
z
" id="DejaVuSans-Oblique-76"/>
      <path d="M 16.890625 72.90625 
L 39.703125 72.90625 
Q 49.65625 72.90625 54.875 68.265625 
Q 60.109375 63.625 60.109375 54.6875 
Q 60.109375 42.671875 52.390625 35.984375 
Q 44.671875 29.296875 30.71875 29.296875 
L 18.3125 29.296875 
L 12.59375 0 
L 2.6875 0 
z
M 25.203125 64.796875 
L 19.921875 37.40625 
L 32.328125 37.40625 
Q 40.71875 37.40625 45.203125 41.703125 
Q 49.703125 46 49.703125 54 
Q 49.703125 59.125 46.65625 61.953125 
Q 43.609375 64.796875 38.09375 64.796875 
z
" id="DejaVuSans-Oblique-80"/>
     </defs>
     <g transform="translate(729.85888 55.1165)scale(0.1 -0.1)">
      <use transform="translate(0 0.565625)" xlink:href="#DejaVuSans-Oblique-84"/>
      <use transform="translate(68.100755 38.846875)scale(0.7)" xlink:href="#DejaVuSans-Oblique-115"/>
      <use transform="translate(104.570482 38.846875)scale(0.7)" xlink:href="#DejaVuSans-Oblique-101"/>
      <use transform="translate(147.636888 38.846875)scale(0.7)" xlink:href="#DejaVuSans-Oblique-116"/>
      <use transform="translate(177.817552 0.565625)" xlink:href="#DejaVuSans-44"/>
      <use transform="translate(229.087083 0.565625)" xlink:href="#DejaVuSans-Oblique-87"/>
      <use transform="translate(327.964036 0.565625)" xlink:href="#DejaVuSans-Oblique-72"/>
      <use transform="translate(422.641771 0.565625)" xlink:href="#DejaVuSans-8722"/>
      <use transform="translate(525.913255 0.565625)" xlink:href="#DejaVuSans-Oblique-77"/>
      <use transform="translate(612.192552 0.565625)" xlink:href="#DejaVuSans-Oblique-73"/>
      <use transform="translate(641.68474 0.565625)" xlink:href="#DejaVuSans-Oblique-76"/>
      <use transform="translate(697.39763 0.565625)" xlink:href="#DejaVuSans-Oblique-80"/>
     </g>
    </g>
    <g id="line2d_9">
     <path d="M 701.85888 67.2165 
L 721.85888 67.2165 
" style="fill:none;stroke:#00ffff;stroke-dasharray:3.7,1.6;stroke-dashoffset:0;"/>
    </g>
    <g id="line2d_10"/>
    <g id="text_7">
     <!-- $T^{set}, EA_GA$ -->
     <defs>
      <path d="M 16.890625 72.90625 
L 62.984375 72.90625 
L 61.375 64.59375 
L 25.09375 64.59375 
L 20.90625 43.015625 
L 55.71875 43.015625 
L 54.109375 34.71875 
L 19.28125 34.71875 
L 14.203125 8.296875 
L 51.3125 8.296875 
L 49.703125 0 
L 2.6875 0 
z
" id="DejaVuSans-Oblique-69"/>
      <path d="M 36.8125 72.90625 
L 48 72.90625 
L 61.53125 0 
L 51.21875 0 
L 48.1875 18.703125 
L 15.375 18.703125 
L 5.078125 0 
L -5.328125 0 
z
M 40.375 63.1875 
L 19.921875 26.90625 
L 46.6875 26.90625 
z
" id="DejaVuSans-Oblique-65"/>
      <path d="M 54.59375 10.890625 
L 58.40625 29.984375 
L 42.1875 29.984375 
L 43.703125 38.09375 
L 69.578125 38.09375 
L 63.28125 6 
Q 56.78125 2.4375 49.109375 0.5 
Q 41.453125 -1.421875 33.6875 -1.421875 
Q 19.96875 -1.421875 12.234375 6.1875 
Q 4.5 13.8125 4.5 27.390625 
Q 4.5 38.671875 9.203125 48.84375 
Q 13.921875 59.03125 22.21875 65.828125 
Q 27.4375 70.0625 33.640625 72.140625 
Q 39.84375 74.21875 47.40625 74.21875 
Q 54.25 74.21875 60.515625 72.484375 
Q 66.796875 70.75 72.515625 67.28125 
L 70.515625 56.78125 
Q 66.109375 61.375 60.203125 63.796875 
Q 54.296875 66.21875 47.609375 66.21875 
Q 39.84375 66.21875 33.9375 63.25 
Q 28.03125 60.296875 23.390625 54.109375 
Q 19.4375 48.828125 17.15625 41.671875 
Q 14.890625 34.515625 14.890625 27.09375 
Q 14.890625 16.890625 20.109375 11.734375 
Q 25.34375 6.59375 35.6875 6.59375 
Q 40.875 6.59375 45.703125 7.6875 
Q 50.53125 8.796875 54.59375 10.890625 
z
" id="DejaVuSans-Oblique-71"/>
     </defs>
     <g transform="translate(729.85888 70.7165)scale(0.1 -0.1)">
      <use transform="translate(0 0.565625)" xlink:href="#DejaVuSans-Oblique-84"/>
      <use transform="translate(68.100755 38.846875)scale(0.7)" xlink:href="#DejaVuSans-Oblique-115"/>
      <use transform="translate(104.570482 38.846875)scale(0.7)" xlink:href="#DejaVuSans-Oblique-101"/>
      <use transform="translate(147.636888 38.846875)scale(0.7)" xlink:href="#DejaVuSans-Oblique-116"/>
      <use transform="translate(177.817552 0.565625)" xlink:href="#DejaVuSans-44"/>
      <use transform="translate(229.087083 0.565625)" xlink:href="#DejaVuSans-Oblique-69"/>
      <use transform="translate(292.270677 0.565625)" xlink:href="#DejaVuSans-Oblique-65"/>
      <use transform="translate(360.67888 -15.840625)scale(0.7)" xlink:href="#DejaVuSans-Oblique-71"/>
      <use transform="translate(417.656419 0.565625)" xlink:href="#DejaVuSans-Oblique-65"/>
     </g>
    </g>
   </g>
  </g>
  <g id="axes_2">
   <g id="patch_7">
    <path d="M 49.48992 235.008 
L 692.85888 235.008 
L 692.85888 124.416 
L 49.48992 124.416 
z
" style="fill:#ffffff;"/>
   </g>
   <g id="matplotlib.axis_2">
    <g id="ytick_5">
     <g id="line2d_11">
      <g>
       <use style="stroke:#000000;stroke-width:0.8;" x="49.48992" xlink:href="#mf43ac3317a" y="213.094403"/>
      </g>
     </g>
     <g id="text_8">
      <!-- 40 -->
      <g transform="translate(31.368045 216.673309)scale(0.1 -0.1)">
       <use xlink:href="#ArialMT-52"/>
       <use x="55.615234" xlink:href="#ArialMT-48"/>
      </g>
     </g>
    </g>
    <g id="ytick_6">
     <g id="line2d_12">
      <g>
       <use style="stroke:#000000;stroke-width:0.8;" x="49.48992" xlink:href="#mf43ac3317a" y="187.745465"/>
      </g>
     </g>
     <g id="text_9">
      <!-- 50 -->
      <defs>
       <path d="M 4.15625 18.75 
L 13.375 19.53125 
Q 14.40625 12.796875 18.140625 9.390625 
Q 21.875 6 27.15625 6 
Q 33.5 6 37.890625 10.78125 
Q 42.28125 15.578125 42.28125 23.484375 
Q 42.28125 31 38.0625 35.34375 
Q 33.84375 39.703125 27 39.703125 
Q 22.75 39.703125 19.328125 37.765625 
Q 15.921875 35.84375 13.96875 32.765625 
L 5.71875 33.84375 
L 12.640625 70.609375 
L 48.25 70.609375 
L 48.25 62.203125 
L 19.671875 62.203125 
L 15.828125 42.96875 
Q 22.265625 47.46875 29.34375 47.46875 
Q 38.71875 47.46875 45.15625 40.96875 
Q 51.609375 34.46875 51.609375 24.265625 
Q 51.609375 14.546875 45.953125 7.46875 
Q 39.0625 -1.21875 27.15625 -1.21875 
Q 17.390625 -1.21875 11.203125 4.25 
Q 5.03125 9.71875 4.15625 18.75 
z
" id="ArialMT-53"/>
      </defs>
      <g transform="translate(31.368045 191.324372)scale(0.1 -0.1)">
       <use xlink:href="#ArialMT-53"/>
       <use x="55.615234" xlink:href="#ArialMT-48"/>
      </g>
     </g>
    </g>
    <g id="ytick_7">
     <g id="line2d_13">
      <g>
       <use style="stroke:#000000;stroke-width:0.8;" x="49.48992" xlink:href="#mf43ac3317a" y="162.396528"/>
      </g>
     </g>
     <g id="text_10">
      <!-- 60 -->
      <g transform="translate(31.368045 165.975434)scale(0.1 -0.1)">
       <use xlink:href="#ArialMT-54"/>
       <use x="55.615234" xlink:href="#ArialMT-48"/>
      </g>
     </g>
    </g>
    <g id="ytick_8">
     <g id="line2d_14">
      <g>
       <use style="stroke:#000000;stroke-width:0.8;" x="49.48992" xlink:href="#mf43ac3317a" y="137.04759"/>
      </g>
     </g>
     <g id="text_11">
      <!-- 70 -->
      <defs>
       <path d="M 4.734375 62.203125 
L 4.734375 70.65625 
L 51.078125 70.65625 
L 51.078125 63.8125 
Q 44.234375 56.546875 37.515625 44.484375 
Q 30.8125 32.421875 27.15625 19.671875 
Q 24.515625 10.6875 23.78125 0 
L 14.75 0 
Q 14.890625 8.453125 18.0625 20.40625 
Q 21.234375 32.375 27.171875 43.484375 
Q 33.109375 54.59375 39.796875 62.203125 
z
" id="ArialMT-55"/>
      </defs>
      <g transform="translate(31.368045 140.626497)scale(0.1 -0.1)">
       <use xlink:href="#ArialMT-55"/>
       <use x="55.615234" xlink:href="#ArialMT-48"/>
      </g>
     </g>
    </g>
    <g id="text_12">
     <!-- $^{\circ}C$ -->
     <g transform="translate(8.900282 185.612)rotate(-90)scale(0.1 -0.1)">
      <use transform="translate(0.957031 39.0625)scale(0.7)" xlink:href="#DejaVuSans-8728"/>
      <use transform="translate(47.509766 0.78125)" xlink:href="#DejaVuSans-Oblique-67"/>
     </g>
    </g>
   </g>
   <g id="line2d_15">
    <path clip-path="url(#pd20805fd6a)" d="M 78.733964 211.013255 
L 104.163567 211.013255 
L 104.163567 212.744587 
L 129.59317 212.744587 
L 129.59317 212.754727 
L 155.022773 212.754727 
L 155.022773 213.099473 
L 180.452376 213.099473 
L 180.452376 213.109612 
L 205.881979 213.109612 
L 205.881979 213.119752 
L 231.311583 213.119752 
L 231.311583 151.014528 
L 256.741186 151.014528 
L 256.741186 151.024994 
L 282.170789 151.024994 
L 282.170789 156.046619 
L 307.600392 156.046619 
L 307.600392 156.500365 
L 333.029995 156.500365 
L 333.029995 156.510505 
L 358.459598 156.510505 
L 358.459598 156.520644 
L 383.889202 156.520644 
L 383.889202 129.442909 
L 409.318805 129.442909 
L 409.318805 141.676306 
L 434.748408 141.676306 
L 434.748408 141.686446 
L 460.178011 141.686446 
L 460.178011 144.436806 
L 485.607614 144.436806 
L 485.607614 148.86273 
L 511.037217 148.86273 
L 511.037217 166.267311 
L 536.466821 166.267311 
L 536.466821 166.27745 
L 561.896424 166.27745 
L 561.896424 176.974702 
L 587.326027 176.974702 
L 587.326027 197.314689 
L 612.75563 197.314689 
L 612.75563 199.21586 
L 638.185233 199.21586 
L 638.185233 208.549338 
L 663.614836 208.549338 
L 663.614836 211.066488 
" style="fill:none;stroke:#ff0000;stroke-linecap:square;stroke-opacity:0.7;"/>
   </g>
   <g id="line2d_16">
    <path clip-path="url(#pd20805fd6a)" d="M 78.733964 209.292062 
L 104.163567 209.292062 
L 104.163567 210.999697 
L 129.59317 210.999697 
L 129.59317 210.987023 
L 155.022773 210.987023 
L 155.022773 211.3081 
L 180.452376 211.3081 
L 180.452376 211.295426 
L 205.881979 211.295426 
L 205.881979 149.180063 
L 231.311583 149.180063 
L 231.311583 149.167388 
L 256.741186 149.167388 
L 256.741186 149.154714 
L 282.170789 149.154714 
L 282.170789 145.41274 
L 307.600392 145.41274 
L 307.600392 145.844625 
L 333.029995 145.844625 
L 333.029995 145.83195 
L 358.459598 145.83195 
L 358.459598 145.819276 
L 383.889202 145.819276 
L 383.889202 151.096142 
L 409.318805 151.096142 
L 409.318805 163.307658 
L 434.748408 163.307658 
L 434.748408 163.294983 
L 460.178011 163.294983 
L 460.178011 166.021677 
L 485.607614 166.021677 
L 485.607614 170.424305 
L 511.037217 170.424305 
L 511.037217 187.806582 
L 536.466821 187.806582 
L 536.466821 187.793908 
L 561.896424 187.793908 
L 561.896424 198.467667 
L 587.326027 198.467667 
L 587.326027 217.924352 
L 612.75563 217.924352 
L 612.75563 219.701719 
L 638.185233 219.701719 
L 638.185233 227.809559 
L 663.614836 227.809559 
L 663.614836 229.981091 
" style="fill:none;stroke:#00ffff;stroke-linecap:square;stroke-opacity:0.7;"/>
   </g>
   <g id="patch_8">
    <path d="M 49.48992 235.008 
L 49.48992 124.416 
" style="fill:none;stroke:#000000;stroke-linecap:square;stroke-linejoin:miter;stroke-width:0.8;"/>
   </g>
   <g id="patch_9">
    <path d="M 692.85888 235.008 
L 692.85888 124.416 
" style="fill:none;stroke:#000000;stroke-linecap:square;stroke-linejoin:miter;stroke-width:0.8;"/>
   </g>
   <g id="patch_10">
    <path d="M 49.48992 235.008 
L 692.85888 235.008 
" style="fill:none;stroke:#000000;stroke-linecap:square;stroke-linejoin:miter;stroke-width:0.8;"/>
   </g>
   <g id="patch_11">
    <path d="M 49.48992 124.416 
L 692.85888 124.416 
" style="fill:none;stroke:#000000;stroke-linecap:square;stroke-linejoin:miter;stroke-width:0.8;"/>
   </g>
   <g id="legend_2">
    <g id="line2d_17">
     <path d="M 701.85888 171.4245 
L 721.85888 171.4245 
" style="fill:none;stroke:#ff0000;stroke-linecap:square;stroke-opacity:0.7;"/>
    </g>
    <g id="line2d_18"/>
    <g id="text_13">
     <!-- $T^{tank}, WH-MILP$ -->
     <defs>
      <path d="M 53.71875 31.203125 
L 47.609375 0 
L 38.625 0 
L 40.28125 8.296875 
Q 36.328125 3.421875 31.265625 1 
Q 26.21875 -1.421875 20.015625 -1.421875 
Q 13.03125 -1.421875 8.5625 2.84375 
Q 4.109375 7.125 4.109375 13.8125 
Q 4.109375 23.390625 11.75 28.953125 
Q 19.390625 34.515625 32.8125 34.515625 
L 45.3125 34.515625 
L 45.796875 36.921875 
Q 45.90625 37.3125 45.953125 37.765625 
Q 46 38.234375 46 39.203125 
Q 46 43.5625 42.453125 45.96875 
Q 38.921875 48.390625 32.515625 48.390625 
Q 28.125 48.390625 23.5 47.265625 
Q 18.890625 46.140625 14.015625 43.890625 
L 15.578125 52.203125 
Q 20.65625 54.109375 25.515625 55.046875 
Q 30.375 56 34.90625 56 
Q 44.578125 56 49.625 51.796875 
Q 54.6875 47.609375 54.6875 39.59375 
Q 54.6875 37.984375 54.4375 35.8125 
Q 54.203125 33.640625 53.71875 31.203125 
z
M 44 27.484375 
L 35.015625 27.484375 
Q 23.96875 27.484375 18.671875 24.53125 
Q 13.375 21.578125 13.375 15.375 
Q 13.375 11.078125 16.078125 8.640625 
Q 18.796875 6.203125 23.578125 6.203125 
Q 30.90625 6.203125 36.375 11.453125 
Q 41.84375 16.703125 43.609375 25.484375 
z
" id="DejaVuSans-Oblique-97"/>
      <path d="M 55.71875 33.015625 
L 49.3125 0 
L 40.28125 0 
L 46.6875 32.671875 
Q 47.125 34.96875 47.359375 36.71875 
Q 47.609375 38.484375 47.609375 39.5 
Q 47.609375 43.609375 45.015625 45.890625 
Q 42.4375 48.1875 37.796875 48.1875 
Q 30.5625 48.1875 25.34375 43.375 
Q 20.125 38.578125 18.5 30.328125 
L 12.5 0 
L 3.515625 0 
L 14.109375 54.6875 
L 23.09375 54.6875 
L 21.296875 46.09375 
Q 25.046875 50.828125 30.3125 53.40625 
Q 35.59375 56 41.40625 56 
Q 48.640625 56 52.609375 52.09375 
Q 56.59375 48.1875 56.59375 41.109375 
Q 56.59375 39.359375 56.375 37.359375 
Q 56.15625 35.359375 55.71875 33.015625 
z
" id="DejaVuSans-Oblique-110"/>
      <path d="M 18.3125 75.984375 
L 27.296875 75.984375 
L 18.703125 31.6875 
L 49.515625 54.6875 
L 61.1875 54.6875 
L 26.8125 28.515625 
L 51.90625 0 
L 41.015625 0 
L 17.671875 26.703125 
L 12.5 0 
L 3.515625 0 
z
" id="DejaVuSans-Oblique-107"/>
     </defs>
     <g transform="translate(729.85888 174.9245)scale(0.1 -0.1)">
      <use transform="translate(0 0.529687)" xlink:href="#DejaVuSans-Oblique-84"/>
      <use transform="translate(68.100755 38.810937)scale(0.7)" xlink:href="#DejaVuSans-Oblique-116"/>
      <use transform="translate(95.547044 38.810937)scale(0.7)" xlink:href="#DejaVuSans-Oblique-97"/>
      <use transform="translate(138.442552 38.810937)scale(0.7)" xlink:href="#DejaVuSans-Oblique-110"/>
      <use transform="translate(182.807786 38.810937)scale(0.7)" xlink:href="#DejaVuSans-Oblique-107"/>
      <use transform="translate(226.079271 0.529687)" xlink:href="#DejaVuSans-44"/>
      <use transform="translate(277.348802 0.529687)" xlink:href="#DejaVuSans-Oblique-87"/>
      <use transform="translate(376.225755 0.529687)" xlink:href="#DejaVuSans-Oblique-72"/>
      <use transform="translate(470.90349 0.529687)" xlink:href="#DejaVuSans-8722"/>
      <use transform="translate(574.174974 0.529687)" xlink:href="#DejaVuSans-Oblique-77"/>
      <use transform="translate(660.454271 0.529687)" xlink:href="#DejaVuSans-Oblique-73"/>
      <use transform="translate(689.946458 0.529687)" xlink:href="#DejaVuSans-Oblique-76"/>
      <use transform="translate(745.659349 0.529687)" xlink:href="#DejaVuSans-Oblique-80"/>
     </g>
    </g>
    <g id="line2d_19">
     <path d="M 701.85888 187.4245 
L 721.85888 187.4245 
" style="fill:none;stroke:#00ffff;stroke-linecap:square;stroke-opacity:0.7;"/>
    </g>
    <g id="line2d_20"/>
    <g id="text_14">
     <!-- $T^{tank}, EA_GA$ -->
     <g transform="translate(729.85888 190.9245)scale(0.1 -0.1)">
      <use transform="translate(0 0.529687)" xlink:href="#DejaVuSans-Oblique-84"/>
      <use transform="translate(68.100755 38.810937)scale(0.7)" xlink:href="#DejaVuSans-Oblique-116"/>
      <use transform="translate(95.547044 38.810937)scale(0.7)" xlink:href="#DejaVuSans-Oblique-97"/>
      <use transform="translate(138.442552 38.810937)scale(0.7)" xlink:href="#DejaVuSans-Oblique-110"/>
      <use transform="translate(182.807786 38.810937)scale(0.7)" xlink:href="#DejaVuSans-Oblique-107"/>
      <use transform="translate(226.079271 0.529687)" xlink:href="#DejaVuSans-44"/>
      <use transform="translate(277.348802 0.529687)" xlink:href="#DejaVuSans-Oblique-69"/>
      <use transform="translate(340.532396 0.529687)" xlink:href="#DejaVuSans-Oblique-65"/>
      <use transform="translate(408.940599 -15.876563)scale(0.7)" xlink:href="#DejaVuSans-Oblique-71"/>
      <use transform="translate(465.918138 0.529687)" xlink:href="#DejaVuSans-Oblique-65"/>
     </g>
    </g>
   </g>
  </g>
  <g id="axes_3">
   <g id="patch_12">
    <path d="M 49.48992 331.776 
L 692.85888 331.776 
L 692.85888 244.224 
L 49.48992 244.224 
z
" style="fill:#ffffff;"/>
   </g>
   <g id="matplotlib.axis_3">
    <g id="ytick_9">
     <g id="line2d_21">
      <g>
       <use style="stroke:#000000;stroke-width:0.8;" x="49.48992" xlink:href="#mf43ac3317a" y="327.796364"/>
      </g>
     </g>
     <g id="text_15">
      <!-- 0 -->
      <g transform="translate(36.928983 331.37527)scale(0.1 -0.1)">
       <use xlink:href="#ArialMT-48"/>
      </g>
     </g>
    </g>
    <g id="ytick_10">
     <g id="line2d_22">
      <g>
       <use style="stroke:#000000;stroke-width:0.8;" x="49.48992" xlink:href="#mf43ac3317a" y="292.421818"/>
      </g>
     </g>
     <g id="text_16">
      <!-- 2 -->
      <g transform="translate(36.928983 296.000724)scale(0.1 -0.1)">
       <use xlink:href="#ArialMT-50"/>
      </g>
     </g>
    </g>
    <g id="ytick_11">
     <g id="line2d_23">
      <g>
       <use style="stroke:#000000;stroke-width:0.8;" x="49.48992" xlink:href="#mf43ac3317a" y="257.047273"/>
      </g>
     </g>
     <g id="text_17">
      <!-- 4 -->
      <g transform="translate(36.928983 260.626179)scale(0.1 -0.1)">
       <use xlink:href="#ArialMT-52"/>
      </g>
     </g>
    </g>
    <g id="text_18">
     <!-- kWh -->
     <defs>
      <path d="M 6.640625 0 
L 6.640625 71.578125 
L 15.4375 71.578125 
L 15.4375 30.765625 
L 36.234375 51.859375 
L 47.609375 51.859375 
L 27.78125 32.625 
L 49.609375 0 
L 38.765625 0 
L 21.625 26.515625 
L 15.4375 20.5625 
L 15.4375 0 
z
" id="ArialMT-107"/>
      <path d="M 20.21875 0 
L 1.21875 71.578125 
L 10.9375 71.578125 
L 21.828125 24.65625 
Q 23.578125 17.28125 24.859375 10.015625 
Q 27.59375 21.484375 28.078125 23.25 
L 41.703125 71.578125 
L 53.125 71.578125 
L 63.375 35.359375 
Q 67.234375 21.875 68.953125 10.015625 
Q 70.3125 16.796875 72.515625 25.59375 
L 83.734375 71.578125 
L 93.265625 71.578125 
L 73.640625 0 
L 64.5 0 
L 49.421875 54.546875 
Q 47.515625 61.375 47.171875 62.9375 
Q 46.046875 58.015625 45.0625 54.546875 
L 29.890625 0 
z
" id="ArialMT-87"/>
      <path d="M 6.59375 0 
L 6.59375 71.578125 
L 15.375 71.578125 
L 15.375 45.90625 
Q 21.53125 53.03125 30.90625 53.03125 
Q 36.671875 53.03125 40.921875 50.75 
Q 45.171875 48.484375 47 44.484375 
Q 48.828125 40.484375 48.828125 32.859375 
L 48.828125 0 
L 40.046875 0 
L 40.046875 32.859375 
Q 40.046875 39.453125 37.1875 42.453125 
Q 34.328125 45.453125 29.109375 45.453125 
Q 25.203125 45.453125 21.75 43.421875 
Q 18.3125 41.40625 16.84375 37.9375 
Q 15.375 34.46875 15.375 28.375 
L 15.375 0 
z
" id="ArialMT-104"/>
     </defs>
     <g transform="translate(8.900282 298)rotate(-90)scale(0.1 -0.1)">
      <use xlink:href="#ArialMT-107"/>
      <use x="50" xlink:href="#ArialMT-87"/>
      <use x="144.384766" xlink:href="#ArialMT-104"/>
     </g>
    </g>
   </g>
   <g id="line2d_24">
    <path clip-path="url(#p5bc2299422)" d="M 78.733964 327.79636 
L 104.163567 327.79636 
L 104.163567 327.79636 
L 129.59317 327.79636 
L 129.59317 327.79636 
L 155.022773 327.79636 
L 155.022773 327.79636 
L 180.452376 327.79636 
L 180.452376 327.79636 
L 205.881979 327.79636 
L 205.881979 327.79636 
L 231.311583 327.79636 
L 231.311583 248.203636 
L 256.741186 248.203636 
L 256.741186 327.79636 
L 282.170789 327.79636 
L 282.170789 327.79636 
L 307.600392 327.79636 
L 307.600392 327.79636 
L 333.029995 327.79636 
L 333.029995 327.79636 
L 358.459598 327.79636 
L 358.459598 327.79636 
L 383.889202 327.79636 
L 383.889202 286.313285 
L 409.318805 286.313285 
L 409.318805 327.79636 
L 434.748408 327.79636 
L 434.748408 327.79636 
L 460.178011 327.79636 
L 460.178011 327.79636 
L 485.607614 327.79636 
L 485.607614 327.79636 
L 511.037217 327.79636 
L 511.037217 327.79636 
L 536.466821 327.79636 
L 536.466821 327.79636 
L 561.896424 327.79636 
L 561.896424 327.79636 
L 587.326027 327.79636 
L 587.326027 327.79636 
L 612.75563 327.79636 
L 612.75563 327.79636 
L 638.185233 327.79636 
L 638.185233 327.79636 
L 663.614836 327.79636 
L 663.614836 327.751821 
" style="fill:none;stroke:#ff0000;stroke-dasharray:6.4,1.6,1,1.6;stroke-dashoffset:0;stroke-opacity:0.7;"/>
   </g>
   <g id="line2d_25">
    <path clip-path="url(#p5bc2299422)" d="M 78.733964 322.923166 
L 104.163567 322.923166 
L 104.163567 327.796364 
L 129.59317 327.796364 
L 129.59317 327.796364 
L 155.022773 327.796364 
L 155.022773 327.796364 
L 180.452376 327.796364 
L 180.452376 327.796364 
L 205.881979 327.796364 
L 205.881979 248.203636 
L 231.311583 248.203636 
L 231.311583 327.796364 
L 256.741186 327.796364 
L 256.741186 327.796364 
L 282.170789 327.796364 
L 282.170789 316.577864 
L 307.600392 316.577864 
L 307.600392 327.796364 
L 333.029995 327.796364 
L 333.029995 327.796364 
L 358.459598 327.796364 
L 358.459598 327.796364 
L 383.889202 327.796364 
L 383.889202 327.796364 
L 409.318805 327.796364 
L 409.318805 327.796364 
L 434.748408 327.796364 
L 434.748408 327.796364 
L 460.178011 327.796364 
L 460.178011 327.796364 
L 485.607614 327.796364 
L 485.607614 327.796364 
L 511.037217 327.796364 
L 511.037217 327.796364 
L 536.466821 327.796364 
L 536.466821 327.796364 
L 561.896424 327.796364 
L 561.896424 327.796364 
L 587.326027 327.796364 
L 587.326027 327.796364 
L 612.75563 327.796364 
L 612.75563 327.796364 
L 638.185233 327.796364 
L 638.185233 327.796364 
L 663.614836 327.796364 
L 663.614836 327.796364 
" style="fill:none;stroke:#00ffff;stroke-dasharray:6.4,1.6,1,1.6;stroke-dashoffset:0;stroke-opacity:0.7;"/>
   </g>
   <g id="line2d_26">
    <path clip-path="url(#p5bc2299422)" d="M 78.733964 327.796364 
L 104.163567 327.796364 
L 104.163567 325.591561 
L 129.59317 325.591561 
L 129.59317 327.796364 
L 155.022773 327.796364 
L 155.022773 327.368617 
L 180.452376 327.368617 
L 180.452376 327.796364 
L 205.881979 327.796364 
L 205.881979 327.796364 
L 231.311583 327.796364 
L 231.311583 327.796364 
L 256.741186 327.796364 
L 256.741186 327.796364 
L 282.170789 327.796364 
L 282.170789 321.373694 
L 307.600392 321.373694 
L 307.600392 327.226602 
L 333.029995 327.226602 
L 333.029995 327.796364 
L 358.459598 327.796364 
L 358.459598 327.796364 
L 383.889202 327.796364 
L 383.889202 321.017125 
L 409.318805 321.017125 
L 409.318805 312.129463 
L 434.748408 312.129463 
L 434.748408 327.796364 
L 460.178011 327.796364 
L 460.178011 324.285504 
L 485.607614 324.285504 
L 485.607614 322.137576 
L 511.037217 322.137576 
L 511.037217 305.502456 
L 536.466821 305.502456 
L 536.466821 327.796364 
L 561.896424 327.796364 
L 561.896424 314.100299 
L 587.326027 314.100299 
L 587.326027 301.739239 
L 612.75563 301.739239 
L 612.75563 325.372239 
L 638.185233 325.372239 
L 638.185233 315.845682 
L 663.614836 315.845682 
L 663.614836 324.525941 
" style="fill:none;stroke:#000000;stroke-dasharray:1.5,2.475;stroke-dashoffset:0;stroke-width:1.5;"/>
   </g>
   <g id="patch_13">
    <path d="M 49.48992 331.776 
L 49.48992 244.224 
" style="fill:none;stroke:#000000;stroke-linecap:square;stroke-linejoin:miter;stroke-width:0.8;"/>
   </g>
   <g id="patch_14">
    <path d="M 692.85888 331.776 
L 692.85888 244.224 
" style="fill:none;stroke:#000000;stroke-linecap:square;stroke-linejoin:miter;stroke-width:0.8;"/>
   </g>
   <g id="patch_15">
    <path d="M 49.48992 331.776 
L 692.85888 331.776 
" style="fill:none;stroke:#000000;stroke-linecap:square;stroke-linejoin:miter;stroke-width:0.8;"/>
   </g>
   <g id="patch_16">
    <path d="M 49.48992 244.224 
L 692.85888 244.224 
" style="fill:none;stroke:#000000;stroke-linecap:square;stroke-linejoin:miter;stroke-width:0.8;"/>
   </g>
   <g id="legend_3">
    <g id="line2d_27">
     <path d="M 701.85888 272.5125 
L 721.85888 272.5125 
" style="fill:none;stroke:#ff0000;stroke-dasharray:6.4,1.6,1,1.6;stroke-dashoffset:0;stroke-opacity:0.7;"/>
    </g>
    <g id="line2d_28"/>
    <g id="text_19">
     <!-- $E^{in},WH-MILP$ -->
     <defs>
      <path d="M 18.3125 75.984375 
L 27.296875 75.984375 
L 25.09375 64.59375 
L 16.109375 64.59375 
z
M 14.203125 54.6875 
L 23.1875 54.6875 
L 12.5 0 
L 3.515625 0 
z
" id="DejaVuSans-Oblique-105"/>
     </defs>
     <g transform="translate(729.85888 276.0125)scale(0.1 -0.1)">
      <use transform="translate(0 0.529687)" xlink:href="#DejaVuSans-Oblique-69"/>
      <use transform="translate(70.200365 38.810937)scale(0.7)" xlink:href="#DejaVuSans-Oblique-105"/>
      <use transform="translate(89.648607 38.810937)scale(0.7)" xlink:href="#DejaVuSans-Oblique-110"/>
      <use transform="translate(136.748216 0.529687)" xlink:href="#DejaVuSans-44"/>
      <use transform="translate(188.017747 0.529687)" xlink:href="#DejaVuSans-Oblique-87"/>
      <use transform="translate(286.894701 0.529687)" xlink:href="#DejaVuSans-Oblique-72"/>
      <use transform="translate(381.572435 0.529687)" xlink:href="#DejaVuSans-8722"/>
      <use transform="translate(484.843919 0.529687)" xlink:href="#DejaVuSans-Oblique-77"/>
      <use transform="translate(571.123216 0.529687)" xlink:href="#DejaVuSans-Oblique-73"/>
      <use transform="translate(600.615404 0.529687)" xlink:href="#DejaVuSans-Oblique-76"/>
      <use transform="translate(656.328294 0.529687)" xlink:href="#DejaVuSans-Oblique-80"/>
     </g>
    </g>
    <g id="line2d_29">
     <path d="M 701.85888 288.5125 
L 721.85888 288.5125 
" style="fill:none;stroke:#00ffff;stroke-dasharray:6.4,1.6,1,1.6;stroke-dashoffset:0;stroke-opacity:0.7;"/>
    </g>
    <g id="line2d_30"/>
    <g id="text_20">
     <!-- $E^{in},EA_GA$ -->
     <g transform="translate(729.85888 292.0125)scale(0.1 -0.1)">
      <use transform="translate(0 0.529687)" xlink:href="#DejaVuSans-Oblique-69"/>
      <use transform="translate(70.200365 38.810937)scale(0.7)" xlink:href="#DejaVuSans-Oblique-105"/>
      <use transform="translate(89.648607 38.810937)scale(0.7)" xlink:href="#DejaVuSans-Oblique-110"/>
      <use transform="translate(136.748216 0.529687)" xlink:href="#DejaVuSans-44"/>
      <use transform="translate(188.017747 0.529687)" xlink:href="#DejaVuSans-Oblique-69"/>
      <use transform="translate(251.201341 0.529687)" xlink:href="#DejaVuSans-Oblique-65"/>
      <use transform="translate(319.609544 -15.876563)scale(0.7)" xlink:href="#DejaVuSans-Oblique-71"/>
      <use transform="translate(376.587083 0.529687)" xlink:href="#DejaVuSans-Oblique-65"/>
     </g>
    </g>
    <g id="line2d_31">
     <path d="M 701.85888 302.9125 
L 721.85888 302.9125 
" style="fill:none;stroke:#000000;stroke-dasharray:1.5,2.475;stroke-dashoffset:0;stroke-width:1.5;"/>
    </g>
    <g id="line2d_32"/>
    <g id="text_21">
     <!-- $e^{des}$ -->
     <defs>
      <path d="M 41.796875 8.203125 
Q 38.1875 3.46875 33.25 1.015625 
Q 28.328125 -1.421875 22.3125 -1.421875 
Q 14.109375 -1.421875 9.34375 4.171875 
Q 4.59375 9.765625 4.59375 19.484375 
Q 4.59375 27.59375 7.46875 34.9375 
Q 10.359375 42.28125 15.828125 48.09375 
Q 19.4375 51.953125 23.96875 53.96875 
Q 28.515625 56 33.5 56 
Q 38.765625 56 42.796875 53.453125 
Q 46.828125 50.921875 49.03125 46.1875 
L 54.890625 75.984375 
L 63.921875 75.984375 
L 49.125 0 
L 40.09375 0 
z
M 13.921875 21.09375 
Q 13.921875 14.015625 17.109375 10.0625 
Q 20.3125 6.109375 25.984375 6.109375 
Q 30.171875 6.109375 33.765625 8.125 
Q 37.359375 10.15625 40.09375 14.109375 
Q 42.96875 18.21875 44.625 23.578125 
Q 46.296875 28.953125 46.296875 34.1875 
Q 46.296875 40.96875 43.09375 44.765625 
Q 39.890625 48.578125 34.28125 48.578125 
Q 30.03125 48.578125 26.359375 46.578125 
Q 22.703125 44.578125 20.125 40.828125 
Q 17.28125 36.765625 15.59375 31.390625 
Q 13.921875 26.03125 13.921875 21.09375 
z
" id="DejaVuSans-Oblique-100"/>
     </defs>
     <g transform="translate(729.85888 306.4125)scale(0.1 -0.1)">
      <use transform="translate(0 0.529687)" xlink:href="#DejaVuSans-Oblique-101"/>
      <use transform="translate(66.173333 38.810937)scale(0.7)" xlink:href="#DejaVuSans-Oblique-100"/>
      <use transform="translate(110.606927 38.810937)scale(0.7)" xlink:href="#DejaVuSans-Oblique-101"/>
      <use transform="translate(153.673333 38.810937)scale(0.7)" xlink:href="#DejaVuSans-Oblique-115"/>
     </g>
    </g>
   </g>
  </g>
  <g id="axes_4">
   <g id="patch_17">
    <path d="M 49.48992 428.544 
L 692.85888 428.544 
L 692.85888 340.992 
L 49.48992 340.992 
z
" style="fill:#ffffff;"/>
   </g>
   <g id="matplotlib.axis_4">
    <g id="xtick_1">
     <g id="line2d_33">
      <defs>
       <path d="M 0 0 
L 0 3.5 
" id="m05d441a7ff" style="stroke:#000000;stroke-width:0.8;"/>
      </defs>
      <g>
       <use style="stroke:#000000;stroke-width:0.8;" x="53.30436" xlink:href="#m05d441a7ff" y="428.544"/>
      </g>
     </g>
     <g id="text_22">
      <!-- 0 -->
      <g transform="translate(50.523892 442.701813)scale(0.1 -0.1)">
       <use xlink:href="#ArialMT-48"/>
      </g>
     </g>
    </g>
    <g id="xtick_2">
     <g id="line2d_34">
      <g>
       <use style="stroke:#000000;stroke-width:0.8;" x="180.452376" xlink:href="#m05d441a7ff" y="428.544"/>
      </g>
     </g>
     <g id="text_23">
      <!-- 5 -->
      <g transform="translate(177.671908 442.701813)scale(0.1 -0.1)">
       <use xlink:href="#ArialMT-53"/>
      </g>
     </g>
    </g>
    <g id="xtick_3">
     <g id="line2d_35">
      <g>
       <use style="stroke:#000000;stroke-width:0.8;" x="307.600392" xlink:href="#m05d441a7ff" y="428.544"/>
      </g>
     </g>
     <g id="text_24">
      <!-- 10 -->
      <defs>
       <path d="M 37.25 0 
L 28.46875 0 
L 28.46875 56 
Q 25.296875 52.984375 20.140625 49.953125 
Q 14.984375 46.921875 10.890625 45.40625 
L 10.890625 53.90625 
Q 18.265625 57.375 23.78125 62.296875 
Q 29.296875 67.234375 31.59375 71.875 
L 37.25 71.875 
z
" id="ArialMT-49"/>
      </defs>
      <g transform="translate(302.039455 442.701813)scale(0.1 -0.1)">
       <use xlink:href="#ArialMT-49"/>
       <use x="55.615234" xlink:href="#ArialMT-48"/>
      </g>
     </g>
    </g>
    <g id="xtick_4">
     <g id="line2d_36">
      <g>
       <use style="stroke:#000000;stroke-width:0.8;" x="434.748408" xlink:href="#m05d441a7ff" y="428.544"/>
      </g>
     </g>
     <g id="text_25">
      <!-- 15 -->
      <g transform="translate(429.18747 442.701813)scale(0.1 -0.1)">
       <use xlink:href="#ArialMT-49"/>
       <use x="55.615234" xlink:href="#ArialMT-53"/>
      </g>
     </g>
    </g>
    <g id="xtick_5">
     <g id="line2d_37">
      <g>
       <use style="stroke:#000000;stroke-width:0.8;" x="561.896424" xlink:href="#m05d441a7ff" y="428.544"/>
      </g>
     </g>
     <g id="text_26">
      <!-- 20 -->
      <g transform="translate(556.335486 442.701813)scale(0.1 -0.1)">
       <use xlink:href="#ArialMT-50"/>
       <use x="55.615234" xlink:href="#ArialMT-48"/>
      </g>
     </g>
    </g>
    <g id="xtick_6">
     <g id="line2d_38">
      <g>
       <use style="stroke:#000000;stroke-width:0.8;" x="689.04444" xlink:href="#m05d441a7ff" y="428.544"/>
      </g>
     </g>
     <g id="text_27">
      <!-- 25 -->
      <g transform="translate(683.483502 442.701813)scale(0.1 -0.1)">
       <use xlink:href="#ArialMT-50"/>
       <use x="55.615234" xlink:href="#ArialMT-53"/>
      </g>
     </g>
    </g>
   </g>
   <g id="matplotlib.axis_5">
    <g id="ytick_12">
     <g id="line2d_39">
      <g>
       <use style="stroke:#000000;stroke-width:0.8;" x="49.48992" xlink:href="#mf43ac3317a" y="410.024499"/>
      </g>
     </g>
     <g id="text_28">
      <!-- 0.105 -->
      <defs>
       <path d="M 9.078125 0 
L 9.078125 10.015625 
L 19.09375 10.015625 
L 19.09375 0 
z
" id="ArialMT-46"/>
      </defs>
      <g transform="translate(17.468045 413.603405)scale(0.1 -0.1)">
       <use xlink:href="#ArialMT-48"/>
       <use x="55.615234" xlink:href="#ArialMT-46"/>
       <use x="83.398438" xlink:href="#ArialMT-49"/>
       <use x="139.013672" xlink:href="#ArialMT-48"/>
       <use x="194.628906" xlink:href="#ArialMT-53"/>
      </g>
     </g>
    </g>
    <g id="ytick_13">
     <g id="line2d_40">
      <g>
       <use style="stroke:#000000;stroke-width:0.8;" x="49.48992" xlink:href="#mf43ac3317a" y="381.060624"/>
      </g>
     </g>
     <g id="text_29">
      <!-- 0.110 -->
      <g transform="translate(17.478983 384.63953)scale(0.1 -0.1)">
       <use xlink:href="#ArialMT-48"/>
       <use x="55.615234" xlink:href="#ArialMT-46"/>
       <use x="83.398438" xlink:href="#ArialMT-49"/>
       <use x="138.904297" xlink:href="#ArialMT-49"/>
       <use x="194.519531" xlink:href="#ArialMT-48"/>
      </g>
     </g>
    </g>
    <g id="ytick_14">
     <g id="line2d_41">
      <g>
       <use style="stroke:#000000;stroke-width:0.8;" x="49.48992" xlink:href="#mf43ac3317a" y="352.09675"/>
      </g>
     </g>
     <g id="text_30">
      <!-- 0.115 -->
      <g transform="translate(17.478983 355.675656)scale(0.1 -0.1)">
       <use xlink:href="#ArialMT-48"/>
       <use x="55.615234" xlink:href="#ArialMT-46"/>
       <use x="83.398438" xlink:href="#ArialMT-49"/>
       <use x="138.904297" xlink:href="#ArialMT-49"/>
       <use x="194.519531" xlink:href="#ArialMT-53"/>
      </g>
     </g>
    </g>
    <g id="text_31">
     <!-- $/MWh -->
     <defs>
      <path d="M 24.90625 -10.296875 
L 24.90625 -1.515625 
Q 18.3125 -0.6875 14.1875 1.4375 
Q 10.0625 3.5625 7.046875 8.296875 
Q 4.046875 13.03125 3.5625 19.875 
L 12.40625 21.53125 
Q 13.421875 14.453125 16.015625 11.140625 
Q 19.734375 6.453125 24.90625 5.90625 
L 24.90625 33.890625 
Q 19.484375 34.90625 13.8125 38.09375 
Q 9.625 40.4375 7.34375 44.578125 
Q 5.078125 48.734375 5.078125 54 
Q 5.078125 63.375 11.71875 69.1875 
Q 16.15625 73.09375 24.90625 73.96875 
L 24.90625 78.171875 
L 30.078125 78.171875 
L 30.078125 73.96875 
Q 37.75 73.25 42.234375 69.484375 
Q 48 64.703125 49.171875 56.34375 
L 40.09375 54.984375 
Q 39.3125 60.15625 36.84375 62.90625 
Q 34.375 65.671875 30.078125 66.546875 
L 30.078125 41.21875 
Q 36.71875 39.546875 38.875 38.625 
Q 42.96875 36.8125 45.546875 34.21875 
Q 48.140625 31.640625 49.53125 28.078125 
Q 50.921875 24.515625 50.921875 20.359375 
Q 50.921875 11.234375 45.109375 5.125 
Q 39.3125 -0.984375 30.078125 -1.421875 
L 30.078125 -10.296875 
z
M 24.90625 66.65625 
Q 19.78125 65.875 16.828125 62.546875 
Q 13.875 59.234375 13.875 54.6875 
Q 13.875 50.203125 16.375 47.171875 
Q 18.890625 44.140625 24.90625 42.328125 
z
M 30.078125 5.90625 
Q 35.203125 6.546875 38.546875 10.34375 
Q 41.890625 14.15625 41.890625 19.78125 
Q 41.890625 24.5625 39.515625 27.46875 
Q 37.15625 30.375 30.078125 32.671875 
z
" id="ArialMT-36"/>
      <path d="M 0 -1.21875 
L 20.75 72.796875 
L 27.78125 72.796875 
L 7.078125 -1.21875 
z
" id="ArialMT-47"/>
      <path d="M 7.421875 0 
L 7.421875 71.578125 
L 21.6875 71.578125 
L 38.625 20.90625 
Q 40.96875 13.8125 42.046875 10.296875 
Q 43.265625 14.203125 45.84375 21.78125 
L 62.984375 71.578125 
L 75.734375 71.578125 
L 75.734375 0 
L 66.609375 0 
L 66.609375 59.90625 
L 45.796875 0 
L 37.25 0 
L 16.546875 60.9375 
L 16.546875 0 
z
" id="ArialMT-77"/>
     </defs>
     <g transform="translate(8.900282 400.602375)rotate(-90)scale(0.1 -0.1)">
      <use xlink:href="#ArialMT-36"/>
      <use x="55.615234" xlink:href="#ArialMT-47"/>
      <use x="83.398438" xlink:href="#ArialMT-77"/>
      <use x="166.699219" xlink:href="#ArialMT-87"/>
      <use x="261.083984" xlink:href="#ArialMT-104"/>
     </g>
    </g>
   </g>
   <g id="line2d_42">
    <path clip-path="url(#p757d7853f2)" d="M 78.733964 362.755455 
L 104.163567 362.755455 
L 104.163567 366.984181 
L 129.59317 366.984181 
L 129.59317 373.530017 
L 155.022773 373.530017 
L 155.022773 375.789199 
L 180.452376 375.789199 
L 180.452376 389.170509 
L 205.881979 389.170509 
L 205.881979 375.49956 
L 231.311583 375.49956 
L 231.311583 424.564364 
L 256.741186 424.564364 
L 256.741186 377.527031 
L 282.170789 377.527031 
L 282.170789 384.014939 
L 307.600392 384.014939 
L 307.600392 385.057639 
L 333.029995 385.057639 
L 333.029995 375.49956 
L 358.459598 375.49956 
L 358.459598 389.749786 
L 383.889202 389.749786 
L 383.889202 390.271136 
L 409.318805 390.271136 
L 409.318805 372.6611 
L 434.748408 372.6611 
L 434.748408 368.490303 
L 460.178011 368.490303 
L 460.178011 374.051366 
L 485.607614 374.051366 
L 485.607614 377.527031 
L 511.037217 377.527031 
L 511.037217 368.895797 
L 536.466821 368.895797 
L 536.466821 361.133478 
L 561.896424 361.133478 
L 561.896424 355.108992 
L 587.326027 355.108992 
L 587.326027 344.971636 
L 612.75563 344.971636 
L 612.75563 351.459544 
L 638.185233 351.459544 
L 638.185233 356.846825 
L 663.614836 356.846825 
L 663.614836 367.215892 
" style="fill:none;stroke:#000000;stroke-linecap:square;stroke-width:4;"/>
   </g>
   <g id="patch_18">
    <path d="M 49.48992 428.544 
L 49.48992 340.992 
" style="fill:none;stroke:#000000;stroke-linecap:square;stroke-linejoin:miter;stroke-width:0.8;"/>
   </g>
   <g id="patch_19">
    <path d="M 692.85888 428.544 
L 692.85888 340.992 
" style="fill:none;stroke:#000000;stroke-linecap:square;stroke-linejoin:miter;stroke-width:0.8;"/>
   </g>
   <g id="patch_20">
    <path d="M 49.48992 428.544 
L 692.85888 428.544 
" style="fill:none;stroke:#000000;stroke-linecap:square;stroke-linejoin:miter;stroke-width:0.8;"/>
   </g>
   <g id="patch_21">
    <path d="M 49.48992 340.992 
L 692.85888 340.992 
" style="fill:none;stroke:#000000;stroke-linecap:square;stroke-linejoin:miter;stroke-width:0.8;"/>
   </g>
   <g id="legend_4">
    <g id="line2d_43">
     <path d="M 701.85888 383.853156 
L 721.85888 383.853156 
" style="fill:none;stroke:#000000;stroke-linecap:square;stroke-width:4;"/>
    </g>
    <g id="line2d_44"/>
    <g id="text_32">
     <!-- $P^{p}$ -->
     <defs>
      <path d="M 49.609375 33.6875 
Q 49.609375 40.875 46.484375 44.671875 
Q 43.359375 48.484375 37.5 48.484375 
Q 33.5 48.484375 29.859375 46.4375 
Q 26.21875 44.390625 23.390625 40.484375 
Q 20.609375 36.625 18.9375 31.15625 
Q 17.28125 25.6875 17.28125 20.3125 
Q 17.28125 13.484375 20.40625 9.796875 
Q 23.53125 6.109375 29.296875 6.109375 
Q 33.546875 6.109375 37.1875 8.109375 
Q 40.828125 10.109375 43.40625 13.921875 
Q 46.1875 17.921875 47.890625 23.34375 
Q 49.609375 28.765625 49.609375 33.6875 
z
M 21.78125 46.390625 
Q 25.390625 51.125 30.296875 53.5625 
Q 35.203125 56 41.21875 56 
Q 49.609375 56 54.25 50.5 
Q 58.890625 45.015625 58.890625 35.109375 
Q 58.890625 27 56 19.65625 
Q 53.125 12.3125 47.703125 6.5 
Q 44.09375 2.640625 39.546875 0.609375 
Q 35.015625 -1.421875 29.984375 -1.421875 
Q 24.171875 -1.421875 20.21875 1 
Q 16.265625 3.421875 14.3125 8.203125 
L 8.6875 -20.796875 
L -0.296875 -20.796875 
L 14.40625 54.6875 
L 23.390625 54.6875 
z
" id="DejaVuSans-Oblique-112"/>
     </defs>
     <g transform="translate(729.85888 387.353156)scale(0.1 -0.1)">
      <use transform="translate(0 0.51875)" xlink:href="#DejaVuSans-Oblique-80"/>
      <use transform="translate(67.319505 38.8)scale(0.7)" xlink:href="#DejaVuSans-Oblique-112"/>
     </g>
    </g>
   </g>
  </g>
 </g>
 <defs>
  <clipPath id="p0ad363a1fb">
   <rect height="110.592" width="643.36896" x="49.48992" y="4.608"/>
  </clipPath>
  <clipPath id="pd20805fd6a">
   <rect height="110.592" width="643.36896" x="49.48992" y="124.416"/>
  </clipPath>
  <clipPath id="p5bc2299422">
   <rect height="87.552" width="643.36896" x="49.48992" y="244.224"/>
  </clipPath>
  <clipPath id="p757d7853f2">
   <rect height="87.552" width="643.36896" x="49.48992" y="340.992"/>
  </clipPath>
 </defs>
</svg>
