<?xml version="1.0" encoding="utf-8" standalone="no"?>
<!DOCTYPE svg PUBLIC "-//W3C//DTD SVG 1.1//EN"
  "http://www.w3.org/Graphics/SVG/1.1/DTD/svg11.dtd">
<!-- Created with matplotlib (https://matplotlib.org/) -->
<svg height="460.8pt" version="1.1" viewBox="0 0 824.832 460.8" width="824.832pt" xmlns="http://www.w3.org/2000/svg" xmlns:xlink="http://www.w3.org/1999/xlink">
 <defs>
  <style type="text/css">
*{stroke-linecap:butt;stroke-linejoin:round;}
  </style>
 </defs>
 <g id="figure_1">
  <g id="patch_1">
   <path d="M 0 460.8 
L 824.832 460.8 
L 824.832 0 
L 0 0 
z
" style="fill:#ffffff;"/>
  </g>
  <g id="axes_1">
   <g id="patch_2">
    <path d="M 49.48992 115.2 
L 692.85888 115.2 
L 692.85888 4.608 
L 49.48992 4.608 
z
" style="fill:#ffffff;"/>
   </g>
   <g id="matplotlib.axis_1">
    <g id="ytick_1">
     <g id="line2d_1">
      <defs>
       <path d="M 0 0 
L -3.5 0 
" id="mb8556b95c1" style="stroke:#000000;stroke-width:0.8;"/>
      </defs>
      <g>
       <use style="stroke:#000000;stroke-width:0.8;" x="49.48992" xlink:href="#mb8556b95c1" y="110.173091"/>
      </g>
     </g>
     <g id="text_1">
      <!-- 0 -->
      <defs>
       <path d="M 4.15625 35.296875 
Q 4.15625 48 6.765625 55.734375 
Q 9.375 63.484375 14.515625 67.671875 
Q 19.671875 71.875 27.484375 71.875 
Q 33.25 71.875 37.59375 69.546875 
Q 41.9375 67.234375 44.765625 62.859375 
Q 47.609375 58.5 49.21875 52.21875 
Q 50.828125 45.953125 50.828125 35.296875 
Q 50.828125 22.703125 48.234375 14.96875 
Q 45.65625 7.234375 40.5 3 
Q 35.359375 -1.21875 27.484375 -1.21875 
Q 17.140625 -1.21875 11.234375 6.203125 
Q 4.15625 15.140625 4.15625 35.296875 
z
M 13.1875 35.296875 
Q 13.1875 17.671875 17.3125 11.828125 
Q 21.4375 6 27.484375 6 
Q 33.546875 6 37.671875 11.859375 
Q 41.796875 17.71875 41.796875 35.296875 
Q 41.796875 52.984375 37.671875 58.78125 
Q 33.546875 64.59375 27.390625 64.59375 
Q 21.34375 64.59375 17.71875 59.46875 
Q 13.1875 52.9375 13.1875 35.296875 
z
" id="ArialMT-48"/>
      </defs>
      <g transform="translate(36.928983 113.751997)scale(0.1 -0.1)">
       <use xlink:href="#ArialMT-48"/>
      </g>
     </g>
    </g>
    <g id="ytick_2">
     <g id="line2d_2">
      <g>
       <use style="stroke:#000000;stroke-width:0.8;" x="49.48992" xlink:href="#mb8556b95c1" y="85.947023"/>
      </g>
     </g>
     <g id="text_2">
      <!-- 20 -->
      <defs>
       <path d="M 50.34375 8.453125 
L 50.34375 0 
L 3.03125 0 
Q 2.9375 3.171875 4.046875 6.109375 
Q 5.859375 10.9375 9.828125 15.625 
Q 13.8125 20.3125 21.34375 26.46875 
Q 33.015625 36.03125 37.109375 41.625 
Q 41.21875 47.21875 41.21875 52.203125 
Q 41.21875 57.421875 37.46875 61 
Q 33.734375 64.59375 27.734375 64.59375 
Q 21.390625 64.59375 17.578125 60.78125 
Q 13.765625 56.984375 13.71875 50.25 
L 4.6875 51.171875 
Q 5.609375 61.28125 11.65625 66.578125 
Q 17.71875 71.875 27.9375 71.875 
Q 38.234375 71.875 44.234375 66.15625 
Q 50.25 60.453125 50.25 52 
Q 50.25 47.703125 48.484375 43.546875 
Q 46.734375 39.40625 42.65625 34.8125 
Q 38.578125 30.21875 29.109375 22.21875 
Q 21.1875 15.578125 18.9375 13.203125 
Q 16.703125 10.84375 15.234375 8.453125 
z
" id="ArialMT-50"/>
      </defs>
      <g transform="translate(31.368045 89.525929)scale(0.1 -0.1)">
       <use xlink:href="#ArialMT-50"/>
       <use x="55.615234" xlink:href="#ArialMT-48"/>
      </g>
     </g>
    </g>
    <g id="ytick_3">
     <g id="line2d_3">
      <g>
       <use style="stroke:#000000;stroke-width:0.8;" x="49.48992" xlink:href="#mb8556b95c1" y="61.720955"/>
      </g>
     </g>
     <g id="text_3">
      <!-- 40 -->
      <defs>
       <path d="M 32.328125 0 
L 32.328125 17.140625 
L 1.265625 17.140625 
L 1.265625 25.203125 
L 33.9375 71.578125 
L 41.109375 71.578125 
L 41.109375 25.203125 
L 50.78125 25.203125 
L 50.78125 17.140625 
L 41.109375 17.140625 
L 41.109375 0 
z
M 32.328125 25.203125 
L 32.328125 57.46875 
L 9.90625 25.203125 
z
" id="ArialMT-52"/>
      </defs>
      <g transform="translate(31.368045 65.299861)scale(0.1 -0.1)">
       <use xlink:href="#ArialMT-52"/>
       <use x="55.615234" xlink:href="#ArialMT-48"/>
      </g>
     </g>
    </g>
    <g id="ytick_4">
     <g id="line2d_4">
      <g>
       <use style="stroke:#000000;stroke-width:0.8;" x="49.48992" xlink:href="#mb8556b95c1" y="37.494887"/>
      </g>
     </g>
     <g id="text_4">
      <!-- 60 -->
      <defs>
       <path d="M 49.75 54.046875 
L 41.015625 53.375 
Q 39.84375 58.546875 37.703125 60.890625 
Q 34.125 64.65625 28.90625 64.65625 
Q 24.703125 64.65625 21.53125 62.3125 
Q 17.390625 59.28125 14.984375 53.46875 
Q 12.59375 47.65625 12.5 36.921875 
Q 15.671875 41.75 20.265625 44.09375 
Q 24.859375 46.4375 29.890625 46.4375 
Q 38.671875 46.4375 44.84375 39.96875 
Q 51.03125 33.5 51.03125 23.25 
Q 51.03125 16.5 48.125 10.71875 
Q 45.21875 4.9375 40.140625 1.859375 
Q 35.0625 -1.21875 28.609375 -1.21875 
Q 17.625 -1.21875 10.6875 6.859375 
Q 3.765625 14.9375 3.765625 33.5 
Q 3.765625 54.25 11.421875 63.671875 
Q 18.109375 71.875 29.4375 71.875 
Q 37.890625 71.875 43.28125 67.140625 
Q 48.6875 62.40625 49.75 54.046875 
z
M 13.875 23.1875 
Q 13.875 18.65625 15.796875 14.5 
Q 17.71875 10.359375 21.1875 8.171875 
Q 24.65625 6 28.46875 6 
Q 34.03125 6 38.03125 10.484375 
Q 42.046875 14.984375 42.046875 22.703125 
Q 42.046875 30.125 38.078125 34.390625 
Q 34.125 38.671875 28.125 38.671875 
Q 22.171875 38.671875 18.015625 34.390625 
Q 13.875 30.125 13.875 23.1875 
z
" id="ArialMT-54"/>
      </defs>
      <g transform="translate(31.368045 41.073793)scale(0.1 -0.1)">
       <use xlink:href="#ArialMT-54"/>
       <use x="55.615234" xlink:href="#ArialMT-48"/>
      </g>
     </g>
    </g>
    <g id="ytick_5">
     <g id="line2d_5">
      <g>
       <use style="stroke:#000000;stroke-width:0.8;" x="49.48992" xlink:href="#mb8556b95c1" y="13.268819"/>
      </g>
     </g>
     <g id="text_5">
      <!-- 80 -->
      <defs>
       <path d="M 17.671875 38.8125 
Q 12.203125 40.828125 9.5625 44.53125 
Q 6.9375 48.25 6.9375 53.421875 
Q 6.9375 61.234375 12.546875 66.546875 
Q 18.171875 71.875 27.484375 71.875 
Q 36.859375 71.875 42.578125 66.421875 
Q 48.296875 60.984375 48.296875 53.171875 
Q 48.296875 48.1875 45.671875 44.5 
Q 43.0625 40.828125 37.75 38.8125 
Q 44.34375 36.671875 47.78125 31.875 
Q 51.21875 27.09375 51.21875 20.453125 
Q 51.21875 11.28125 44.71875 5.03125 
Q 38.234375 -1.21875 27.640625 -1.21875 
Q 17.046875 -1.21875 10.546875 5.046875 
Q 4.046875 11.328125 4.046875 20.703125 
Q 4.046875 27.6875 7.59375 32.390625 
Q 11.140625 37.109375 17.671875 38.8125 
z
M 15.921875 53.71875 
Q 15.921875 48.640625 19.1875 45.40625 
Q 22.46875 42.1875 27.6875 42.1875 
Q 32.765625 42.1875 36.015625 45.375 
Q 39.265625 48.578125 39.265625 53.21875 
Q 39.265625 58.0625 35.90625 61.359375 
Q 32.5625 64.65625 27.59375 64.65625 
Q 22.5625 64.65625 19.234375 61.421875 
Q 15.921875 58.203125 15.921875 53.71875 
z
M 13.09375 20.65625 
Q 13.09375 16.890625 14.875 13.375 
Q 16.65625 9.859375 20.171875 7.921875 
Q 23.6875 6 27.734375 6 
Q 34.03125 6 38.125 10.046875 
Q 42.234375 14.109375 42.234375 20.359375 
Q 42.234375 26.703125 38.015625 30.859375 
Q 33.796875 35.015625 27.4375 35.015625 
Q 21.234375 35.015625 17.15625 30.90625 
Q 13.09375 26.8125 13.09375 20.65625 
z
" id="ArialMT-56"/>
      </defs>
      <g transform="translate(31.368045 16.847726)scale(0.1 -0.1)">
       <use xlink:href="#ArialMT-56"/>
       <use x="55.615234" xlink:href="#ArialMT-48"/>
      </g>
     </g>
    </g>
    <g id="text_6">
     <!-- $^{\circ}C$ -->
     <defs>
      <path d="M 31.296875 40.671875 
Q 27.390625 40.671875 24.703125 37.953125 
Q 22.015625 35.25 22.015625 31.34375 
Q 22.015625 27.484375 24.703125 24.828125 
Q 27.390625 22.171875 31.296875 22.171875 
Q 35.203125 22.171875 37.890625 24.828125 
Q 40.578125 27.484375 40.578125 31.34375 
Q 40.578125 35.203125 37.859375 37.9375 
Q 35.15625 40.671875 31.296875 40.671875 
z
M 31.296875 46.96875 
Q 34.421875 46.96875 37.296875 45.765625 
Q 40.1875 44.578125 42.28125 42.328125 
Q 44.53125 40.140625 45.65625 37.34375 
Q 46.78125 34.5625 46.78125 31.34375 
Q 46.78125 24.90625 42.265625 20.4375 
Q 37.75 15.96875 31.203125 15.96875 
Q 24.609375 15.96875 20.21875 20.359375 
Q 15.828125 24.75 15.828125 31.34375 
Q 15.828125 37.890625 20.3125 42.421875 
Q 24.8125 46.96875 31.296875 46.96875 
z
" id="DejaVuSans-8728"/>
      <path d="M 69.484375 67.28125 
L 67.484375 56.890625 
Q 62.796875 61.625 57.546875 63.921875 
Q 52.296875 66.21875 46.1875 66.21875 
Q 37.84375 66.21875 31.515625 62.203125 
Q 25.203125 58.203125 20.609375 50 
Q 17.671875 44.734375 16.125 38.84375 
Q 14.59375 32.953125 14.59375 27 
Q 14.59375 17.046875 19.75 11.8125 
Q 24.90625 6.59375 34.71875 6.59375 
Q 41.5 6.59375 47.75 8.765625 
Q 54 10.9375 59.90625 15.28125 
L 57.625 3.609375 
Q 51.8125 1.125 45.875 -0.140625 
Q 39.9375 -1.421875 33.984375 -1.421875 
Q 19.96875 -1.421875 12.078125 6.1875 
Q 4.203125 13.8125 4.203125 27.390625 
Q 4.203125 36.078125 7.203125 44.46875 
Q 10.203125 52.875 15.828125 59.8125 
Q 21.78125 67.1875 29.421875 70.703125 
Q 37.0625 74.21875 47.21875 74.21875 
Q 53.46875 74.21875 59.0625 72.484375 
Q 64.65625 70.75 69.484375 67.28125 
z
" id="DejaVuSans-Oblique-67"/>
     </defs>
     <g transform="translate(13.403865 65.804)rotate(-90)scale(0.1 -0.1)">
      <use transform="translate(0.957031 39.0625)scale(0.7)" xlink:href="#DejaVuSans-8728"/>
      <use transform="translate(47.509766 0.78125)" xlink:href="#DejaVuSans-Oblique-67"/>
     </g>
    </g>
   </g>
   <g id="line2d_6">
    <path clip-path="url(#pb4f3db54b0)" d="M 78.733964 61.720955 
L 104.163567 61.720955 
L 104.163567 61.720955 
L 129.59317 61.720955 
L 129.59317 38.58506 
L 155.022773 38.58506 
L 155.022773 9.634909 
L 180.452376 9.634909 
L 180.452376 9.634909 
L 205.881979 9.634909 
L 205.881979 9.634909 
L 231.311583 9.634909 
L 231.311583 71.774773 
L 256.741186 71.774773 
L 256.741186 79.890506 
L 282.170789 79.890506 
L 282.170789 79.890506 
L 307.600392 79.890506 
L 307.600392 56.633481 
L 333.029995 56.633481 
L 333.029995 79.890506 
L 358.459598 79.890506 
L 358.459598 42.340101 
L 383.889202 42.340101 
L 383.889202 79.890506 
L 409.318805 79.890506 
L 409.318805 79.890506 
L 434.748408 79.890506 
L 434.748408 48.760009 
L 460.178011 48.760009 
L 460.178011 79.890506 
L 485.607614 79.890506 
L 485.607614 79.890506 
L 511.037217 79.890506 
L 511.037217 79.890506 
L 536.466821 79.890506 
L 536.466821 59.78287 
L 561.896424 59.78287 
L 561.896424 79.890506 
L 587.326027 79.890506 
L 587.326027 61.720955 
L 612.75563 61.720955 
L 612.75563 79.890506 
L 638.185233 79.890506 
L 638.185233 61.720955 
L 663.614836 61.720955 
L 663.614836 79.890506 
" style="fill:none;stroke:#ff0000;stroke-dasharray:3.7,1.6;stroke-dashoffset:0;"/>
   </g>
   <g id="line2d_7">
    <path clip-path="url(#pb4f3db54b0)" d="M 78.733964 108.961788 
L 104.163567 108.961788 
L 104.163567 32.891934 
L 129.59317 32.891934 
L 129.59317 9.756039 
L 155.022773 9.756039 
L 155.022773 71.774773 
L 180.452376 71.774773 
L 180.452376 110.173091 
L 205.881979 110.173091 
L 205.881979 110.173091 
L 231.311583 110.173091 
L 231.311583 110.173091 
L 256.741186 110.173091 
L 256.741186 108.961788 
L 282.170789 108.961788 
L 282.170789 43.188013 
L 307.600392 43.188013 
L 307.600392 67.535211 
L 333.029995 67.535211 
L 333.029995 110.173091 
L 358.459598 110.173091 
L 358.459598 110.173091 
L 383.889202 110.173091 
L 383.889202 110.173091 
L 409.318805 110.173091 
L 409.318805 57.602524 
L 434.748408 57.602524 
L 434.748408 110.173091 
L 460.178011 110.173091 
L 460.178011 110.173091 
L 485.607614 110.173091 
L 485.607614 108.961788 
L 511.037217 108.961788 
L 511.037217 108.961788 
L 536.466821 108.961788 
L 536.466821 110.173091 
L 561.896424 110.173091 
L 561.896424 71.774773 
L 587.326027 71.774773 
L 587.326027 110.173091 
L 612.75563 110.173091 
L 612.75563 108.961788 
L 638.185233 108.961788 
L 638.185233 108.961788 
L 663.614836 108.961788 
L 663.614836 108.961788 
" style="fill:none;stroke:#00ffff;stroke-dasharray:3.7,1.6;stroke-dashoffset:0;"/>
   </g>
   <g id="patch_3">
    <path d="M 49.48992 115.2 
L 49.48992 4.608 
" style="fill:none;stroke:#000000;stroke-linecap:square;stroke-linejoin:miter;stroke-width:0.8;"/>
   </g>
   <g id="patch_4">
    <path d="M 692.85888 115.2 
L 692.85888 4.608 
" style="fill:none;stroke:#000000;stroke-linecap:square;stroke-linejoin:miter;stroke-width:0.8;"/>
   </g>
   <g id="patch_5">
    <path d="M 49.48992 115.2 
L 692.85888 115.2 
" style="fill:none;stroke:#000000;stroke-linecap:square;stroke-linejoin:miter;stroke-width:0.8;"/>
   </g>
   <g id="patch_6">
    <path d="M 49.48992 4.608 
L 692.85888 4.608 
" style="fill:none;stroke:#000000;stroke-linecap:square;stroke-linejoin:miter;stroke-width:0.8;"/>
   </g>
   <g id="legend_1">
    <g id="line2d_8">
     <path d="M 701.85888 51.6165 
L 721.85888 51.6165 
" style="fill:none;stroke:#ff0000;stroke-dasharray:3.7,1.6;stroke-dashoffset:0;"/>
    </g>
    <g id="line2d_9"/>
    <g id="text_7">
     <!-- $T^{set}, WH-MILP$ -->
     <defs>
      <path d="M 5.90625 72.90625 
L 67.578125 72.90625 
L 66.015625 64.59375 
L 39.984375 64.59375 
L 27.484375 0 
L 17.578125 0 
L 30.078125 64.59375 
L 4.296875 64.59375 
z
" id="DejaVuSans-Oblique-84"/>
      <path d="M 50 53.078125 
L 48.296875 44.578125 
Q 44.734375 46.53125 40.765625 47.5 
Q 36.8125 48.484375 32.625 48.484375 
Q 25.53125 48.484375 21.453125 46.0625 
Q 17.390625 43.65625 17.390625 39.5 
Q 17.390625 34.671875 26.859375 32.078125 
Q 27.59375 31.890625 27.9375 31.78125 
L 30.8125 30.90625 
Q 39.796875 28.421875 42.796875 25.6875 
Q 45.796875 22.953125 45.796875 18.21875 
Q 45.796875 9.515625 38.890625 4.046875 
Q 31.984375 -1.421875 20.796875 -1.421875 
Q 16.453125 -1.421875 11.671875 -0.578125 
Q 6.890625 0.25 1.125 2 
L 2.875 11.28125 
Q 7.8125 8.734375 12.59375 7.421875 
Q 17.390625 6.109375 21.78125 6.109375 
Q 28.375 6.109375 32.5 8.9375 
Q 36.625 11.765625 36.625 16.109375 
Q 36.625 20.796875 25.78125 23.6875 
L 24.859375 23.921875 
L 21.78125 24.703125 
Q 14.9375 26.515625 11.765625 29.46875 
Q 8.59375 32.421875 8.59375 37.015625 
Q 8.59375 45.75 15.15625 50.875 
Q 21.734375 56 33.015625 56 
Q 37.453125 56 41.671875 55.265625 
Q 45.90625 54.546875 50 53.078125 
z
" id="DejaVuSans-Oblique-115"/>
      <path d="M 48.09375 32.234375 
Q 48.25 33.015625 48.3125 33.84375 
Q 48.390625 34.671875 48.390625 35.5 
Q 48.390625 41.453125 44.890625 44.921875 
Q 41.40625 48.390625 35.40625 48.390625 
Q 28.71875 48.390625 23.578125 44.15625 
Q 18.453125 39.9375 15.828125 32.171875 
z
M 55.90625 25.203125 
L 14.109375 25.203125 
Q 13.8125 23.34375 13.71875 22.265625 
Q 13.625 21.1875 13.625 20.40625 
Q 13.625 13.625 17.796875 9.90625 
Q 21.96875 6.203125 29.59375 6.203125 
Q 35.453125 6.203125 40.671875 7.515625 
Q 45.90625 8.84375 50.390625 11.375 
L 48.6875 2.484375 
Q 43.84375 0.53125 38.6875 -0.4375 
Q 33.546875 -1.421875 28.21875 -1.421875 
Q 16.84375 -1.421875 10.71875 4.015625 
Q 4.59375 9.46875 4.59375 19.484375 
Q 4.59375 28.03125 7.640625 35.375 
Q 10.6875 42.71875 16.609375 48.484375 
Q 20.40625 52.09375 25.65625 54.046875 
Q 30.90625 56 36.8125 56 
Q 46.09375 56 51.578125 50.4375 
Q 57.078125 44.875 57.078125 35.5 
Q 57.078125 33.25 56.78125 30.6875 
Q 56.5 28.125 55.90625 25.203125 
z
" id="DejaVuSans-Oblique-101"/>
      <path d="M 42.28125 54.6875 
L 40.921875 47.703125 
L 23 47.703125 
L 17.1875 18.015625 
Q 16.890625 16.359375 16.75 15.234375 
Q 16.609375 14.109375 16.609375 13.484375 
Q 16.609375 10.359375 18.484375 8.9375 
Q 20.359375 7.515625 24.515625 7.515625 
L 33.59375 7.515625 
L 32.078125 0 
L 23.484375 0 
Q 15.484375 0 11.546875 3.125 
Q 7.625 6.25 7.625 12.59375 
Q 7.625 13.71875 7.765625 15.0625 
Q 7.90625 16.40625 8.203125 18.015625 
L 14.015625 47.703125 
L 6.390625 47.703125 
L 7.8125 54.6875 
L 15.28125 54.6875 
L 18.3125 70.21875 
L 27.296875 70.21875 
L 24.3125 54.6875 
z
" id="DejaVuSans-Oblique-116"/>
      <path d="M 11.71875 12.40625 
L 22.015625 12.40625 
L 22.015625 4 
L 14.015625 -11.625 
L 7.71875 -11.625 
L 11.71875 4 
z
" id="DejaVuSans-44"/>
      <path d="M 9.625 72.90625 
L 19.1875 72.90625 
L 22.703125 10.890625 
L 50.203125 72.90625 
L 61.1875 72.90625 
L 64.796875 10.890625 
L 92 72.90625 
L 102 72.90625 
L 69.578125 0 
L 57.171875 0 
L 53.8125 60.796875 
L 26.515625 0 
L 14.109375 0 
z
" id="DejaVuSans-Oblique-87"/>
      <path d="M 16.890625 72.90625 
L 26.8125 72.90625 
L 21 43.015625 
L 56.78125 43.015625 
L 62.59375 72.90625 
L 72.515625 72.90625 
L 58.296875 0 
L 48.390625 0 
L 55.171875 34.71875 
L 19.390625 34.71875 
L 12.59375 0 
L 2.6875 0 
z
" id="DejaVuSans-Oblique-72"/>
      <path d="M 10.59375 35.5 
L 73.1875 35.5 
L 73.1875 27.203125 
L 10.59375 27.203125 
z
" id="DejaVuSans-8722"/>
      <path d="M 16.890625 72.90625 
L 31.6875 72.90625 
L 40.1875 23.78125 
L 68.40625 72.90625 
L 83.59375 72.90625 
L 69.390625 0 
L 59.8125 0 
L 72.21875 63.921875 
L 43.609375 14.015625 
L 33.984375 14.015625 
L 24.703125 64.109375 
L 12.3125 0 
L 2.6875 0 
z
" id="DejaVuSans-Oblique-77"/>
      <path d="M 16.890625 72.90625 
L 26.8125 72.90625 
L 12.59375 0 
L 2.6875 0 
z
" id="DejaVuSans-Oblique-73"/>
      <path d="M 16.796875 72.90625 
L 26.703125 72.90625 
L 14.203125 8.203125 
L 49.703125 8.203125 
L 48.09375 0 
L 2.6875 0 
z
" id="DejaVuSans-Oblique-76"/>
      <path d="M 16.890625 72.90625 
L 39.703125 72.90625 
Q 49.65625 72.90625 54.875 68.265625 
Q 60.109375 63.625 60.109375 54.6875 
Q 60.109375 42.671875 52.390625 35.984375 
Q 44.671875 29.296875 30.71875 29.296875 
L 18.3125 29.296875 
L 12.59375 0 
L 2.6875 0 
z
M 25.203125 64.796875 
L 19.921875 37.40625 
L 32.328125 37.40625 
Q 40.71875 37.40625 45.203125 41.703125 
Q 49.703125 46 49.703125 54 
Q 49.703125 59.125 46.65625 61.953125 
Q 43.609375 64.796875 38.09375 64.796875 
z
" id="DejaVuSans-Oblique-80"/>
     </defs>
     <g transform="translate(729.85888 55.1165)scale(0.1 -0.1)">
      <use transform="translate(0 0.565625)" xlink:href="#DejaVuSans-Oblique-84"/>
      <use transform="translate(68.100755 38.846875)scale(0.7)" xlink:href="#DejaVuSans-Oblique-115"/>
      <use transform="translate(104.570482 38.846875)scale(0.7)" xlink:href="#DejaVuSans-Oblique-101"/>
      <use transform="translate(147.636888 38.846875)scale(0.7)" xlink:href="#DejaVuSans-Oblique-116"/>
      <use transform="translate(177.817552 0.565625)" xlink:href="#DejaVuSans-44"/>
      <use transform="translate(229.087083 0.565625)" xlink:href="#DejaVuSans-Oblique-87"/>
      <use transform="translate(327.964036 0.565625)" xlink:href="#DejaVuSans-Oblique-72"/>
      <use transform="translate(422.641771 0.565625)" xlink:href="#DejaVuSans-8722"/>
      <use transform="translate(525.913255 0.565625)" xlink:href="#DejaVuSans-Oblique-77"/>
      <use transform="translate(612.192552 0.565625)" xlink:href="#DejaVuSans-Oblique-73"/>
      <use transform="translate(641.68474 0.565625)" xlink:href="#DejaVuSans-Oblique-76"/>
      <use transform="translate(697.39763 0.565625)" xlink:href="#DejaVuSans-Oblique-80"/>
     </g>
    </g>
    <g id="line2d_10">
     <path d="M 701.85888 67.2165 
L 721.85888 67.2165 
" style="fill:none;stroke:#00ffff;stroke-dasharray:3.7,1.6;stroke-dashoffset:0;"/>
    </g>
    <g id="line2d_11"/>
    <g id="text_8">
     <!-- $T^{set}, EA_GA$ -->
     <defs>
      <path d="M 16.890625 72.90625 
L 62.984375 72.90625 
L 61.375 64.59375 
L 25.09375 64.59375 
L 20.90625 43.015625 
L 55.71875 43.015625 
L 54.109375 34.71875 
L 19.28125 34.71875 
L 14.203125 8.296875 
L 51.3125 8.296875 
L 49.703125 0 
L 2.6875 0 
z
" id="DejaVuSans-Oblique-69"/>
      <path d="M 36.8125 72.90625 
L 48 72.90625 
L 61.53125 0 
L 51.21875 0 
L 48.1875 18.703125 
L 15.375 18.703125 
L 5.078125 0 
L -5.328125 0 
z
M 40.375 63.1875 
L 19.921875 26.90625 
L 46.6875 26.90625 
z
" id="DejaVuSans-Oblique-65"/>
      <path d="M 54.59375 10.890625 
L 58.40625 29.984375 
L 42.1875 29.984375 
L 43.703125 38.09375 
L 69.578125 38.09375 
L 63.28125 6 
Q 56.78125 2.4375 49.109375 0.5 
Q 41.453125 -1.421875 33.6875 -1.421875 
Q 19.96875 -1.421875 12.234375 6.1875 
Q 4.5 13.8125 4.5 27.390625 
Q 4.5 38.671875 9.203125 48.84375 
Q 13.921875 59.03125 22.21875 65.828125 
Q 27.4375 70.0625 33.640625 72.140625 
Q 39.84375 74.21875 47.40625 74.21875 
Q 54.25 74.21875 60.515625 72.484375 
Q 66.796875 70.75 72.515625 67.28125 
L 70.515625 56.78125 
Q 66.109375 61.375 60.203125 63.796875 
Q 54.296875 66.21875 47.609375 66.21875 
Q 39.84375 66.21875 33.9375 63.25 
Q 28.03125 60.296875 23.390625 54.109375 
Q 19.4375 48.828125 17.15625 41.671875 
Q 14.890625 34.515625 14.890625 27.09375 
Q 14.890625 16.890625 20.109375 11.734375 
Q 25.34375 6.59375 35.6875 6.59375 
Q 40.875 6.59375 45.703125 7.6875 
Q 50.53125 8.796875 54.59375 10.890625 
z
" id="DejaVuSans-Oblique-71"/>
     </defs>
     <g transform="translate(729.85888 70.7165)scale(0.1 -0.1)">
      <use transform="translate(0 0.565625)" xlink:href="#DejaVuSans-Oblique-84"/>
      <use transform="translate(68.100755 38.846875)scale(0.7)" xlink:href="#DejaVuSans-Oblique-115"/>
      <use transform="translate(104.570482 38.846875)scale(0.7)" xlink:href="#DejaVuSans-Oblique-101"/>
      <use transform="translate(147.636888 38.846875)scale(0.7)" xlink:href="#DejaVuSans-Oblique-116"/>
      <use transform="translate(177.817552 0.565625)" xlink:href="#DejaVuSans-44"/>
      <use transform="translate(229.087083 0.565625)" xlink:href="#DejaVuSans-Oblique-69"/>
      <use transform="translate(292.270677 0.565625)" xlink:href="#DejaVuSans-Oblique-65"/>
      <use transform="translate(360.67888 -15.840625)scale(0.7)" xlink:href="#DejaVuSans-Oblique-71"/>
      <use transform="translate(417.656419 0.565625)" xlink:href="#DejaVuSans-Oblique-65"/>
     </g>
    </g>
   </g>
  </g>
  <g id="axes_2">
   <g id="patch_7">
    <path d="M 49.48992 235.008 
L 692.85888 235.008 
L 692.85888 124.416 
L 49.48992 124.416 
z
" style="fill:#ffffff;"/>
   </g>
   <g id="matplotlib.axis_2">
    <g id="ytick_6">
     <g id="line2d_12">
      <g>
       <use style="stroke:#000000;stroke-width:0.8;" x="49.48992" xlink:href="#mb8556b95c1" y="219.272441"/>
      </g>
     </g>
     <g id="text_9">
      <!-- 40 -->
      <g transform="translate(31.368045 222.851347)scale(0.1 -0.1)">
       <use xlink:href="#ArialMT-52"/>
       <use x="55.615234" xlink:href="#ArialMT-48"/>
      </g>
     </g>
    </g>
    <g id="ytick_7">
     <g id="line2d_13">
      <g>
       <use style="stroke:#000000;stroke-width:0.8;" x="49.48992" xlink:href="#mb8556b95c1" y="177.491263"/>
      </g>
     </g>
     <g id="text_10">
      <!-- 60 -->
      <g transform="translate(31.368045 181.070169)scale(0.1 -0.1)">
       <use xlink:href="#ArialMT-54"/>
       <use x="55.615234" xlink:href="#ArialMT-48"/>
      </g>
     </g>
    </g>
    <g id="ytick_8">
     <g id="line2d_14">
      <g>
       <use style="stroke:#000000;stroke-width:0.8;" x="49.48992" xlink:href="#mb8556b95c1" y="135.710086"/>
      </g>
     </g>
     <g id="text_11">
      <!-- 80 -->
      <g transform="translate(31.368045 139.288992)scale(0.1 -0.1)">
       <use xlink:href="#ArialMT-56"/>
       <use x="55.615234" xlink:href="#ArialMT-48"/>
      </g>
     </g>
    </g>
    <g id="text_12">
     <!-- $^{\circ}C$ -->
     <g transform="translate(8.900282 185.612)rotate(-90)scale(0.1 -0.1)">
      <use transform="translate(0.957031 39.0625)scale(0.7)" xlink:href="#DejaVuSans-8728"/>
      <use transform="translate(47.509766 0.78125)" xlink:href="#DejaVuSans-Oblique-67"/>
     </g>
    </g>
   </g>
   <g id="line2d_15">
    <path clip-path="url(#pc7b896a051)" d="M 78.733964 219.272441 
L 104.163567 219.272441 
L 104.163567 219.272441 
L 129.59317 219.272441 
L 129.59317 179.371416 
L 155.022773 179.371416 
L 155.022773 129.442909 
L 180.452376 129.442909 
L 180.452376 129.442909 
L 205.881979 129.442909 
L 205.881979 129.442909 
L 231.311583 129.442909 
L 231.311583 129.451265 
L 256.741186 129.451265 
L 256.741186 212.70235 
L 282.170789 212.70235 
L 282.170789 216.316422 
L 307.600392 216.316422 
L 307.600392 210.498393 
L 333.029995 210.498393 
L 333.029995 219.136652 
L 358.459598 219.136652 
L 358.459598 185.847499 
L 383.889202 185.847499 
L 383.889202 187.30984 
L 409.318805 187.30984 
L 409.318805 187.318196 
L 434.748408 187.318196 
L 434.748408 196.89862 
L 460.178011 196.89862 
L 460.178011 197.044854 
L 485.607614 197.044854 
L 485.607614 205.71027 
L 511.037217 205.71027 
L 511.037217 205.718627 
L 536.466821 205.718627 
L 536.466821 206.986685 
L 561.896424 206.986685 
L 561.896424 210.473325 
L 587.326027 210.473325 
L 587.326027 217.837257 
L 612.75563 217.837257 
L 612.75563 217.845613 
L 638.185233 217.845613 
L 638.185233 218.090033 
L 663.614836 218.090033 
L 663.614836 218.098389 
" style="fill:none;stroke:#ff0000;stroke-linecap:square;stroke-opacity:0.7;"/>
   </g>
   <g id="line2d_16">
    <path clip-path="url(#pc7b896a051)" d="M 78.733964 220.699176 
L 104.163567 220.699176 
L 104.163567 175.293088 
L 129.59317 175.293088 
L 129.59317 129.651815 
L 155.022773 129.651815 
L 155.022773 130.853499 
L 180.452376 130.853499 
L 180.452376 133.960615 
L 205.881979 133.960615 
L 205.881979 133.95017 
L 231.311583 133.95017 
L 231.311583 133.939724 
L 256.741186 133.939724 
L 256.741186 217.171365 
L 282.170789 217.171365 
L 282.170789 187.30984 
L 307.600392 187.30984 
L 307.600392 187.997943 
L 333.029995 187.997943 
L 333.029995 196.618019 
L 358.459598 196.618019 
L 358.459598 198.935195 
L 383.889202 198.935195 
L 383.889202 200.379786 
L 409.318805 200.379786 
L 409.318805 200.369341 
L 434.748408 200.369341 
L 434.748408 209.931746 
L 460.178011 209.931746 
L 460.178011 210.058606 
L 485.607614 210.058606 
L 485.607614 218.705792 
L 511.037217 218.705792 
L 511.037217 218.695347 
L 536.466821 218.695347 
L 536.466821 219.944257 
L 561.896424 219.944257 
L 561.896424 223.266547 
L 587.326027 223.266547 
L 587.326027 229.786962 
L 612.75563 229.786962 
L 612.75563 229.776516 
L 638.185233 229.776516 
L 638.185233 229.981091 
L 663.614836 229.981091 
L 663.614836 229.970646 
" style="fill:none;stroke:#00ffff;stroke-linecap:square;stroke-opacity:0.7;"/>
   </g>
   <g id="patch_8">
    <path d="M 49.48992 235.008 
L 49.48992 124.416 
" style="fill:none;stroke:#000000;stroke-linecap:square;stroke-linejoin:miter;stroke-width:0.8;"/>
   </g>
   <g id="patch_9">
    <path d="M 692.85888 235.008 
L 692.85888 124.416 
" style="fill:none;stroke:#000000;stroke-linecap:square;stroke-linejoin:miter;stroke-width:0.8;"/>
   </g>
   <g id="patch_10">
    <path d="M 49.48992 235.008 
L 692.85888 235.008 
" style="fill:none;stroke:#000000;stroke-linecap:square;stroke-linejoin:miter;stroke-width:0.8;"/>
   </g>
   <g id="patch_11">
    <path d="M 49.48992 124.416 
L 692.85888 124.416 
" style="fill:none;stroke:#000000;stroke-linecap:square;stroke-linejoin:miter;stroke-width:0.8;"/>
   </g>
   <g id="legend_2">
    <g id="line2d_17">
     <path d="M 701.85888 171.4245 
L 721.85888 171.4245 
" style="fill:none;stroke:#ff0000;stroke-linecap:square;stroke-opacity:0.7;"/>
    </g>
    <g id="line2d_18"/>
    <g id="text_13">
     <!-- $T^{tank}, WH-MILP$ -->
     <defs>
      <path d="M 53.71875 31.203125 
L 47.609375 0 
L 38.625 0 
L 40.28125 8.296875 
Q 36.328125 3.421875 31.265625 1 
Q 26.21875 -1.421875 20.015625 -1.421875 
Q 13.03125 -1.421875 8.5625 2.84375 
Q 4.109375 7.125 4.109375 13.8125 
Q 4.109375 23.390625 11.75 28.953125 
Q 19.390625 34.515625 32.8125 34.515625 
L 45.3125 34.515625 
L 45.796875 36.921875 
Q 45.90625 37.3125 45.953125 37.765625 
Q 46 38.234375 46 39.203125 
Q 46 43.5625 42.453125 45.96875 
Q 38.921875 48.390625 32.515625 48.390625 
Q 28.125 48.390625 23.5 47.265625 
Q 18.890625 46.140625 14.015625 43.890625 
L 15.578125 52.203125 
Q 20.65625 54.109375 25.515625 55.046875 
Q 30.375 56 34.90625 56 
Q 44.578125 56 49.625 51.796875 
Q 54.6875 47.609375 54.6875 39.59375 
Q 54.6875 37.984375 54.4375 35.8125 
Q 54.203125 33.640625 53.71875 31.203125 
z
M 44 27.484375 
L 35.015625 27.484375 
Q 23.96875 27.484375 18.671875 24.53125 
Q 13.375 21.578125 13.375 15.375 
Q 13.375 11.078125 16.078125 8.640625 
Q 18.796875 6.203125 23.578125 6.203125 
Q 30.90625 6.203125 36.375 11.453125 
Q 41.84375 16.703125 43.609375 25.484375 
z
" id="DejaVuSans-Oblique-97"/>
      <path d="M 55.71875 33.015625 
L 49.3125 0 
L 40.28125 0 
L 46.6875 32.671875 
Q 47.125 34.96875 47.359375 36.71875 
Q 47.609375 38.484375 47.609375 39.5 
Q 47.609375 43.609375 45.015625 45.890625 
Q 42.4375 48.1875 37.796875 48.1875 
Q 30.5625 48.1875 25.34375 43.375 
Q 20.125 38.578125 18.5 30.328125 
L 12.5 0 
L 3.515625 0 
L 14.109375 54.6875 
L 23.09375 54.6875 
L 21.296875 46.09375 
Q 25.046875 50.828125 30.3125 53.40625 
Q 35.59375 56 41.40625 56 
Q 48.640625 56 52.609375 52.09375 
Q 56.59375 48.1875 56.59375 41.109375 
Q 56.59375 39.359375 56.375 37.359375 
Q 56.15625 35.359375 55.71875 33.015625 
z
" id="DejaVuSans-Oblique-110"/>
      <path d="M 18.3125 75.984375 
L 27.296875 75.984375 
L 18.703125 31.6875 
L 49.515625 54.6875 
L 61.1875 54.6875 
L 26.8125 28.515625 
L 51.90625 0 
L 41.015625 0 
L 17.671875 26.703125 
L 12.5 0 
L 3.515625 0 
z
" id="DejaVuSans-Oblique-107"/>
     </defs>
     <g transform="translate(729.85888 174.9245)scale(0.1 -0.1)">
      <use transform="translate(0 0.529687)" xlink:href="#DejaVuSans-Oblique-84"/>
      <use transform="translate(68.100755 38.810937)scale(0.7)" xlink:href="#DejaVuSans-Oblique-116"/>
      <use transform="translate(95.547044 38.810937)scale(0.7)" xlink:href="#DejaVuSans-Oblique-97"/>
      <use transform="translate(138.442552 38.810937)scale(0.7)" xlink:href="#DejaVuSans-Oblique-110"/>
      <use transform="translate(182.807786 38.810937)scale(0.7)" xlink:href="#DejaVuSans-Oblique-107"/>
      <use transform="translate(226.079271 0.529687)" xlink:href="#DejaVuSans-44"/>
      <use transform="translate(277.348802 0.529687)" xlink:href="#DejaVuSans-Oblique-87"/>
      <use transform="translate(376.225755 0.529687)" xlink:href="#DejaVuSans-Oblique-72"/>
      <use transform="translate(470.90349 0.529687)" xlink:href="#DejaVuSans-8722"/>
      <use transform="translate(574.174974 0.529687)" xlink:href="#DejaVuSans-Oblique-77"/>
      <use transform="translate(660.454271 0.529687)" xlink:href="#DejaVuSans-Oblique-73"/>
      <use transform="translate(689.946458 0.529687)" xlink:href="#DejaVuSans-Oblique-76"/>
      <use transform="translate(745.659349 0.529687)" xlink:href="#DejaVuSans-Oblique-80"/>
     </g>
    </g>
    <g id="line2d_19">
     <path d="M 701.85888 187.4245 
L 721.85888 187.4245 
" style="fill:none;stroke:#00ffff;stroke-linecap:square;stroke-opacity:0.7;"/>
    </g>
    <g id="line2d_20"/>
    <g id="text_14">
     <!-- $T^{tank}, EA_GA$ -->
     <g transform="translate(729.85888 190.9245)scale(0.1 -0.1)">
      <use transform="translate(0 0.529687)" xlink:href="#DejaVuSans-Oblique-84"/>
      <use transform="translate(68.100755 38.810937)scale(0.7)" xlink:href="#DejaVuSans-Oblique-116"/>
      <use transform="translate(95.547044 38.810937)scale(0.7)" xlink:href="#DejaVuSans-Oblique-97"/>
      <use transform="translate(138.442552 38.810937)scale(0.7)" xlink:href="#DejaVuSans-Oblique-110"/>
      <use transform="translate(182.807786 38.810937)scale(0.7)" xlink:href="#DejaVuSans-Oblique-107"/>
      <use transform="translate(226.079271 0.529687)" xlink:href="#DejaVuSans-44"/>
      <use transform="translate(277.348802 0.529687)" xlink:href="#DejaVuSans-Oblique-69"/>
      <use transform="translate(340.532396 0.529687)" xlink:href="#DejaVuSans-Oblique-65"/>
      <use transform="translate(408.940599 -15.876563)scale(0.7)" xlink:href="#DejaVuSans-Oblique-71"/>
      <use transform="translate(465.918138 0.529687)" xlink:href="#DejaVuSans-Oblique-65"/>
     </g>
    </g>
   </g>
  </g>
  <g id="axes_3">
   <g id="patch_12">
    <path d="M 49.48992 331.776 
L 692.85888 331.776 
L 692.85888 244.224 
L 49.48992 244.224 
z
" style="fill:#ffffff;"/>
   </g>
   <g id="matplotlib.axis_3">
    <g id="ytick_9">
     <g id="line2d_21">
      <g>
       <use style="stroke:#000000;stroke-width:0.8;" x="49.48992" xlink:href="#mb8556b95c1" y="327.796364"/>
      </g>
     </g>
     <g id="text_15">
      <!-- 0.0 -->
      <defs>
       <path d="M 9.078125 0 
L 9.078125 10.015625 
L 19.09375 10.015625 
L 19.09375 0 
z
" id="ArialMT-46"/>
      </defs>
      <g transform="translate(28.58992 331.37527)scale(0.1 -0.1)">
       <use xlink:href="#ArialMT-48"/>
       <use x="55.615234" xlink:href="#ArialMT-46"/>
       <use x="83.398438" xlink:href="#ArialMT-48"/>
      </g>
     </g>
    </g>
    <g id="ytick_10">
     <g id="line2d_22">
      <g>
       <use style="stroke:#000000;stroke-width:0.8;" x="49.48992" xlink:href="#mb8556b95c1" y="300.609491"/>
      </g>
     </g>
     <g id="text_16">
      <!-- 2.5 -->
      <defs>
       <path d="M 4.15625 18.75 
L 13.375 19.53125 
Q 14.40625 12.796875 18.140625 9.390625 
Q 21.875 6 27.15625 6 
Q 33.5 6 37.890625 10.78125 
Q 42.28125 15.578125 42.28125 23.484375 
Q 42.28125 31 38.0625 35.34375 
Q 33.84375 39.703125 27 39.703125 
Q 22.75 39.703125 19.328125 37.765625 
Q 15.921875 35.84375 13.96875 32.765625 
L 5.71875 33.84375 
L 12.640625 70.609375 
L 48.25 70.609375 
L 48.25 62.203125 
L 19.671875 62.203125 
L 15.828125 42.96875 
Q 22.265625 47.46875 29.34375 47.46875 
Q 38.71875 47.46875 45.15625 40.96875 
Q 51.609375 34.46875 51.609375 24.265625 
Q 51.609375 14.546875 45.953125 7.46875 
Q 39.0625 -1.21875 27.15625 -1.21875 
Q 17.390625 -1.21875 11.203125 4.25 
Q 5.03125 9.71875 4.15625 18.75 
z
" id="ArialMT-53"/>
      </defs>
      <g transform="translate(28.58992 304.188398)scale(0.1 -0.1)">
       <use xlink:href="#ArialMT-50"/>
       <use x="55.615234" xlink:href="#ArialMT-46"/>
       <use x="83.398438" xlink:href="#ArialMT-53"/>
      </g>
     </g>
    </g>
    <g id="ytick_11">
     <g id="line2d_23">
      <g>
       <use style="stroke:#000000;stroke-width:0.8;" x="49.48992" xlink:href="#mb8556b95c1" y="273.422619"/>
      </g>
     </g>
     <g id="text_17">
      <!-- 5.0 -->
      <g transform="translate(28.58992 277.001525)scale(0.1 -0.1)">
       <use xlink:href="#ArialMT-53"/>
       <use x="55.615234" xlink:href="#ArialMT-46"/>
       <use x="83.398438" xlink:href="#ArialMT-48"/>
      </g>
     </g>
    </g>
    <g id="ytick_12">
     <g id="line2d_24">
      <g>
       <use style="stroke:#000000;stroke-width:0.8;" x="49.48992" xlink:href="#mb8556b95c1" y="246.235747"/>
      </g>
     </g>
     <g id="text_18">
      <!-- 7.5 -->
      <defs>
       <path d="M 4.734375 62.203125 
L 4.734375 70.65625 
L 51.078125 70.65625 
L 51.078125 63.8125 
Q 44.234375 56.546875 37.515625 44.484375 
Q 30.8125 32.421875 27.15625 19.671875 
Q 24.515625 10.6875 23.78125 0 
L 14.75 0 
Q 14.890625 8.453125 18.0625 20.40625 
Q 21.234375 32.375 27.171875 43.484375 
Q 33.109375 54.59375 39.796875 62.203125 
z
" id="ArialMT-55"/>
      </defs>
      <g transform="translate(28.58992 249.814653)scale(0.1 -0.1)">
       <use xlink:href="#ArialMT-55"/>
       <use x="55.615234" xlink:href="#ArialMT-46"/>
       <use x="83.398438" xlink:href="#ArialMT-53"/>
      </g>
     </g>
    </g>
    <g id="text_19">
     <!-- kWh -->
     <defs>
      <path d="M 6.640625 0 
L 6.640625 71.578125 
L 15.4375 71.578125 
L 15.4375 30.765625 
L 36.234375 51.859375 
L 47.609375 51.859375 
L 27.78125 32.625 
L 49.609375 0 
L 38.765625 0 
L 21.625 26.515625 
L 15.4375 20.5625 
L 15.4375 0 
z
" id="ArialMT-107"/>
      <path d="M 20.21875 0 
L 1.21875 71.578125 
L 10.9375 71.578125 
L 21.828125 24.65625 
Q 23.578125 17.28125 24.859375 10.015625 
Q 27.59375 21.484375 28.078125 23.25 
L 41.703125 71.578125 
L 53.125 71.578125 
L 63.375 35.359375 
Q 67.234375 21.875 68.953125 10.015625 
Q 70.3125 16.796875 72.515625 25.59375 
L 83.734375 71.578125 
L 93.265625 71.578125 
L 73.640625 0 
L 64.5 0 
L 49.421875 54.546875 
Q 47.515625 61.375 47.171875 62.9375 
Q 46.046875 58.015625 45.0625 54.546875 
L 29.890625 0 
z
" id="ArialMT-87"/>
      <path d="M 6.59375 0 
L 6.59375 71.578125 
L 15.375 71.578125 
L 15.375 45.90625 
Q 21.53125 53.03125 30.90625 53.03125 
Q 36.671875 53.03125 40.921875 50.75 
Q 45.171875 48.484375 47 44.484375 
Q 48.828125 40.484375 48.828125 32.859375 
L 48.828125 0 
L 40.046875 0 
L 40.046875 32.859375 
Q 40.046875 39.453125 37.1875 42.453125 
Q 34.328125 45.453125 29.109375 45.453125 
Q 25.203125 45.453125 21.75 43.421875 
Q 18.3125 41.40625 16.84375 37.9375 
Q 15.375 34.46875 15.375 28.375 
L 15.375 0 
z
" id="ArialMT-104"/>
     </defs>
     <g transform="translate(8.900282 298)rotate(-90)scale(0.1 -0.1)">
      <use xlink:href="#ArialMT-107"/>
      <use x="50" xlink:href="#ArialMT-87"/>
      <use x="144.384766" xlink:href="#ArialMT-104"/>
     </g>
    </g>
   </g>
   <g id="line2d_25">
    <path clip-path="url(#p311b42aa31)" d="M 78.733964 327.618192 
L 104.163567 327.618192 
L 104.163567 322.265369 
L 129.59317 322.265369 
L 129.59317 289.644504 
L 155.022773 289.644504 
L 155.022773 278.89764 
L 180.452376 278.89764 
L 180.452376 324.815369 
L 205.881979 324.815369 
L 205.881979 327.796255 
L 231.311583 327.796255 
L 231.311583 327.796361 
L 256.741186 327.796361 
L 256.741186 327.796361 
L 282.170789 327.796361 
L 282.170789 327.796361 
L 307.600392 327.796361 
L 307.600392 321.565366 
L 333.029995 321.565366 
L 333.029995 327.796361 
L 358.459598 327.796361 
L 358.459598 293.740931 
L 383.889202 293.740931 
L 383.889202 327.796361 
L 409.318805 327.796361 
L 409.318805 327.796361 
L 434.748408 327.796361 
L 434.748408 327.796361 
L 460.178011 327.796361 
L 460.178011 327.796361 
L 485.607614 327.796361 
L 485.607614 327.796361 
L 511.037217 327.796361 
L 511.037217 327.796361 
L 536.466821 327.796361 
L 536.466821 327.796361 
L 561.896424 327.796361 
L 561.896424 327.796361 
L 587.326027 327.796361 
L 587.326027 327.796361 
L 612.75563 327.796361 
L 612.75563 327.796361 
L 638.185233 327.796361 
L 638.185233 327.796361 
L 663.614836 327.796361 
L 663.614836 327.796361 
" style="fill:none;stroke:#ff0000;stroke-dasharray:6.4,1.6,1,1.6;stroke-dashoffset:0;stroke-opacity:0.7;"/>
   </g>
   <g id="line2d_26">
    <path clip-path="url(#p311b42aa31)" d="M 78.733964 327.796364 
L 104.163567 327.796364 
L 104.163567 278.859993 
L 129.59317 278.859993 
L 129.59317 284.156018 
L 155.022773 284.156018 
L 155.022773 327.796364 
L 180.452376 327.796364 
L 180.452376 327.796364 
L 205.881979 327.796364 
L 205.881979 327.796364 
L 231.311583 327.796364 
L 231.311583 327.796364 
L 256.741186 327.796364 
L 256.741186 327.796364 
L 282.170789 327.796364 
L 282.170789 295.79544 
L 307.600392 295.79544 
L 307.600392 327.796364 
L 333.029995 327.796364 
L 333.029995 327.796364 
L 358.459598 327.796364 
L 358.459598 327.796364 
L 383.889202 327.796364 
L 383.889202 327.796364 
L 409.318805 327.796364 
L 409.318805 327.796364 
L 434.748408 327.796364 
L 434.748408 327.796364 
L 460.178011 327.796364 
L 460.178011 327.796364 
L 485.607614 327.796364 
L 485.607614 327.796364 
L 511.037217 327.796364 
L 511.037217 327.796364 
L 536.466821 327.796364 
L 536.466821 327.796364 
L 561.896424 327.796364 
L 561.896424 327.796364 
L 587.326027 327.796364 
L 587.326027 327.796364 
L 612.75563 327.796364 
L 612.75563 327.796364 
L 638.185233 327.796364 
L 638.185233 327.796364 
L 663.614836 327.796364 
L 663.614836 327.796364 
" style="fill:none;stroke:#00ffff;stroke-dasharray:6.4,1.6,1,1.6;stroke-dashoffset:0;stroke-opacity:0.7;"/>
   </g>
   <g id="line2d_27">
    <path clip-path="url(#p311b42aa31)" d="M 78.733964 326.402214 
L 104.163567 326.402214 
L 104.163567 322.265478 
L 129.59317 322.265478 
L 129.59317 327.796364 
L 155.022773 327.796364 
L 155.022773 326.637374 
L 180.452376 326.637374 
L 180.452376 324.815478 
L 205.881979 324.815478 
L 205.881979 327.796364 
L 231.311583 327.796364 
L 231.311583 327.796364 
L 256.741186 327.796364 
L 256.741186 248.203636 
L 282.170789 248.203636 
L 282.170789 324.347826 
L 307.600392 324.347826 
L 307.600392 327.128439 
L 333.029995 327.128439 
L 333.029995 319.544208 
L 358.459598 319.544208 
L 358.459598 325.570786 
L 383.889202 325.570786 
L 383.889202 326.405116 
L 409.318805 326.405116 
L 409.318805 327.796364 
L 434.748408 327.796364 
L 434.748408 318.64319 
L 460.178011 318.64319 
L 460.178011 327.665078 
L 485.607614 327.665078 
L 485.607614 319.518285 
L 511.037217 319.518285 
L 511.037217 327.796364 
L 536.466821 327.796364 
L 536.466821 326.592219 
L 561.896424 326.592219 
L 561.896424 324.469913 
L 587.326027 324.469913 
L 587.326027 320.762816 
L 612.75563 320.762816 
L 612.75563 327.796364 
L 638.185233 327.796364 
L 638.185233 327.570796 
L 663.614836 327.570796 
L 663.614836 327.796364 
" style="fill:none;stroke:#000000;stroke-dasharray:1.5,2.475;stroke-dashoffset:0;stroke-width:1.5;"/>
   </g>
   <g id="patch_13">
    <path d="M 49.48992 331.776 
L 49.48992 244.224 
" style="fill:none;stroke:#000000;stroke-linecap:square;stroke-linejoin:miter;stroke-width:0.8;"/>
   </g>
   <g id="patch_14">
    <path d="M 692.85888 331.776 
L 692.85888 244.224 
" style="fill:none;stroke:#000000;stroke-linecap:square;stroke-linejoin:miter;stroke-width:0.8;"/>
   </g>
   <g id="patch_15">
    <path d="M 49.48992 331.776 
L 692.85888 331.776 
" style="fill:none;stroke:#000000;stroke-linecap:square;stroke-linejoin:miter;stroke-width:0.8;"/>
   </g>
   <g id="patch_16">
    <path d="M 49.48992 244.224 
L 692.85888 244.224 
" style="fill:none;stroke:#000000;stroke-linecap:square;stroke-linejoin:miter;stroke-width:0.8;"/>
   </g>
   <g id="legend_3">
    <g id="line2d_28">
     <path d="M 701.85888 272.5125 
L 721.85888 272.5125 
" style="fill:none;stroke:#ff0000;stroke-dasharray:6.4,1.6,1,1.6;stroke-dashoffset:0;stroke-opacity:0.7;"/>
    </g>
    <g id="line2d_29"/>
    <g id="text_20">
     <!-- $E^{in},WH-MILP$ -->
     <defs>
      <path d="M 18.3125 75.984375 
L 27.296875 75.984375 
L 25.09375 64.59375 
L 16.109375 64.59375 
z
M 14.203125 54.6875 
L 23.1875 54.6875 
L 12.5 0 
L 3.515625 0 
z
" id="DejaVuSans-Oblique-105"/>
     </defs>
     <g transform="translate(729.85888 276.0125)scale(0.1 -0.1)">
      <use transform="translate(0 0.529687)" xlink:href="#DejaVuSans-Oblique-69"/>
      <use transform="translate(70.200365 38.810937)scale(0.7)" xlink:href="#DejaVuSans-Oblique-105"/>
      <use transform="translate(89.648607 38.810937)scale(0.7)" xlink:href="#DejaVuSans-Oblique-110"/>
      <use transform="translate(136.748216 0.529687)" xlink:href="#DejaVuSans-44"/>
      <use transform="translate(188.017747 0.529687)" xlink:href="#DejaVuSans-Oblique-87"/>
      <use transform="translate(286.894701 0.529687)" xlink:href="#DejaVuSans-Oblique-72"/>
      <use transform="translate(381.572435 0.529687)" xlink:href="#DejaVuSans-8722"/>
      <use transform="translate(484.843919 0.529687)" xlink:href="#DejaVuSans-Oblique-77"/>
      <use transform="translate(571.123216 0.529687)" xlink:href="#DejaVuSans-Oblique-73"/>
      <use transform="translate(600.615404 0.529687)" xlink:href="#DejaVuSans-Oblique-76"/>
      <use transform="translate(656.328294 0.529687)" xlink:href="#DejaVuSans-Oblique-80"/>
     </g>
    </g>
    <g id="line2d_30">
     <path d="M 701.85888 288.5125 
L 721.85888 288.5125 
" style="fill:none;stroke:#00ffff;stroke-dasharray:6.4,1.6,1,1.6;stroke-dashoffset:0;stroke-opacity:0.7;"/>
    </g>
    <g id="line2d_31"/>
    <g id="text_21">
     <!-- $E^{in},EA_GA$ -->
     <g transform="translate(729.85888 292.0125)scale(0.1 -0.1)">
      <use transform="translate(0 0.529687)" xlink:href="#DejaVuSans-Oblique-69"/>
      <use transform="translate(70.200365 38.810937)scale(0.7)" xlink:href="#DejaVuSans-Oblique-105"/>
      <use transform="translate(89.648607 38.810937)scale(0.7)" xlink:href="#DejaVuSans-Oblique-110"/>
      <use transform="translate(136.748216 0.529687)" xlink:href="#DejaVuSans-44"/>
      <use transform="translate(188.017747 0.529687)" xlink:href="#DejaVuSans-Oblique-69"/>
      <use transform="translate(251.201341 0.529687)" xlink:href="#DejaVuSans-Oblique-65"/>
      <use transform="translate(319.609544 -15.876563)scale(0.7)" xlink:href="#DejaVuSans-Oblique-71"/>
      <use transform="translate(376.587083 0.529687)" xlink:href="#DejaVuSans-Oblique-65"/>
     </g>
    </g>
    <g id="line2d_32">
     <path d="M 701.85888 302.9125 
L 721.85888 302.9125 
" style="fill:none;stroke:#000000;stroke-dasharray:1.5,2.475;stroke-dashoffset:0;stroke-width:1.5;"/>
    </g>
    <g id="line2d_33"/>
    <g id="text_22">
     <!-- $e^{des}$ -->
     <defs>
      <path d="M 41.796875 8.203125 
Q 38.1875 3.46875 33.25 1.015625 
Q 28.328125 -1.421875 22.3125 -1.421875 
Q 14.109375 -1.421875 9.34375 4.171875 
Q 4.59375 9.765625 4.59375 19.484375 
Q 4.59375 27.59375 7.46875 34.9375 
Q 10.359375 42.28125 15.828125 48.09375 
Q 19.4375 51.953125 23.96875 53.96875 
Q 28.515625 56 33.5 56 
Q 38.765625 56 42.796875 53.453125 
Q 46.828125 50.921875 49.03125 46.1875 
L 54.890625 75.984375 
L 63.921875 75.984375 
L 49.125 0 
L 40.09375 0 
z
M 13.921875 21.09375 
Q 13.921875 14.015625 17.109375 10.0625 
Q 20.3125 6.109375 25.984375 6.109375 
Q 30.171875 6.109375 33.765625 8.125 
Q 37.359375 10.15625 40.09375 14.109375 
Q 42.96875 18.21875 44.625 23.578125 
Q 46.296875 28.953125 46.296875 34.1875 
Q 46.296875 40.96875 43.09375 44.765625 
Q 39.890625 48.578125 34.28125 48.578125 
Q 30.03125 48.578125 26.359375 46.578125 
Q 22.703125 44.578125 20.125 40.828125 
Q 17.28125 36.765625 15.59375 31.390625 
Q 13.921875 26.03125 13.921875 21.09375 
z
" id="DejaVuSans-Oblique-100"/>
     </defs>
     <g transform="translate(729.85888 306.4125)scale(0.1 -0.1)">
      <use transform="translate(0 0.529687)" xlink:href="#DejaVuSans-Oblique-101"/>
      <use transform="translate(66.173333 38.810937)scale(0.7)" xlink:href="#DejaVuSans-Oblique-100"/>
      <use transform="translate(110.606927 38.810937)scale(0.7)" xlink:href="#DejaVuSans-Oblique-101"/>
      <use transform="translate(153.673333 38.810937)scale(0.7)" xlink:href="#DejaVuSans-Oblique-115"/>
     </g>
    </g>
   </g>
  </g>
  <g id="axes_4">
   <g id="patch_17">
    <path d="M 49.48992 428.544 
L 692.85888 428.544 
L 692.85888 340.992 
L 49.48992 340.992 
z
" style="fill:#ffffff;"/>
   </g>
   <g id="matplotlib.axis_4">
    <g id="xtick_1">
     <g id="line2d_34">
      <defs>
       <path d="M 0 0 
L 0 3.5 
" id="m6e87e6a896" style="stroke:#000000;stroke-width:0.8;"/>
      </defs>
      <g>
       <use style="stroke:#000000;stroke-width:0.8;" x="53.30436" xlink:href="#m6e87e6a896" y="428.544"/>
      </g>
     </g>
     <g id="text_23">
      <!-- 0 -->
      <g transform="translate(50.523892 442.701813)scale(0.1 -0.1)">
       <use xlink:href="#ArialMT-48"/>
      </g>
     </g>
    </g>
    <g id="xtick_2">
     <g id="line2d_35">
      <g>
       <use style="stroke:#000000;stroke-width:0.8;" x="180.452376" xlink:href="#m6e87e6a896" y="428.544"/>
      </g>
     </g>
     <g id="text_24">
      <!-- 5 -->
      <g transform="translate(177.671908 442.701813)scale(0.1 -0.1)">
       <use xlink:href="#ArialMT-53"/>
      </g>
     </g>
    </g>
    <g id="xtick_3">
     <g id="line2d_36">
      <g>
       <use style="stroke:#000000;stroke-width:0.8;" x="307.600392" xlink:href="#m6e87e6a896" y="428.544"/>
      </g>
     </g>
     <g id="text_25">
      <!-- 10 -->
      <defs>
       <path d="M 37.25 0 
L 28.46875 0 
L 28.46875 56 
Q 25.296875 52.984375 20.140625 49.953125 
Q 14.984375 46.921875 10.890625 45.40625 
L 10.890625 53.90625 
Q 18.265625 57.375 23.78125 62.296875 
Q 29.296875 67.234375 31.59375 71.875 
L 37.25 71.875 
z
" id="ArialMT-49"/>
      </defs>
      <g transform="translate(302.039455 442.701813)scale(0.1 -0.1)">
       <use xlink:href="#ArialMT-49"/>
       <use x="55.615234" xlink:href="#ArialMT-48"/>
      </g>
     </g>
    </g>
    <g id="xtick_4">
     <g id="line2d_37">
      <g>
       <use style="stroke:#000000;stroke-width:0.8;" x="434.748408" xlink:href="#m6e87e6a896" y="428.544"/>
      </g>
     </g>
     <g id="text_26">
      <!-- 15 -->
      <g transform="translate(429.18747 442.701813)scale(0.1 -0.1)">
       <use xlink:href="#ArialMT-49"/>
       <use x="55.615234" xlink:href="#ArialMT-53"/>
      </g>
     </g>
    </g>
    <g id="xtick_5">
     <g id="line2d_38">
      <g>
       <use style="stroke:#000000;stroke-width:0.8;" x="561.896424" xlink:href="#m6e87e6a896" y="428.544"/>
      </g>
     </g>
     <g id="text_27">
      <!-- 20 -->
      <g transform="translate(556.335486 442.701813)scale(0.1 -0.1)">
       <use xlink:href="#ArialMT-50"/>
       <use x="55.615234" xlink:href="#ArialMT-48"/>
      </g>
     </g>
    </g>
    <g id="xtick_6">
     <g id="line2d_39">
      <g>
       <use style="stroke:#000000;stroke-width:0.8;" x="689.04444" xlink:href="#m6e87e6a896" y="428.544"/>
      </g>
     </g>
     <g id="text_28">
      <!-- 25 -->
      <g transform="translate(683.483502 442.701813)scale(0.1 -0.1)">
       <use xlink:href="#ArialMT-50"/>
       <use x="55.615234" xlink:href="#ArialMT-53"/>
      </g>
     </g>
    </g>
   </g>
   <g id="matplotlib.axis_5">
    <g id="ytick_13">
     <g id="line2d_40">
      <g>
       <use style="stroke:#000000;stroke-width:0.8;" x="49.48992" xlink:href="#mb8556b95c1" y="415.154292"/>
      </g>
     </g>
     <g id="text_29">
      <!-- 0.08 -->
      <g transform="translate(23.028983 418.733198)scale(0.1 -0.1)">
       <use xlink:href="#ArialMT-48"/>
       <use x="55.615234" xlink:href="#ArialMT-46"/>
       <use x="83.398438" xlink:href="#ArialMT-48"/>
       <use x="139.013672" xlink:href="#ArialMT-56"/>
      </g>
     </g>
    </g>
    <g id="ytick_14">
     <g id="line2d_41">
      <g>
       <use style="stroke:#000000;stroke-width:0.8;" x="49.48992" xlink:href="#mb8556b95c1" y="376.824059"/>
      </g>
     </g>
     <g id="text_30">
      <!-- 0.10 -->
      <g transform="translate(23.028983 380.402966)scale(0.1 -0.1)">
       <use xlink:href="#ArialMT-48"/>
       <use x="55.615234" xlink:href="#ArialMT-46"/>
       <use x="83.398438" xlink:href="#ArialMT-49"/>
       <use x="139.013672" xlink:href="#ArialMT-48"/>
      </g>
     </g>
    </g>
    <g id="text_31">
     <!-- $/MWh -->
     <defs>
      <path d="M 24.90625 -10.296875 
L 24.90625 -1.515625 
Q 18.3125 -0.6875 14.1875 1.4375 
Q 10.0625 3.5625 7.046875 8.296875 
Q 4.046875 13.03125 3.5625 19.875 
L 12.40625 21.53125 
Q 13.421875 14.453125 16.015625 11.140625 
Q 19.734375 6.453125 24.90625 5.90625 
L 24.90625 33.890625 
Q 19.484375 34.90625 13.8125 38.09375 
Q 9.625 40.4375 7.34375 44.578125 
Q 5.078125 48.734375 5.078125 54 
Q 5.078125 63.375 11.71875 69.1875 
Q 16.15625 73.09375 24.90625 73.96875 
L 24.90625 78.171875 
L 30.078125 78.171875 
L 30.078125 73.96875 
Q 37.75 73.25 42.234375 69.484375 
Q 48 64.703125 49.171875 56.34375 
L 40.09375 54.984375 
Q 39.3125 60.15625 36.84375 62.90625 
Q 34.375 65.671875 30.078125 66.546875 
L 30.078125 41.21875 
Q 36.71875 39.546875 38.875 38.625 
Q 42.96875 36.8125 45.546875 34.21875 
Q 48.140625 31.640625 49.53125 28.078125 
Q 50.921875 24.515625 50.921875 20.359375 
Q 50.921875 11.234375 45.109375 5.125 
Q 39.3125 -0.984375 30.078125 -1.421875 
L 30.078125 -10.296875 
z
M 24.90625 66.65625 
Q 19.78125 65.875 16.828125 62.546875 
Q 13.875 59.234375 13.875 54.6875 
Q 13.875 50.203125 16.375 47.171875 
Q 18.890625 44.140625 24.90625 42.328125 
z
M 30.078125 5.90625 
Q 35.203125 6.546875 38.546875 10.34375 
Q 41.890625 14.15625 41.890625 19.78125 
Q 41.890625 24.5625 39.515625 27.46875 
Q 37.15625 30.375 30.078125 32.671875 
z
" id="ArialMT-36"/>
      <path d="M 0 -1.21875 
L 20.75 72.796875 
L 27.78125 72.796875 
L 7.078125 -1.21875 
z
" id="ArialMT-47"/>
      <path d="M 7.421875 0 
L 7.421875 71.578125 
L 21.6875 71.578125 
L 38.625 20.90625 
Q 40.96875 13.8125 42.046875 10.296875 
Q 43.265625 14.203125 45.84375 21.78125 
L 62.984375 71.578125 
L 75.734375 71.578125 
L 75.734375 0 
L 66.609375 0 
L 66.609375 59.90625 
L 45.796875 0 
L 37.25 0 
L 16.546875 60.9375 
L 16.546875 0 
z
" id="ArialMT-77"/>
     </defs>
     <g transform="translate(8.900282 400.602375)rotate(-90)scale(0.1 -0.1)">
      <use xlink:href="#ArialMT-36"/>
      <use x="55.615234" xlink:href="#ArialMT-47"/>
      <use x="83.398438" xlink:href="#ArialMT-77"/>
      <use x="166.699219" xlink:href="#ArialMT-87"/>
      <use x="261.083984" xlink:href="#ArialMT-104"/>
     </g>
    </g>
   </g>
   <g id="line2d_42">
    <path clip-path="url(#pafe97e597a)" d="M 78.733964 360.591206 
L 104.163567 360.591206 
L 104.163567 367.107345 
L 129.59317 367.107345 
L 129.59317 423.778594 
L 155.022773 423.778594 
L 155.022773 424.564364 
L 180.452376 424.564364 
L 180.452376 377.418178 
L 205.881979 377.418178 
L 205.881979 362.488553 
L 231.311583 362.488553 
L 231.311583 360.629536 
L 256.741186 360.629536 
L 256.741186 353.461783 
L 282.170789 353.461783 
L 282.170789 354.72668 
L 307.600392 354.72668 
L 307.600392 360.687032 
L 333.029995 360.687032 
L 333.029995 360.591206 
L 358.459598 360.591206 
L 358.459598 360.725362 
L 383.889202 360.725362 
L 383.889202 360.552876 
L 409.318805 360.552876 
L 409.318805 360.437885 
L 434.748408 360.437885 
L 434.748408 359.67128 
L 460.178011 359.67128 
L 460.178011 353.365957 
L 485.607614 353.365957 
L 485.607614 350.970318 
L 511.037217 350.970318 
L 511.037217 351.813583 
L 536.466821 351.813583 
L 536.466821 347.175625 
L 561.896424 347.175625 
L 561.896424 346.639001 
L 587.326027 346.639001 
L 587.326027 344.971636 
L 612.75563 344.971636 
L 612.75563 348.01889 
L 638.185233 348.01889 
L 638.185233 345.565755 
L 663.614836 345.565755 
L 663.614836 350.261208 
" style="fill:none;stroke:#000000;stroke-linecap:square;stroke-width:4;"/>
   </g>
   <g id="patch_18">
    <path d="M 49.48992 428.544 
L 49.48992 340.992 
" style="fill:none;stroke:#000000;stroke-linecap:square;stroke-linejoin:miter;stroke-width:0.8;"/>
   </g>
   <g id="patch_19">
    <path d="M 692.85888 428.544 
L 692.85888 340.992 
" style="fill:none;stroke:#000000;stroke-linecap:square;stroke-linejoin:miter;stroke-width:0.8;"/>
   </g>
   <g id="patch_20">
    <path d="M 49.48992 428.544 
L 692.85888 428.544 
" style="fill:none;stroke:#000000;stroke-linecap:square;stroke-linejoin:miter;stroke-width:0.8;"/>
   </g>
   <g id="patch_21">
    <path d="M 49.48992 340.992 
L 692.85888 340.992 
" style="fill:none;stroke:#000000;stroke-linecap:square;stroke-linejoin:miter;stroke-width:0.8;"/>
   </g>
   <g id="legend_4">
    <g id="line2d_43">
     <path d="M 701.85888 383.853156 
L 721.85888 383.853156 
" style="fill:none;stroke:#000000;stroke-linecap:square;stroke-width:4;"/>
    </g>
    <g id="line2d_44"/>
    <g id="text_32">
     <!-- $P^{p}$ -->
     <defs>
      <path d="M 49.609375 33.6875 
Q 49.609375 40.875 46.484375 44.671875 
Q 43.359375 48.484375 37.5 48.484375 
Q 33.5 48.484375 29.859375 46.4375 
Q 26.21875 44.390625 23.390625 40.484375 
Q 20.609375 36.625 18.9375 31.15625 
Q 17.28125 25.6875 17.28125 20.3125 
Q 17.28125 13.484375 20.40625 9.796875 
Q 23.53125 6.109375 29.296875 6.109375 
Q 33.546875 6.109375 37.1875 8.109375 
Q 40.828125 10.109375 43.40625 13.921875 
Q 46.1875 17.921875 47.890625 23.34375 
Q 49.609375 28.765625 49.609375 33.6875 
z
M 21.78125 46.390625 
Q 25.390625 51.125 30.296875 53.5625 
Q 35.203125 56 41.21875 56 
Q 49.609375 56 54.25 50.5 
Q 58.890625 45.015625 58.890625 35.109375 
Q 58.890625 27 56 19.65625 
Q 53.125 12.3125 47.703125 6.5 
Q 44.09375 2.640625 39.546875 0.609375 
Q 35.015625 -1.421875 29.984375 -1.421875 
Q 24.171875 -1.421875 20.21875 1 
Q 16.265625 3.421875 14.3125 8.203125 
L 8.6875 -20.796875 
L -0.296875 -20.796875 
L 14.40625 54.6875 
L 23.390625 54.6875 
z
" id="DejaVuSans-Oblique-112"/>
     </defs>
     <g transform="translate(729.85888 387.353156)scale(0.1 -0.1)">
      <use transform="translate(0 0.51875)" xlink:href="#DejaVuSans-Oblique-80"/>
      <use transform="translate(67.319505 38.8)scale(0.7)" xlink:href="#DejaVuSans-Oblique-112"/>
     </g>
    </g>
   </g>
  </g>
 </g>
 <defs>
  <clipPath id="pb4f3db54b0">
   <rect height="110.592" width="643.36896" x="49.48992" y="4.608"/>
  </clipPath>
  <clipPath id="pc7b896a051">
   <rect height="110.592" width="643.36896" x="49.48992" y="124.416"/>
  </clipPath>
  <clipPath id="p311b42aa31">
   <rect height="87.552" width="643.36896" x="49.48992" y="244.224"/>
  </clipPath>
  <clipPath id="pafe97e597a">
   <rect height="87.552" width="643.36896" x="49.48992" y="340.992"/>
  </clipPath>
 </defs>
</svg>
