<?xml version="1.0" encoding="utf-8" standalone="no"?>
<!DOCTYPE svg PUBLIC "-//W3C//DTD SVG 1.1//EN"
  "http://www.w3.org/Graphics/SVG/1.1/DTD/svg11.dtd">
<svg height="460.8pt" version="1.1" viewBox="0 0 824.832 460.8" width="824.832pt" xmlns="http://www.w3.org/2000/svg" xmlns:xlink="http://www.w3.org/1999/xlink">
 <metadata>
  <rdf:RDF xmlns:cc="http://creativecommons.org/ns#" xmlns:dc="http://purl.org/dc/elements/1.1/" xmlns:rdf="http://www.w3.org/1999/02/22-rdf-syntax-ns#">
   <cc:Work>
    <dc:type rdf:resource="http://purl.org/dc/dcmitype/StillImage"/>
    <dc:date>2022-06-09T18:40:29.786461</dc:date>
    <dc:format>image/svg+xml</dc:format>
    <dc:creator>
     <cc:Agent>
      <dc:title>Matplotlib v3.4.3, https://matplotlib.org/</dc:title>
     </cc:Agent>
    </dc:creator>
   </cc:Work>
  </rdf:RDF>
 </metadata>
 <defs>
  <style type="text/css">*{stroke-linecap:butt;stroke-linejoin:round;}</style>
 </defs>
 <g id="figure_1">
  <g id="patch_1">
   <path d="M 0 460.8 
L 824.832 460.8 
L 824.832 0 
L 0 0 
z
" style="fill:#ffffff;"/>
  </g>
  <g id="axes_1">
   <g id="patch_2">
    <path d="M 49.48992 235.008 
L 692.85888 235.008 
L 692.85888 124.416 
L 49.48992 124.416 
z
" style="fill:#ffffff;"/>
   </g>
   <g id="matplotlib.axis_1">
    <g id="ytick_1">
     <g id="line2d_1">
      <defs>
       <path d="M 0 0 
L -3.5 0 
" id="me9c06e56b0" style="stroke:#000000;stroke-width:0.8;"/>
      </defs>
      <g>
       <use style="stroke:#000000;stroke-width:0.8;" x="49.48992" xlink:href="#me9c06e56b0" y="217.435236"/>
      </g>
     </g>
     <g id="text_1">
      <!-- 40 -->
      <g transform="translate(31.368045 221.014142)scale(0.1 -0.1)">
       <defs>
        <path d="M 2069 0 
L 2069 1097 
L 81 1097 
L 81 1613 
L 2172 4581 
L 2631 4581 
L 2631 1613 
L 3250 1613 
L 3250 1097 
L 2631 1097 
L 2631 0 
L 2069 0 
z
M 2069 1613 
L 2069 3678 
L 634 1613 
L 2069 1613 
z
" id="ArialMT-34" transform="scale(0.015625)"/>
        <path d="M 266 2259 
Q 266 3072 433 3567 
Q 600 4063 929 4331 
Q 1259 4600 1759 4600 
Q 2128 4600 2406 4451 
Q 2684 4303 2865 4023 
Q 3047 3744 3150 3342 
Q 3253 2941 3253 2259 
Q 3253 1453 3087 958 
Q 2922 463 2592 192 
Q 2263 -78 1759 -78 
Q 1097 -78 719 397 
Q 266 969 266 2259 
z
M 844 2259 
Q 844 1131 1108 757 
Q 1372 384 1759 384 
Q 2147 384 2411 759 
Q 2675 1134 2675 2259 
Q 2675 3391 2411 3762 
Q 2147 4134 1753 4134 
Q 1366 4134 1134 3806 
Q 844 3388 844 2259 
z
" id="ArialMT-30" transform="scale(0.015625)"/>
       </defs>
       <use xlink:href="#ArialMT-34"/>
       <use x="55.615234" xlink:href="#ArialMT-30"/>
      </g>
     </g>
    </g>
    <g id="ytick_2">
     <g id="line2d_2">
      <g>
       <use style="stroke:#000000;stroke-width:0.8;" x="49.48992" xlink:href="#me9c06e56b0" y="175.648072"/>
      </g>
     </g>
     <g id="text_2">
      <!-- 60 -->
      <g transform="translate(31.368045 179.226978)scale(0.1 -0.1)">
       <defs>
        <path d="M 3184 3459 
L 2625 3416 
Q 2550 3747 2413 3897 
Q 2184 4138 1850 4138 
Q 1581 4138 1378 3988 
Q 1113 3794 959 3422 
Q 806 3050 800 2363 
Q 1003 2672 1297 2822 
Q 1591 2972 1913 2972 
Q 2475 2972 2870 2558 
Q 3266 2144 3266 1488 
Q 3266 1056 3080 686 
Q 2894 316 2569 119 
Q 2244 -78 1831 -78 
Q 1128 -78 684 439 
Q 241 956 241 2144 
Q 241 3472 731 4075 
Q 1159 4600 1884 4600 
Q 2425 4600 2770 4297 
Q 3116 3994 3184 3459 
z
M 888 1484 
Q 888 1194 1011 928 
Q 1134 663 1356 523 
Q 1578 384 1822 384 
Q 2178 384 2434 671 
Q 2691 959 2691 1453 
Q 2691 1928 2437 2201 
Q 2184 2475 1800 2475 
Q 1419 2475 1153 2201 
Q 888 1928 888 1484 
z
" id="ArialMT-36" transform="scale(0.015625)"/>
       </defs>
       <use xlink:href="#ArialMT-36"/>
       <use x="55.615234" xlink:href="#ArialMT-30"/>
      </g>
     </g>
    </g>
    <g id="ytick_3">
     <g id="line2d_3">
      <g>
       <use style="stroke:#000000;stroke-width:0.8;" x="49.48992" xlink:href="#me9c06e56b0" y="133.860908"/>
      </g>
     </g>
     <g id="text_3">
      <!-- 80 -->
      <g transform="translate(31.368045 137.439814)scale(0.1 -0.1)">
       <defs>
        <path d="M 1131 2484 
Q 781 2613 612 2850 
Q 444 3088 444 3419 
Q 444 3919 803 4259 
Q 1163 4600 1759 4600 
Q 2359 4600 2725 4251 
Q 3091 3903 3091 3403 
Q 3091 3084 2923 2848 
Q 2756 2613 2416 2484 
Q 2838 2347 3058 2040 
Q 3278 1734 3278 1309 
Q 3278 722 2862 322 
Q 2447 -78 1769 -78 
Q 1091 -78 675 323 
Q 259 725 259 1325 
Q 259 1772 486 2073 
Q 713 2375 1131 2484 
z
M 1019 3438 
Q 1019 3113 1228 2906 
Q 1438 2700 1772 2700 
Q 2097 2700 2305 2904 
Q 2513 3109 2513 3406 
Q 2513 3716 2298 3927 
Q 2084 4138 1766 4138 
Q 1444 4138 1231 3931 
Q 1019 3725 1019 3438 
z
M 838 1322 
Q 838 1081 952 856 
Q 1066 631 1291 507 
Q 1516 384 1775 384 
Q 2178 384 2440 643 
Q 2703 903 2703 1303 
Q 2703 1709 2433 1975 
Q 2163 2241 1756 2241 
Q 1359 2241 1098 1978 
Q 838 1716 838 1322 
z
" id="ArialMT-38" transform="scale(0.015625)"/>
       </defs>
       <use xlink:href="#ArialMT-38"/>
       <use x="55.615234" xlink:href="#ArialMT-30"/>
      </g>
     </g>
    </g>
    <g id="text_4">
     <!-- $^{\circ}C$ -->
     <g transform="translate(8.900282 185.612)rotate(-90)scale(0.1 -0.1)">
      <defs>
       <path d="M 2003 2603 
Q 1753 2603 1581 2429 
Q 1409 2256 1409 2006 
Q 1409 1759 1581 1589 
Q 1753 1419 2003 1419 
Q 2253 1419 2425 1589 
Q 2597 1759 2597 2006 
Q 2597 2253 2423 2428 
Q 2250 2603 2003 2603 
z
M 2003 3006 
Q 2203 3006 2387 2929 
Q 2572 2853 2706 2709 
Q 2850 2569 2922 2390 
Q 2994 2212 2994 2006 
Q 2994 1594 2705 1308 
Q 2416 1022 1997 1022 
Q 1575 1022 1294 1303 
Q 1013 1584 1013 2006 
Q 1013 2425 1300 2715 
Q 1588 3006 2003 3006 
z
" id="DejaVuSans-2218" transform="scale(0.015625)"/>
       <path d="M 4447 4306 
L 4319 3641 
Q 4019 3944 3683 4091 
Q 3347 4238 2956 4238 
Q 2422 4238 2017 3981 
Q 1613 3725 1319 3200 
Q 1131 2863 1032 2486 
Q 934 2109 934 1728 
Q 934 1091 1264 756 
Q 1594 422 2222 422 
Q 2656 422 3056 561 
Q 3456 700 3834 978 
L 3688 231 
Q 3316 72 2936 -9 
Q 2556 -91 2175 -91 
Q 1278 -91 773 396 
Q 269 884 269 1753 
Q 269 2309 461 2846 
Q 653 3384 1013 3828 
Q 1394 4300 1883 4525 
Q 2372 4750 3022 4750 
Q 3422 4750 3780 4639 
Q 4138 4528 4447 4306 
z
" id="DejaVuSans-Oblique-43" transform="scale(0.015625)"/>
      </defs>
      <use transform="translate(0.957031 39.0625)scale(0.7)" xlink:href="#DejaVuSans-2218"/>
      <use transform="translate(47.509766 0.78125)" xlink:href="#DejaVuSans-Oblique-43"/>
     </g>
    </g>
   </g>
   <g id="line2d_4">
    <path clip-path="url(#pa7161229ea)" d="M 78.733964 225.707455 
L 104.163567 225.707455 
L 104.163567 226.7951 
L 129.59317 226.7951 
L 129.59317 227.75425 
L 155.022773 227.75425 
L 155.022773 228.597671 
L 180.452376 228.597671 
L 180.452376 229.335838 
L 205.881979 229.335838 
L 205.881979 229.981091 
L 231.311583 229.981091 
L 231.311583 211.111659 
L 256.741186 211.111659 
L 256.741186 218.384221 
L 282.170789 218.384221 
L 282.170789 194.51853 
L 307.600392 194.51853 
L 307.600392 185.49203 
L 333.029995 185.49203 
L 333.029995 218.147852 
L 358.459598 218.147852 
L 358.459598 205.526033 
L 383.889202 205.526033 
L 383.889202 175.77262 
L 409.318805 175.77262 
L 409.318805 218.095259 
L 434.748408 218.095259 
L 434.748408 220.462541 
L 460.178011 220.462541 
L 460.178011 221.381746 
L 485.607614 221.381746 
L 485.607614 222.188565 
L 511.037217 222.188565 
L 511.037217 188.407022 
L 536.466821 188.407022 
L 536.466821 142.406606 
L 561.896424 142.406606 
L 561.896424 213.105111 
L 587.326027 213.105111 
L 587.326027 214.500565 
L 612.75563 214.500565 
L 612.75563 173.829627 
L 638.185233 173.829627 
L 638.185233 129.442909 
L 663.614836 129.442909 
L 663.614836 224.480455 
" style="fill:none;stroke:#800080;stroke-linecap:square;stroke-opacity:0.7;"/>
   </g>
   <g id="patch_3">
    <path d="M 49.48992 235.008 
L 49.48992 124.416 
" style="fill:none;stroke:#000000;stroke-linecap:square;stroke-linejoin:miter;stroke-width:0.8;"/>
   </g>
   <g id="patch_4">
    <path d="M 692.85888 235.008 
L 692.85888 124.416 
" style="fill:none;stroke:#000000;stroke-linecap:square;stroke-linejoin:miter;stroke-width:0.8;"/>
   </g>
   <g id="patch_5">
    <path d="M 49.48992 235.008 
L 692.85888 235.008 
" style="fill:none;stroke:#000000;stroke-linecap:square;stroke-linejoin:miter;stroke-width:0.8;"/>
   </g>
   <g id="patch_6">
    <path d="M 49.48992 124.416 
L 692.85888 124.416 
" style="fill:none;stroke:#000000;stroke-linecap:square;stroke-linejoin:miter;stroke-width:0.8;"/>
   </g>
   <g id="legend_1">
    <g id="line2d_5">
     <path d="M 701.85888 179.762 
L 721.85888 179.762 
" style="fill:none;stroke:#800080;stroke-linecap:square;stroke-opacity:0.7;"/>
    </g>
    <g id="line2d_6"/>
    <g id="text_5">
     <!-- $T^{tank},Negotiator$ -->
     <g transform="translate(729.85888 183.262)scale(0.1 -0.1)">
      <defs>
       <path d="M 378 4666 
L 4325 4666 
L 4225 4134 
L 2559 4134 
L 1759 0 
L 1125 0 
L 1925 4134 
L 275 4134 
L 378 4666 
z
" id="DejaVuSans-Oblique-54" transform="scale(0.015625)"/>
       <path d="M 2706 3500 
L 2619 3053 
L 1472 3053 
L 1100 1153 
Q 1081 1047 1072 975 
Q 1063 903 1063 863 
Q 1063 663 1183 572 
Q 1303 481 1569 481 
L 2150 481 
L 2053 0 
L 1503 0 
Q 991 0 739 200 
Q 488 400 488 806 
Q 488 878 497 964 
Q 506 1050 525 1153 
L 897 3053 
L 409 3053 
L 500 3500 
L 978 3500 
L 1172 4494 
L 1747 4494 
L 1556 3500 
L 2706 3500 
z
" id="DejaVuSans-Oblique-74" transform="scale(0.015625)"/>
       <path d="M 3438 1997 
L 3047 0 
L 2472 0 
L 2578 531 
Q 2325 219 2001 64 
Q 1678 -91 1281 -91 
Q 834 -91 548 182 
Q 263 456 263 884 
Q 263 1497 752 1853 
Q 1241 2209 2100 2209 
L 2900 2209 
L 2931 2363 
Q 2938 2388 2941 2417 
Q 2944 2447 2944 2509 
Q 2944 2788 2717 2942 
Q 2491 3097 2081 3097 
Q 1800 3097 1504 3025 
Q 1209 2953 897 2809 
L 997 3341 
Q 1322 3463 1633 3523 
Q 1944 3584 2234 3584 
Q 2853 3584 3176 3315 
Q 3500 3047 3500 2534 
Q 3500 2431 3484 2292 
Q 3469 2153 3438 1997 
z
M 2816 1759 
L 2241 1759 
Q 1534 1759 1195 1570 
Q 856 1381 856 984 
Q 856 709 1029 553 
Q 1203 397 1509 397 
Q 1978 397 2328 733 
Q 2678 1069 2791 1631 
L 2816 1759 
z
" id="DejaVuSans-Oblique-61" transform="scale(0.015625)"/>
       <path d="M 3566 2113 
L 3156 0 
L 2578 0 
L 2988 2091 
Q 3016 2238 3031 2350 
Q 3047 2463 3047 2528 
Q 3047 2791 2881 2937 
Q 2716 3084 2419 3084 
Q 1956 3084 1622 2776 
Q 1288 2469 1184 1941 
L 800 0 
L 225 0 
L 903 3500 
L 1478 3500 
L 1363 2950 
Q 1603 3253 1940 3418 
Q 2278 3584 2650 3584 
Q 3113 3584 3367 3334 
Q 3622 3084 3622 2631 
Q 3622 2519 3608 2391 
Q 3594 2263 3566 2113 
z
" id="DejaVuSans-Oblique-6e" transform="scale(0.015625)"/>
       <path d="M 1172 4863 
L 1747 4863 
L 1197 2028 
L 3169 3500 
L 3916 3500 
L 1716 1825 
L 3322 0 
L 2625 0 
L 1131 1709 
L 800 0 
L 225 0 
L 1172 4863 
z
" id="DejaVuSans-Oblique-6b" transform="scale(0.015625)"/>
       <path d="M 750 794 
L 1409 794 
L 1409 256 
L 897 -744 
L 494 -744 
L 750 256 
L 750 794 
z
" id="DejaVuSans-2c" transform="scale(0.015625)"/>
       <path d="M 1081 4666 
L 1931 4666 
L 3219 666 
L 4000 4666 
L 4616 4666 
L 3706 0 
L 2853 0 
L 1569 4025 
L 788 0 
L 172 0 
L 1081 4666 
z
" id="DejaVuSans-Oblique-4e" transform="scale(0.015625)"/>
       <path d="M 3078 2063 
Q 3088 2113 3092 2166 
Q 3097 2219 3097 2272 
Q 3097 2653 2873 2875 
Q 2650 3097 2266 3097 
Q 1838 3097 1509 2826 
Q 1181 2556 1013 2059 
L 3078 2063 
z
M 3578 1613 
L 903 1613 
Q 884 1494 878 1425 
Q 872 1356 872 1306 
Q 872 872 1139 634 
Q 1406 397 1894 397 
Q 2269 397 2603 481 
Q 2938 566 3225 728 
L 3116 159 
Q 2806 34 2476 -28 
Q 2147 -91 1806 -91 
Q 1078 -91 686 257 
Q 294 606 294 1247 
Q 294 1794 489 2264 
Q 684 2734 1063 3103 
Q 1306 3334 1642 3459 
Q 1978 3584 2356 3584 
Q 2950 3584 3301 3228 
Q 3653 2872 3653 2272 
Q 3653 2128 3634 1964 
Q 3616 1800 3578 1613 
z
" id="DejaVuSans-Oblique-65" transform="scale(0.015625)"/>
       <path d="M 3816 3500 
L 3219 434 
Q 3047 -456 2561 -893 
Q 2075 -1331 1253 -1331 
Q 950 -1331 690 -1286 
Q 431 -1241 206 -1147 
L 313 -588 
Q 525 -725 762 -790 
Q 1000 -856 1269 -856 
Q 1816 -856 2167 -557 
Q 2519 -259 2631 300 
L 2681 563 
Q 2441 288 2122 144 
Q 1803 0 1434 0 
Q 903 0 598 351 
Q 294 703 294 1319 
Q 294 1803 478 2267 
Q 663 2731 997 3091 
Q 1219 3328 1514 3456 
Q 1809 3584 2131 3584 
Q 2484 3584 2746 3420 
Q 3009 3256 3138 2956 
L 3238 3500 
L 3816 3500 
z
M 2950 2216 
Q 2950 2641 2750 2872 
Q 2550 3103 2181 3103 
Q 1953 3103 1747 3012 
Q 1541 2922 1394 2759 
Q 1156 2491 1023 2127 
Q 891 1763 891 1375 
Q 891 944 1092 712 
Q 1294 481 1672 481 
Q 2219 481 2584 976 
Q 2950 1472 2950 2216 
z
" id="DejaVuSans-Oblique-67" transform="scale(0.015625)"/>
       <path d="M 1625 -91 
Q 1009 -91 651 289 
Q 294 669 294 1325 
Q 294 1706 417 2101 
Q 541 2497 738 2766 
Q 1047 3184 1428 3384 
Q 1809 3584 2291 3584 
Q 2888 3584 3255 3212 
Q 3622 2841 3622 2241 
Q 3622 1825 3500 1412 
Q 3378 1000 3181 728 
Q 2875 309 2494 109 
Q 2113 -91 1625 -91 
z
M 891 1344 
Q 891 869 1089 633 
Q 1288 397 1691 397 
Q 2269 397 2648 901 
Q 3028 1406 3028 2181 
Q 3028 2634 2825 2865 
Q 2622 3097 2228 3097 
Q 1903 3097 1650 2945 
Q 1397 2794 1197 2484 
Q 1050 2253 970 1956 
Q 891 1659 891 1344 
z
" id="DejaVuSans-Oblique-6f" transform="scale(0.015625)"/>
       <path d="M 1172 4863 
L 1747 4863 
L 1606 4134 
L 1031 4134 
L 1172 4863 
z
M 909 3500 
L 1484 3500 
L 800 0 
L 225 0 
L 909 3500 
z
" id="DejaVuSans-Oblique-69" transform="scale(0.015625)"/>
       <path d="M 2853 2969 
Q 2766 3016 2653 3041 
Q 2541 3066 2413 3066 
Q 1953 3066 1609 2717 
Q 1266 2369 1153 1784 
L 800 0 
L 225 0 
L 909 3500 
L 1484 3500 
L 1375 2956 
Q 1603 3259 1920 3421 
Q 2238 3584 2597 3584 
Q 2691 3584 2781 3573 
Q 2872 3563 2963 3538 
L 2853 2969 
z
" id="DejaVuSans-Oblique-72" transform="scale(0.015625)"/>
      </defs>
      <use transform="translate(0 0.529687)" xlink:href="#DejaVuSans-Oblique-54"/>
      <use transform="translate(68.100755 38.810937)scale(0.7)" xlink:href="#DejaVuSans-Oblique-74"/>
      <use transform="translate(95.547044 38.810937)scale(0.7)" xlink:href="#DejaVuSans-Oblique-61"/>
      <use transform="translate(138.442552 38.810937)scale(0.7)" xlink:href="#DejaVuSans-Oblique-6e"/>
      <use transform="translate(182.807786 38.810937)scale(0.7)" xlink:href="#DejaVuSans-Oblique-6b"/>
      <use transform="translate(226.079271 0.529687)" xlink:href="#DejaVuSans-2c"/>
      <use transform="translate(277.348802 0.529687)" xlink:href="#DejaVuSans-Oblique-4e"/>
      <use transform="translate(352.15349 0.529687)" xlink:href="#DejaVuSans-Oblique-65"/>
      <use transform="translate(413.676927 0.529687)" xlink:href="#DejaVuSans-Oblique-67"/>
      <use transform="translate(477.15349 0.529687)" xlink:href="#DejaVuSans-Oblique-6f"/>
      <use transform="translate(538.33513 0.529687)" xlink:href="#DejaVuSans-Oblique-74"/>
      <use transform="translate(577.544115 0.529687)" xlink:href="#DejaVuSans-Oblique-69"/>
      <use transform="translate(605.327318 0.529687)" xlink:href="#DejaVuSans-Oblique-61"/>
      <use transform="translate(666.606615 0.529687)" xlink:href="#DejaVuSans-Oblique-74"/>
      <use transform="translate(705.815599 0.529687)" xlink:href="#DejaVuSans-Oblique-6f"/>
      <use transform="translate(766.99724 0.529687)" xlink:href="#DejaVuSans-Oblique-72"/>
     </g>
    </g>
   </g>
  </g>
  <g id="axes_2">
   <g id="patch_7">
    <path d="M 49.48992 331.776 
L 692.85888 331.776 
L 692.85888 244.224 
L 49.48992 244.224 
z
" style="fill:#ffffff;"/>
   </g>
   <g id="matplotlib.axis_2">
    <g id="ytick_4">
     <g id="line2d_7">
      <g>
       <use style="stroke:#000000;stroke-width:0.8;" x="49.48992" xlink:href="#me9c06e56b0" y="327.796364"/>
      </g>
     </g>
     <g id="text_6">
      <!-- 0.0 -->
      <g transform="translate(28.58992 331.37527)scale(0.1 -0.1)">
       <defs>
        <path d="M 581 0 
L 581 641 
L 1222 641 
L 1222 0 
L 581 0 
z
" id="ArialMT-2e" transform="scale(0.015625)"/>
       </defs>
       <use xlink:href="#ArialMT-30"/>
       <use x="55.615234" xlink:href="#ArialMT-2e"/>
       <use x="83.398438" xlink:href="#ArialMT-30"/>
      </g>
     </g>
    </g>
    <g id="ytick_5">
     <g id="line2d_8">
      <g>
       <use style="stroke:#000000;stroke-width:0.8;" x="49.48992" xlink:href="#me9c06e56b0" y="305.328529"/>
      </g>
     </g>
     <g id="text_7">
      <!-- 2.5 -->
      <g transform="translate(28.58992 308.907435)scale(0.1 -0.1)">
       <defs>
        <path d="M 3222 541 
L 3222 0 
L 194 0 
Q 188 203 259 391 
Q 375 700 629 1000 
Q 884 1300 1366 1694 
Q 2113 2306 2375 2664 
Q 2638 3022 2638 3341 
Q 2638 3675 2398 3904 
Q 2159 4134 1775 4134 
Q 1369 4134 1125 3890 
Q 881 3647 878 3216 
L 300 3275 
Q 359 3922 746 4261 
Q 1134 4600 1788 4600 
Q 2447 4600 2831 4234 
Q 3216 3869 3216 3328 
Q 3216 3053 3103 2787 
Q 2991 2522 2730 2228 
Q 2469 1934 1863 1422 
Q 1356 997 1212 845 
Q 1069 694 975 541 
L 3222 541 
z
" id="ArialMT-32" transform="scale(0.015625)"/>
        <path d="M 266 1200 
L 856 1250 
Q 922 819 1161 601 
Q 1400 384 1738 384 
Q 2144 384 2425 690 
Q 2706 997 2706 1503 
Q 2706 1984 2436 2262 
Q 2166 2541 1728 2541 
Q 1456 2541 1237 2417 
Q 1019 2294 894 2097 
L 366 2166 
L 809 4519 
L 3088 4519 
L 3088 3981 
L 1259 3981 
L 1013 2750 
Q 1425 3038 1878 3038 
Q 2478 3038 2890 2622 
Q 3303 2206 3303 1553 
Q 3303 931 2941 478 
Q 2500 -78 1738 -78 
Q 1113 -78 717 272 
Q 322 622 266 1200 
z
" id="ArialMT-35" transform="scale(0.015625)"/>
       </defs>
       <use xlink:href="#ArialMT-32"/>
       <use x="55.615234" xlink:href="#ArialMT-2e"/>
       <use x="83.398438" xlink:href="#ArialMT-35"/>
      </g>
     </g>
    </g>
    <g id="ytick_6">
     <g id="line2d_9">
      <g>
       <use style="stroke:#000000;stroke-width:0.8;" x="49.48992" xlink:href="#me9c06e56b0" y="282.860694"/>
      </g>
     </g>
     <g id="text_8">
      <!-- 5.0 -->
      <g transform="translate(28.58992 286.4396)scale(0.1 -0.1)">
       <use xlink:href="#ArialMT-35"/>
       <use x="55.615234" xlink:href="#ArialMT-2e"/>
       <use x="83.398438" xlink:href="#ArialMT-30"/>
      </g>
     </g>
    </g>
    <g id="ytick_7">
     <g id="line2d_10">
      <g>
       <use style="stroke:#000000;stroke-width:0.8;" x="49.48992" xlink:href="#me9c06e56b0" y="260.392859"/>
      </g>
     </g>
     <g id="text_9">
      <!-- 7.5 -->
      <g transform="translate(28.58992 263.971765)scale(0.1 -0.1)">
       <defs>
        <path d="M 303 3981 
L 303 4522 
L 3269 4522 
L 3269 4084 
Q 2831 3619 2401 2847 
Q 1972 2075 1738 1259 
Q 1569 684 1522 0 
L 944 0 
Q 953 541 1156 1306 
Q 1359 2072 1739 2783 
Q 2119 3494 2547 3981 
L 303 3981 
z
" id="ArialMT-37" transform="scale(0.015625)"/>
       </defs>
       <use xlink:href="#ArialMT-37"/>
       <use x="55.615234" xlink:href="#ArialMT-2e"/>
       <use x="83.398438" xlink:href="#ArialMT-35"/>
      </g>
     </g>
    </g>
    <g id="text_10">
     <!-- kWh -->
     <g transform="translate(8.900282 298)rotate(-90)scale(0.1 -0.1)">
      <defs>
       <path d="M 425 0 
L 425 4581 
L 988 4581 
L 988 1969 
L 2319 3319 
L 3047 3319 
L 1778 2088 
L 3175 0 
L 2481 0 
L 1384 1697 
L 988 1316 
L 988 0 
L 425 0 
z
" id="ArialMT-6b" transform="scale(0.015625)"/>
       <path d="M 1294 0 
L 78 4581 
L 700 4581 
L 1397 1578 
Q 1509 1106 1591 641 
Q 1766 1375 1797 1488 
L 2669 4581 
L 3400 4581 
L 4056 2263 
Q 4303 1400 4413 641 
Q 4500 1075 4641 1638 
L 5359 4581 
L 5969 4581 
L 4713 0 
L 4128 0 
L 3163 3491 
Q 3041 3928 3019 4028 
Q 2947 3713 2884 3491 
L 1913 0 
L 1294 0 
z
" id="ArialMT-57" transform="scale(0.015625)"/>
       <path d="M 422 0 
L 422 4581 
L 984 4581 
L 984 2938 
Q 1378 3394 1978 3394 
Q 2347 3394 2619 3248 
Q 2891 3103 3008 2847 
Q 3125 2591 3125 2103 
L 3125 0 
L 2563 0 
L 2563 2103 
Q 2563 2525 2380 2717 
Q 2197 2909 1863 2909 
Q 1613 2909 1392 2779 
Q 1172 2650 1078 2428 
Q 984 2206 984 1816 
L 984 0 
L 422 0 
z
" id="ArialMT-68" transform="scale(0.015625)"/>
      </defs>
      <use xlink:href="#ArialMT-6b"/>
      <use x="50" xlink:href="#ArialMT-57"/>
      <use x="144.384766" xlink:href="#ArialMT-68"/>
     </g>
    </g>
   </g>
   <g id="line2d_11">
    <path clip-path="url(#p3725911a6e)" d="M 78.733964 327.796362 
L 104.163567 327.796362 
L 104.163567 327.796362 
L 129.59317 327.796362 
L 129.59317 327.796362 
L 155.022773 327.796362 
L 155.022773 327.796362 
L 180.452376 327.796362 
L 180.452376 327.796362 
L 205.881979 327.796362 
L 205.881979 327.796362 
L 231.311583 327.796362 
L 231.311583 311.83424 
L 256.741186 311.83424 
L 256.741186 327.796362 
L 282.170789 327.796362 
L 282.170789 307.235615 
L 307.600392 307.235615 
L 307.600392 300.793842 
L 333.029995 300.793842 
L 333.029995 327.796362 
L 358.459598 327.796362 
L 358.459598 316.723166 
L 383.889202 316.723166 
L 383.889202 292.843141 
L 409.318805 292.843141 
L 409.318805 327.796362 
L 434.748408 327.796362 
L 434.748408 327.796362 
L 460.178011 327.796362 
L 460.178011 327.796362 
L 485.607614 327.796362 
L 485.607614 327.796362 
L 511.037217 327.796362 
L 511.037217 299.277389 
L 536.466821 299.277389 
L 536.466821 287.354261 
L 561.896424 287.354261 
L 561.896424 321.851029 
L 587.326027 321.851029 
L 587.326027 327.796362 
L 612.75563 327.796362 
L 612.75563 290.990442 
L 638.185233 290.990442 
L 638.185233 287.354261 
L 663.614836 287.354261 
L 663.614836 327.213248 
" style="fill:none;stroke:#800080;stroke-dasharray:6.4,1.6,1,1.6;stroke-dashoffset:0;stroke-opacity:0.7;"/>
   </g>
   <g id="line2d_12">
    <path clip-path="url(#p3725911a6e)" d="M 78.733964 327.796364 
L 104.163567 327.796364 
L 104.163567 327.796364 
L 129.59317 327.796364 
L 129.59317 327.796364 
L 155.022773 327.796364 
L 155.022773 327.796364 
L 180.452376 327.796364 
L 180.452376 327.796364 
L 205.881979 327.796364 
L 205.881979 327.796364 
L 231.311583 327.796364 
L 231.311583 327.796364 
L 256.741186 327.796364 
L 256.741186 322.800242 
L 282.170789 322.800242 
L 282.170789 327.596967 
L 307.600392 327.596967 
L 307.600392 309.69037 
L 333.029995 309.69037 
L 333.029995 302.558727 
L 358.459598 302.558727 
L 358.459598 327.796364 
L 383.889202 327.796364 
L 383.889202 318.387159 
L 409.318805 318.387159 
L 409.318805 294.879631 
L 434.748408 294.879631 
L 434.748408 326.54091 
L 460.178011 326.54091 
L 460.178011 327.70479 
L 485.607614 327.70479 
L 485.607614 327.796364 
L 511.037217 327.796364 
L 511.037217 327.699081 
L 536.466821 327.699081 
L 536.466821 326.921477 
L 561.896424 326.921477 
L 561.896424 267.030829 
L 587.326027 267.030829 
L 587.326027 327.745416 
L 612.75563 327.745416 
L 612.75563 325.51406 
L 638.185233 325.51406 
L 638.185233 326.279806 
L 663.614836 326.279806 
L 663.614836 248.203636 
" style="fill:none;stroke:#000000;stroke-dasharray:1.5,2.475;stroke-dashoffset:0;stroke-width:1.5;"/>
   </g>
   <g id="patch_8">
    <path d="M 49.48992 331.776 
L 49.48992 244.224 
" style="fill:none;stroke:#000000;stroke-linecap:square;stroke-linejoin:miter;stroke-width:0.8;"/>
   </g>
   <g id="patch_9">
    <path d="M 692.85888 331.776 
L 692.85888 244.224 
" style="fill:none;stroke:#000000;stroke-linecap:square;stroke-linejoin:miter;stroke-width:0.8;"/>
   </g>
   <g id="patch_10">
    <path d="M 49.48992 331.776 
L 692.85888 331.776 
" style="fill:none;stroke:#000000;stroke-linecap:square;stroke-linejoin:miter;stroke-width:0.8;"/>
   </g>
   <g id="patch_11">
    <path d="M 49.48992 244.224 
L 692.85888 244.224 
" style="fill:none;stroke:#000000;stroke-linecap:square;stroke-linejoin:miter;stroke-width:0.8;"/>
   </g>
   <g id="legend_2">
    <g id="line2d_13">
     <path d="M 701.85888 280.85 
L 721.85888 280.85 
" style="fill:none;stroke:#800080;stroke-dasharray:6.4,1.6,1,1.6;stroke-dashoffset:0;stroke-opacity:0.7;"/>
    </g>
    <g id="line2d_14"/>
    <g id="text_11">
     <!-- $E^{in},Negotiator$ -->
     <g transform="translate(729.85888 284.35)scale(0.1 -0.1)">
      <defs>
       <path d="M 1081 4666 
L 4031 4666 
L 3928 4134 
L 1606 4134 
L 1338 2753 
L 3566 2753 
L 3463 2222 
L 1234 2222 
L 909 531 
L 3284 531 
L 3181 0 
L 172 0 
L 1081 4666 
z
" id="DejaVuSans-Oblique-45" transform="scale(0.015625)"/>
      </defs>
      <use transform="translate(0 0.529687)" xlink:href="#DejaVuSans-Oblique-45"/>
      <use transform="translate(70.200365 38.810937)scale(0.7)" xlink:href="#DejaVuSans-Oblique-69"/>
      <use transform="translate(89.648607 38.810937)scale(0.7)" xlink:href="#DejaVuSans-Oblique-6e"/>
      <use transform="translate(136.748216 0.529687)" xlink:href="#DejaVuSans-2c"/>
      <use transform="translate(188.017747 0.529687)" xlink:href="#DejaVuSans-Oblique-4e"/>
      <use transform="translate(262.822435 0.529687)" xlink:href="#DejaVuSans-Oblique-65"/>
      <use transform="translate(324.345872 0.529687)" xlink:href="#DejaVuSans-Oblique-67"/>
      <use transform="translate(387.822435 0.529687)" xlink:href="#DejaVuSans-Oblique-6f"/>
      <use transform="translate(449.004076 0.529687)" xlink:href="#DejaVuSans-Oblique-74"/>
      <use transform="translate(488.21306 0.529687)" xlink:href="#DejaVuSans-Oblique-69"/>
      <use transform="translate(515.996263 0.529687)" xlink:href="#DejaVuSans-Oblique-61"/>
      <use transform="translate(577.27556 0.529687)" xlink:href="#DejaVuSans-Oblique-74"/>
      <use transform="translate(616.484544 0.529687)" xlink:href="#DejaVuSans-Oblique-6f"/>
      <use transform="translate(677.666185 0.529687)" xlink:href="#DejaVuSans-Oblique-72"/>
     </g>
    </g>
    <g id="line2d_15">
     <path d="M 701.85888 295.3625 
L 721.85888 295.3625 
" style="fill:none;stroke:#000000;stroke-dasharray:1.5,2.475;stroke-dashoffset:0;stroke-width:1.5;"/>
    </g>
    <g id="line2d_16"/>
    <g id="text_12">
     <!-- $e^{des}$ -->
     <g transform="translate(729.85888 298.8625)scale(0.1 -0.1)">
      <defs>
       <path d="M 2675 525 
Q 2444 222 2128 65 
Q 1813 -91 1428 -91 
Q 903 -91 598 267 
Q 294 625 294 1247 
Q 294 1766 478 2236 
Q 663 2706 1013 3078 
Q 1244 3325 1534 3454 
Q 1825 3584 2144 3584 
Q 2481 3584 2739 3421 
Q 2997 3259 3138 2956 
L 3513 4863 
L 4091 4863 
L 3144 0 
L 2566 0 
L 2675 525 
z
M 891 1350 
Q 891 897 1095 644 
Q 1300 391 1663 391 
Q 1931 391 2161 520 
Q 2391 650 2566 903 
Q 2750 1166 2856 1509 
Q 2963 1853 2963 2188 
Q 2963 2622 2758 2865 
Q 2553 3109 2194 3109 
Q 1922 3109 1687 2981 
Q 1453 2853 1288 2613 
Q 1106 2353 998 2009 
Q 891 1666 891 1350 
z
" id="DejaVuSans-Oblique-64" transform="scale(0.015625)"/>
       <path d="M 3200 3397 
L 3091 2853 
Q 2863 2978 2609 3040 
Q 2356 3103 2088 3103 
Q 1634 3103 1373 2948 
Q 1113 2794 1113 2528 
Q 1113 2219 1719 2053 
Q 1766 2041 1788 2034 
L 1972 1978 
Q 2547 1819 2739 1644 
Q 2931 1469 2931 1166 
Q 2931 609 2489 259 
Q 2047 -91 1331 -91 
Q 1053 -91 747 -37 
Q 441 16 72 128 
L 184 722 
Q 500 559 806 475 
Q 1113 391 1394 391 
Q 1816 391 2080 572 
Q 2344 753 2344 1031 
Q 2344 1331 1650 1516 
L 1591 1531 
L 1394 1581 
Q 956 1697 753 1886 
Q 550 2075 550 2369 
Q 550 2928 970 3256 
Q 1391 3584 2113 3584 
Q 2397 3584 2667 3537 
Q 2938 3491 3200 3397 
z
" id="DejaVuSans-Oblique-73" transform="scale(0.015625)"/>
      </defs>
      <use transform="translate(0 0.529687)" xlink:href="#DejaVuSans-Oblique-65"/>
      <use transform="translate(66.173333 38.810937)scale(0.7)" xlink:href="#DejaVuSans-Oblique-64"/>
      <use transform="translate(110.606927 38.810937)scale(0.7)" xlink:href="#DejaVuSans-Oblique-65"/>
      <use transform="translate(153.673333 38.810937)scale(0.7)" xlink:href="#DejaVuSans-Oblique-73"/>
     </g>
    </g>
   </g>
  </g>
  <g id="axes_3">
   <g id="patch_12">
    <path d="M 49.48992 428.544 
L 692.85888 428.544 
L 692.85888 340.992 
L 49.48992 340.992 
z
" style="fill:#ffffff;"/>
   </g>
   <g id="matplotlib.axis_3">
    <g id="xtick_1">
     <g id="line2d_17">
      <defs>
       <path d="M 0 0 
L 0 3.5 
" id="m6e54451b52" style="stroke:#000000;stroke-width:0.8;"/>
      </defs>
      <g>
       <use style="stroke:#000000;stroke-width:0.8;" x="53.30436" xlink:href="#m6e54451b52" y="428.544"/>
      </g>
     </g>
     <g id="text_13">
      <!-- 0 -->
      <g transform="translate(50.523892 442.701813)scale(0.1 -0.1)">
       <use xlink:href="#ArialMT-30"/>
      </g>
     </g>
    </g>
    <g id="xtick_2">
     <g id="line2d_18">
      <g>
       <use style="stroke:#000000;stroke-width:0.8;" x="180.452376" xlink:href="#m6e54451b52" y="428.544"/>
      </g>
     </g>
     <g id="text_14">
      <!-- 5 -->
      <g transform="translate(177.671908 442.701813)scale(0.1 -0.1)">
       <use xlink:href="#ArialMT-35"/>
      </g>
     </g>
    </g>
    <g id="xtick_3">
     <g id="line2d_19">
      <g>
       <use style="stroke:#000000;stroke-width:0.8;" x="307.600392" xlink:href="#m6e54451b52" y="428.544"/>
      </g>
     </g>
     <g id="text_15">
      <!-- 10 -->
      <g transform="translate(302.039455 442.701813)scale(0.1 -0.1)">
       <defs>
        <path d="M 2384 0 
L 1822 0 
L 1822 3584 
Q 1619 3391 1289 3197 
Q 959 3003 697 2906 
L 697 3450 
Q 1169 3672 1522 3987 
Q 1875 4303 2022 4600 
L 2384 4600 
L 2384 0 
z
" id="ArialMT-31" transform="scale(0.015625)"/>
       </defs>
       <use xlink:href="#ArialMT-31"/>
       <use x="55.615234" xlink:href="#ArialMT-30"/>
      </g>
     </g>
    </g>
    <g id="xtick_4">
     <g id="line2d_20">
      <g>
       <use style="stroke:#000000;stroke-width:0.8;" x="434.748408" xlink:href="#m6e54451b52" y="428.544"/>
      </g>
     </g>
     <g id="text_16">
      <!-- 15 -->
      <g transform="translate(429.18747 442.701813)scale(0.1 -0.1)">
       <use xlink:href="#ArialMT-31"/>
       <use x="55.615234" xlink:href="#ArialMT-35"/>
      </g>
     </g>
    </g>
    <g id="xtick_5">
     <g id="line2d_21">
      <g>
       <use style="stroke:#000000;stroke-width:0.8;" x="561.896424" xlink:href="#m6e54451b52" y="428.544"/>
      </g>
     </g>
     <g id="text_17">
      <!-- 20 -->
      <g transform="translate(556.335486 442.701813)scale(0.1 -0.1)">
       <use xlink:href="#ArialMT-32"/>
       <use x="55.615234" xlink:href="#ArialMT-30"/>
      </g>
     </g>
    </g>
    <g id="xtick_6">
     <g id="line2d_22">
      <g>
       <use style="stroke:#000000;stroke-width:0.8;" x="689.04444" xlink:href="#m6e54451b52" y="428.544"/>
      </g>
     </g>
     <g id="text_18">
      <!-- 25 -->
      <g transform="translate(683.483502 442.701813)scale(0.1 -0.1)">
       <use xlink:href="#ArialMT-32"/>
       <use x="55.615234" xlink:href="#ArialMT-35"/>
      </g>
     </g>
    </g>
   </g>
   <g id="matplotlib.axis_4">
    <g id="ytick_8">
     <g id="line2d_23">
      <g>
       <use style="stroke:#000000;stroke-width:0.8;" x="49.48992" xlink:href="#me9c06e56b0" y="413.62731"/>
      </g>
     </g>
     <g id="text_19">
      <!-- 2.0 -->
      <g transform="translate(28.58992 417.206216)scale(0.1 -0.1)">
       <use xlink:href="#ArialMT-32"/>
       <use x="55.615234" xlink:href="#ArialMT-2e"/>
       <use x="83.398438" xlink:href="#ArialMT-30"/>
      </g>
     </g>
    </g>
    <g id="ytick_9">
     <g id="line2d_24">
      <g>
       <use style="stroke:#000000;stroke-width:0.8;" x="49.48992" xlink:href="#me9c06e56b0" y="382.419994"/>
      </g>
     </g>
     <g id="text_20">
      <!-- 2.2 -->
      <g transform="translate(28.58992 385.9989)scale(0.1 -0.1)">
       <use xlink:href="#ArialMT-32"/>
       <use x="55.615234" xlink:href="#ArialMT-2e"/>
       <use x="83.398438" xlink:href="#ArialMT-32"/>
      </g>
     </g>
    </g>
    <g id="ytick_10">
     <g id="line2d_25">
      <g>
       <use style="stroke:#000000;stroke-width:0.8;" x="49.48992" xlink:href="#me9c06e56b0" y="351.212678"/>
      </g>
     </g>
     <g id="text_21">
      <!-- 2.4 -->
      <g transform="translate(28.58992 354.791584)scale(0.1 -0.1)">
       <use xlink:href="#ArialMT-32"/>
       <use x="55.615234" xlink:href="#ArialMT-2e"/>
       <use x="83.398438" xlink:href="#ArialMT-34"/>
      </g>
     </g>
    </g>
    <g id="text_22">
     <!-- $/MWh -->
     <g transform="translate(8.900282 400.602375)rotate(-90)scale(0.1 -0.1)">
      <defs>
       <path d="M 1594 -659 
L 1594 -97 
Q 1172 -44 908 92 
Q 644 228 451 531 
Q 259 834 228 1272 
L 794 1378 
Q 859 925 1025 713 
Q 1263 413 1594 378 
L 1594 2169 
Q 1247 2234 884 2438 
Q 616 2588 470 2853 
Q 325 3119 325 3456 
Q 325 4056 750 4428 
Q 1034 4678 1594 4734 
L 1594 5003 
L 1925 5003 
L 1925 4734 
Q 2416 4688 2703 4447 
Q 3072 4141 3147 3606 
L 2566 3519 
Q 2516 3850 2358 4026 
Q 2200 4203 1925 4259 
L 1925 2638 
Q 2350 2531 2488 2472 
Q 2750 2356 2915 2190 
Q 3081 2025 3170 1797 
Q 3259 1569 3259 1303 
Q 3259 719 2887 328 
Q 2516 -63 1925 -91 
L 1925 -659 
L 1594 -659 
z
M 1594 4266 
Q 1266 4216 1077 4003 
Q 888 3791 888 3500 
Q 888 3213 1048 3019 
Q 1209 2825 1594 2709 
L 1594 4266 
z
M 1925 378 
Q 2253 419 2467 662 
Q 2681 906 2681 1266 
Q 2681 1572 2529 1758 
Q 2378 1944 1925 2091 
L 1925 378 
z
" id="ArialMT-24" transform="scale(0.015625)"/>
       <path d="M 0 -78 
L 1328 4659 
L 1778 4659 
L 453 -78 
L 0 -78 
z
" id="ArialMT-2f" transform="scale(0.015625)"/>
       <path d="M 475 0 
L 475 4581 
L 1388 4581 
L 2472 1338 
Q 2622 884 2691 659 
Q 2769 909 2934 1394 
L 4031 4581 
L 4847 4581 
L 4847 0 
L 4263 0 
L 4263 3834 
L 2931 0 
L 2384 0 
L 1059 3900 
L 1059 0 
L 475 0 
z
" id="ArialMT-4d" transform="scale(0.015625)"/>
      </defs>
      <use xlink:href="#ArialMT-24"/>
      <use x="55.615234" xlink:href="#ArialMT-2f"/>
      <use x="83.398438" xlink:href="#ArialMT-4d"/>
      <use x="166.699219" xlink:href="#ArialMT-57"/>
      <use x="261.083984" xlink:href="#ArialMT-68"/>
     </g>
    </g>
   </g>
   <g id="line2d_26">
    <path clip-path="url(#p111b68b986)" d="M 78.733964 369.84248 
L 104.163567 369.84248 
L 104.163567 369.420853 
L 129.59317 369.420853 
L 129.59317 369.154272 
L 155.022773 369.154272 
L 155.022773 371.118411 
L 180.452376 371.118411 
L 180.452376 369.818199 
L 205.881979 369.818199 
L 205.881979 363.497525 
L 231.311583 363.497525 
L 231.311583 366.125535 
L 256.741186 366.125535 
L 256.741186 361.795292 
L 282.170789 361.795292 
L 282.170789 357.150942 
L 307.600392 357.150942 
L 307.600392 344.971636 
L 333.029995 344.971636 
L 333.029995 347.386116 
L 358.459598 347.386116 
L 358.459598 364.439095 
L 383.889202 364.439095 
L 383.889202 358.849394 
L 409.318805 358.849394 
L 409.318805 400.551063 
L 434.748408 400.551063 
L 434.748408 424.564364 
L 460.178011 424.564364 
L 460.178011 418.97124 
L 485.607614 418.97124 
L 485.607614 410.085664 
L 511.037217 410.085664 
L 511.037217 407.496191 
L 536.466821 407.496191 
L 536.466821 403.177072 
L 561.896424 403.177072 
L 561.896424 390.1687 
L 587.326027 390.1687 
L 587.326027 372.610205 
L 612.75563 372.610205 
L 612.75563 366.40103 
L 638.185233 366.40103 
L 638.185233 367.725605 
L 663.614836 367.725605 
L 663.614836 373.281524 
" style="fill:none;stroke:#000000;stroke-linecap:square;stroke-width:4;"/>
   </g>
   <g id="patch_13">
    <path d="M 49.48992 428.544 
L 49.48992 340.992 
" style="fill:none;stroke:#000000;stroke-linecap:square;stroke-linejoin:miter;stroke-width:0.8;"/>
   </g>
   <g id="patch_14">
    <path d="M 692.85888 428.544 
L 692.85888 340.992 
" style="fill:none;stroke:#000000;stroke-linecap:square;stroke-linejoin:miter;stroke-width:0.8;"/>
   </g>
   <g id="patch_15">
    <path d="M 49.48992 428.544 
L 692.85888 428.544 
" style="fill:none;stroke:#000000;stroke-linecap:square;stroke-linejoin:miter;stroke-width:0.8;"/>
   </g>
   <g id="patch_16">
    <path d="M 49.48992 340.992 
L 692.85888 340.992 
" style="fill:none;stroke:#000000;stroke-linecap:square;stroke-linejoin:miter;stroke-width:0.8;"/>
   </g>
   <g id="legend_3">
    <g id="line2d_27">
     <path d="M 701.85888 383.853156 
L 721.85888 383.853156 
" style="fill:none;stroke:#000000;stroke-linecap:square;stroke-width:4;"/>
    </g>
    <g id="line2d_28"/>
    <g id="text_23">
     <!-- $P^{p}$ -->
     <g transform="translate(729.85888 387.353156)scale(0.1 -0.1)">
      <defs>
       <path d="M 1081 4666 
L 2541 4666 
Q 3178 4666 3512 4369 
Q 3847 4072 3847 3500 
Q 3847 2731 3353 2303 
Q 2859 1875 1966 1875 
L 1172 1875 
L 806 0 
L 172 0 
L 1081 4666 
z
M 1613 4147 
L 1275 2394 
L 2069 2394 
Q 2606 2394 2893 2669 
Q 3181 2944 3181 3456 
Q 3181 3784 2986 3965 
Q 2791 4147 2438 4147 
L 1613 4147 
z
" id="DejaVuSans-Oblique-50" transform="scale(0.015625)"/>
       <path d="M 3175 2156 
Q 3175 2616 2975 2859 
Q 2775 3103 2400 3103 
Q 2144 3103 1911 2972 
Q 1678 2841 1497 2591 
Q 1319 2344 1212 1994 
Q 1106 1644 1106 1300 
Q 1106 863 1306 627 
Q 1506 391 1875 391 
Q 2147 391 2380 519 
Q 2613 647 2778 891 
Q 2956 1147 3065 1494 
Q 3175 1841 3175 2156 
z
M 1394 2969 
Q 1625 3272 1939 3428 
Q 2253 3584 2638 3584 
Q 3175 3584 3472 3232 
Q 3769 2881 3769 2247 
Q 3769 1728 3584 1258 
Q 3400 788 3053 416 
Q 2822 169 2531 39 
Q 2241 -91 1919 -91 
Q 1547 -91 1294 64 
Q 1041 219 916 525 
L 556 -1331 
L -19 -1331 
L 922 3500 
L 1497 3500 
L 1394 2969 
z
" id="DejaVuSans-Oblique-70" transform="scale(0.015625)"/>
      </defs>
      <use transform="translate(0 0.51875)" xlink:href="#DejaVuSans-Oblique-50"/>
      <use transform="translate(67.319505 38.8)scale(0.7)" xlink:href="#DejaVuSans-Oblique-70"/>
     </g>
    </g>
   </g>
  </g>
 </g>
 <defs>
  <clipPath id="pa7161229ea">
   <rect height="110.592" width="643.36896" x="49.48992" y="124.416"/>
  </clipPath>
  <clipPath id="p3725911a6e">
   <rect height="87.552" width="643.36896" x="49.48992" y="244.224"/>
  </clipPath>
  <clipPath id="p111b68b986">
   <rect height="87.552" width="643.36896" x="49.48992" y="340.992"/>
  </clipPath>
 </defs>
</svg>
