<?xml version="1.0" encoding="utf-8" standalone="no"?>
<!DOCTYPE svg PUBLIC "-//W3C//DTD SVG 1.1//EN"
  "http://www.w3.org/Graphics/SVG/1.1/DTD/svg11.dtd">
<!-- Created with matplotlib (http://matplotlib.org/) -->
<svg height="288pt" version="1.1" viewBox="0 0 432 288" width="432pt" xmlns="http://www.w3.org/2000/svg" xmlns:xlink="http://www.w3.org/1999/xlink">
 <defs>
  <style type="text/css">
*{stroke-linecap:butt;stroke-linejoin:round;}
  </style>
 </defs>
 <g id="figure_1">
  <g id="patch_1">
   <path d="M 0 288 
L 432 288 
L 432 0 
L 0 0 
z
" style="fill:#ffffff;"/>
  </g>
  <g id="axes_1">
   <g id="patch_2">
    <path d="M 54 252 
L 388.8 252 
L 388.8 34.56 
L 54 34.56 
z
" style="fill:#ffffff;"/>
   </g>
   <g id="PathCollection_1">
    <defs>
     <path d="M 0.431302 -2.785544 
Q 1.230585 -2.785544 1.60693 -1.937276 
Q 1.655914 -1.743728 1.666667 -1.534648 
Q 1.666667 -1.097372 1.218638 -0.5 
L 0.995221 -0.276583 
L 1.005974 -0.276583 
Q 1.281959 -0.380526 1.596177 -0.380526 
L 1.666667 -0.380526 
Q 2.555556 -0.380526 2.913978 0.373357 
Q 3 0.619474 3 0.844086 
Q 3 1.609916 2.219833 1.998208 
Q 2.07049 2.042413 1.805257 2.065114 
Q 0.902031 2.065114 0.524492 1.042413 
L 0.51374 1.042413 
L 0.51374 1.075866 
Q 0.51374 2.356631 0.819594 2.762843 
L 0.819594 2.785544 
L 0.043011 2.785544 
L 0.020311 2.762843 
Q 0.338112 2.284946 0.338112 1.042413 
L 0.338112 1.030466 
L 0.326165 1.030466 
Q -0.046595 2.065114 -0.961768 2.065114 
Q -1.67503 2.065114 -2.054958 1.314815 
Q -2.148148 1.060335 -2.148148 0.844086 
Q -2.148148 -0.025687 -1.230585 -0.33632 
Q -0.983274 -0.380526 -0.793309 -0.380526 
L -0.759857 -0.380526 
Q -0.438471 -0.380526 -0.146953 -0.276583 
L -0.136201 -0.276583 
L -0.136201 -0.287336 
Q -0.450418 -0.552569 -0.557945 -0.809438 
Q -0.782557 -1.22043 -0.782557 -1.5227 
L -0.782557 -1.575269 
Q -0.782557 -2.325568 0.020311 -2.713859 
Q 0.285544 -2.785544 0.431302 -2.785544 
z
" id="C0_0_630b0ac295"/>
    </defs>
    <g clip-path="url(#p9d053b48f9)">
     <use style="fill:none;stroke:#a52a2a;" x="132.752172" xlink:href="#C0_0_630b0ac295" y="77.715469"/>
    </g>
    <g clip-path="url(#p9d053b48f9)">
     <use style="fill:none;stroke:#a52a2a;" x="159.451797" xlink:href="#C0_0_630b0ac295" y="107.330274"/>
    </g>
    <g clip-path="url(#p9d053b48f9)">
     <use style="fill:none;stroke:#a52a2a;" x="168.361367" xlink:href="#C0_0_630b0ac295" y="116.059095"/>
    </g>
    <g clip-path="url(#p9d053b48f9)">
     <use style="fill:none;stroke:#a52a2a;" x="196.112995" xlink:href="#C0_0_630b0ac295" y="141.864946"/>
    </g>
    <g clip-path="url(#p9d053b48f9)">
     <use style="fill:none;stroke:#a52a2a;" x="215.563693" xlink:href="#C0_0_630b0ac295" y="160.801449"/>
    </g>
    <g clip-path="url(#p9d053b48f9)">
     <use style="fill:none;stroke:#a52a2a;" x="245.213775" xlink:href="#C0_0_630b0ac295" y="182.830777"/>
    </g>
    <g clip-path="url(#p9d053b48f9)">
     <use style="fill:none;stroke:#a52a2a;" x="256.800197" xlink:href="#C0_0_630b0ac295" y="190.993176"/>
    </g>
    <g clip-path="url(#p9d053b48f9)">
     <use style="fill:none;stroke:#a52a2a;" x="324.456752" xlink:href="#C0_0_630b0ac295" y="223.640279"/>
    </g>
    <g clip-path="url(#p9d053b48f9)">
     <use style="fill:none;stroke:#a52a2a;" x="337.190809" xlink:href="#C0_0_630b0ac295" y="227.64134"/>
    </g>
    <g clip-path="url(#p9d053b48f9)">
     <use style="fill:none;stroke:#a52a2a;" x="359.103641" xlink:href="#C0_0_630b0ac295" y="232.124264"/>
    </g>
   </g>
   <g id="PathCollection_2">
    <defs>
     <path d="M 0.431302 -2.785544 
Q 1.230585 -2.785544 1.60693 -1.937276 
Q 1.655914 -1.743728 1.666667 -1.534648 
Q 1.666667 -1.097372 1.218638 -0.5 
L 0.995221 -0.276583 
L 1.005974 -0.276583 
Q 1.281959 -0.380526 1.596177 -0.380526 
L 1.666667 -0.380526 
Q 2.555556 -0.380526 2.913978 0.373357 
Q 3 0.619474 3 0.844086 
Q 3 1.609916 2.219833 1.998208 
Q 2.07049 2.042413 1.805257 2.065114 
Q 0.902031 2.065114 0.524492 1.042413 
L 0.51374 1.042413 
L 0.51374 1.075866 
Q 0.51374 2.356631 0.819594 2.762843 
L 0.819594 2.785544 
L 0.043011 2.785544 
L 0.020311 2.762843 
Q 0.338112 2.284946 0.338112 1.042413 
L 0.338112 1.030466 
L 0.326165 1.030466 
Q -0.046595 2.065114 -0.961768 2.065114 
Q -1.67503 2.065114 -2.054958 1.314815 
Q -2.148148 1.060335 -2.148148 0.844086 
Q -2.148148 -0.025687 -1.230585 -0.33632 
Q -0.983274 -0.380526 -0.793309 -0.380526 
L -0.759857 -0.380526 
Q -0.438471 -0.380526 -0.146953 -0.276583 
L -0.136201 -0.276583 
L -0.136201 -0.287336 
Q -0.450418 -0.552569 -0.557945 -0.809438 
Q -0.782557 -1.22043 -0.782557 -1.5227 
L -0.782557 -1.575269 
Q -0.782557 -2.325568 0.020311 -2.713859 
Q 0.285544 -2.785544 0.431302 -2.785544 
z
" id="m7c89753761" style="stroke:#a52a2a;"/>
    </defs>
    <g clip-path="url(#p9d053b48f9)">
     <use style="fill:#a52a2a;stroke:#a52a2a;" x="151.484627" xlink:href="#m7c89753761" y="74.225232"/>
     <use style="fill:#a52a2a;stroke:#a52a2a;" x="184.773413" xlink:href="#m7c89753761" y="99.012794"/>
     <use style="fill:#a52a2a;stroke:#a52a2a;" x="195.225938" xlink:href="#m7c89753761" y="109.937253"/>
     <use style="fill:#a52a2a;stroke:#a52a2a;" x="214.747059" xlink:href="#m7c89753761" y="127.547269"/>
     <use style="fill:#a52a2a;stroke:#a52a2a;" x="229.60923" xlink:href="#m7c89753761" y="141.840158"/>
     <use style="fill:#a52a2a;stroke:#a52a2a;" x="249.913925" xlink:href="#m7c89753761" y="158.706831"/>
     <use style="fill:#a52a2a;stroke:#a52a2a;" x="263.639029" xlink:href="#m7c89753761" y="166.569379"/>
     <use style="fill:#a52a2a;stroke:#a52a2a;" x="312.159361" xlink:href="#m7c89753761" y="192.443232"/>
     <use style="fill:#a52a2a;stroke:#a52a2a;" x="328.789116" xlink:href="#m7c89753761" y="196.188292"/>
     <use style="fill:#a52a2a;stroke:#a52a2a;" x="349.669161" xlink:href="#m7c89753761" y="203.660657"/>
    </g>
   </g>
   <g id="PathCollection_3">
    <defs>
     <path d="M 0.431302 -2.785544 
Q 1.230585 -2.785544 1.60693 -1.937276 
Q 1.655914 -1.743728 1.666667 -1.534648 
Q 1.666667 -1.097372 1.218638 -0.5 
L 0.995221 -0.276583 
L 1.005974 -0.276583 
Q 1.281959 -0.380526 1.596177 -0.380526 
L 1.666667 -0.380526 
Q 2.555556 -0.380526 2.913978 0.373357 
Q 3 0.619474 3 0.844086 
Q 3 1.609916 2.219833 1.998208 
Q 2.07049 2.042413 1.805257 2.065114 
Q 0.902031 2.065114 0.524492 1.042413 
L 0.51374 1.042413 
L 0.51374 1.075866 
Q 0.51374 2.356631 0.819594 2.762843 
L 0.819594 2.785544 
L 0.043011 2.785544 
L 0.020311 2.762843 
Q 0.338112 2.284946 0.338112 1.042413 
L 0.338112 1.030466 
L 0.326165 1.030466 
Q -0.046595 2.065114 -0.961768 2.065114 
Q -1.67503 2.065114 -2.054958 1.314815 
Q -2.148148 1.060335 -2.148148 0.844086 
Q -2.148148 -0.025687 -1.230585 -0.33632 
Q -0.983274 -0.380526 -0.793309 -0.380526 
L -0.759857 -0.380526 
Q -0.438471 -0.380526 -0.146953 -0.276583 
L -0.136201 -0.276583 
L -0.136201 -0.287336 
Q -0.450418 -0.552569 -0.557945 -0.809438 
Q -0.782557 -1.22043 -0.782557 -1.5227 
L -0.782557 -1.575269 
Q -0.782557 -2.325568 0.020311 -2.713859 
Q 0.285544 -2.785544 0.431302 -2.785544 
z
" id="C1_0_9dd5555b70"/>
    </defs>
    <g clip-path="url(#p9d053b48f9)">
     <use style="fill:none;stroke:#808080;" x="102.40718" xlink:href="#C1_0_9dd5555b70" y="46.06984"/>
    </g>
    <g clip-path="url(#p9d053b48f9)">
     <use style="fill:none;stroke:#808080;" x="136.124503" xlink:href="#C1_0_9dd5555b70" y="84.529726"/>
    </g>
    <g clip-path="url(#p9d053b48f9)">
     <use style="fill:none;stroke:#808080;" x="145.886396" xlink:href="#C1_0_9dd5555b70" y="95.595786"/>
    </g>
    <g clip-path="url(#p9d053b48f9)">
     <use style="fill:none;stroke:#808080;" x="176.907383" xlink:href="#C1_0_9dd5555b70" y="128.015866"/>
    </g>
    <g clip-path="url(#p9d053b48f9)">
     <use style="fill:none;stroke:#808080;" x="206.618656" xlink:href="#C1_0_9dd5555b70" y="156.135006"/>
    </g>
    <g clip-path="url(#p9d053b48f9)">
     <use style="fill:none;stroke:#808080;" x="240.655214" xlink:href="#C1_0_9dd5555b70" y="180.79704"/>
    </g>
    <g clip-path="url(#p9d053b48f9)">
     <use style="fill:none;stroke:#808080;" x="254.676804" xlink:href="#C1_0_9dd5555b70" y="189.255496"/>
    </g>
    <g clip-path="url(#p9d053b48f9)">
     <use style="fill:none;stroke:#808080;" x="323.821918" xlink:href="#C1_0_9dd5555b70" y="222.431019"/>
    </g>
    <g clip-path="url(#p9d053b48f9)">
     <use style="fill:none;stroke:#808080;" x="340.499668" xlink:href="#C1_0_9dd5555b70" y="225.803916"/>
    </g>
    <g clip-path="url(#p9d053b48f9)">
     <use style="fill:none;stroke:#808080;" x="371.912105" xlink:href="#C1_0_9dd5555b70" y="231.523189"/>
    </g>
   </g>
   <g id="PathCollection_4">
    <defs>
     <path d="M 0.431302 -2.785544 
Q 1.230585 -2.785544 1.60693 -1.937276 
Q 1.655914 -1.743728 1.666667 -1.534648 
Q 1.666667 -1.097372 1.218638 -0.5 
L 0.995221 -0.276583 
L 1.005974 -0.276583 
Q 1.281959 -0.380526 1.596177 -0.380526 
L 1.666667 -0.380526 
Q 2.555556 -0.380526 2.913978 0.373357 
Q 3 0.619474 3 0.844086 
Q 3 1.609916 2.219833 1.998208 
Q 2.07049 2.042413 1.805257 2.065114 
Q 0.902031 2.065114 0.524492 1.042413 
L 0.51374 1.042413 
L 0.51374 1.075866 
Q 0.51374 2.356631 0.819594 2.762843 
L 0.819594 2.785544 
L 0.043011 2.785544 
L 0.020311 2.762843 
Q 0.338112 2.284946 0.338112 1.042413 
L 0.338112 1.030466 
L 0.326165 1.030466 
Q -0.046595 2.065114 -0.961768 2.065114 
Q -1.67503 2.065114 -2.054958 1.314815 
Q -2.148148 1.060335 -2.148148 0.844086 
Q -2.148148 -0.025687 -1.230585 -0.33632 
Q -0.983274 -0.380526 -0.793309 -0.380526 
L -0.759857 -0.380526 
Q -0.438471 -0.380526 -0.146953 -0.276583 
L -0.136201 -0.276583 
L -0.136201 -0.287336 
Q -0.450418 -0.552569 -0.557945 -0.809438 
Q -0.782557 -1.22043 -0.782557 -1.5227 
L -0.782557 -1.575269 
Q -0.782557 -2.325568 0.020311 -2.713859 
Q 0.285544 -2.785544 0.431302 -2.785544 
z
" id="me359d0b728" style="stroke:#808080;"/>
    </defs>
    <g clip-path="url(#p9d053b48f9)">
     <use style="fill:#808080;stroke:#808080;" x="113.25745" xlink:href="#me359d0b728" y="58.166467"/>
     <use style="fill:#808080;stroke:#808080;" x="136.33853" xlink:href="#me359d0b728" y="88.641905"/>
     <use style="fill:#808080;stroke:#808080;" x="144.750701" xlink:href="#me359d0b728" y="99.741126"/>
     <use style="fill:#808080;stroke:#808080;" x="178.10897" xlink:href="#me359d0b728" y="128.597575"/>
     <use style="fill:#808080;stroke:#808080;" x="201.250039" xlink:href="#me359d0b728" y="153.393147"/>
     <use style="fill:#808080;stroke:#808080;" x="234.9453" xlink:href="#me359d0b728" y="176.094742"/>
     <use style="fill:#808080;stroke:#808080;" x="246.914106" xlink:href="#me359d0b728" y="184.881859"/>
     <use style="fill:#808080;stroke:#808080;" x="323.05372" xlink:href="#me359d0b728" y="207.978003"/>
     <use style="fill:#808080;stroke:#808080;" x="321.24977" xlink:href="#me359d0b728" y="212.889706"/>
     <use style="fill:#808080;stroke:#808080;" x="358.145413" xlink:href="#me359d0b728" y="217.410245"/>
    </g>
   </g>
   <g id="PathCollection_5">
    <defs>
     <path d="M 0.431302 -2.785544 
Q 1.230585 -2.785544 1.60693 -1.937276 
Q 1.655914 -1.743728 1.666667 -1.534648 
Q 1.666667 -1.097372 1.218638 -0.5 
L 0.995221 -0.276583 
L 1.005974 -0.276583 
Q 1.281959 -0.380526 1.596177 -0.380526 
L 1.666667 -0.380526 
Q 2.555556 -0.380526 2.913978 0.373357 
Q 3 0.619474 3 0.844086 
Q 3 1.609916 2.219833 1.998208 
Q 2.07049 2.042413 1.805257 2.065114 
Q 0.902031 2.065114 0.524492 1.042413 
L 0.51374 1.042413 
L 0.51374 1.075866 
Q 0.51374 2.356631 0.819594 2.762843 
L 0.819594 2.785544 
L 0.043011 2.785544 
L 0.020311 2.762843 
Q 0.338112 2.284946 0.338112 1.042413 
L 0.338112 1.030466 
L 0.326165 1.030466 
Q -0.046595 2.065114 -0.961768 2.065114 
Q -1.67503 2.065114 -2.054958 1.314815 
Q -2.148148 1.060335 -2.148148 0.844086 
Q -2.148148 -0.025687 -1.230585 -0.33632 
Q -0.983274 -0.380526 -0.793309 -0.380526 
L -0.759857 -0.380526 
Q -0.438471 -0.380526 -0.146953 -0.276583 
L -0.136201 -0.276583 
L -0.136201 -0.287336 
Q -0.450418 -0.552569 -0.557945 -0.809438 
Q -0.782557 -1.22043 -0.782557 -1.5227 
L -0.782557 -1.575269 
Q -0.782557 -2.325568 0.020311 -2.713859 
Q 0.285544 -2.785544 0.431302 -2.785544 
z
" id="C2_0_0daf730ac0"/>
    </defs>
    <g clip-path="url(#p9d053b48f9)">
     <use style="fill:none;stroke:#008000;" x="74.313151" xlink:href="#C2_0_0daf730ac0" y="50.936495"/>
    </g>
    <g clip-path="url(#p9d053b48f9)">
     <use style="fill:none;stroke:#008000;" x="95.700433" xlink:href="#C2_0_0daf730ac0" y="72.072538"/>
    </g>
    <g clip-path="url(#p9d053b48f9)">
     <use style="fill:none;stroke:#008000;" x="108.217501" xlink:href="#C2_0_0daf730ac0" y="91.05176"/>
    </g>
    <g clip-path="url(#p9d053b48f9)">
     <use style="fill:none;stroke:#008000;" x="135.865855" xlink:href="#C2_0_0daf730ac0" y="122.037894"/>
    </g>
    <g clip-path="url(#p9d053b48f9)">
     <use style="fill:none;stroke:#008000;" x="170.942849" xlink:href="#C2_0_0daf730ac0" y="152.909105"/>
    </g>
    <g clip-path="url(#p9d053b48f9)">
     <use style="fill:none;stroke:#008000;" x="205.167299" xlink:href="#C2_0_0daf730ac0" y="180.714593"/>
    </g>
    <g clip-path="url(#p9d053b48f9)">
     <use style="fill:none;stroke:#008000;" x="217.802797" xlink:href="#C2_0_0daf730ac0" y="188.103687"/>
    </g>
    <g clip-path="url(#p9d053b48f9)">
     <use style="fill:none;stroke:#008000;" x="293.306523" xlink:href="#C2_0_0daf730ac0" y="222.617879"/>
    </g>
    <g clip-path="url(#p9d053b48f9)">
     <use style="fill:none;stroke:#008000;" x="299.414015" xlink:href="#C2_0_0daf730ac0" y="226.282092"/>
    </g>
    <g clip-path="url(#p9d053b48f9)">
     <use style="fill:none;stroke:#008000;" x="338.389444" xlink:href="#C2_0_0daf730ac0" y="232.508657"/>
    </g>
   </g>
   <g id="PathCollection_6">
    <defs>
     <path d="M 0.431302 -2.785544 
Q 1.230585 -2.785544 1.60693 -1.937276 
Q 1.655914 -1.743728 1.666667 -1.534648 
Q 1.666667 -1.097372 1.218638 -0.5 
L 0.995221 -0.276583 
L 1.005974 -0.276583 
Q 1.281959 -0.380526 1.596177 -0.380526 
L 1.666667 -0.380526 
Q 2.555556 -0.380526 2.913978 0.373357 
Q 3 0.619474 3 0.844086 
Q 3 1.609916 2.219833 1.998208 
Q 2.07049 2.042413 1.805257 2.065114 
Q 0.902031 2.065114 0.524492 1.042413 
L 0.51374 1.042413 
L 0.51374 1.075866 
Q 0.51374 2.356631 0.819594 2.762843 
L 0.819594 2.785544 
L 0.043011 2.785544 
L 0.020311 2.762843 
Q 0.338112 2.284946 0.338112 1.042413 
L 0.338112 1.030466 
L 0.326165 1.030466 
Q -0.046595 2.065114 -0.961768 2.065114 
Q -1.67503 2.065114 -2.054958 1.314815 
Q -2.148148 1.060335 -2.148148 0.844086 
Q -2.148148 -0.025687 -1.230585 -0.33632 
Q -0.983274 -0.380526 -0.793309 -0.380526 
L -0.759857 -0.380526 
Q -0.438471 -0.380526 -0.146953 -0.276583 
L -0.136201 -0.276583 
L -0.136201 -0.287336 
Q -0.450418 -0.552569 -0.557945 -0.809438 
Q -0.782557 -1.22043 -0.782557 -1.5227 
L -0.782557 -1.575269 
Q -0.782557 -2.325568 0.020311 -2.713859 
Q 0.285544 -2.785544 0.431302 -2.785544 
z
" id="me8a8ac92de" style="stroke:#008000;"/>
    </defs>
    <g clip-path="url(#p9d053b48f9)">
     <use style="fill:#008000;stroke:#008000;" x="70.745991" xlink:href="#me8a8ac92de" y="57.746564"/>
     <use style="fill:#008000;stroke:#008000;" x="90.430813" xlink:href="#me8a8ac92de" y="83.560539"/>
     <use style="fill:#008000;stroke:#008000;" x="103.106836" xlink:href="#me8a8ac92de" y="97.383737"/>
     <use style="fill:#008000;stroke:#008000;" x="127.580242" xlink:href="#me8a8ac92de" y="124.194018"/>
     <use style="fill:#008000;stroke:#008000;" x="158.595212" xlink:href="#me8a8ac92de" y="153.657043"/>
     <use style="fill:#008000;stroke:#008000;" x="190.654075" xlink:href="#me8a8ac92de" y="176.664785"/>
     <use style="fill:#008000;stroke:#008000;" x="206.439985" xlink:href="#me8a8ac92de" y="186.540912"/>
     <use style="fill:#008000;stroke:#008000;" x="277.905891" xlink:href="#me8a8ac92de" y="215.013685"/>
     <use style="fill:#008000;stroke:#008000;" x="296.706631" xlink:href="#me8a8ac92de" y="217.552783"/>
     <use style="fill:#008000;stroke:#008000;" x="309.788196" xlink:href="#me8a8ac92de" y="222.591439"/>
    </g>
   </g>
   <g id="PathCollection_7">
    <defs>
     <path d="M -0 4.242641 
L 4.242641 0 
L 0 -4.242641 
L -4.242641 -0 
z
" id="m75084fec20" style="stroke:#000000;"/>
    </defs>
    <g clip-path="url(#p9d053b48f9)">
     <use style="stroke:#000000;" x="160.207847" xlink:href="#m75084fec20" y="63.9621"/>
     <use style="stroke:#000000;" x="171.525549" xlink:href="#m75084fec20" y="75.501477"/>
     <use style="stroke:#000000;" x="180.723676" xlink:href="#m75084fec20" y="83.598366"/>
     <use style="stroke:#000000;" x="189.153681" xlink:href="#m75084fec20" y="93.223834"/>
     <use style="stroke:#000000;" x="188.253477" xlink:href="#m75084fec20" y="95.998409"/>
     <use style="stroke:#000000;" x="198.534741" xlink:href="#m75084fec20" y="106.457362"/>
     <use style="stroke:#000000;" x="195.459404" xlink:href="#m75084fec20" y="106.726038"/>
     <use style="stroke:#000000;" x="233.394469" xlink:href="#m75084fec20" y="130.188213"/>
     <use style="stroke:#000000;" x="248.960854" xlink:href="#m75084fec20" y="137.365837"/>
     <use style="stroke:#000000;" x="269.32863" xlink:href="#m75084fec20" y="148.898679"/>
    </g>
   </g>
   <g id="PathCollection_8">
    <defs>
     <path d="M -0 4.242641 
L 4.242641 0 
L 0 -4.242641 
L -4.242641 -0 
z
" id="C3_0_7b8aaf4a26"/>
    </defs>
    <g clip-path="url(#p9d053b48f9)">
     <use style="fill:none;stroke:#000000;" x="101.57723" xlink:href="#C3_0_7b8aaf4a26" y="160.745647"/>
    </g>
    <g clip-path="url(#p9d053b48f9)">
     <use style="fill:none;stroke:#000000;" x="117.401275" xlink:href="#C3_0_7b8aaf4a26" y="177.079446"/>
    </g>
    <g clip-path="url(#p9d053b48f9)">
     <use style="fill:none;stroke:#000000;" x="126.192455" xlink:href="#C3_0_7b8aaf4a26" y="185.344217"/>
    </g>
    <g clip-path="url(#p9d053b48f9)">
     <use style="fill:none;stroke:#000000;" x="138.837399" xlink:href="#C3_0_7b8aaf4a26" y="198.03786"/>
    </g>
    <g clip-path="url(#p9d053b48f9)">
     <use style="fill:none;stroke:#000000;" x="147.080982" xlink:href="#C3_0_7b8aaf4a26" y="204.557009"/>
    </g>
    <g clip-path="url(#p9d053b48f9)">
     <use style="fill:none;stroke:#000000;" x="161.249274" xlink:href="#C3_0_7b8aaf4a26" y="215.210996"/>
    </g>
    <g clip-path="url(#p9d053b48f9)">
     <use style="fill:none;stroke:#000000;" x="168.574635" xlink:href="#C3_0_7b8aaf4a26" y="219.607695"/>
    </g>
    <g clip-path="url(#p9d053b48f9)">
     <use style="fill:none;stroke:#000000;" x="205.661432" xlink:href="#C3_0_7b8aaf4a26" y="235.731941"/>
    </g>
    <g clip-path="url(#p9d053b48f9)">
     <use style="fill:none;stroke:#000000;" x="212.266559" xlink:href="#C3_0_7b8aaf4a26" y="237.565999"/>
    </g>
    <g clip-path="url(#p9d053b48f9)">
     <use style="fill:none;stroke:#000000;" x="221.904859" xlink:href="#C3_0_7b8aaf4a26" y="239.180546"/>
    </g>
   </g>
   <g id="matplotlib.axis_1">
    <g id="xtick_1">
     <g id="line2d_1">
      <path clip-path="url(#p9d053b48f9)" d="M 83.680143 252 
L 83.680143 34.56 
" style="fill:none;stroke:#b0b0b0;stroke-linecap:square;stroke-width:0.8;"/>
     </g>
     <g id="line2d_2">
      <defs>
       <path d="M 0 0 
L 0 3.5 
" id="md12daae1b4" style="stroke:#000000;stroke-width:0.8;"/>
      </defs>
      <g>
       <use style="stroke:#000000;stroke-width:0.8;" x="83.680143" xlink:href="#md12daae1b4" y="252"/>
      </g>
     </g>
     <g id="text_1">
      <!-- 0.85 -->
      <defs>
       <path d="M 31.78125 66.40625 
Q 24.171875 66.40625 20.328125 58.90625 
Q 16.5 51.421875 16.5 36.375 
Q 16.5 21.390625 20.328125 13.890625 
Q 24.171875 6.390625 31.78125 6.390625 
Q 39.453125 6.390625 43.28125 13.890625 
Q 47.125 21.390625 47.125 36.375 
Q 47.125 51.421875 43.28125 58.90625 
Q 39.453125 66.40625 31.78125 66.40625 
z
M 31.78125 74.21875 
Q 44.046875 74.21875 50.515625 64.515625 
Q 56.984375 54.828125 56.984375 36.375 
Q 56.984375 17.96875 50.515625 8.265625 
Q 44.046875 -1.421875 31.78125 -1.421875 
Q 19.53125 -1.421875 13.0625 8.265625 
Q 6.59375 17.96875 6.59375 36.375 
Q 6.59375 54.828125 13.0625 64.515625 
Q 19.53125 74.21875 31.78125 74.21875 
z
" id="DejaVuSans-30"/>
       <path d="M 10.6875 12.40625 
L 21 12.40625 
L 21 0 
L 10.6875 0 
z
" id="DejaVuSans-2e"/>
       <path d="M 31.78125 34.625 
Q 24.75 34.625 20.71875 30.859375 
Q 16.703125 27.09375 16.703125 20.515625 
Q 16.703125 13.921875 20.71875 10.15625 
Q 24.75 6.390625 31.78125 6.390625 
Q 38.8125 6.390625 42.859375 10.171875 
Q 46.921875 13.96875 46.921875 20.515625 
Q 46.921875 27.09375 42.890625 30.859375 
Q 38.875 34.625 31.78125 34.625 
z
M 21.921875 38.8125 
Q 15.578125 40.375 12.03125 44.71875 
Q 8.5 49.078125 8.5 55.328125 
Q 8.5 64.0625 14.71875 69.140625 
Q 20.953125 74.21875 31.78125 74.21875 
Q 42.671875 74.21875 48.875 69.140625 
Q 55.078125 64.0625 55.078125 55.328125 
Q 55.078125 49.078125 51.53125 44.71875 
Q 48 40.375 41.703125 38.8125 
Q 48.828125 37.15625 52.796875 32.3125 
Q 56.78125 27.484375 56.78125 20.515625 
Q 56.78125 9.90625 50.3125 4.234375 
Q 43.84375 -1.421875 31.78125 -1.421875 
Q 19.734375 -1.421875 13.25 4.234375 
Q 6.78125 9.90625 6.78125 20.515625 
Q 6.78125 27.484375 10.78125 32.3125 
Q 14.796875 37.15625 21.921875 38.8125 
z
M 18.3125 54.390625 
Q 18.3125 48.734375 21.84375 45.5625 
Q 25.390625 42.390625 31.78125 42.390625 
Q 38.140625 42.390625 41.71875 45.5625 
Q 45.3125 48.734375 45.3125 54.390625 
Q 45.3125 60.0625 41.71875 63.234375 
Q 38.140625 66.40625 31.78125 66.40625 
Q 25.390625 66.40625 21.84375 63.234375 
Q 18.3125 60.0625 18.3125 54.390625 
z
" id="DejaVuSans-38"/>
       <path d="M 10.796875 72.90625 
L 49.515625 72.90625 
L 49.515625 64.59375 
L 19.828125 64.59375 
L 19.828125 46.734375 
Q 21.96875 47.46875 24.109375 47.828125 
Q 26.265625 48.1875 28.421875 48.1875 
Q 40.625 48.1875 47.75 41.5 
Q 54.890625 34.8125 54.890625 23.390625 
Q 54.890625 11.625 47.5625 5.09375 
Q 40.234375 -1.421875 26.90625 -1.421875 
Q 22.3125 -1.421875 17.546875 -0.640625 
Q 12.796875 0.140625 7.71875 1.703125 
L 7.71875 11.625 
Q 12.109375 9.234375 16.796875 8.0625 
Q 21.484375 6.890625 26.703125 6.890625 
Q 35.15625 6.890625 40.078125 11.328125 
Q 45.015625 15.765625 45.015625 23.390625 
Q 45.015625 31 40.078125 35.4375 
Q 35.15625 39.890625 26.703125 39.890625 
Q 22.75 39.890625 18.8125 39.015625 
Q 14.890625 38.140625 10.796875 36.28125 
z
" id="DejaVuSans-35"/>
      </defs>
      <g transform="translate(72.547331 266.598437)scale(0.1 -0.1)">
       <use xlink:href="#DejaVuSans-30"/>
       <use x="63.623047" xlink:href="#DejaVuSans-2e"/>
       <use x="95.410156" xlink:href="#DejaVuSans-38"/>
       <use x="159.033203" xlink:href="#DejaVuSans-35"/>
      </g>
     </g>
    </g>
    <g id="xtick_2">
     <g id="line2d_3">
      <path clip-path="url(#p9d053b48f9)" d="M 123.993203 252 
L 123.993203 34.56 
" style="fill:none;stroke:#b0b0b0;stroke-linecap:square;stroke-width:0.8;"/>
     </g>
     <g id="line2d_4">
      <g>
       <use style="stroke:#000000;stroke-width:0.8;" x="123.993203" xlink:href="#md12daae1b4" y="252"/>
      </g>
     </g>
     <g id="text_2">
      <!-- 0.90 -->
      <defs>
       <path d="M 10.984375 1.515625 
L 10.984375 10.5 
Q 14.703125 8.734375 18.5 7.8125 
Q 22.3125 6.890625 25.984375 6.890625 
Q 35.75 6.890625 40.890625 13.453125 
Q 46.046875 20.015625 46.78125 33.40625 
Q 43.953125 29.203125 39.59375 26.953125 
Q 35.25 24.703125 29.984375 24.703125 
Q 19.046875 24.703125 12.671875 31.3125 
Q 6.296875 37.9375 6.296875 49.421875 
Q 6.296875 60.640625 12.9375 67.421875 
Q 19.578125 74.21875 30.609375 74.21875 
Q 43.265625 74.21875 49.921875 64.515625 
Q 56.59375 54.828125 56.59375 36.375 
Q 56.59375 19.140625 48.40625 8.859375 
Q 40.234375 -1.421875 26.421875 -1.421875 
Q 22.703125 -1.421875 18.890625 -0.6875 
Q 15.09375 0.046875 10.984375 1.515625 
z
M 30.609375 32.421875 
Q 37.25 32.421875 41.125 36.953125 
Q 45.015625 41.5 45.015625 49.421875 
Q 45.015625 57.28125 41.125 61.84375 
Q 37.25 66.40625 30.609375 66.40625 
Q 23.96875 66.40625 20.09375 61.84375 
Q 16.21875 57.28125 16.21875 49.421875 
Q 16.21875 41.5 20.09375 36.953125 
Q 23.96875 32.421875 30.609375 32.421875 
z
" id="DejaVuSans-39"/>
      </defs>
      <g transform="translate(112.86039 266.598437)scale(0.1 -0.1)">
       <use xlink:href="#DejaVuSans-30"/>
       <use x="63.623047" xlink:href="#DejaVuSans-2e"/>
       <use x="95.410156" xlink:href="#DejaVuSans-39"/>
       <use x="159.033203" xlink:href="#DejaVuSans-30"/>
      </g>
     </g>
    </g>
    <g id="xtick_3">
     <g id="line2d_5">
      <path clip-path="url(#p9d053b48f9)" d="M 164.306263 252 
L 164.306263 34.56 
" style="fill:none;stroke:#b0b0b0;stroke-linecap:square;stroke-width:0.8;"/>
     </g>
     <g id="line2d_6">
      <g>
       <use style="stroke:#000000;stroke-width:0.8;" x="164.306263" xlink:href="#md12daae1b4" y="252"/>
      </g>
     </g>
     <g id="text_3">
      <!-- 0.95 -->
      <g transform="translate(153.17345 266.598437)scale(0.1 -0.1)">
       <use xlink:href="#DejaVuSans-30"/>
       <use x="63.623047" xlink:href="#DejaVuSans-2e"/>
       <use x="95.410156" xlink:href="#DejaVuSans-39"/>
       <use x="159.033203" xlink:href="#DejaVuSans-35"/>
      </g>
     </g>
    </g>
    <g id="xtick_4">
     <g id="line2d_7">
      <path clip-path="url(#p9d053b48f9)" d="M 204.619323 252 
L 204.619323 34.56 
" style="fill:none;stroke:#b0b0b0;stroke-linecap:square;stroke-width:0.8;"/>
     </g>
     <g id="line2d_8">
      <g>
       <use style="stroke:#000000;stroke-width:0.8;" x="204.619323" xlink:href="#md12daae1b4" y="252"/>
      </g>
     </g>
     <g id="text_4">
      <!-- 1.00 -->
      <defs>
       <path d="M 12.40625 8.296875 
L 28.515625 8.296875 
L 28.515625 63.921875 
L 10.984375 60.40625 
L 10.984375 69.390625 
L 28.421875 72.90625 
L 38.28125 72.90625 
L 38.28125 8.296875 
L 54.390625 8.296875 
L 54.390625 0 
L 12.40625 0 
z
" id="DejaVuSans-31"/>
      </defs>
      <g transform="translate(193.48651 266.598437)scale(0.1 -0.1)">
       <use xlink:href="#DejaVuSans-31"/>
       <use x="63.623047" xlink:href="#DejaVuSans-2e"/>
       <use x="95.410156" xlink:href="#DejaVuSans-30"/>
       <use x="159.033203" xlink:href="#DejaVuSans-30"/>
      </g>
     </g>
    </g>
    <g id="xtick_5">
     <g id="line2d_9">
      <path clip-path="url(#p9d053b48f9)" d="M 244.932382 252 
L 244.932382 34.56 
" style="fill:none;stroke:#b0b0b0;stroke-linecap:square;stroke-width:0.8;"/>
     </g>
     <g id="line2d_10">
      <g>
       <use style="stroke:#000000;stroke-width:0.8;" x="244.932382" xlink:href="#md12daae1b4" y="252"/>
      </g>
     </g>
     <g id="text_5">
      <!-- 1.05 -->
      <g transform="translate(233.79957 266.598437)scale(0.1 -0.1)">
       <use xlink:href="#DejaVuSans-31"/>
       <use x="63.623047" xlink:href="#DejaVuSans-2e"/>
       <use x="95.410156" xlink:href="#DejaVuSans-30"/>
       <use x="159.033203" xlink:href="#DejaVuSans-35"/>
      </g>
     </g>
    </g>
    <g id="xtick_6">
     <g id="line2d_11">
      <path clip-path="url(#p9d053b48f9)" d="M 285.245442 252 
L 285.245442 34.56 
" style="fill:none;stroke:#b0b0b0;stroke-linecap:square;stroke-width:0.8;"/>
     </g>
     <g id="line2d_12">
      <g>
       <use style="stroke:#000000;stroke-width:0.8;" x="285.245442" xlink:href="#md12daae1b4" y="252"/>
      </g>
     </g>
     <g id="text_6">
      <!-- 1.10 -->
      <g transform="translate(274.11263 266.598437)scale(0.1 -0.1)">
       <use xlink:href="#DejaVuSans-31"/>
       <use x="63.623047" xlink:href="#DejaVuSans-2e"/>
       <use x="95.410156" xlink:href="#DejaVuSans-31"/>
       <use x="159.033203" xlink:href="#DejaVuSans-30"/>
      </g>
     </g>
    </g>
    <g id="xtick_7">
     <g id="line2d_13">
      <path clip-path="url(#p9d053b48f9)" d="M 325.558502 252 
L 325.558502 34.56 
" style="fill:none;stroke:#b0b0b0;stroke-linecap:square;stroke-width:0.8;"/>
     </g>
     <g id="line2d_14">
      <g>
       <use style="stroke:#000000;stroke-width:0.8;" x="325.558502" xlink:href="#md12daae1b4" y="252"/>
      </g>
     </g>
     <g id="text_7">
      <!-- 1.15 -->
      <g transform="translate(314.425689 266.598437)scale(0.1 -0.1)">
       <use xlink:href="#DejaVuSans-31"/>
       <use x="63.623047" xlink:href="#DejaVuSans-2e"/>
       <use x="95.410156" xlink:href="#DejaVuSans-31"/>
       <use x="159.033203" xlink:href="#DejaVuSans-35"/>
      </g>
     </g>
    </g>
    <g id="xtick_8">
     <g id="line2d_15">
      <path clip-path="url(#p9d053b48f9)" d="M 365.871562 252 
L 365.871562 34.56 
" style="fill:none;stroke:#b0b0b0;stroke-linecap:square;stroke-width:0.8;"/>
     </g>
     <g id="line2d_16">
      <g>
       <use style="stroke:#000000;stroke-width:0.8;" x="365.871562" xlink:href="#md12daae1b4" y="252"/>
      </g>
     </g>
     <g id="text_8">
      <!-- 1.20 -->
      <defs>
       <path d="M 19.1875 8.296875 
L 53.609375 8.296875 
L 53.609375 0 
L 7.328125 0 
L 7.328125 8.296875 
Q 12.9375 14.109375 22.625 23.890625 
Q 32.328125 33.6875 34.8125 36.53125 
Q 39.546875 41.84375 41.421875 45.53125 
Q 43.3125 49.21875 43.3125 52.78125 
Q 43.3125 58.59375 39.234375 62.25 
Q 35.15625 65.921875 28.609375 65.921875 
Q 23.96875 65.921875 18.8125 64.3125 
Q 13.671875 62.703125 7.8125 59.421875 
L 7.8125 69.390625 
Q 13.765625 71.78125 18.9375 73 
Q 24.125 74.21875 28.421875 74.21875 
Q 39.75 74.21875 46.484375 68.546875 
Q 53.21875 62.890625 53.21875 53.421875 
Q 53.21875 48.921875 51.53125 44.890625 
Q 49.859375 40.875 45.40625 35.40625 
Q 44.1875 33.984375 37.640625 27.21875 
Q 31.109375 20.453125 19.1875 8.296875 
z
" id="DejaVuSans-32"/>
      </defs>
      <g transform="translate(354.738749 266.598437)scale(0.1 -0.1)">
       <use xlink:href="#DejaVuSans-31"/>
       <use x="63.623047" xlink:href="#DejaVuSans-2e"/>
       <use x="95.410156" xlink:href="#DejaVuSans-32"/>
       <use x="159.033203" xlink:href="#DejaVuSans-30"/>
      </g>
     </g>
    </g>
    <g id="text_9">
     <!-- Electric Cost($/day) -->
     <defs>
      <path d="M 9.8125 72.90625 
L 55.90625 72.90625 
L 55.90625 64.59375 
L 19.671875 64.59375 
L 19.671875 43.015625 
L 54.390625 43.015625 
L 54.390625 34.71875 
L 19.671875 34.71875 
L 19.671875 8.296875 
L 56.78125 8.296875 
L 56.78125 0 
L 9.8125 0 
z
" id="DejaVuSans-45"/>
      <path d="M 9.421875 75.984375 
L 18.40625 75.984375 
L 18.40625 0 
L 9.421875 0 
z
" id="DejaVuSans-6c"/>
      <path d="M 56.203125 29.59375 
L 56.203125 25.203125 
L 14.890625 25.203125 
Q 15.484375 15.921875 20.484375 11.0625 
Q 25.484375 6.203125 34.421875 6.203125 
Q 39.59375 6.203125 44.453125 7.46875 
Q 49.3125 8.734375 54.109375 11.28125 
L 54.109375 2.78125 
Q 49.265625 0.734375 44.1875 -0.34375 
Q 39.109375 -1.421875 33.890625 -1.421875 
Q 20.796875 -1.421875 13.15625 6.1875 
Q 5.515625 13.8125 5.515625 26.8125 
Q 5.515625 40.234375 12.765625 48.109375 
Q 20.015625 56 32.328125 56 
Q 43.359375 56 49.78125 48.890625 
Q 56.203125 41.796875 56.203125 29.59375 
z
M 47.21875 32.234375 
Q 47.125 39.59375 43.09375 43.984375 
Q 39.0625 48.390625 32.421875 48.390625 
Q 24.90625 48.390625 20.390625 44.140625 
Q 15.875 39.890625 15.1875 32.171875 
z
" id="DejaVuSans-65"/>
      <path d="M 48.78125 52.59375 
L 48.78125 44.1875 
Q 44.96875 46.296875 41.140625 47.34375 
Q 37.3125 48.390625 33.40625 48.390625 
Q 24.65625 48.390625 19.8125 42.84375 
Q 14.984375 37.3125 14.984375 27.296875 
Q 14.984375 17.28125 19.8125 11.734375 
Q 24.65625 6.203125 33.40625 6.203125 
Q 37.3125 6.203125 41.140625 7.25 
Q 44.96875 8.296875 48.78125 10.40625 
L 48.78125 2.09375 
Q 45.015625 0.34375 40.984375 -0.53125 
Q 36.96875 -1.421875 32.421875 -1.421875 
Q 20.0625 -1.421875 12.78125 6.34375 
Q 5.515625 14.109375 5.515625 27.296875 
Q 5.515625 40.671875 12.859375 48.328125 
Q 20.21875 56 33.015625 56 
Q 37.15625 56 41.109375 55.140625 
Q 45.0625 54.296875 48.78125 52.59375 
z
" id="DejaVuSans-63"/>
      <path d="M 18.3125 70.21875 
L 18.3125 54.6875 
L 36.8125 54.6875 
L 36.8125 47.703125 
L 18.3125 47.703125 
L 18.3125 18.015625 
Q 18.3125 11.328125 20.140625 9.421875 
Q 21.96875 7.515625 27.59375 7.515625 
L 36.8125 7.515625 
L 36.8125 0 
L 27.59375 0 
Q 17.1875 0 13.234375 3.875 
Q 9.28125 7.765625 9.28125 18.015625 
L 9.28125 47.703125 
L 2.6875 47.703125 
L 2.6875 54.6875 
L 9.28125 54.6875 
L 9.28125 70.21875 
z
" id="DejaVuSans-74"/>
      <path d="M 41.109375 46.296875 
Q 39.59375 47.171875 37.8125 47.578125 
Q 36.03125 48 33.890625 48 
Q 26.265625 48 22.1875 43.046875 
Q 18.109375 38.09375 18.109375 28.8125 
L 18.109375 0 
L 9.078125 0 
L 9.078125 54.6875 
L 18.109375 54.6875 
L 18.109375 46.1875 
Q 20.953125 51.171875 25.484375 53.578125 
Q 30.03125 56 36.53125 56 
Q 37.453125 56 38.578125 55.875 
Q 39.703125 55.765625 41.0625 55.515625 
z
" id="DejaVuSans-72"/>
      <path d="M 9.421875 54.6875 
L 18.40625 54.6875 
L 18.40625 0 
L 9.421875 0 
z
M 9.421875 75.984375 
L 18.40625 75.984375 
L 18.40625 64.59375 
L 9.421875 64.59375 
z
" id="DejaVuSans-69"/>
      <path id="DejaVuSans-20"/>
      <path d="M 64.40625 67.28125 
L 64.40625 56.890625 
Q 59.421875 61.53125 53.78125 63.8125 
Q 48.140625 66.109375 41.796875 66.109375 
Q 29.296875 66.109375 22.65625 58.46875 
Q 16.015625 50.828125 16.015625 36.375 
Q 16.015625 21.96875 22.65625 14.328125 
Q 29.296875 6.6875 41.796875 6.6875 
Q 48.140625 6.6875 53.78125 8.984375 
Q 59.421875 11.28125 64.40625 15.921875 
L 64.40625 5.609375 
Q 59.234375 2.09375 53.4375 0.328125 
Q 47.65625 -1.421875 41.21875 -1.421875 
Q 24.65625 -1.421875 15.125 8.703125 
Q 5.609375 18.84375 5.609375 36.375 
Q 5.609375 53.953125 15.125 64.078125 
Q 24.65625 74.21875 41.21875 74.21875 
Q 47.75 74.21875 53.53125 72.484375 
Q 59.328125 70.75 64.40625 67.28125 
z
" id="DejaVuSans-43"/>
      <path d="M 30.609375 48.390625 
Q 23.390625 48.390625 19.1875 42.75 
Q 14.984375 37.109375 14.984375 27.296875 
Q 14.984375 17.484375 19.15625 11.84375 
Q 23.34375 6.203125 30.609375 6.203125 
Q 37.796875 6.203125 41.984375 11.859375 
Q 46.1875 17.53125 46.1875 27.296875 
Q 46.1875 37.015625 41.984375 42.703125 
Q 37.796875 48.390625 30.609375 48.390625 
z
M 30.609375 56 
Q 42.328125 56 49.015625 48.375 
Q 55.71875 40.765625 55.71875 27.296875 
Q 55.71875 13.875 49.015625 6.21875 
Q 42.328125 -1.421875 30.609375 -1.421875 
Q 18.84375 -1.421875 12.171875 6.21875 
Q 5.515625 13.875 5.515625 27.296875 
Q 5.515625 40.765625 12.171875 48.375 
Q 18.84375 56 30.609375 56 
z
" id="DejaVuSans-6f"/>
      <path d="M 44.28125 53.078125 
L 44.28125 44.578125 
Q 40.484375 46.53125 36.375 47.5 
Q 32.28125 48.484375 27.875 48.484375 
Q 21.1875 48.484375 17.84375 46.4375 
Q 14.5 44.390625 14.5 40.28125 
Q 14.5 37.15625 16.890625 35.375 
Q 19.28125 33.59375 26.515625 31.984375 
L 29.59375 31.296875 
Q 39.15625 29.25 43.1875 25.515625 
Q 47.21875 21.78125 47.21875 15.09375 
Q 47.21875 7.46875 41.1875 3.015625 
Q 35.15625 -1.421875 24.609375 -1.421875 
Q 20.21875 -1.421875 15.453125 -0.5625 
Q 10.6875 0.296875 5.421875 2 
L 5.421875 11.28125 
Q 10.40625 8.6875 15.234375 7.390625 
Q 20.0625 6.109375 24.8125 6.109375 
Q 31.15625 6.109375 34.5625 8.28125 
Q 37.984375 10.453125 37.984375 14.40625 
Q 37.984375 18.0625 35.515625 20.015625 
Q 33.0625 21.96875 24.703125 23.78125 
L 21.578125 24.515625 
Q 13.234375 26.265625 9.515625 29.90625 
Q 5.8125 33.546875 5.8125 39.890625 
Q 5.8125 47.609375 11.28125 51.796875 
Q 16.75 56 26.8125 56 
Q 31.78125 56 36.171875 55.265625 
Q 40.578125 54.546875 44.28125 53.078125 
z
" id="DejaVuSans-73"/>
      <path d="M 31 75.875 
Q 24.46875 64.65625 21.28125 53.65625 
Q 18.109375 42.671875 18.109375 31.390625 
Q 18.109375 20.125 21.3125 9.0625 
Q 24.515625 -2 31 -13.1875 
L 23.1875 -13.1875 
Q 15.875 -1.703125 12.234375 9.375 
Q 8.59375 20.453125 8.59375 31.390625 
Q 8.59375 42.28125 12.203125 53.3125 
Q 15.828125 64.359375 23.1875 75.875 
z
" id="DejaVuSans-28"/>
      <path d="M 33.796875 -14.703125 
L 28.90625 -14.703125 
L 28.859375 0 
Q 23.734375 0.09375 18.609375 1.1875 
Q 13.484375 2.296875 8.296875 4.5 
L 8.296875 13.28125 
Q 13.28125 10.15625 18.375 8.5625 
Q 23.484375 6.984375 28.90625 6.9375 
L 28.90625 29.203125 
Q 18.109375 30.953125 13.203125 35.15625 
Q 8.296875 39.359375 8.296875 46.6875 
Q 8.296875 54.640625 13.625 59.21875 
Q 18.953125 63.8125 28.90625 64.5 
L 28.90625 75.984375 
L 33.796875 75.984375 
L 33.796875 64.65625 
Q 38.328125 64.453125 42.578125 63.6875 
Q 46.828125 62.9375 50.875 61.625 
L 50.875 53.078125 
Q 46.828125 55.125 42.546875 56.25 
Q 38.28125 57.375 33.796875 57.5625 
L 33.796875 36.71875 
Q 44.875 35.015625 50.09375 30.609375 
Q 55.328125 26.21875 55.328125 18.609375 
Q 55.328125 10.359375 49.78125 5.59375 
Q 44.234375 0.828125 33.796875 0.09375 
z
M 28.90625 37.59375 
L 28.90625 57.625 
Q 23.25 56.984375 20.265625 54.390625 
Q 17.28125 51.8125 17.28125 47.515625 
Q 17.28125 43.3125 20.03125 40.96875 
Q 22.796875 38.625 28.90625 37.59375 
z
M 33.796875 28.21875 
L 33.796875 7.078125 
Q 39.984375 7.90625 43.140625 10.59375 
Q 46.296875 13.28125 46.296875 17.671875 
Q 46.296875 21.96875 43.28125 24.5 
Q 40.28125 27.046875 33.796875 28.21875 
z
" id="DejaVuSans-24"/>
      <path d="M 25.390625 72.90625 
L 33.6875 72.90625 
L 8.296875 -9.28125 
L 0 -9.28125 
z
" id="DejaVuSans-2f"/>
      <path d="M 45.40625 46.390625 
L 45.40625 75.984375 
L 54.390625 75.984375 
L 54.390625 0 
L 45.40625 0 
L 45.40625 8.203125 
Q 42.578125 3.328125 38.25 0.953125 
Q 33.9375 -1.421875 27.875 -1.421875 
Q 17.96875 -1.421875 11.734375 6.484375 
Q 5.515625 14.40625 5.515625 27.296875 
Q 5.515625 40.1875 11.734375 48.09375 
Q 17.96875 56 27.875 56 
Q 33.9375 56 38.25 53.625 
Q 42.578125 51.265625 45.40625 46.390625 
z
M 14.796875 27.296875 
Q 14.796875 17.390625 18.875 11.75 
Q 22.953125 6.109375 30.078125 6.109375 
Q 37.203125 6.109375 41.296875 11.75 
Q 45.40625 17.390625 45.40625 27.296875 
Q 45.40625 37.203125 41.296875 42.84375 
Q 37.203125 48.484375 30.078125 48.484375 
Q 22.953125 48.484375 18.875 42.84375 
Q 14.796875 37.203125 14.796875 27.296875 
z
" id="DejaVuSans-64"/>
      <path d="M 34.28125 27.484375 
Q 23.390625 27.484375 19.1875 25 
Q 14.984375 22.515625 14.984375 16.5 
Q 14.984375 11.71875 18.140625 8.90625 
Q 21.296875 6.109375 26.703125 6.109375 
Q 34.1875 6.109375 38.703125 11.40625 
Q 43.21875 16.703125 43.21875 25.484375 
L 43.21875 27.484375 
z
M 52.203125 31.203125 
L 52.203125 0 
L 43.21875 0 
L 43.21875 8.296875 
Q 40.140625 3.328125 35.546875 0.953125 
Q 30.953125 -1.421875 24.3125 -1.421875 
Q 15.921875 -1.421875 10.953125 3.296875 
Q 6 8.015625 6 15.921875 
Q 6 25.140625 12.171875 29.828125 
Q 18.359375 34.515625 30.609375 34.515625 
L 43.21875 34.515625 
L 43.21875 35.40625 
Q 43.21875 41.609375 39.140625 45 
Q 35.0625 48.390625 27.6875 48.390625 
Q 23 48.390625 18.546875 47.265625 
Q 14.109375 46.140625 10.015625 43.890625 
L 10.015625 52.203125 
Q 14.9375 54.109375 19.578125 55.046875 
Q 24.21875 56 28.609375 56 
Q 40.484375 56 46.34375 49.84375 
Q 52.203125 43.703125 52.203125 31.203125 
z
" id="DejaVuSans-61"/>
      <path d="M 32.171875 -5.078125 
Q 28.375 -14.84375 24.75 -17.8125 
Q 21.140625 -20.796875 15.09375 -20.796875 
L 7.90625 -20.796875 
L 7.90625 -13.28125 
L 13.1875 -13.28125 
Q 16.890625 -13.28125 18.9375 -11.515625 
Q 21 -9.765625 23.484375 -3.21875 
L 25.09375 0.875 
L 2.984375 54.6875 
L 12.5 54.6875 
L 29.59375 11.921875 
L 46.6875 54.6875 
L 56.203125 54.6875 
z
" id="DejaVuSans-79"/>
      <path d="M 8.015625 75.875 
L 15.828125 75.875 
Q 23.140625 64.359375 26.78125 53.3125 
Q 30.421875 42.28125 30.421875 31.390625 
Q 30.421875 20.453125 26.78125 9.375 
Q 23.140625 -1.703125 15.828125 -13.1875 
L 8.015625 -13.1875 
Q 14.5 -2 17.703125 9.0625 
Q 20.90625 20.125 20.90625 31.390625 
Q 20.90625 42.671875 17.703125 53.65625 
Q 14.5 64.65625 8.015625 75.875 
z
" id="DejaVuSans-29"/>
     </defs>
     <g transform="translate(172.202344 280.276563)scale(0.1 -0.1)">
      <use xlink:href="#DejaVuSans-45"/>
      <use x="63.183594" xlink:href="#DejaVuSans-6c"/>
      <use x="90.966797" xlink:href="#DejaVuSans-65"/>
      <use x="152.490234" xlink:href="#DejaVuSans-63"/>
      <use x="207.470703" xlink:href="#DejaVuSans-74"/>
      <use x="246.679688" xlink:href="#DejaVuSans-72"/>
      <use x="287.792969" xlink:href="#DejaVuSans-69"/>
      <use x="315.576172" xlink:href="#DejaVuSans-63"/>
      <use x="370.556641" xlink:href="#DejaVuSans-20"/>
      <use x="402.34375" xlink:href="#DejaVuSans-43"/>
      <use x="472.167969" xlink:href="#DejaVuSans-6f"/>
      <use x="533.349609" xlink:href="#DejaVuSans-73"/>
      <use x="585.449219" xlink:href="#DejaVuSans-74"/>
      <use x="624.658203" xlink:href="#DejaVuSans-28"/>
      <use x="663.671875" xlink:href="#DejaVuSans-24"/>
      <use x="727.294922" xlink:href="#DejaVuSans-2f"/>
      <use x="760.986328" xlink:href="#DejaVuSans-64"/>
      <use x="824.462891" xlink:href="#DejaVuSans-61"/>
      <use x="885.742188" xlink:href="#DejaVuSans-79"/>
      <use x="944.921875" xlink:href="#DejaVuSans-29"/>
     </g>
    </g>
   </g>
   <g id="matplotlib.axis_2">
    <g id="ytick_1">
     <g id="line2d_17">
      <path clip-path="url(#p9d053b48f9)" d="M 54 239.442351 
L 388.8 239.442351 
" style="fill:none;stroke:#b0b0b0;stroke-linecap:square;stroke-width:0.8;"/>
     </g>
     <g id="line2d_18">
      <defs>
       <path d="M 0 0 
L -3.5 0 
" id="m000dd31ecd" style="stroke:#000000;stroke-width:0.8;"/>
      </defs>
      <g>
       <use style="stroke:#000000;stroke-width:0.8;" x="54" xlink:href="#m000dd31ecd" y="239.442351"/>
      </g>
     </g>
     <g id="text_10">
      <!-- 0.0 -->
      <g transform="translate(31.096875 243.24157)scale(0.1 -0.1)">
       <use xlink:href="#DejaVuSans-30"/>
       <use x="63.623047" xlink:href="#DejaVuSans-2e"/>
       <use x="95.410156" xlink:href="#DejaVuSans-30"/>
      </g>
     </g>
    </g>
    <g id="ytick_2">
     <g id="line2d_19">
      <path clip-path="url(#p9d053b48f9)" d="M 54 196.17905 
L 388.8 196.17905 
" style="fill:none;stroke:#b0b0b0;stroke-linecap:square;stroke-width:0.8;"/>
     </g>
     <g id="line2d_20">
      <g>
       <use style="stroke:#000000;stroke-width:0.8;" x="54" xlink:href="#m000dd31ecd" y="196.17905"/>
      </g>
     </g>
     <g id="text_11">
      <!-- 0.5 -->
      <g transform="translate(31.096875 199.978269)scale(0.1 -0.1)">
       <use xlink:href="#DejaVuSans-30"/>
       <use x="63.623047" xlink:href="#DejaVuSans-2e"/>
       <use x="95.410156" xlink:href="#DejaVuSans-35"/>
      </g>
     </g>
    </g>
    <g id="ytick_3">
     <g id="line2d_21">
      <path clip-path="url(#p9d053b48f9)" d="M 54 152.915749 
L 388.8 152.915749 
" style="fill:none;stroke:#b0b0b0;stroke-linecap:square;stroke-width:0.8;"/>
     </g>
     <g id="line2d_22">
      <g>
       <use style="stroke:#000000;stroke-width:0.8;" x="54" xlink:href="#m000dd31ecd" y="152.915749"/>
      </g>
     </g>
     <g id="text_12">
      <!-- 1.0 -->
      <g transform="translate(31.096875 156.714968)scale(0.1 -0.1)">
       <use xlink:href="#DejaVuSans-31"/>
       <use x="63.623047" xlink:href="#DejaVuSans-2e"/>
       <use x="95.410156" xlink:href="#DejaVuSans-30"/>
      </g>
     </g>
    </g>
    <g id="ytick_4">
     <g id="line2d_23">
      <path clip-path="url(#p9d053b48f9)" d="M 54 109.652448 
L 388.8 109.652448 
" style="fill:none;stroke:#b0b0b0;stroke-linecap:square;stroke-width:0.8;"/>
     </g>
     <g id="line2d_24">
      <g>
       <use style="stroke:#000000;stroke-width:0.8;" x="54" xlink:href="#m000dd31ecd" y="109.652448"/>
      </g>
     </g>
     <g id="text_13">
      <!-- 1.5 -->
      <g transform="translate(31.096875 113.451667)scale(0.1 -0.1)">
       <use xlink:href="#DejaVuSans-31"/>
       <use x="63.623047" xlink:href="#DejaVuSans-2e"/>
       <use x="95.410156" xlink:href="#DejaVuSans-35"/>
      </g>
     </g>
    </g>
    <g id="ytick_5">
     <g id="line2d_25">
      <path clip-path="url(#p9d053b48f9)" d="M 54 66.389147 
L 388.8 66.389147 
" style="fill:none;stroke:#b0b0b0;stroke-linecap:square;stroke-width:0.8;"/>
     </g>
     <g id="line2d_26">
      <g>
       <use style="stroke:#000000;stroke-width:0.8;" x="54" xlink:href="#m000dd31ecd" y="66.389147"/>
      </g>
     </g>
     <g id="text_14">
      <!-- 2.0 -->
      <g transform="translate(31.096875 70.188365)scale(0.1 -0.1)">
       <use xlink:href="#DejaVuSans-32"/>
       <use x="63.623047" xlink:href="#DejaVuSans-2e"/>
       <use x="95.410156" xlink:href="#DejaVuSans-30"/>
      </g>
     </g>
    </g>
    <g id="text_15">
     <!-- Underheated Water(kWh/day) -->
     <defs>
      <path d="M 8.6875 72.90625 
L 18.609375 72.90625 
L 18.609375 28.609375 
Q 18.609375 16.890625 22.84375 11.734375 
Q 27.09375 6.59375 36.625 6.59375 
Q 46.09375 6.59375 50.34375 11.734375 
Q 54.59375 16.890625 54.59375 28.609375 
L 54.59375 72.90625 
L 64.5 72.90625 
L 64.5 27.390625 
Q 64.5 13.140625 57.4375 5.859375 
Q 50.390625 -1.421875 36.625 -1.421875 
Q 22.796875 -1.421875 15.734375 5.859375 
Q 8.6875 13.140625 8.6875 27.390625 
z
" id="DejaVuSans-55"/>
      <path d="M 54.890625 33.015625 
L 54.890625 0 
L 45.90625 0 
L 45.90625 32.71875 
Q 45.90625 40.484375 42.875 44.328125 
Q 39.84375 48.1875 33.796875 48.1875 
Q 26.515625 48.1875 22.3125 43.546875 
Q 18.109375 38.921875 18.109375 30.90625 
L 18.109375 0 
L 9.078125 0 
L 9.078125 54.6875 
L 18.109375 54.6875 
L 18.109375 46.1875 
Q 21.34375 51.125 25.703125 53.5625 
Q 30.078125 56 35.796875 56 
Q 45.21875 56 50.046875 50.171875 
Q 54.890625 44.34375 54.890625 33.015625 
z
" id="DejaVuSans-6e"/>
      <path d="M 54.890625 33.015625 
L 54.890625 0 
L 45.90625 0 
L 45.90625 32.71875 
Q 45.90625 40.484375 42.875 44.328125 
Q 39.84375 48.1875 33.796875 48.1875 
Q 26.515625 48.1875 22.3125 43.546875 
Q 18.109375 38.921875 18.109375 30.90625 
L 18.109375 0 
L 9.078125 0 
L 9.078125 75.984375 
L 18.109375 75.984375 
L 18.109375 46.1875 
Q 21.34375 51.125 25.703125 53.5625 
Q 30.078125 56 35.796875 56 
Q 45.21875 56 50.046875 50.171875 
Q 54.890625 44.34375 54.890625 33.015625 
z
" id="DejaVuSans-68"/>
      <path d="M 3.328125 72.90625 
L 13.28125 72.90625 
L 28.609375 11.28125 
L 43.890625 72.90625 
L 54.984375 72.90625 
L 70.3125 11.28125 
L 85.59375 72.90625 
L 95.609375 72.90625 
L 77.296875 0 
L 64.890625 0 
L 49.515625 63.28125 
L 33.984375 0 
L 21.578125 0 
z
" id="DejaVuSans-57"/>
      <path d="M 9.078125 75.984375 
L 18.109375 75.984375 
L 18.109375 31.109375 
L 44.921875 54.6875 
L 56.390625 54.6875 
L 27.390625 29.109375 
L 57.625 0 
L 45.90625 0 
L 18.109375 26.703125 
L 18.109375 0 
L 9.078125 0 
z
" id="DejaVuSans-6b"/>
     </defs>
     <g transform="translate(25.017187 218.409688)rotate(-90)scale(0.1 -0.1)">
      <use xlink:href="#DejaVuSans-55"/>
      <use x="73.193359" xlink:href="#DejaVuSans-6e"/>
      <use x="136.572266" xlink:href="#DejaVuSans-64"/>
      <use x="200.048828" xlink:href="#DejaVuSans-65"/>
      <use x="261.572266" xlink:href="#DejaVuSans-72"/>
      <use x="302.669922" xlink:href="#DejaVuSans-68"/>
      <use x="366.048828" xlink:href="#DejaVuSans-65"/>
      <use x="427.572266" xlink:href="#DejaVuSans-61"/>
      <use x="488.851562" xlink:href="#DejaVuSans-74"/>
      <use x="528.060547" xlink:href="#DejaVuSans-65"/>
      <use x="589.583984" xlink:href="#DejaVuSans-64"/>
      <use x="653.060547" xlink:href="#DejaVuSans-20"/>
      <use x="684.847656" xlink:href="#DejaVuSans-57"/>
      <use x="783.630859" xlink:href="#DejaVuSans-61"/>
      <use x="844.910156" xlink:href="#DejaVuSans-74"/>
      <use x="884.119141" xlink:href="#DejaVuSans-65"/>
      <use x="945.642578" xlink:href="#DejaVuSans-72"/>
      <use x="986.755859" xlink:href="#DejaVuSans-28"/>
      <use x="1025.769531" xlink:href="#DejaVuSans-6b"/>
      <use x="1083.679688" xlink:href="#DejaVuSans-57"/>
      <use x="1182.556641" xlink:href="#DejaVuSans-68"/>
      <use x="1245.935547" xlink:href="#DejaVuSans-2f"/>
      <use x="1279.626953" xlink:href="#DejaVuSans-64"/>
      <use x="1343.103516" xlink:href="#DejaVuSans-61"/>
      <use x="1404.382812" xlink:href="#DejaVuSans-79"/>
      <use x="1463.5625" xlink:href="#DejaVuSans-29"/>
     </g>
    </g>
   </g>
   <g id="line2d_27">
    <path clip-path="url(#p9d053b48f9)" d="M 132.752172 77.715469 
L 159.451797 107.330274 
L 168.361367 116.059095 
L 196.112995 141.864946 
L 215.563693 160.801449 
L 245.213775 182.830777 
L 256.800197 190.993176 
L 324.456752 223.640279 
L 337.190809 227.64134 
L 359.103641 232.124264 
" style="fill:none;opacity:0.8;stroke:#a52a2a;stroke-dasharray:5.55,2.4;stroke-dashoffset:0;stroke-width:1.5;"/>
   </g>
   <g id="line2d_28">
    <path clip-path="url(#p9d053b48f9)" d="M 151.484627 74.225232 
L 184.773413 99.012794 
L 195.225938 109.937253 
L 214.747059 127.547269 
L 229.60923 141.840158 
L 249.913925 158.706831 
L 263.639029 166.569379 
L 312.159361 192.443232 
L 328.789116 196.188292 
L 349.669161 203.660657 
" style="fill:none;stroke:#a52a2a;stroke-linecap:square;stroke-width:1.5;"/>
   </g>
   <g id="line2d_29">
    <path clip-path="url(#p9d053b48f9)" d="M 102.40718 46.06984 
L 136.124503 84.529726 
L 145.886396 95.595786 
L 176.907383 128.015866 
L 206.618656 156.135006 
L 240.655214 180.79704 
L 254.676804 189.255496 
L 323.821918 222.431019 
L 340.499668 225.803916 
L 371.912105 231.523189 
" style="fill:none;opacity:0.8;stroke:#808080;stroke-dasharray:5.55,2.4;stroke-dashoffset:0;stroke-width:1.5;"/>
   </g>
   <g id="line2d_30">
    <path clip-path="url(#p9d053b48f9)" d="M 113.25745 58.166467 
L 136.33853 88.641905 
L 144.750701 99.741126 
L 178.10897 128.597575 
L 201.250039 153.393147 
L 234.9453 176.094742 
L 246.914106 184.881859 
L 323.05372 207.978003 
L 321.24977 212.889706 
L 358.145413 217.410245 
" style="fill:none;stroke:#808080;stroke-linecap:square;stroke-width:1.5;"/>
   </g>
   <g id="line2d_31">
    <path clip-path="url(#p9d053b48f9)" d="M 74.313151 50.936495 
L 95.700433 72.072538 
L 108.217501 91.05176 
L 135.865855 122.037894 
L 170.942849 152.909105 
L 205.167299 180.714593 
L 217.802797 188.103687 
L 293.306523 222.617879 
L 299.414015 226.282092 
L 338.389444 232.508657 
" style="fill:none;opacity:0.8;stroke:#008000;stroke-dasharray:5.55,2.4;stroke-dashoffset:0;stroke-width:1.5;"/>
   </g>
   <g id="line2d_32">
    <path clip-path="url(#p9d053b48f9)" d="M 70.745991 57.746564 
L 90.430813 83.560539 
L 103.106836 97.383737 
L 127.580242 124.194018 
L 158.595212 153.657043 
L 190.654075 176.664785 
L 206.439985 186.540912 
L 277.905891 215.013685 
L 296.706631 217.552783 
L 309.788196 222.591439 
" style="fill:none;stroke:#008000;stroke-linecap:square;stroke-width:1.5;"/>
   </g>
   <g id="line2d_33">
    <path clip-path="url(#p9d053b48f9)" d="M 160.207847 63.9621 
L 171.525549 75.501477 
L 180.723676 83.598366 
L 189.153681 93.223834 
L 188.253477 95.998409 
L 198.534741 106.457362 
L 195.459404 106.726038 
L 233.394469 130.188213 
L 248.960854 137.365837 
L 269.32863 148.898679 
" style="fill:none;stroke:#000000;stroke-linecap:square;stroke-width:1.5;"/>
   </g>
   <g id="line2d_34">
    <path clip-path="url(#p9d053b48f9)" d="M 101.57723 160.745647 
L 117.401275 177.079446 
L 126.192455 185.344217 
L 138.837399 198.03786 
L 147.080982 204.557009 
L 161.249274 215.210996 
L 168.574635 219.607695 
L 205.661432 235.731941 
L 212.266559 237.565999 
L 221.904859 239.180546 
" style="fill:none;stroke:#000000;stroke-dasharray:5.55,2.4;stroke-dashoffset:0;stroke-width:1.5;"/>
   </g>
   <g id="patch_3">
    <path d="M 54 252 
L 54 34.56 
" style="fill:none;stroke:#000000;stroke-linecap:square;stroke-linejoin:miter;stroke-width:0.8;"/>
   </g>
   <g id="patch_4">
    <path d="M 388.8 252 
L 388.8 34.56 
" style="fill:none;stroke:#000000;stroke-linecap:square;stroke-linejoin:miter;stroke-width:0.8;"/>
   </g>
   <g id="patch_5">
    <path d="M 54 252 
L 388.8 252 
" style="fill:none;stroke:#000000;stroke-linecap:square;stroke-linejoin:miter;stroke-width:0.8;"/>
   </g>
   <g id="patch_6">
    <path d="M 54 34.56 
L 388.8 34.56 
" style="fill:none;stroke:#000000;stroke-linecap:square;stroke-linejoin:miter;stroke-width:0.8;"/>
   </g>
   <g id="legend_1">
    <g id="patch_7">
     <path d="M 300.90625 159.985 
L 381.8 159.985 
Q 383.8 159.985 383.8 157.985 
L 383.8 41.56 
Q 383.8 39.56 381.8 39.56 
L 300.90625 39.56 
Q 298.90625 39.56 298.90625 41.56 
L 298.90625 157.985 
Q 298.90625 159.985 300.90625 159.985 
z
" style="fill:#ffffff;opacity:0.8;stroke:#cccccc;stroke-linejoin:miter;"/>
    </g>
    <g id="PathCollection_9">
     <path d="M 313.337552 45.747894 
Q 314.136835 45.747894 314.51318 46.596162 
Q 314.562164 46.78971 314.572917 46.99879 
Q 314.572917 47.436066 314.124888 48.033437 
L 313.901471 48.256854 
L 313.912224 48.256854 
Q 314.188209 48.152912 314.502427 48.152912 
L 314.572917 48.152912 
Q 315.461806 48.152912 315.820228 48.906795 
Q 315.90625 49.152912 315.90625 49.377524 
Q 315.90625 50.143354 315.126083 50.531645 
Q 314.97674 50.575851 314.711507 50.598551 
Q 313.808281 50.598551 313.430742 49.575851 
L 313.41999 49.575851 
L 313.41999 49.609304 
Q 313.41999 50.890068 313.725844 51.296281 
L 313.725844 51.318981 
L 312.949261 51.318981 
L 312.926561 51.296281 
Q 313.244362 50.818384 313.244362 49.575851 
L 313.244362 49.563903 
L 313.232415 49.563903 
Q 312.859655 50.598551 311.944482 50.598551 
Q 311.23122 50.598551 310.851292 49.848252 
Q 310.758102 49.593772 310.758102 49.377524 
Q 310.758102 48.507751 311.675665 48.197117 
Q 311.922976 48.152912 312.112941 48.152912 
L 312.146393 48.152912 
Q 312.467779 48.152912 312.759297 48.256854 
L 312.770049 48.256854 
L 312.770049 48.246102 
Q 312.455832 47.980869 312.348305 47.723999 
Q 312.123693 47.313007 312.123693 47.010737 
L 312.123693 46.958169 
Q 312.123693 46.20787 312.926561 45.819578 
Q 313.191794 45.747894 313.337552 45.747894 
z
" style="fill:none;stroke:#a52a2a;"/>
    </g>
    <g id="text_16">
     <!-- Exp(10) -->
     <defs>
      <path d="M 54.890625 54.6875 
L 35.109375 28.078125 
L 55.90625 0 
L 45.3125 0 
L 29.390625 21.484375 
L 13.484375 0 
L 2.875 0 
L 24.125 28.609375 
L 4.6875 54.6875 
L 15.28125 54.6875 
L 29.78125 35.203125 
L 44.28125 54.6875 
z
" id="DejaVuSans-78"/>
      <path d="M 18.109375 8.203125 
L 18.109375 -20.796875 
L 9.078125 -20.796875 
L 9.078125 54.6875 
L 18.109375 54.6875 
L 18.109375 46.390625 
Q 20.953125 51.265625 25.265625 53.625 
Q 29.59375 56 35.59375 56 
Q 45.5625 56 51.78125 48.09375 
Q 58.015625 40.1875 58.015625 27.296875 
Q 58.015625 14.40625 51.78125 6.484375 
Q 45.5625 -1.421875 35.59375 -1.421875 
Q 29.59375 -1.421875 25.265625 0.953125 
Q 20.953125 3.328125 18.109375 8.203125 
z
M 48.6875 27.296875 
Q 48.6875 37.203125 44.609375 42.84375 
Q 40.53125 48.484375 33.40625 48.484375 
Q 26.265625 48.484375 22.1875 42.84375 
Q 18.109375 37.203125 18.109375 27.296875 
Q 18.109375 17.390625 22.1875 11.75 
Q 26.265625 6.109375 33.40625 6.109375 
Q 40.53125 6.109375 44.609375 11.75 
Q 48.6875 17.390625 48.6875 27.296875 
z
" id="DejaVuSans-70"/>
     </defs>
     <g transform="translate(330.90625 51.158437)scale(0.1 -0.1)">
      <use xlink:href="#DejaVuSans-45"/>
      <use x="63.183594" xlink:href="#DejaVuSans-78"/>
      <use x="122.363281" xlink:href="#DejaVuSans-70"/>
      <use x="185.839844" xlink:href="#DejaVuSans-28"/>
      <use x="224.853516" xlink:href="#DejaVuSans-31"/>
      <use x="288.476562" xlink:href="#DejaVuSans-30"/>
      <use x="352.099609" xlink:href="#DejaVuSans-29"/>
     </g>
    </g>
    <g id="PathCollection_10">
     <g>
      <use style="fill:#a52a2a;stroke:#a52a2a;" x="312.90625" xlink:href="#m7c89753761" y="63.211563"/>
     </g>
    </g>
    <g id="text_17">
     <!-- Act(10) -->
     <defs>
      <path d="M 34.1875 63.1875 
L 20.796875 26.90625 
L 47.609375 26.90625 
z
M 28.609375 72.90625 
L 39.796875 72.90625 
L 67.578125 0 
L 57.328125 0 
L 50.6875 18.703125 
L 17.828125 18.703125 
L 11.1875 0 
L 0.78125 0 
z
" id="DejaVuSans-41"/>
     </defs>
     <g transform="translate(330.90625 65.836563)scale(0.1 -0.1)">
      <use xlink:href="#DejaVuSans-41"/>
      <use x="68.392578" xlink:href="#DejaVuSans-63"/>
      <use x="123.373047" xlink:href="#DejaVuSans-74"/>
      <use x="162.582031" xlink:href="#DejaVuSans-28"/>
      <use x="201.595703" xlink:href="#DejaVuSans-31"/>
      <use x="265.21875" xlink:href="#DejaVuSans-30"/>
      <use x="328.841797" xlink:href="#DejaVuSans-29"/>
     </g>
    </g>
    <g id="PathCollection_11">
     <path d="M 313.337552 75.104144 
Q 314.136835 75.104144 314.51318 75.952412 
Q 314.562164 76.14596 314.572917 76.35504 
Q 314.572917 76.792316 314.124888 77.389687 
L 313.901471 77.613104 
L 313.912224 77.613104 
Q 314.188209 77.509162 314.502427 77.509162 
L 314.572917 77.509162 
Q 315.461806 77.509162 315.820228 78.263045 
Q 315.90625 78.509162 315.90625 78.733774 
Q 315.90625 79.499604 315.126083 79.887895 
Q 314.97674 79.932101 314.711507 79.954801 
Q 313.808281 79.954801 313.430742 78.932101 
L 313.41999 78.932101 
L 313.41999 78.965554 
Q 313.41999 80.246318 313.725844 80.652531 
L 313.725844 80.675231 
L 312.949261 80.675231 
L 312.926561 80.652531 
Q 313.244362 80.174634 313.244362 78.932101 
L 313.244362 78.920153 
L 313.232415 78.920153 
Q 312.859655 79.954801 311.944482 79.954801 
Q 311.23122 79.954801 310.851292 79.204502 
Q 310.758102 78.950022 310.758102 78.733774 
Q 310.758102 77.864001 311.675665 77.553367 
Q 311.922976 77.509162 312.112941 77.509162 
L 312.146393 77.509162 
Q 312.467779 77.509162 312.759297 77.613104 
L 312.770049 77.613104 
L 312.770049 77.602352 
Q 312.455832 77.337119 312.348305 77.080249 
Q 312.123693 76.669257 312.123693 76.366987 
L 312.123693 76.314419 
Q 312.123693 75.56412 312.926561 75.175828 
Q 313.191794 75.104144 313.337552 75.104144 
z
" style="fill:none;stroke:#808080;"/>
    </g>
    <g id="text_18">
     <!-- Exp(30) -->
     <defs>
      <path d="M 40.578125 39.3125 
Q 47.65625 37.796875 51.625 33 
Q 55.609375 28.21875 55.609375 21.1875 
Q 55.609375 10.40625 48.1875 4.484375 
Q 40.765625 -1.421875 27.09375 -1.421875 
Q 22.515625 -1.421875 17.65625 -0.515625 
Q 12.796875 0.390625 7.625 2.203125 
L 7.625 11.71875 
Q 11.71875 9.328125 16.59375 8.109375 
Q 21.484375 6.890625 26.8125 6.890625 
Q 36.078125 6.890625 40.9375 10.546875 
Q 45.796875 14.203125 45.796875 21.1875 
Q 45.796875 27.640625 41.28125 31.265625 
Q 36.765625 34.90625 28.71875 34.90625 
L 20.21875 34.90625 
L 20.21875 43.015625 
L 29.109375 43.015625 
Q 36.375 43.015625 40.234375 45.921875 
Q 44.09375 48.828125 44.09375 54.296875 
Q 44.09375 59.90625 40.109375 62.90625 
Q 36.140625 65.921875 28.71875 65.921875 
Q 24.65625 65.921875 20.015625 65.03125 
Q 15.375 64.15625 9.8125 62.3125 
L 9.8125 71.09375 
Q 15.4375 72.65625 20.34375 73.4375 
Q 25.25 74.21875 29.59375 74.21875 
Q 40.828125 74.21875 47.359375 69.109375 
Q 53.90625 64.015625 53.90625 55.328125 
Q 53.90625 49.265625 50.4375 45.09375 
Q 46.96875 40.921875 40.578125 39.3125 
z
" id="DejaVuSans-33"/>
     </defs>
     <g transform="translate(330.90625 80.514687)scale(0.1 -0.1)">
      <use xlink:href="#DejaVuSans-45"/>
      <use x="63.183594" xlink:href="#DejaVuSans-78"/>
      <use x="122.363281" xlink:href="#DejaVuSans-70"/>
      <use x="185.839844" xlink:href="#DejaVuSans-28"/>
      <use x="224.853516" xlink:href="#DejaVuSans-33"/>
      <use x="288.476562" xlink:href="#DejaVuSans-30"/>
      <use x="352.099609" xlink:href="#DejaVuSans-29"/>
     </g>
    </g>
    <g id="PathCollection_12">
     <g>
      <use style="fill:#808080;stroke:#808080;" x="312.90625" xlink:href="#me359d0b728" y="92.567813"/>
     </g>
    </g>
    <g id="text_19">
     <!-- Act(30) -->
     <g transform="translate(330.90625 95.192813)scale(0.1 -0.1)">
      <use xlink:href="#DejaVuSans-41"/>
      <use x="68.392578" xlink:href="#DejaVuSans-63"/>
      <use x="123.373047" xlink:href="#DejaVuSans-74"/>
      <use x="162.582031" xlink:href="#DejaVuSans-28"/>
      <use x="201.595703" xlink:href="#DejaVuSans-33"/>
      <use x="265.21875" xlink:href="#DejaVuSans-30"/>
      <use x="328.841797" xlink:href="#DejaVuSans-29"/>
     </g>
    </g>
    <g id="PathCollection_13">
     <path d="M 313.337552 104.460394 
Q 314.136835 104.460394 314.51318 105.308662 
Q 314.562164 105.50221 314.572917 105.71129 
Q 314.572917 106.148566 314.124888 106.745937 
L 313.901471 106.969354 
L 313.912224 106.969354 
Q 314.188209 106.865412 314.502427 106.865412 
L 314.572917 106.865412 
Q 315.461806 106.865412 315.820228 107.619295 
Q 315.90625 107.865412 315.90625 108.090024 
Q 315.90625 108.855854 315.126083 109.244145 
Q 314.97674 109.288351 314.711507 109.311051 
Q 313.808281 109.311051 313.430742 108.288351 
L 313.41999 108.288351 
L 313.41999 108.321804 
Q 313.41999 109.602568 313.725844 110.008781 
L 313.725844 110.031481 
L 312.949261 110.031481 
L 312.926561 110.008781 
Q 313.244362 109.530884 313.244362 108.288351 
L 313.244362 108.276403 
L 313.232415 108.276403 
Q 312.859655 109.311051 311.944482 109.311051 
Q 311.23122 109.311051 310.851292 108.560752 
Q 310.758102 108.306272 310.758102 108.090024 
Q 310.758102 107.220251 311.675665 106.909617 
Q 311.922976 106.865412 312.112941 106.865412 
L 312.146393 106.865412 
Q 312.467779 106.865412 312.759297 106.969354 
L 312.770049 106.969354 
L 312.770049 106.958602 
Q 312.455832 106.693369 312.348305 106.436499 
Q 312.123693 106.025507 312.123693 105.723237 
L 312.123693 105.670669 
Q 312.123693 104.92037 312.926561 104.532078 
Q 313.191794 104.460394 313.337552 104.460394 
z
" style="fill:none;stroke:#008000;"/>
    </g>
    <g id="text_20">
     <!-- Exp(60) -->
     <defs>
      <path d="M 33.015625 40.375 
Q 26.375 40.375 22.484375 35.828125 
Q 18.609375 31.296875 18.609375 23.390625 
Q 18.609375 15.53125 22.484375 10.953125 
Q 26.375 6.390625 33.015625 6.390625 
Q 39.65625 6.390625 43.53125 10.953125 
Q 47.40625 15.53125 47.40625 23.390625 
Q 47.40625 31.296875 43.53125 35.828125 
Q 39.65625 40.375 33.015625 40.375 
z
M 52.59375 71.296875 
L 52.59375 62.3125 
Q 48.875 64.0625 45.09375 64.984375 
Q 41.3125 65.921875 37.59375 65.921875 
Q 27.828125 65.921875 22.671875 59.328125 
Q 17.53125 52.734375 16.796875 39.40625 
Q 19.671875 43.65625 24.015625 45.921875 
Q 28.375 48.1875 33.59375 48.1875 
Q 44.578125 48.1875 50.953125 41.515625 
Q 57.328125 34.859375 57.328125 23.390625 
Q 57.328125 12.15625 50.6875 5.359375 
Q 44.046875 -1.421875 33.015625 -1.421875 
Q 20.359375 -1.421875 13.671875 8.265625 
Q 6.984375 17.96875 6.984375 36.375 
Q 6.984375 53.65625 15.1875 63.9375 
Q 23.390625 74.21875 37.203125 74.21875 
Q 40.921875 74.21875 44.703125 73.484375 
Q 48.484375 72.75 52.59375 71.296875 
z
" id="DejaVuSans-36"/>
     </defs>
     <g transform="translate(330.90625 109.870937)scale(0.1 -0.1)">
      <use xlink:href="#DejaVuSans-45"/>
      <use x="63.183594" xlink:href="#DejaVuSans-78"/>
      <use x="122.363281" xlink:href="#DejaVuSans-70"/>
      <use x="185.839844" xlink:href="#DejaVuSans-28"/>
      <use x="224.853516" xlink:href="#DejaVuSans-36"/>
      <use x="288.476562" xlink:href="#DejaVuSans-30"/>
      <use x="352.099609" xlink:href="#DejaVuSans-29"/>
     </g>
    </g>
    <g id="PathCollection_14">
     <g>
      <use style="fill:#008000;stroke:#008000;" x="312.90625" xlink:href="#me8a8ac92de" y="121.924062"/>
     </g>
    </g>
    <g id="text_21">
     <!-- Act(60) -->
     <g transform="translate(330.90625 124.549062)scale(0.1 -0.1)">
      <use xlink:href="#DejaVuSans-41"/>
      <use x="68.392578" xlink:href="#DejaVuSans-63"/>
      <use x="123.373047" xlink:href="#DejaVuSans-74"/>
      <use x="162.582031" xlink:href="#DejaVuSans-28"/>
      <use x="201.595703" xlink:href="#DejaVuSans-36"/>
      <use x="265.21875" xlink:href="#DejaVuSans-30"/>
      <use x="328.841797" xlink:href="#DejaVuSans-29"/>
     </g>
    </g>
    <g id="PathCollection_15">
     <g>
      <use style="stroke:#000000;" x="312.90625" xlink:href="#m75084fec20" y="136.602187"/>
     </g>
    </g>
    <g id="text_22">
     <!-- Act(avrg) -->
     <defs>
      <path d="M 2.984375 54.6875 
L 12.5 54.6875 
L 29.59375 8.796875 
L 46.6875 54.6875 
L 56.203125 54.6875 
L 35.6875 0 
L 23.484375 0 
z
" id="DejaVuSans-76"/>
      <path d="M 45.40625 27.984375 
Q 45.40625 37.75 41.375 43.109375 
Q 37.359375 48.484375 30.078125 48.484375 
Q 22.859375 48.484375 18.828125 43.109375 
Q 14.796875 37.75 14.796875 27.984375 
Q 14.796875 18.265625 18.828125 12.890625 
Q 22.859375 7.515625 30.078125 7.515625 
Q 37.359375 7.515625 41.375 12.890625 
Q 45.40625 18.265625 45.40625 27.984375 
z
M 54.390625 6.78125 
Q 54.390625 -7.171875 48.1875 -13.984375 
Q 42 -20.796875 29.203125 -20.796875 
Q 24.46875 -20.796875 20.265625 -20.09375 
Q 16.0625 -19.390625 12.109375 -17.921875 
L 12.109375 -9.1875 
Q 16.0625 -11.328125 19.921875 -12.34375 
Q 23.78125 -13.375 27.78125 -13.375 
Q 36.625 -13.375 41.015625 -8.765625 
Q 45.40625 -4.15625 45.40625 5.171875 
L 45.40625 9.625 
Q 42.625 4.78125 38.28125 2.390625 
Q 33.9375 0 27.875 0 
Q 17.828125 0 11.671875 7.65625 
Q 5.515625 15.328125 5.515625 27.984375 
Q 5.515625 40.671875 11.671875 48.328125 
Q 17.828125 56 27.875 56 
Q 33.9375 56 38.28125 53.609375 
Q 42.625 51.21875 45.40625 46.390625 
L 45.40625 54.6875 
L 54.390625 54.6875 
z
" id="DejaVuSans-67"/>
     </defs>
     <g transform="translate(330.90625 139.227187)scale(0.1 -0.1)">
      <use xlink:href="#DejaVuSans-41"/>
      <use x="68.392578" xlink:href="#DejaVuSans-63"/>
      <use x="123.373047" xlink:href="#DejaVuSans-74"/>
      <use x="162.582031" xlink:href="#DejaVuSans-28"/>
      <use x="201.595703" xlink:href="#DejaVuSans-61"/>
      <use x="262.875" xlink:href="#DejaVuSans-76"/>
      <use x="322.054688" xlink:href="#DejaVuSans-72"/>
      <use x="363.152344" xlink:href="#DejaVuSans-67"/>
      <use x="426.628906" xlink:href="#DejaVuSans-29"/>
     </g>
    </g>
    <g id="PathCollection_16">
     <path d="M 312.90625 155.522953 
L 317.148891 151.280312 
L 312.90625 147.037672 
L 308.663609 151.280312 
z
" style="fill:none;stroke:#000000;"/>
    </g>
    <g id="text_23">
     <!-- Exp(avrg) -->
     <g transform="translate(330.90625 153.905312)scale(0.1 -0.1)">
      <use xlink:href="#DejaVuSans-45"/>
      <use x="63.183594" xlink:href="#DejaVuSans-78"/>
      <use x="122.363281" xlink:href="#DejaVuSans-70"/>
      <use x="185.839844" xlink:href="#DejaVuSans-28"/>
      <use x="224.853516" xlink:href="#DejaVuSans-61"/>
      <use x="286.132812" xlink:href="#DejaVuSans-76"/>
      <use x="345.3125" xlink:href="#DejaVuSans-72"/>
      <use x="386.410156" xlink:href="#DejaVuSans-67"/>
      <use x="449.886719" xlink:href="#DejaVuSans-29"/>
     </g>
    </g>
   </g>
  </g>
 </g>
 <defs>
  <clipPath id="p9d053b48f9">
   <rect height="217.44" width="334.8" x="54" y="34.56"/>
  </clipPath>
 </defs>
</svg>
